<svg width="17" height="17" viewBox="0 0 17 17" fill="none" xmlns="http://www.w3.org/2000/svg">
<g clip-path="url(#clip0_320_6803)">
<path d="M6.03373 2.89584C6.72649 1.57543 7.59835 1 8.43576 1C9.27317 1 10.1449 1.57526 10.8377 2.89565L15.3439 11.4862C15.9929 12.7234 16.018 13.8047 15.5745 14.6033C15.1347 15.3801 14.247 15.875 12.942 15.875H3.92951C2.62487 15.875 1.73788 15.3804 1.29779 14.5969C0.859863 13.8042 0.879438 12.7138 1.52748 11.4785L6.03373 2.89584Z" fill="#EBCDCB" stroke="#EBCDCB" stroke-width="1.125"/>
<g filter="url(#filter0_d_320_6803)">
<path d="M8.43672 10.8363C7.99939 10.8363 7.63672 10.5434 7.63672 10.1902V5.88249C7.63672 5.52926 7.99939 5.23633 8.43672 5.23633C8.87405 5.23633 9.23672 5.52926 9.23672 5.88249V10.1902C9.23672 10.5434 8.87405 10.8363 8.43672 10.8363Z" fill="#51526C"/>
<path d="M8.19729 10.1757L8.19824 10.1781M8.19729 5.89698L8.19824 5.89457M8.67683 5.89698L8.67588 5.89457M8.67683 10.1757L8.67588 10.1781M8.43706 10.2738C8.34125 10.2738 8.26737 10.2411 8.2265 10.2081C8.21048 10.1952 8.20288 10.1856 8.19956 10.1804V5.89231C8.20288 5.88703 8.21048 5.87748 8.2265 5.86454C8.26737 5.83153 8.34125 5.79883 8.43706 5.79883C8.53287 5.79883 8.60675 5.83153 8.64762 5.86454C8.66363 5.87748 8.67124 5.88703 8.67456 5.89231V10.1804C8.67124 10.1856 8.66363 10.1952 8.64762 10.2081C8.60675 10.2411 8.53287 10.2738 8.43706 10.2738Z" stroke="#A94B4B" stroke-width="1.125"/>
</g>
<g filter="url(#filter1_d_320_6803)">
<path d="M8.43672 13.2387C8.38872 13.2387 8.33272 13.2307 8.27672 13.2227C8.22872 13.2147 8.18072 13.1987 8.13272 13.1748C8.08472 13.1588 8.03672 13.1348 7.98872 13.1029C7.94872 13.0709 7.90872 13.0389 7.86872 13.007C7.72472 12.8552 7.63672 12.6474 7.63672 12.4397C7.63672 12.232 7.72472 12.0242 7.86872 11.8724C7.90872 11.8404 7.94872 11.8085 7.98872 11.7765C8.03672 11.7446 8.08472 11.7206 8.13272 11.7046C8.18072 11.6806 8.22872 11.6647 8.27672 11.6567C8.38072 11.6327 8.49272 11.6327 8.58872 11.6567C8.64472 11.6647 8.69272 11.6806 8.74072 11.7046C8.78872 11.7206 8.83672 11.7446 8.88472 11.7765C8.92472 11.8085 8.96472 11.8404 9.00472 11.8724C9.14872 12.0242 9.23672 12.232 9.23672 12.4397C9.23672 12.6474 9.14872 12.8552 9.00472 13.007C8.96472 13.0389 8.92472 13.0709 8.88472 13.1029C8.83672 13.1348 8.78872 13.1588 8.74072 13.1748C8.69272 13.1987 8.64472 13.2147 8.58872 13.2227C8.54072 13.2307 8.48472 13.2387 8.43672 13.2387Z" fill="#A94B4B"/>
<path d="M8.45242 12.2024C8.45157 12.2023 8.4458 12.2012 8.43572 12.2012C8.42433 12.2012 8.41274 12.2026 8.40305 12.2048L8.38617 12.2087L8.38043 12.2096L8.34829 12.2257L8.31295 12.2375L8.27984 12.2639L8.25832 12.2811C8.21896 12.332 8.19922 12.3925 8.19922 12.4397C8.19922 12.4869 8.21896 12.5474 8.25832 12.5983L8.27984 12.6155L8.31295 12.6419L8.34829 12.6537L8.37918 12.6691C8.39659 12.6716 8.40979 12.6733 8.42176 12.6746C8.42928 12.6755 8.43408 12.6759 8.43663 12.6761C8.43881 12.6759 8.44264 12.6756 8.44832 12.6749C8.46103 12.6734 8.47733 12.671 8.49701 12.6677L8.52515 12.6537L8.56049 12.6419L8.59359 12.6155L8.61512 12.5983C8.65448 12.5474 8.67422 12.4869 8.67422 12.4397C8.67422 12.3925 8.65448 12.332 8.61512 12.2811L8.59359 12.2639L8.56049 12.2375L8.52515 12.2257L8.49739 12.2118L8.48057 12.2094L8.45242 12.2024ZM8.45242 12.2024C8.45255 12.2024 8.45253 12.2024 8.45242 12.2024Z" stroke="#A94B4B" stroke-width="1.125"/>
</g>
</g>
<defs>
<filter id="filter0_d_320_6803" x="3.63672" y="5.23633" width="9.59961" height="13.5996" filterUnits="userSpaceOnUse" color-interpolation-filters="sRGB">
<feFlood flood-opacity="0" result="BackgroundImageFix"/>
<feColorMatrix in="SourceAlpha" type="matrix" values="0 0 0 0 0 0 0 0 0 0 0 0 0 0 0 0 0 0 127 0" result="hardAlpha"/>
<feOffset dy="4"/>
<feGaussianBlur stdDeviation="2"/>
<feComposite in2="hardAlpha" operator="out"/>
<feColorMatrix type="matrix" values="0 0 0 0 0 0 0 0 0 0 0 0 0 0 0 0 0 0 0.25 0"/>
<feBlend mode="normal" in2="BackgroundImageFix" result="effect1_dropShadow_320_6803"/>
<feBlend mode="normal" in="SourceGraphic" in2="effect1_dropShadow_320_6803" result="shape"/>
</filter>
<filter id="filter1_d_320_6803" x="3.63672" y="11.6387" width="9.59961" height="9.60156" filterUnits="userSpaceOnUse" color-interpolation-filters="sRGB">
<feFlood flood-opacity="0" result="BackgroundImageFix"/>
<feColorMatrix in="SourceAlpha" type="matrix" values="0 0 0 0 0 0 0 0 0 0 0 0 0 0 0 0 0 0 127 0" result="hardAlpha"/>
<feOffset dy="4"/>
<feGaussianBlur stdDeviation="2"/>
<feComposite in2="hardAlpha" operator="out"/>
<feColorMatrix type="matrix" values="0 0 0 0 0 0 0 0 0 0 0 0 0 0 0 0 0 0 0.25 0"/>
<feBlend mode="normal" in2="BackgroundImageFix" result="effect1_dropShadow_320_6803"/>
<feBlend mode="normal" in="SourceGraphic" in2="effect1_dropShadow_320_6803" result="shape"/>
</filter>
<clipPath id="clip0_320_6803">
<rect width="16.8" height="16.8" fill="white"/>
</clipPath>
</defs>
</svg>
