<svg width="30" height="30" viewBox="0 0 30 30" fill="none" xmlns="http://www.w3.org/2000/svg">
<rect width="30" height="30" rx="4" fill="white"/>
<path d="M17.7344 9.53125H12.2656C10.7555 9.53125 9.53125 10.7555 9.53125 12.2656V17.7344C9.53125 19.2445 10.7555 20.4688 12.2656 20.4688H17.7344C19.2445 20.4688 20.4688 19.2445 20.4688 17.7344V12.2656C20.4688 10.7555 19.2445 9.53125 17.7344 9.53125Z" fill="#5000FF"/>
<path d="M17.1863 14.6552C17.2538 15.1103 17.1761 15.5752 16.9641 15.9836C16.7522 16.392 16.4169 16.7232 16.0059 16.93C15.595 17.1369 15.1292 17.2089 14.6749 17.1358C14.2207 17.0627 13.801 16.8482 13.4757 16.5229C13.1503 16.1975 12.9358 15.7779 12.8627 15.3236C12.7896 14.8693 12.8617 14.4036 13.0685 13.9926C13.2754 13.5816 13.6066 13.2463 14.015 13.0344C14.4234 12.8225 14.8882 12.7447 15.3433 12.8122C15.8076 12.8811 16.2374 13.0974 16.5693 13.4293C16.9011 13.7611 17.1175 14.191 17.1863 14.6552Z" stroke="white" stroke-width="1.16667" stroke-linecap="round" stroke-linejoin="round"/>
<path d="M18.0068 11.9922H18.0127" stroke="white" stroke-width="1.16667" stroke-linecap="round" stroke-linejoin="round"/>
</svg>
