<svg width="30" height="30" viewBox="0 0 30 30" fill="none" xmlns="http://www.w3.org/2000/svg">
<rect width="30" height="30" rx="4" fill="white"/>
<path d="M20.5992 9.38477C19.0914 8.15967 17.1123 7.5 15.2276 7.5C13.2486 7.5 11.3638 8.15967 9.85597 9.38477C8.34815 10.5156 7.5 12.1177 7.5 13.9082C7.5 15.5103 8.25391 17.1123 9.47901 18.2432C10.7984 19.3741 12.4004 20.0337 14.0967 20.128V22.7667C14.0967 22.9551 14.2852 23.0494 14.3794 23.0494C14.4737 23.0494 14.4737 23.0494 14.5679 22.9551L19.3741 19.2798C20.3165 18.6202 21.1646 17.772 21.8243 16.9239C22.484 16.0757 22.8609 15.0391 22.8609 13.9082C22.8609 12.1177 22.0128 10.5156 20.5992 9.38477Z" fill="#5000FF"/>
<path d="M17.3 12.0234C17.3 11.7407 17.1115 11.5522 16.923 11.5522C16.7345 11.5522 16.5461 11.7407 16.5461 12.0234C16.5461 12.5889 16.5461 13.0601 16.5461 13.6255C16.5461 13.7197 16.5461 13.814 16.5461 13.9082C16.4518 13.814 16.4518 13.7197 16.3576 13.7197C15.8864 13.0601 15.4152 12.4946 14.944 11.835C14.8498 11.6465 14.6613 11.5522 14.4728 11.6465C14.2843 11.6465 14.0959 11.835 14.1901 12.0234C14.1901 13.0601 14.1901 14.0025 14.1901 15.0391C14.1901 15.2276 14.2843 15.3218 14.3786 15.416C14.6613 15.5103 14.944 15.3218 14.944 14.9448C14.944 14.4736 14.944 14.0025 14.944 13.437V13.2485C15.0383 13.2485 15.0383 13.3428 15.1325 13.437C15.6037 14.0967 16.0749 14.6621 16.5461 15.3218C16.6403 15.5103 16.8288 15.6045 17.0173 15.5103C17.2057 15.416 17.3 15.2276 17.3 15.0391C17.3 14.0025 17.3 13.0601 17.3 12.0234Z" fill="white"/>
<path d="M18.8086 12.4004C18.9028 12.4004 18.9971 12.4004 19.0913 12.4004C19.374 12.4004 19.6567 12.4004 19.9395 12.4004C20.0337 12.4004 20.1279 12.4004 20.2222 12.3062C20.4107 12.2119 20.5049 12.0234 20.4107 11.835C20.4107 11.6465 20.2222 11.5522 20.0337 11.5522C19.5625 11.5522 18.9971 11.5522 18.5259 11.5522C18.1489 11.5522 18.0547 11.7407 18.0547 12.0234C18.0547 12.9658 18.0547 13.9082 18.0547 14.8506C18.0547 15.2276 18.2432 15.3218 18.5259 15.3218C18.9971 15.3218 19.4683 15.3218 19.9395 15.3218C20.0337 15.3218 20.1279 15.3218 20.1279 15.3218C20.3164 15.2276 20.4107 15.0391 20.4107 14.8506C20.4107 14.7564 20.3164 14.6621 20.2222 14.5679C20.1279 14.5679 20.0337 14.5679 19.9395 14.5679C19.5625 14.5679 19.1856 14.5679 18.9028 14.5679V14.0025C18.9971 14.0025 18.9971 14.0025 19.0913 14.0025C19.4683 14.0025 19.751 14.0025 20.1279 14.0025C20.4107 14.0025 20.5991 13.814 20.5991 13.6255C20.5991 13.437 20.4107 13.2485 20.1279 13.2485C19.9395 13.2485 19.751 13.2485 19.5625 13.2485C18.7144 13.1543 18.7144 13.1543 18.8086 12.4004C18.8086 12.4946 18.8086 12.4004 18.8086 12.4004Z" fill="white"/>
<path d="M11.9287 14.7564C11.8345 14.7564 11.7402 14.7564 11.7402 14.7564H10.7036V14.3794C10.7036 13.6255 10.7036 12.8716 10.7036 12.1177C10.7036 11.835 10.5151 11.6465 10.3267 11.6465C10.1382 11.6465 9.85547 11.835 9.85547 12.1177C9.85547 13.0601 9.85547 14.0967 9.85547 15.0391C9.85547 15.2276 9.94971 15.5103 10.2324 15.5103H10.3267C10.6094 15.5103 11.646 15.5103 11.9287 15.5103C12.1172 15.5103 12.3057 15.3218 12.3057 15.1333C12.3057 14.9448 12.1172 14.7564 11.9287 14.7564Z" fill="white"/>
<path d="M13.5313 12.0234C13.5313 11.7407 13.437 11.6465 13.1543 11.6465C12.8716 11.6465 12.7773 11.7407 12.7773 12.0234C12.7773 13.0601 12.7773 14.0967 12.7773 15.1333C12.7773 15.416 12.8716 15.5103 13.1543 15.5103C13.437 15.5103 13.5313 15.416 13.5313 15.1333C13.5313 14.6621 13.5313 14.0967 13.5313 13.6255C13.5313 13.1543 13.5313 12.4946 13.5313 12.0234Z" fill="white"/>
</svg>
