<svg width="190" height="44" viewBox="0 0 190 44" fill="none" xmlns="http://www.w3.org/2000/svg">
<g clip-path="url(#clip0_324_7024)">
<path d="M176.58 8.59991C176.58 8.59991 175.615 12.5365 175.47 13.0628C175.385 13.5455 175.437 14.0422 175.62 14.4968L176.875 18.4281C176.875 18.4281 177.615 20.5065 175.502 21.1134L173.003 21.2745V19.3142H174.451C175.288 19.2713 175.025 18.3851 175.025 18.3851L173.706 14.7546C173.45 14.2301 173.398 13.6288 173.561 13.0682C173.733 12.5311 174.633 9.0403 174.633 9.0403H172.446V25.8341H170.494V7.23578H175.363C176.918 7.23578 176.58 8.59991 176.58 8.59991ZM179.207 17.7729H177.18V15.9469H188.172C188.172 15.9469 189.244 15.8985 189.185 16.8867C189.18 17.0126 189.149 17.1362 189.095 17.2498C189.04 17.3635 188.963 17.4648 188.869 17.5477C188.774 17.6306 188.663 17.6933 188.543 17.732C188.424 17.7707 188.297 17.7846 188.172 17.7729H185.974C185.974 17.7729 185.223 17.7353 185.223 18.6644V23.079C185.223 23.557 185.464 23.7933 185.958 23.7933H189.175C189.286 23.7939 189.396 23.817 189.498 23.8612C189.6 23.9055 189.692 23.9699 189.769 24.0506C189.845 24.1314 189.905 24.2268 189.944 24.3312C189.983 24.4355 190 24.5467 189.995 24.658C190.008 24.7707 189.996 24.8849 189.96 24.9924C189.923 25.1 189.864 25.1982 189.786 25.2802C189.708 25.3622 189.612 25.426 189.507 25.467C189.401 25.5079 189.288 25.5251 189.175 25.5173H185.421C184.852 25.5607 184.288 25.3839 183.845 25.0232C183.496 24.7009 183.309 24.0565 183.309 23.1005V18.6107C183.321 18.5023 183.309 18.3926 183.274 18.2894C183.239 18.1862 183.181 18.0922 183.105 18.0141C183.029 17.9359 182.937 17.8757 182.835 17.8377C182.733 17.7997 182.624 17.7849 182.515 17.7943C181.818 17.7943 181.824 18.5838 181.818 18.6429C181.684 20.4259 181.432 21.6773 180.633 22.8696C179.834 24.0618 178.489 25.05 176.649 25.8556L175.411 24.1263C177.116 23.5391 178.299 22.789 178.96 21.876C179.589 20.9187 179.928 19.7996 179.936 18.6536C179.936 18.6536 180.081 17.7729 179.207 17.7729ZM187.25 14.0134H178.746V13.0199H177.137V8.41194H181.427C181.963 8.41194 181.706 7.98229 181.706 7.98229L181.057 6.72557L183.078 6.47852L183.802 7.93395C183.873 8.07442 183.981 8.19297 184.114 8.2771C184.248 8.36123 184.401 8.40782 184.558 8.41194H187.904C188.032 8.40947 188.159 8.43457 188.277 8.48552C188.394 8.53648 188.499 8.6121 188.585 8.7073C188.671 8.8025 188.736 8.91505 188.775 9.03735C188.813 9.15965 188.825 9.28885 188.81 9.41624V13.0414H187.234L187.25 14.0134ZM186.912 10.2218H179.057V12.2787H186.896L186.912 10.2218Z" fill="#202020"/>
<path d="M57.0767 15.0178L56.0044 21.4625L54.5781 20.5334C54.5781 20.5334 55.5915 15.2595 55.6505 14.8943L57.0767 15.0178ZM62.2401 13.4603C62.1672 13.4495 62.0928 13.4559 62.0228 13.479C61.9527 13.5021 61.8891 13.5414 61.837 13.5936C61.7849 13.6458 61.7457 13.7095 61.7226 13.7797C61.6995 13.8498 61.6931 13.9244 61.7039 13.9974V23.2832C61.7459 23.8006 61.595 24.3153 61.2804 24.7279C61.0719 24.9095 60.8277 25.0455 60.5636 25.1269C60.2995 25.2083 60.0213 25.2333 59.7469 25.2005H58.6156L58.2617 23.3423L59.393 23.4282C59.8434 23.4282 60.0632 23.2134 60.0632 22.7783V13.8363C60.0706 13.7847 60.0657 13.7322 60.0491 13.6828C60.0325 13.6335 60.0045 13.5887 59.9675 13.5522C59.9305 13.5156 59.8854 13.4883 59.8359 13.4723C59.7865 13.4564 59.7339 13.4523 59.6825 13.4603C59.6338 13.4586 59.5851 13.4673 59.54 13.4859C59.4948 13.5044 59.4541 13.5325 59.4206 13.568C59.3871 13.6036 59.3616 13.646 59.3457 13.6922C59.3299 13.7385 59.3241 13.7876 59.3287 13.8363C59.3287 14.2874 59.3287 14.2606 59.3287 14.513V14.9319C59.3945 17.0263 59.1781 19.12 58.6853 21.1564C58.1677 22.8006 57.3314 24.3264 56.2242 25.6462L54.7926 24.5292C55.8459 23.4098 56.6355 22.0683 57.1035 20.6032C57.5218 19.223 57.7309 16.9083 57.7309 14.1585C57.7309 13.4174 57.1571 13.4657 57.1571 13.4657H54.8569V11.7417H58.2027C58.2027 11.7417 58.7121 11.7954 58.7121 11.2047V10.6676C58.7165 10.5944 58.7058 10.5211 58.6809 10.4522C58.6559 10.3833 58.6171 10.3202 58.5669 10.2669C58.5166 10.2135 58.456 10.1711 58.3888 10.1421C58.3215 10.1131 58.2491 10.0982 58.1759 10.0983H55.4682V8.34212H58.3207C58.3892 8.34238 58.4571 8.32832 58.5199 8.30085C58.5827 8.27338 58.6391 8.23309 58.6856 8.18256C58.732 8.13202 58.7673 8.07236 58.7895 8.00736C58.8116 7.94236 58.8199 7.87346 58.8139 7.80506V6.47852H60.6209V7.92321C60.6209 7.92321 60.5565 8.34212 61.0444 8.34212H62.653C62.7774 8.32767 62.9035 8.33985 63.0229 8.37787C63.1423 8.41588 63.2523 8.47886 63.3455 8.56263C63.4388 8.64641 63.5132 8.74906 63.5639 8.86382C63.6146 8.97857 63.6404 9.10279 63.6396 9.22827C63.6396 10.1198 62.653 10.05 62.653 10.05H61.2589C61.1857 10.0499 61.1133 10.0648 61.046 10.0937C60.9788 10.1227 60.9182 10.1652 60.8679 10.2185C60.8177 10.2719 60.7789 10.3349 60.7539 10.4039C60.729 10.4728 60.7183 10.5461 60.7227 10.6193V11.2799C60.7227 11.2799 60.7227 11.7149 61.2589 11.7149H62.9318C63.0507 11.7028 63.1709 11.716 63.2844 11.7535C63.398 11.7909 63.5024 11.8519 63.5909 11.9325C63.6794 12.013 63.75 12.1113 63.7981 12.2209C63.8462 12.3305 63.8707 12.4491 63.8701 12.5688C63.8701 13.4442 62.9318 13.4603 62.9318 13.4603H62.2401ZM63.9452 18.4496L62.4546 18.9061L61.7629 15.3347L63.1463 14.9963L63.9452 18.4496ZM66.047 15.4206L65.1784 22.0211L63.6771 20.8181L64.5189 15.1628L66.047 15.4206ZM71.3605 13.4603C71.2971 13.4565 71.2336 13.4669 71.1747 13.4907C71.1157 13.5144 71.0628 13.551 71.0197 13.5978C70.9766 13.6446 70.9444 13.7003 70.9255 13.7611C70.9065 13.8218 70.9013 13.886 70.9101 13.9491V23.0791V23.5571C70.9479 24.0708 70.7973 24.5806 70.4865 24.991C70.2767 25.1762 70.0302 25.3149 69.7632 25.3982C69.4962 25.4815 69.2147 25.5074 68.937 25.4744H67.8003L67.4196 23.6215L68.5778 23.7021C69.0281 23.7021 69.248 23.4873 69.248 23.0522V13.8148C69.248 13.8148 69.248 13.4603 68.7922 13.4603C68.3365 13.4603 68.3686 13.8148 68.3686 13.8148V14.9319C68.4362 17.0263 68.2197 19.1203 67.7252 21.1564C67.1795 22.8419 66.3148 24.4064 65.1784 25.7644L63.7039 24.6312C64.7787 23.5008 65.5996 22.153 66.1113 20.6784C66.5564 19.3143 66.7708 14.8674 66.7708 14.0243C66.7708 13.369 66.2347 13.4872 66.2347 13.4872H64.4277V11.7417H67.1086C67.1765 11.7502 67.2454 11.744 67.3107 11.7235C67.376 11.7029 67.4361 11.6686 67.4869 11.6227C67.5378 11.5769 67.5782 11.5206 67.6054 11.4578C67.6327 11.3949 67.6461 11.3269 67.6448 11.2584V10.6676C67.6536 10.587 67.6439 10.5054 67.6167 10.429C67.5894 10.3526 67.5453 10.2833 67.4875 10.2265C67.4297 10.1696 67.3598 10.1266 67.283 10.1007C67.2063 10.0748 67.1246 10.0666 67.0443 10.0769H64.7441V8.34212H67.2641C67.3293 8.35062 67.3955 8.34421 67.4578 8.32336C67.5201 8.30251 67.5769 8.26777 67.6239 8.22175C67.6709 8.17573 67.7068 8.11964 67.729 8.0577C67.7512 7.99575 67.7591 7.92957 67.752 7.86413V6.47852H69.559V7.90173C69.559 7.90173 69.559 8.34212 69.945 8.34212H72.39C72.4973 8.3393 72.6039 8.35938 72.7028 8.40103C72.8017 8.44269 72.8907 8.50496 72.9637 8.5837C73.0367 8.66245 73.0922 8.75586 73.1264 8.85774C73.1606 8.95961 73.1728 9.06762 73.1621 9.17456C73.1777 9.28496 73.1691 9.39743 73.1369 9.50416C73.1048 9.6109 73.0498 9.70934 72.9758 9.79264C72.9018 9.87594 72.8106 9.94211 72.7085 9.98655C72.6064 10.031 72.4959 10.0527 72.3846 10.05H70.1005C70.0439 10.0405 69.9859 10.0442 69.931 10.061C69.8761 10.0778 69.8259 10.1072 69.7842 10.1468C69.7426 10.1864 69.7108 10.2351 69.6912 10.2892C69.6717 10.3432 69.6649 10.4011 69.6716 10.4582V11.2638C69.6716 11.7632 70.2077 11.7149 70.2077 11.7149H72.8618C72.9771 11.7034 73.0935 11.7175 73.2027 11.7562C73.3119 11.7949 73.4113 11.8572 73.4937 11.9388C73.5761 12.0203 73.6396 12.119 73.6796 12.2279C73.7196 12.3368 73.7351 12.4532 73.7251 12.5688C73.7287 12.6846 73.709 12.7999 73.6672 12.908C73.6255 13.016 73.5624 13.1145 73.4819 13.1977C73.4014 13.2808 73.305 13.3469 73.1985 13.392C73.092 13.4372 72.9775 13.4604 72.8618 13.4603H71.3605ZM71.9932 22.7783L71.4034 15.5441L72.9798 15.2917L73.6983 22.3433L71.9932 22.7783Z" fill="#202020"/>
<path d="M80.5403 20.5337L79.6449 25.6357H77.9023L78.8138 20.3242L80.5403 20.5337Z" fill="#202020"/>
<path d="M84.2566 9.48654L85.8222 10.174L81.5971 17C81.5971 17 81.1628 17.5371 81.6293 17.5371C82.4014 17.4834 84.1654 17.2632 84.1601 17.2256C84.1011 17.0645 83.5703 15.695 83.5703 15.695L84.9536 15.2814L86.4817 19.0409L84.9214 19.5779L84.5944 18.7885L79.4042 19.3255C79.4042 19.3255 78.0905 19.4598 78.6964 18.4179L81.7955 13.681L79.3505 13.9388C79.3505 13.9388 78.0476 14.0784 78.364 13.0956C78.364 13.0312 81.3773 6.52734 81.3773 6.52734L83.1306 6.99458L80.8143 11.7422C80.8143 11.7422 80.573 12.2041 81.1146 12.1665C81.6561 12.1289 82.7767 11.9463 82.7767 11.9463" fill="#202020"/>
<path d="M81.461 25.1953L81.2305 20.3886L82.8015 20.1738L83.2036 24.9912L81.461 25.1953Z" fill="#202020"/>
<path d="M84.1916 23.7515L83.7305 19.9653L85.1621 19.6484L85.7519 23.3111L84.1916 23.7515Z" fill="#202020"/>
<path d="M85.8477 8.56967V6.91016H96.1691C96.1691 6.91016 97.2415 6.91016 97.2415 7.68889C97.2415 8.67709 96.1691 8.59653 96.1691 8.59653L85.8477 8.56967Z" fill="#202020"/>
<path d="M89.8684 18.0963H86.2975V16.3025H90.0507C90.1047 16.3018 90.158 16.2904 90.2075 16.2689C90.2571 16.2474 90.3018 16.2162 90.3392 16.1773C90.3767 16.1383 90.406 16.0923 90.4255 16.0418C90.445 15.9914 90.4543 15.9376 90.4529 15.8836V14.498H92.3027V15.9588C92.3027 15.9588 92.3027 16.3025 92.6083 16.3025H96.2168C96.3366 16.2934 96.4569 16.3096 96.57 16.3501C96.6832 16.3906 96.7865 16.4544 96.8735 16.5374C96.9604 16.6205 97.029 16.7209 97.0747 16.8321C97.1205 16.9434 97.1424 17.063 97.139 17.1833C97.142 17.3049 97.1201 17.4259 97.0747 17.5387C97.0293 17.6516 96.9613 17.7539 96.8749 17.8394C96.7885 17.9249 96.6856 17.9919 96.5724 18.036C96.4592 18.0802 96.3382 18.1007 96.2168 18.0963C96.2168 18.0963 93.4179 18.0963 92.8925 18.0963C92.367 18.0963 92.6512 18.4991 92.6512 18.4991L97.0961 25.7064H94.6083L92.3027 21.3186V25.8407H90.4529V21.3133L87.1446 25.7816H84.957L89.9542 18.6548C90.1526 18.3863 90.3671 18.0963 89.8684 18.0963Z" fill="#202020"/>
<path d="M87.3866 14.7712L86.1855 11.0225L87.9549 10.5391L89.3168 14.2825L87.3866 14.7712Z" fill="#202020"/>
<path d="M90.6428 13.7785L90.2031 10.2447L92.01 10.0137L92.5516 13.5906L90.6428 13.7785Z" fill="#202020"/>
<path d="M96.9047 10.4116L95.0764 14.8907L93.2266 14.0528L95.1622 9.7832L96.9047 10.4116Z" fill="#202020"/>
<path d="M103.675 8.87381C103.675 8.87381 104.618 8.92752 104.114 8.03063L103.482 6.72557L105.369 6.47852L105.937 7.75673C105.937 7.75673 106.404 8.88455 107.208 8.88455C108.012 8.88455 108.088 8.88455 108.088 8.88455C108.088 8.88455 109.112 8.83622 109.112 9.75996C109.11 9.889 109.082 10.0163 109.028 10.1336C108.975 10.251 108.897 10.3558 108.801 10.4413C108.704 10.5268 108.591 10.5911 108.468 10.6301C108.345 10.6691 108.216 10.6818 108.088 10.6676H101.117V8.87381H103.675ZM101.696 11.9673H107.348C107.348 11.9673 108.377 11.9404 108.377 12.8427C108.377 13.7449 107.348 13.6912 107.348 13.6912H101.696V11.9673ZM101.696 15.0392H107.364C107.364 15.0392 108.436 14.9909 108.436 15.92C108.436 16.8491 107.364 16.7632 107.364 16.7632H101.696V15.0392ZM101.761 18.3261H107.305C107.305 18.3261 108.42 18.2079 108.42 19.513V25.6193H106.527V24.6741H103.648V25.8342H101.761V18.3261ZM106.527 20.0232H103.648V22.9716H106.527V20.0232ZM117.937 8.30453V11.5698C117.895 11.888 117.965 12.2109 118.136 12.4828C118.355 12.6433 118.627 12.7143 118.897 12.6815H119.272C119.272 12.6815 120.221 12.6815 120.221 13.5355C120.221 14.3894 119.272 14.4538 119.272 14.4538H118.2C117.59 14.4932 116.987 14.3015 116.511 13.9168C116.136 13.5784 115.975 12.9232 115.975 11.9404V8.80937H113.074V9.48606C113.103 10.4626 112.921 11.4338 112.538 12.3325C111.928 13.4048 111.12 14.3508 110.157 15.1198L108.624 13.7557C109.475 13.1752 110.183 12.4073 110.693 11.5108C111.064 10.4346 111.221 9.29606 111.154 8.15952V7.04244H116.752C116.752 7.04244 117.937 6.90817 117.937 8.30453ZM119.047 17.0693C119.047 18.514 118.999 20.1359 118.28 21.3658C117.827 22.202 117.204 22.9338 116.452 23.5141C117.311 23.7735 118.203 23.9092 119.101 23.9169C119.223 23.9065 119.345 23.9215 119.461 23.961C119.577 24.0005 119.683 24.0637 119.773 24.1464C119.864 24.2292 119.936 24.3298 119.985 24.4419C120.034 24.554 120.06 24.6751 120.06 24.7976C120.06 25.7214 119.042 25.6892 119.042 25.6892C117.484 25.7222 115.94 25.397 114.527 24.7386C113.058 25.6623 109.117 25.6301 109.117 25.6301V23.7557C110.28 23.8644 111.454 23.7328 112.565 23.3691C112.005 22.7309 111.521 22.0298 111.122 21.2799C110.682 20.2769 110.4 19.2116 110.286 18.122H112.141C112.16 18.7906 112.261 19.4543 112.441 20.0984C112.821 21.1865 113.584 22.099 114.586 22.6655C115.374 22.1939 116.025 21.5235 116.473 20.7213C117.069 19.47 116.902 17.311 116.902 17.311H109.508V15.5602H117.219C117.219 15.5602 119.047 15.3346 119.047 17.0693Z" fill="#202020"/>
<path d="M133.213 9.80976C133.213 10.653 132.291 10.7067 132.291 10.7067H123.932V8.91823H126.875C126.875 8.91823 127.776 8.98806 127.481 8.38118C127.186 7.7743 126.639 6.70018 126.639 6.70018L128.677 6.45312L129.562 8.33821C129.629 8.51303 129.752 8.66054 129.913 8.7577C130.073 8.85486 130.26 8.89621 130.446 8.87528H132.312C132.434 8.87288 132.555 8.89565 132.667 8.94219C132.78 8.98872 132.881 9.05802 132.966 9.14573C133.051 9.23344 133.116 9.33769 133.159 9.45195C133.201 9.5662 133.22 9.68802 133.213 9.80976ZM124.58 12.0547H131.669C131.784 12.0466 131.9 12.0636 132.009 12.1046C132.117 12.1456 132.216 12.2096 132.297 12.2922C132.379 12.3749 132.441 12.4742 132.481 12.5833C132.521 12.6925 132.536 12.809 132.527 12.9247C132.54 13.0369 132.528 13.1508 132.49 13.2573C132.453 13.3639 132.391 13.4603 132.31 13.5389C132.229 13.6175 132.131 13.6762 132.023 13.7103C131.916 13.7445 131.802 13.7532 131.69 13.7357H124.602L124.58 12.0547ZM124.58 15.1482H131.626C131.626 15.1482 132.569 15.1482 132.569 15.9752C132.569 16.8023 131.626 16.8077 131.626 16.8077H124.602L124.58 15.1482ZM124.645 18.4296H131.229C131.397 18.4105 131.566 18.4297 131.725 18.4857C131.884 18.5417 132.029 18.6331 132.147 18.753C132.266 18.873 132.356 19.0183 132.411 19.1781C132.465 19.3379 132.483 19.508 132.462 19.6756C132.462 20.841 132.462 25.6208 132.462 25.6208H130.446V24.7186H126.661V25.8357H124.666L124.645 18.4296ZM130.425 20.0408H126.639V23.0483H130.425V20.0408ZM139.4 6.45312V11.7432C139.394 11.8382 139.408 11.9334 139.441 12.0225C139.475 12.1116 139.527 12.1927 139.593 12.2602C139.66 12.3278 139.741 12.3803 139.83 12.4143C139.918 12.4483 140.013 12.463 140.108 12.4575H142.355C142.481 12.4414 142.61 12.4542 142.731 12.4949C142.852 12.5356 142.962 12.6032 143.053 12.6925C143.144 12.7818 143.214 12.8907 143.258 13.0108C143.301 13.131 143.317 13.2595 143.304 13.3866C143.313 13.5153 143.295 13.6444 143.251 13.7657C143.207 13.8869 143.138 13.9975 143.048 14.0902C142.959 14.1829 142.851 14.2557 142.731 14.3038C142.612 14.3519 142.483 14.3743 142.355 14.3694H140.033C139.288 14.3694 139.4 15.1589 139.4 15.1589V25.8357H137.341V15.0139C137.349 14.9214 137.334 14.8285 137.299 14.7427C137.264 14.6568 137.209 14.5803 137.139 14.5193C137.07 14.4583 136.987 14.4144 136.897 14.3912C136.807 14.368 136.714 14.366 136.623 14.3855H133.47V12.4736H136.72C136.809 12.4788 136.898 12.4639 136.981 12.4299C137.063 12.3959 137.137 12.3436 137.197 12.2771C137.257 12.2105 137.301 12.1314 137.326 12.0455C137.351 11.9595 137.356 11.8691 137.341 11.7808V6.47999L139.4 6.45312Z" fill="#202020"/>
<path d="M161.491 17.6509C161.491 17.6509 162.676 17.5864 162.729 18.4887C162.783 19.5628 161.491 19.8152 161.491 19.8152L158.086 20.9538H165.384C165.384 20.9538 166.558 20.841 166.585 21.7486C166.611 22.6563 165.384 22.6079 165.384 22.6079H158.086V23.8915C158.086 25.0551 157.462 25.637 156.215 25.637H152.955V23.9721L155.545 24.0634C155.628 24.0764 155.714 24.0693 155.794 24.0428C155.875 24.0162 155.948 23.971 156.008 23.9107C156.067 23.8505 156.112 23.7769 156.138 23.6961C156.163 23.6153 156.17 23.5295 156.156 23.4457V22.6079H147.25V20.943H156.156C156.212 20.6795 156.33 20.4329 156.499 20.2234C156.74 19.9871 156.917 19.9119 157.727 19.6863L159.743 19.1493H151.11V17.6509H161.491ZM164.349 16.7647H149.539V19.7991H147.69V15.986C147.676 15.8655 147.691 15.7435 147.734 15.63C147.777 15.5165 147.845 15.4147 147.935 15.3329C148.024 15.2512 148.132 15.1919 148.249 15.1597C148.365 15.1276 148.488 15.1237 148.607 15.1482V7.24796L153.003 6.65182L153.904 8.1717L150.381 8.70877V9.78289H153.529V11.2061H150.381V12.3662H153.529V13.7948H150.381V15.1643H163.427V13.7679H160.478V12.3393H163.427V11.2061H160.478V9.77215H163.427V8.65506H160.247V7.04388H164.027C164.027 7.04388 165.191 6.99017 165.191 8.38116V15.1374C165.191 15.1374 166.172 15.0193 166.172 16.1578V19.7991H164.327L164.349 16.7647ZM157.244 9.36935L154.992 10.7657L153.963 9.3962L156.017 8.32208L154.907 7.24796L155.979 6.28125L157.357 7.58631L158.74 6.61423L159.7 7.64002L158.456 8.52079L159.657 9.63788L158.413 10.4865L157.244 9.36935ZM157.277 13.596L155.132 14.8635L154.258 13.5692L156.124 12.4951L155.051 11.421L156.317 10.5778L157.427 11.7539L159.035 10.6798L159.936 11.8237L158.585 12.6938L159.657 13.8162L158.445 14.7776L157.277 13.596Z" fill="#202020"/>
<path d="M14.316 25.8519C13.7481 24.004 12.6678 22.3556 11.2008 21.0989C10.7665 20.7767 10.3 20.433 9.80135 20.0785L9.16866 19.6328L8.63248 19.2676L8.47699 19.1601L7.85502 18.7251L7.54404 18.4942L7.12046 18.1881C4.76663 16.4641 3.01332 14.9657 2.17152 13.7734L0.504009 18.8862L0.289537 19.5468V19.579L0 20.4759C0.00275447 20.5941 0.0207782 20.7115 0.0536191 20.825C0.407497 21.9797 2.45034 23.795 6.88454 26.9099L7.12582 27.0818L7.58693 27.4094L8.04805 27.737C10.9595 29.8315 12.9594 31.4535 13.9085 32.8015C13.9246 32.8308 13.9444 32.8579 13.9675 32.882C14.9078 30.6532 15.0312 28.1631 14.316 25.8519Z" fill="#202020"/>
<path d="M13.4163 34.1597C13.1375 33.0641 11.2555 31.2739 7.77032 28.7891C7.77032 28.8696 7.72206 28.9502 7.68989 29.0308C5.88297 34.541 5.36287 37.4035 6.01701 38.2521C6.1211 38.3063 6.23758 38.3323 6.35481 38.3273C7.7167 38.338 10.5906 36.3294 13.4163 34.1597Z" fill="#202020"/>
<path d="M8.82056 18.0877C9.97334 17.6151 11.287 13.6784 12.1341 10.8535H11.3352C5.68927 10.8535 2.93868 11.2616 2.44539 12.1693C2.20411 13.4206 6.45601 16.4604 8.82056 18.0877Z" fill="#202020"/>
<path d="M22.6094 8.6443C23.2824 9.5923 24.1763 10.3613 25.2135 10.8845C26.2508 11.4077 27.3999 11.6693 28.561 11.6465C29.4012 11.6379 30.2363 11.5151 31.0435 11.2813C30.8987 10.8463 30.7539 10.3898 30.5984 9.91177L30.3786 9.21896C29.0811 5.16415 27.5851 1.00193 26.2608 0.744141C24.99 0.964336 23.4726 5.71732 22.6094 8.6443Z" fill="#202020"/>
<path d="M30.2683 34.4869C30.2291 34.4835 30.1896 34.4835 30.1503 34.4869C28.8313 34.4869 26.2041 36.2646 23.373 38.4128L23.6465 38.6061C27.8394 41.6835 30.3487 43.1121 31.5337 43.1121C31.6805 43.1137 31.8256 43.0806 31.9573 43.0154C32.8527 42.1024 31.2173 37.2044 30.2683 34.4869Z" fill="#202020"/>
<path d="M36.9802 28.5539C35.5003 24.4669 35.1464 23.2639 34.5513 21.2714C34.4494 20.9169 34.3904 20.7343 34.2617 20.3047C32.7666 21.5744 31.6188 23.2046 30.9267 25.0415C30.4212 26.2861 30.1661 27.6185 30.1761 28.9621C30.1761 29.0212 30.1761 29.0749 30.1761 29.1339C30.1761 29.193 30.1761 29.2575 30.1761 29.3219C30.1761 29.3864 30.1761 29.3702 30.1761 29.3917C30.202 31.0091 30.5674 32.6029 31.2484 34.0695C31.3128 34.2414 31.3771 34.4186 31.4361 34.6066C31.538 34.9073 31.6345 35.192 31.7363 35.4766C32.7015 38.3338 33.2805 40.5304 33.2644 42.0073L36.578 39.5207L37.5539 38.7903L38.1276 38.3553L38.8997 37.7752C39.8005 36.8461 38.4386 32.5926 36.9802 28.5539Z" fill="#202020"/>
<path d="M22.4929 31.1641C20.5594 31.1719 18.6681 31.7308 17.0399 32.7752C16.6056 33.0975 16.1445 33.4466 15.662 33.8494L15.0453 34.322L14.5413 34.7087L14.3912 34.8268L13.8068 35.2779L13.4958 35.5143L13.0776 35.8257C10.7345 37.5712 8.82031 38.8172 7.41016 39.2683L11.7693 42.3564L12.3376 42.7538H12.3698L13.1312 43.2909C13.2441 43.3252 13.3617 43.3415 13.4797 43.3392C14.6861 43.3392 17.0185 41.9214 21.2865 38.5862L21.5224 38.4036L21.9728 38.0599L22.4178 37.7162C25.2703 35.5357 27.4043 34.1018 28.9699 33.5916L29.0611 33.554C27.2215 32.0066 24.8951 31.1601 22.4929 31.1641Z" fill="#202020"/>
<path d="M19.2347 0.83056H18.5215H17.5511C16.5699 0.997049 15.3581 3.65013 13.6959 9.42353L13.6048 9.7404C13.5512 9.923 13.5029 10.1056 13.4493 10.2775C13.3957 10.4493 13.3421 10.6427 13.2884 10.8145C12.259 14.2947 11.3636 16.7222 10.3984 18.0541H10.9024H11.3421C13.4142 17.998 15.4206 17.3134 17.096 16.0908C18.7713 14.8681 20.0368 13.165 20.7252 11.2066C20.811 10.938 20.8915 10.6695 20.9719 10.3849C21.0523 10.1002 21.1703 9.73503 21.2614 9.40742C21.2637 9.3968 21.2637 9.38581 21.2614 9.37519C21.3258 9.14963 21.3901 8.94017 21.4544 8.71998C21.4544 8.63942 21.5027 8.55349 21.5295 8.46756C21.5885 8.25274 21.6582 8.02717 21.7225 7.81772C21.7869 7.60826 21.8566 7.38807 21.9209 7.16787C21.9209 7.09269 21.9692 7.0175 21.9906 6.94231C22.9021 4.01533 23.7171 1.92079 24.5911 0.75L19.2347 0.83056Z" fill="#202020"/>
<path d="M40.7324 10.9379C40.1641 10.8896 39.5957 10.8574 39.0381 10.8574C37.0214 10.8704 35.0177 11.1817 33.0919 11.7811C32.8613 11.851 32.62 11.9154 32.4109 11.9852L31.9176 12.1463L31.7997 12.1839L31.3975 12.3021C30.483 12.5718 29.5359 12.7145 28.5826 12.7264C26.8179 12.7411 25.0916 12.2104 23.639 11.2065C23.5211 11.1259 23.3978 11.04 23.2852 10.9487C23.2873 10.9701 23.2873 10.9917 23.2852 11.0131C23.6252 12.9077 24.5712 14.6401 25.9804 15.9489C27.3896 17.2577 29.1856 18.072 31.0973 18.2688C31.3964 18.3013 31.6972 18.3174 31.9981 18.3172C32.5378 18.3142 33.0762 18.2621 33.6066 18.1614C33.9712 18.0701 34.3144 17.9842 34.6361 17.9144C35.608 17.6816 36.6088 17.5929 37.6065 17.6512C39.1111 17.7854 40.6005 18.055 42.0568 18.4568L46.8877 12.2806C44.8971 11.5877 42.8305 11.1369 40.7324 10.9379Z" fill="#202020"/>
<path d="M56.0836 33.7617H56.8611L58.4696 37.94H57.6868L57.2954 36.8337H55.6279L55.2365 37.94H54.4805L56.0836 33.7617ZM55.8263 36.2805H57.1024L56.4751 34.4814L55.8263 36.2805Z" fill="#202020"/>
<path d="M59.5698 33.7629H61.4089C61.6566 33.7539 61.9033 33.7979 62.1327 33.8918C62.301 33.9632 62.4498 34.0736 62.5671 34.214C62.6667 34.3365 62.7381 34.4796 62.7762 34.6329C62.8081 34.7722 62.826 34.9143 62.8298 35.0572C62.8265 35.1983 62.8085 35.3387 62.7762 35.4761C62.7347 35.641 62.6548 35.7937 62.5429 35.9216C62.4311 36.0495 62.2905 36.149 62.1327 36.2119C61.9033 36.3057 61.6566 36.3497 61.4089 36.3408H60.2937V37.9519H59.5645L59.5698 33.7629ZM60.299 35.7392H61.3714C61.4564 35.7391 61.5411 35.7283 61.6234 35.707C61.7072 35.6815 61.7867 35.6435 61.8593 35.5942C61.9361 35.5395 61.9971 35.4654 62.0362 35.3794C62.0841 35.277 62.108 35.1649 62.1059 35.0518C62.1089 34.9345 62.0889 34.8177 62.047 34.7081C62.0116 34.6259 61.9563 34.5539 61.8861 34.4986C61.8216 34.4439 61.744 34.4069 61.6609 34.3912C61.5714 34.3693 61.4796 34.3585 61.3875 34.359H60.3151L60.299 35.7392Z" fill="#202020"/>
<path d="M64.1641 33.7629H66.0085C66.2562 33.7539 66.5029 33.7979 66.7324 33.8918C66.9006 33.9632 67.0494 34.0736 67.1667 34.214C67.2644 34.337 67.3339 34.48 67.3704 34.6329C67.4066 34.7715 67.4264 34.9139 67.4294 35.0572C67.4268 35.1987 67.407 35.3394 67.3704 35.4761C67.332 35.6415 67.2538 35.7951 67.1426 35.9233C67.0314 36.0515 66.8905 36.1506 66.7324 36.2119C66.5029 36.3057 66.2562 36.3497 66.0085 36.3408H64.8986V37.9519H64.1641V33.7629ZM64.8986 35.7392H65.971C66.056 35.7385 66.1406 35.7277 66.223 35.707C66.3068 35.6815 66.3864 35.6435 66.4589 35.5942C66.5357 35.5395 66.5968 35.4654 66.6358 35.3794C66.6819 35.2765 66.7039 35.1645 66.7002 35.0518C66.7046 34.9348 66.6864 34.8181 66.6466 34.7081C66.6094 34.627 66.5544 34.5554 66.4857 34.4986C66.4212 34.4439 66.3436 34.4069 66.2605 34.3912C66.1693 34.369 66.0756 34.3582 65.9817 34.359H64.9094L64.8986 35.7392Z" fill="#202020"/>
<path d="M68.7656 33.7617H71.7736V34.3954H69.5002V35.4695H71.602V36.071H69.5002V37.2901H71.8111V37.9239H68.7656V33.7617Z" fill="#202020"/>
<path d="M73.1602 33.7624H74.8867C75.1721 33.7549 75.4557 33.8099 75.7177 33.9235C75.9409 34.0279 76.1372 34.1822 76.2914 34.3746C76.4451 34.5724 76.5581 34.7988 76.6239 35.0406C76.6962 35.3048 76.7323 35.5776 76.7311 35.8515C76.7319 36.1272 76.6958 36.4018 76.6239 36.6679C76.5571 36.9076 76.4441 37.132 76.2914 37.3284C76.1388 37.5224 75.9421 37.6771 75.7177 37.7796C75.4557 37.8932 75.1721 37.9482 74.8867 37.9407H73.1602V33.7624ZM73.8894 37.3446H74.6078C74.8453 37.3528 75.0821 37.3145 75.3049 37.2318C75.4735 37.1664 75.6216 37.057 75.7338 36.9149C75.8375 36.7748 75.9089 36.6134 75.9429 36.4423C76.0216 36.0524 76.0216 35.6507 75.9429 35.2608C75.9089 35.0897 75.8375 34.9283 75.7338 34.7881C75.6216 34.6461 75.4735 34.5367 75.3049 34.4713C75.0821 34.3885 74.8453 34.3502 74.6078 34.3585H73.8894V37.3446Z" fill="#202020"/>
<path d="M78.0256 33.7617H78.7548V36.1945C78.7468 36.3376 78.7468 36.4811 78.7548 36.6242C78.7671 36.7598 78.8073 36.8915 78.8728 37.0109C78.9392 37.1322 79.0399 37.2312 79.1623 37.2955C79.3291 37.3765 79.5132 37.4153 79.6985 37.4083C79.8838 37.4164 80.0682 37.3776 80.2347 37.2955C80.3596 37.2329 80.4625 37.1336 80.5296 37.0109C80.5951 36.8915 80.6352 36.7598 80.6475 36.6242C80.6475 36.4792 80.6475 36.3395 80.6475 36.1945V33.7617H81.3767V36.447C81.3812 36.6872 81.3393 36.9261 81.2534 37.1505C81.1773 37.3417 81.058 37.5127 80.9049 37.65C80.7498 37.7876 80.5669 37.8902 80.3687 37.9507C80.1415 38.0222 79.9044 38.0566 79.6663 38.0528C79.43 38.0567 79.1946 38.0222 78.9693 37.9507C78.7706 37.8913 78.5875 37.7886 78.4331 37.65C78.28 37.5127 78.1607 37.3417 78.0846 37.1505C77.9987 36.9261 77.9568 36.6872 77.9613 36.447L78.0256 33.7617Z" fill="#202020"/>
<path d="M88.1383 35.0831C88.1076 34.9678 88.0644 34.8561 88.0096 34.7501C87.9569 34.6501 87.886 34.5609 87.8005 34.487C87.7102 34.4111 87.6066 34.3528 87.4949 34.3151C87.3672 34.2718 87.2328 34.2518 87.0981 34.256C86.8968 34.2501 86.6973 34.2963 86.519 34.3903C86.3605 34.4755 86.2259 34.5992 86.1276 34.7501C86.0198 34.9136 85.9435 35.0957 85.9024 35.2872C85.8023 35.671 85.8023 36.0742 85.9024 36.458C85.9422 36.6499 86.0187 36.8322 86.1276 36.995C86.2259 37.146 86.3605 37.2697 86.519 37.3549C86.6968 37.4507 86.8963 37.4988 87.0981 37.4945C87.2455 37.4957 87.3915 37.4664 87.5271 37.4086C87.6507 37.3551 87.7606 37.2743 87.8488 37.1723C87.942 37.0708 88.0148 36.9523 88.0632 36.8232C88.1129 36.6863 88.1453 36.5438 88.1597 36.3989H88.8729C88.86 36.634 88.8056 36.865 88.712 37.081C88.6255 37.2828 88.4997 37.4654 88.342 37.618C88.1884 37.7692 88.0061 37.8879 87.8059 37.9671C87.5794 38.0411 87.3412 38.072 87.1035 38.0584C86.8138 38.0624 86.5267 38.0038 86.2617 37.8866C86.022 37.7745 85.8083 37.6136 85.6343 37.414C85.4597 37.209 85.3267 36.9718 85.2429 36.7158C85.057 36.1672 85.057 35.5726 85.2429 35.024C85.3279 34.7685 85.4607 34.5315 85.6343 34.3259C85.8083 34.1263 86.022 33.9653 86.2617 33.8532C86.5255 33.7318 86.8132 33.6713 87.1035 33.676C87.3269 33.675 87.5492 33.7076 87.763 33.7727C87.9567 33.8359 88.1381 33.9322 88.2992 34.0573C88.455 34.1784 88.5846 34.3301 88.6798 34.5031C88.7811 34.689 88.8431 34.8937 88.8621 35.1046L88.1383 35.0831Z" fill="#202020"/>
<path d="M92.0194 33.6549C92.2955 33.6489 92.5697 33.7034 92.8225 33.8148C93.0754 33.9261 93.3009 34.0915 93.4831 34.2994C93.6581 34.5051 93.7927 34.742 93.8799 34.9976C94.0585 35.5473 94.0585 36.1396 93.8799 36.6893C93.7942 36.9457 93.6595 37.1829 93.4831 37.3875C93.3092 37.5871 93.0955 37.7481 92.8558 37.8601C92.5904 37.9731 92.305 38.0314 92.0167 38.0314C91.7283 38.0314 91.4429 37.9731 91.1776 37.8601C90.9379 37.7481 90.7242 37.5871 90.5502 37.3875C90.3739 37.1829 90.2391 36.9457 90.1535 36.6893C89.9749 36.1396 89.9749 35.5473 90.1535 34.9976C90.2407 34.742 90.3753 34.5051 90.5502 34.2994C90.7242 34.0998 90.9379 33.9388 91.1776 33.8268C91.4416 33.7066 91.7294 33.6478 92.0194 33.6549ZM92.0194 34.2565C91.818 34.25 91.6184 34.2963 91.4403 34.3907C91.2818 34.4759 91.1472 34.5996 91.0489 34.7505C90.9411 34.914 90.8647 35.0961 90.8237 35.2876C90.7235 35.6714 90.7235 36.0746 90.8237 36.4584C90.8635 36.6503 90.94 36.8327 91.0489 36.9955C91.1472 37.1464 91.2818 37.2701 91.4403 37.3553C91.6186 37.4472 91.8162 37.4951 92.0167 37.4951C92.2172 37.4951 92.4148 37.4472 92.5931 37.3553C92.7527 37.2696 92.8889 37.146 92.9899 36.9955C93.095 36.8312 93.1695 36.6493 93.2097 36.4584C93.3099 36.0746 93.3099 35.6714 93.2097 35.2876C93.168 35.0972 93.0936 34.9155 92.9899 34.7505C92.8889 34.6 92.7527 34.4764 92.5931 34.3907C92.4168 34.2967 92.219 34.2504 92.0194 34.2565Z" fill="#202020"/>
<path d="M95.3691 33.7617H96.3986L97.5514 37.0324L98.6827 33.7617H99.7015V37.94H99.0044V34.7177L97.8463 37.94H97.235L96.0769 34.7177V37.94H95.3799L95.3691 33.7617Z" fill="#202020"/>
<path d="M101.279 33.7628H103.124C103.371 33.7539 103.618 33.7978 103.848 33.8917C104.016 33.9631 104.165 34.0735 104.282 34.2139C104.377 34.3385 104.446 34.4809 104.486 34.6328C104.522 34.7714 104.542 34.9138 104.545 35.0571C104.542 35.1986 104.522 35.3393 104.486 35.476C104.446 35.6279 104.377 35.7704 104.282 35.8949C104.166 36.0357 104.017 36.1448 103.848 36.2118C103.618 36.3057 103.371 36.3496 103.124 36.3407H102.014V37.9519H101.279V33.7628ZM102.014 35.7392H103.086C103.171 35.7385 103.256 35.7276 103.338 35.7069C103.422 35.6814 103.502 35.6434 103.574 35.5942C103.65 35.5378 103.71 35.4642 103.751 35.3793C103.797 35.2765 103.819 35.1644 103.815 35.0517C103.821 34.9342 103.801 34.8169 103.756 34.708C103.723 34.6264 103.669 34.5545 103.601 34.4986C103.534 34.4447 103.455 34.4079 103.37 34.3911C103.281 34.3692 103.189 34.3584 103.097 34.3589H102.025L102.014 35.7392Z" fill="#202020"/>
<path d="M105.834 33.7617H106.569V36.1945C106.569 36.3395 106.569 36.4792 106.569 36.6242C106.581 36.7598 106.621 36.8915 106.687 37.0109C106.754 37.1336 106.857 37.2329 106.982 37.2955C107.148 37.3772 107.332 37.4159 107.518 37.4083C107.703 37.4153 107.887 37.3765 108.054 37.2955C108.176 37.2312 108.277 37.1322 108.344 37.0109C108.411 36.8925 108.452 36.7603 108.461 36.6242C108.469 36.4811 108.469 36.3376 108.461 36.1945V33.7617H109.191V36.447C109.198 36.6874 109.156 36.9268 109.067 37.1505C108.991 37.3417 108.872 37.5127 108.719 37.65C108.564 37.7882 108.381 37.8909 108.183 37.9507C107.955 38.0218 107.718 38.0562 107.48 38.0528C107.242 38.0566 107.005 38.0222 106.778 37.9507C106.58 37.8902 106.397 37.7876 106.242 37.65C106.09 37.5112 105.971 37.3407 105.893 37.1505C105.807 36.9261 105.765 36.6872 105.77 36.447L105.834 33.7617Z" fill="#202020"/>
<path d="M110.406 33.7617H113.784V34.3954H112.454V37.94H111.725V34.3954H110.406V33.7617Z" fill="#202020"/>
<path d="M114.984 33.7617H117.987V34.3954H115.714V35.4696H117.821V36.0711H115.714V37.2902H118.03V37.9239H114.984V33.7617Z" fill="#202020"/>
<path d="M119.354 33.7624H121.343C121.712 33.7339 122.079 33.8387 122.378 34.0578C122.492 34.1629 122.583 34.2918 122.643 34.4355C122.704 34.5793 122.732 34.7344 122.726 34.8902C122.731 35.0595 122.7 35.228 122.635 35.3843C122.587 35.5018 122.518 35.6093 122.431 35.7012C122.367 35.7735 122.288 35.832 122.201 35.873L122.034 35.9482C122.105 35.9568 122.174 35.9767 122.238 36.0073C122.315 36.0396 122.383 36.0892 122.437 36.1523C122.506 36.2303 122.559 36.3217 122.592 36.4208C122.639 36.5517 122.66 36.6901 122.656 36.829C122.654 37.0539 122.672 37.2787 122.71 37.5003C122.729 37.656 122.788 37.8041 122.882 37.93H122.099C122.044 37.8402 122.011 37.7391 122.002 37.6346C122.002 37.5218 122.002 37.4198 122.002 37.3177C122.004 37.1524 121.993 36.9873 121.97 36.8236C121.95 36.7002 121.906 36.5817 121.841 36.4745C121.778 36.3832 121.688 36.3138 121.584 36.2758C121.453 36.2288 121.315 36.2069 121.177 36.2114H120.104V37.93H119.375L119.354 33.7624ZM120.083 35.6636H121.278C121.472 35.678 121.663 35.6185 121.815 35.4971C121.877 35.4306 121.925 35.3519 121.955 35.2659C121.986 35.1799 121.998 35.0886 121.992 34.9976C121.996 34.8859 121.978 34.7744 121.938 34.67C121.899 34.5945 121.844 34.5284 121.777 34.4767C121.706 34.4282 121.626 34.3953 121.541 34.38C121.45 34.3743 121.359 34.3743 121.268 34.38H120.083V35.6636Z" fill="#202020"/>
<path d="M126.496 33.7624H128.223C128.508 33.7549 128.792 33.8099 129.054 33.9235C129.277 34.0279 129.473 34.1823 129.627 34.3747C129.781 34.5724 129.894 34.7988 129.96 35.0406C130.032 35.3048 130.068 35.5776 130.067 35.8516C130.068 36.1273 130.032 36.4018 129.96 36.6679C129.893 36.9077 129.78 37.1321 129.627 37.3285C129.475 37.5224 129.278 37.6771 129.054 37.7796C128.792 37.8932 128.508 37.9482 128.223 37.9407H126.496V33.7624ZM127.225 37.3446H127.944C128.181 37.3529 128.418 37.3146 128.641 37.2318C128.809 37.1664 128.958 37.057 129.07 36.915C129.173 36.7748 129.245 36.6134 129.279 36.4423C129.357 36.0524 129.357 35.6507 129.279 35.2608C129.245 35.0897 129.173 34.9283 129.07 34.7882C128.958 34.6461 128.809 34.5367 128.641 34.4713C128.418 34.3886 128.181 34.3503 127.944 34.3585H127.225V37.3446Z" fill="#202020"/>
<path d="M131.417 33.7617H134.42V34.3954H132.141V35.4696H134.243V36.0711H132.141V37.2902H134.452V37.9239H131.412L131.417 33.7617Z" fill="#202020"/>
<path d="M136.279 36.5446C136.275 36.685 136.303 36.8245 136.36 36.9528C136.412 37.0625 136.489 37.1582 136.585 37.2321C136.687 37.3052 136.801 37.3581 136.923 37.3878C137.057 37.4255 137.196 37.4436 137.336 37.4415C137.474 37.444 137.611 37.424 137.743 37.3824C137.841 37.3514 137.934 37.3042 138.017 37.2428C138.084 37.1884 138.138 37.1183 138.172 37.0387C138.202 36.9654 138.216 36.8869 138.215 36.8078C138.221 36.7445 138.215 36.6807 138.197 36.6199C138.178 36.559 138.148 36.5024 138.108 36.4533C138.043 36.3819 137.962 36.3267 137.872 36.2922C137.722 36.2385 137.55 36.1848 137.336 36.1365L136.607 35.9485C136.448 35.9082 136.296 35.8449 136.156 35.7605C136.049 35.6935 135.955 35.608 135.877 35.5081C135.808 35.4184 135.757 35.3163 135.727 35.2073C135.697 35.1027 135.682 34.9941 135.684 34.8851C135.682 34.6981 135.726 34.5135 135.813 34.348C135.901 34.1979 136.02 34.068 136.161 33.9667C136.311 33.8619 136.478 33.7854 136.655 33.7412C136.83 33.6935 137.01 33.6683 137.191 33.666C137.399 33.6663 137.607 33.6952 137.808 33.7519C137.992 33.806 138.164 33.8933 138.317 34.0097C138.462 34.1221 138.581 34.2651 138.665 34.4286C138.755 34.6066 138.799 34.804 138.794 35.0033H138.065C138.067 34.8931 138.042 34.784 137.994 34.6851C137.945 34.5861 137.874 34.5001 137.786 34.434C137.601 34.316 137.384 34.2579 137.164 34.2675C137.077 34.2595 136.989 34.2595 136.901 34.2675C136.815 34.2857 136.732 34.3164 136.655 34.3588C136.581 34.3979 136.518 34.4552 136.472 34.5253C136.418 34.6019 136.392 34.6947 136.397 34.7884C136.393 34.8534 136.403 34.9184 136.428 34.9788C136.452 35.0393 136.489 35.0935 136.537 35.1375C136.641 35.2264 136.764 35.2906 136.896 35.3255L137.078 35.3738L137.438 35.4705L137.824 35.5779L138.097 35.6477C138.226 35.686 138.347 35.7459 138.456 35.825C138.553 35.8952 138.638 35.9804 138.708 36.0774C138.775 36.1702 138.826 36.2737 138.858 36.3835C138.895 36.4908 138.913 36.6033 138.912 36.7165C138.918 36.9246 138.868 37.1304 138.767 37.3126C138.674 37.4752 138.546 37.6147 138.392 37.7208C138.229 37.8309 138.047 37.9092 137.856 37.9517C137.658 38.0011 137.454 38.0264 137.25 38.0269C137.023 38.0275 136.798 37.9967 136.58 37.9356C136.384 37.8849 136.201 37.7934 136.044 37.6671C135.885 37.5435 135.757 37.3856 135.668 37.2052C135.572 36.9945 135.523 36.7655 135.523 36.5339L136.279 36.5446Z" fill="#202020"/>
<path d="M140.287 33.7617H141.022V37.94H140.287V33.7617Z" fill="#202020"/>
<path d="M146.254 37.935H145.787L145.675 37.4463C145.516 37.6413 145.316 37.799 145.09 37.9081C144.878 37.9977 144.65 38.0416 144.42 38.037C144.132 38.0409 143.847 37.9823 143.583 37.8652C143.341 37.7546 143.126 37.5935 142.951 37.3926C142.776 37.1876 142.643 36.9504 142.559 36.6944C142.373 36.1458 142.373 35.5512 142.559 35.0026C142.644 34.7471 142.777 34.5101 142.951 34.3045C143.126 34.1035 143.341 33.9424 143.583 33.8318C143.845 33.7104 144.131 33.6498 144.42 33.6546C144.638 33.6545 144.854 33.6852 145.063 33.7459C145.256 33.8047 145.437 33.8955 145.599 34.0144C145.762 34.1356 145.897 34.2893 145.996 34.4656C146.106 34.6548 146.173 34.8654 146.195 35.0832H145.492C145.477 34.9558 145.435 34.8331 145.369 34.7234C145.306 34.6227 145.224 34.5351 145.128 34.4656C145.028 34.395 144.917 34.3406 144.801 34.3045C144.676 34.2719 144.548 34.2556 144.42 34.2561C144.22 34.2496 144.022 34.2959 143.846 34.3904C143.686 34.4748 143.549 34.5986 143.449 34.7502C143.342 34.9136 143.265 35.0958 143.224 35.2873C143.124 35.6711 143.124 36.0742 143.224 36.4581C143.264 36.65 143.34 36.8323 143.449 36.9951C143.549 37.1467 143.686 37.2705 143.846 37.355C144.022 37.4513 144.22 37.4995 144.42 37.4946C144.589 37.4993 144.758 37.4738 144.919 37.4194C145.055 37.3691 145.179 37.2904 145.283 37.1885C145.384 37.0844 145.46 36.9598 145.508 36.8233C145.558 36.6688 145.586 36.5077 145.589 36.3453H144.474V35.8082H146.248L146.254 37.935Z" fill="#202020"/>
<path d="M147.723 33.7617H148.495L150.398 36.8391V33.7617H151.095V37.94H150.323L148.425 34.8681V37.94H147.728L147.723 33.7617Z" fill="#202020"/>
<path d="M155 33.7617H155.735V37.94H155.005L155 33.7617Z" fill="#202020"/>
<path d="M157.293 33.7617H158.065L159.974 36.8391V33.7617H160.666V37.94H159.899L157.995 34.8681V37.94H157.298L157.293 33.7617Z" fill="#202020"/>
<path d="M162.702 36.5448C162.698 36.6852 162.726 36.8247 162.783 36.953C162.837 37.063 162.916 37.1586 163.013 37.2323C163.114 37.3043 163.226 37.3572 163.346 37.388C163.48 37.4253 163.619 37.4434 163.759 37.4417C163.897 37.4442 164.034 37.4242 164.166 37.3826C164.266 37.3527 164.361 37.3054 164.445 37.243C164.51 37.188 164.562 37.118 164.595 37.0389C164.626 36.9659 164.643 36.8874 164.643 36.808C164.651 36.6808 164.613 36.5552 164.536 36.4535C164.47 36.3832 164.39 36.3282 164.3 36.2924C164.124 36.2309 163.945 36.1789 163.764 36.1367L163.035 35.9487C162.878 35.9088 162.728 35.8455 162.59 35.7607C162.481 35.6942 162.385 35.6087 162.306 35.5083C162.239 35.4174 162.188 35.3157 162.155 35.2076C162.127 35.1024 162.113 34.9941 162.113 34.8853C162.11 34.6976 162.156 34.5125 162.247 34.3483C162.333 34.1984 162.45 34.0685 162.59 33.9669C162.739 33.863 162.906 33.7866 163.083 33.7414C163.258 33.6941 163.438 33.6689 163.619 33.6662C163.853 33.6632 164.086 33.6958 164.311 33.7629C164.493 33.817 164.664 33.9044 164.815 34.0207C164.962 34.1316 165.081 34.2749 165.163 34.4396C165.253 34.6175 165.297 34.815 165.292 35.0142H164.563C164.564 34.9046 164.54 34.7962 164.493 34.6974C164.445 34.5986 164.376 34.5122 164.289 34.4449C164.102 34.3259 163.883 34.2677 163.662 34.2784C163.575 34.2707 163.487 34.2707 163.399 34.2784C163.313 34.2966 163.23 34.3274 163.153 34.3697C163.08 34.4103 163.017 34.4673 162.97 34.5362C162.912 34.6311 162.887 34.7426 162.899 34.8533C162.91 34.964 162.958 35.0678 163.035 35.1485C163.139 35.2373 163.262 35.3016 163.394 35.3364L163.576 35.3848L163.936 35.4815L164.327 35.5889L164.6 35.6587C164.727 35.698 164.847 35.7579 164.954 35.8359C165.146 35.9644 165.29 36.1535 165.362 36.373C165.394 36.4811 165.41 36.5932 165.41 36.706C165.416 36.9141 165.366 37.1199 165.265 37.3021C165.174 37.4658 165.045 37.6057 164.89 37.7103C164.727 37.8193 164.545 37.8976 164.354 37.9412C164.155 37.9903 163.952 38.0155 163.748 38.0164C163.52 38.0173 163.292 37.9866 163.072 37.9251C162.877 37.874 162.694 37.7826 162.536 37.6566C162.376 37.5345 162.248 37.3762 162.161 37.1947C162.06 36.9855 162.011 36.7554 162.016 36.5234L162.702 36.5448Z" fill="#202020"/>
<path d="M166.338 33.7617H169.716V34.3954H168.386V37.94H167.657V34.3954H166.338V33.7617Z" fill="#202020"/>
<path d="M170.902 33.7617H171.632V37.94H170.902V33.7617Z" fill="#202020"/>
<path d="M172.832 33.7617H176.21V34.3954H174.88V37.94H174.151V34.3954H172.832V33.7617Z" fill="#202020"/>
<path d="M177.346 33.7617H178.081V36.1946C178.081 36.3396 178.081 36.4792 178.081 36.6242C178.093 36.7599 178.133 36.8916 178.199 37.0109C178.266 37.1337 178.369 37.233 178.494 37.2956C178.66 37.3777 178.845 37.4165 179.03 37.4083C179.215 37.4153 179.399 37.3766 179.566 37.2956C179.689 37.2313 179.789 37.1323 179.856 37.0109C179.921 36.8916 179.961 36.7599 179.974 36.6242C179.982 36.4811 179.982 36.3377 179.974 36.1946V33.7617H180.703V36.447C180.707 36.6873 180.665 36.9262 180.58 37.1506C180.503 37.3418 180.384 37.5128 180.231 37.65C180.077 37.7887 179.894 37.8914 179.695 37.9508C179.47 38.0223 179.234 38.0567 178.998 38.0528C178.76 38.0567 178.523 38.0222 178.295 37.9508C178.097 37.8903 177.914 37.7877 177.759 37.65C177.606 37.5128 177.487 37.3418 177.411 37.1506C177.325 36.9262 177.283 36.6873 177.287 36.447L177.346 33.7617Z" fill="#202020"/>
<path d="M181.92 33.7617H185.298V34.3954H183.968V37.94H183.239V34.3954H181.92V33.7617Z" fill="#202020"/>
<path d="M186.485 33.7617H189.514V34.3954H187.241V35.4695H189.348V36.071H187.241V37.2901H189.514V37.9239H186.469L186.485 33.7617Z" fill="#202020"/>
</g>
<defs>
<clipPath id="clip0_324_7024">
<rect width="190" height="44" fill="white"/>
</clipPath>
</defs>
</svg>
