<svg width="595" height="118" viewBox="0 0 595 118" fill="none" xmlns="http://www.w3.org/2000/svg">
<path d="M533.159 99.0357L444.019 72.2692C442.935 71.9408 442.771 70.4629 443.757 69.9374L499.777 39.1313C501.157 38.376 502.767 38.2117 504.246 38.6715L593.353 65.438C594.437 65.7665 594.601 67.2444 593.615 67.8027L537.628 98.576C536.281 99.2985 534.671 99.4627 533.159 99.0357Z" fill="black"/>
<path d="M521.89 88.1648L458.739 69.2148C457.852 68.952 457.721 67.704 458.542 67.277L501.124 43.8933C502.439 43.1708 503.983 43.0066 505.429 43.4335L568.152 62.285C569.203 62.6135 569.367 64.0257 568.382 64.5511L526.194 87.7378C524.88 88.4275 523.335 88.5917 521.89 88.1648Z" fill="#F0F1F5"/>
<path d="M561.711 76.5387C561.514 76.1446 561.218 75.8162 560.824 75.5534C560.167 75.1265 559.411 74.9623 558.623 74.8966C557.111 74.7981 555.567 75.1593 554.154 75.6848C553.694 75.8819 553.234 76.0789 552.807 76.3745C552.051 76.8671 551.394 77.6225 551.197 78.5421C551.066 79.1661 551.197 79.8886 551.624 80.3813C552.051 80.8739 552.676 81.0381 553.3 81.1366C554.614 81.3337 555.994 81.3665 557.309 81.1038C558.689 80.8411 560.134 80.2171 561.186 79.2975C561.317 79.1661 561.448 79.0347 561.58 78.8705C562.106 78.148 562.073 77.2612 561.711 76.5387Z" fill="#B85F58"/>
<path d="M533.159 95.62C503.161 87.4423 473.13 79.2645 443.132 71.0539C443.099 70.6598 443.066 70.0686 443.033 69.3133C442.968 67.9667 442.968 67.3756 443.329 66.9158C443.493 66.7187 443.658 66.5874 443.756 66.5217L499.81 35.7156C501.19 34.9602 502.8 34.796 504.278 35.2558L593.385 62.0223C594.469 62.3507 594.634 63.8286 593.648 64.3869L537.66 95.1602C536.28 95.9156 534.67 96.0798 533.159 95.62Z" fill="black"/>
<path d="M523.73 85.373L458.739 65.799C457.852 65.5362 457.721 64.2882 458.542 63.8613L501.124 40.4775C502.439 39.755 503.983 39.5908 505.429 40.0177L569.992 59.4604C571.043 59.7888 571.207 61.2011 570.222 61.7265L527.212 84.9132C525.898 85.6358 525.175 85.8 523.73 85.373Z" fill="#F0F1F5"/>
<path d="M534.079 96.2769C533.29 96.2769 532.502 96.1783 531.746 95.9156L443.953 69.3133C443.592 69.2148 443.394 68.8207 443.493 68.4594C443.592 68.0981 443.986 67.9011 444.347 67.9996L532.14 94.6019C533.882 95.1274 535.754 94.9303 537.331 94.0436L585.006 67.8025C585.335 67.6055 585.762 67.7369 585.959 68.0653C586.156 68.3937 586.025 68.8207 585.696 69.0177L538.021 95.2587C536.806 95.9484 535.426 96.2769 534.079 96.2769Z" fill="#FAECE1"/>
<path d="M563.19 73.2216C562.5 72.5976 561.186 72.4334 560.2 72.9917C557.243 74.601 554.253 76.2103 551.296 77.7867C550.376 78.2793 550.047 79.2974 550.737 79.9214C551.427 80.5454 552.742 80.7097 553.727 80.1513C556.684 78.5421 559.674 76.9328 562.631 75.3564C563.551 74.8637 563.88 73.8456 563.19 73.2216Z" fill="#FAECE1"/>
<path d="M559.962 23.3599L559.999 23.2694C560.081 23.0693 560.105 22.8153 560.055 22.6339L560.053 22.6243L560.051 22.6146C559.963 22.1277 559.698 21.6898 559.384 21.2973C558.742 20.5692 557.801 20.1636 556.901 20.2259L556.894 20.2265H556.886C556.886 20.2265 556.886 20.2265 556.886 20.2265C556.886 20.2267 556.885 20.227 556.885 20.2273C556.882 20.2299 556.878 20.2348 556.872 20.2429C556.867 20.2509 556.862 20.2603 556.857 20.271L556.84 20.3054L556.813 20.3321C551.675 25.4036 546.473 30.4076 541.205 35.3103C535.904 40.2468 530.539 45.0817 525.109 49.8489L525.109 49.849C524.52 50.3641 523.931 50.8856 523.341 51.4087C521.455 53.0781 519.551 54.7642 517.591 56.3118M559.962 23.3599L517.455 56.1397M559.962 23.3599L559.981 23.4009M559.962 23.3599L559.981 23.4009M517.591 56.3118C517.591 56.3119 517.591 56.312 517.591 56.3121L517.455 56.1397M517.591 56.3118C517.591 56.3118 517.591 56.3117 517.591 56.3116L517.455 56.1397M517.591 56.3118C515.956 57.6124 514.578 59.212 513.552 61.0775M517.455 56.1397C515.797 57.4579 514.399 59.0804 513.359 60.9732M513.552 61.0775C513.552 61.077 513.553 61.0764 513.553 61.0759L513.359 60.9732M513.552 61.0775C513.552 61.078 513.552 61.0785 513.551 61.079L513.359 60.9732M513.552 61.0775L513.359 60.9732M559.981 23.4009C557.09 26.2723 554.198 29.0764 551.273 31.8809C546.041 36.8485 540.744 41.782 535.382 46.6137L535.382 46.6137L535.379 46.6159C534.79 47.1628 534.19 47.6938 533.582 48.231C533.252 48.5224 532.92 48.8156 532.587 49.1142C530.085 51.3443 527.583 53.5407 525.048 55.7371L525.046 55.7382C524.809 55.9474 524.572 56.1564 524.337 56.3647C523.313 57.2695 522.303 58.1622 521.25 59.0107L559.981 23.4009ZM512.564 63.1562C512.564 63.1555 512.565 63.1547 512.565 63.154L512.351 63.1027L512.564 63.1584C512.564 63.1576 512.564 63.1569 512.564 63.1562ZM518.183 61.3615C518.182 61.3626 518.18 61.3636 518.179 61.3646L518.3 61.5478L518.188 61.3586C518.187 61.3596 518.185 61.3606 518.183 61.3615Z" fill="#36151D" stroke="black" stroke-width="0.439294"/>
<path d="M20.9605 77.3786L34.8761 88.5788C35.3187 88.9376 35.8847 89.1079 36.4517 89.0528C37.0188 88.9977 37.5414 88.7216 37.9066 88.2843L80.7153 35.1005C81.0599 34.6472 81.2124 34.0766 81.1398 33.5118C81.0673 32.9471 80.7756 32.4335 80.3276 32.082L66.4407 20.8782C65.9981 20.5193 65.4322 20.349 64.8651 20.4041C64.298 20.4592 63.7754 20.7353 63.4102 21.1726L20.6015 74.3565C20.2526 74.8065 20.0947 75.3756 20.1618 75.9411C20.229 76.5065 20.5159 77.0229 20.9605 77.3786Z" fill="#F5F5F5"/>
<path d="M20.9602 77.3786C20.8284 77.2876 20.7111 77.1774 20.6121 77.0516C20.3024 76.6851 20.123 76.2263 20.102 75.7469C20.085 75.3928 20.1575 75.0401 20.3128 74.7214C20.5283 74.3586 20.7772 74.0168 21.0563 73.7003L23.0026 71.2639L35.4364 55.7177L53.9204 32.6894L59.2687 26.0408L62.0268 22.6038C62.5063 22.0247 62.9356 21.4521 63.4573 20.8604C63.7553 20.5774 64.1226 20.3779 64.5222 20.2818C64.9217 20.1857 65.3396 20.1964 65.7337 20.3129C66.1176 20.4368 66.4714 20.6396 66.7722 20.9084L67.6587 21.6254L69.4469 23.0647L73.071 25.9736L80.4685 31.9327C80.8092 32.2054 81.0683 32.5667 81.2174 32.9769C81.3665 33.3871 81.3998 33.8304 81.3138 34.2583C81.2213 34.678 81.0197 35.0659 80.7294 35.3829L79.992 36.3375L77.0312 40.012L71.274 47.1649L60.2986 60.731C53.3118 69.3755 47.0312 77.1641 41.7499 83.7093L37.9756 88.3701C37.6599 88.7429 37.2317 89.0031 36.7554 89.1116C36.2791 89.2201 35.7804 89.171 35.3344 88.9717C34.9399 88.7584 34.5734 88.497 34.2433 88.1935L33.2516 87.3953L26.6038 81.9959L22.4042 78.5778C21.9384 78.1858 21.5868 77.8884 21.3199 77.6822L20.9583 77.3642C20.9583 77.3642 21.094 77.4561 21.3449 77.6498L22.4551 78.5203L26.6913 81.8826L33.3838 87.2326L34.3745 88.0236C34.6916 88.3138 35.0443 88.5624 35.4243 88.7634C35.8238 88.9427 36.271 88.9866 36.6978 88.8883C37.1246 88.7901 37.5076 88.5552 37.7886 88.2192L41.5601 83.5369L60.0441 60.5086L70.9577 46.9723L76.74 39.787L79.7007 36.1126L80.4409 35.1794C80.628 34.9816 80.7719 34.7471 80.8637 34.4907C80.9554 34.2344 80.9929 33.9618 80.9738 33.6902C80.9547 33.4186 80.8793 33.1539 80.7526 32.9129C80.6258 32.6719 80.4504 32.4599 80.2374 32.2903L72.84 26.3312L69.2231 23.4214L67.4339 21.9749L66.5474 21.2579C66.2853 21.0163 65.9734 20.8349 65.6338 20.7266C65.3039 20.6277 64.9539 20.6172 64.6187 20.696C64.2835 20.7749 63.9749 20.9404 63.7237 21.176C63.2521 21.703 62.7853 22.3242 62.3191 22.8942L59.553 26.325L54.1966 32.9673L35.6468 55.8801L23.1141 71.3371L21.1462 73.7762C20.8666 74.0829 20.6164 74.4151 20.3991 74.7686C20.2493 75.0741 20.1751 75.411 20.1827 75.7511C20.1932 76.2165 20.3532 76.6661 20.6389 77.0336C20.837 77.2705 20.9736 77.3696 20.9602 77.3786Z" fill="#263238"/>
<path d="M64.5114 22.767L56.751 32.5366L70.9979 43.8535L78.7583 34.0839L64.5114 22.767Z" fill="#5000FF"/>
<path d="M39.2321 54.5902L31.4717 64.3599L45.7186 75.6767L53.479 65.9071L39.2321 54.5902Z" fill="#5000FF"/>
<path d="M47.6686 43.9704L39.9082 53.74L54.1551 65.0569L61.9155 55.2873L47.6686 43.9704Z" fill="#5000FF"/>
<path d="M56.111 33.3402L48.3506 43.1099L62.5975 54.4267L70.3579 44.6571L56.111 33.3402Z" fill="#5000FF"/>
<g opacity="0.8">
<path d="M64.5104 22.7663L56.75 32.5359L70.9969 43.8528L78.7573 34.0832L64.5104 22.7663Z" fill="black"/>
</g>
<g opacity="0.5">
<path d="M39.2321 54.5893L31.4717 64.3589L45.7186 75.6758L53.479 65.9061L39.2321 54.5893Z" fill="black"/>
</g>
<g opacity="0.6">
<path d="M47.6686 43.9694L39.9082 53.739L54.1551 65.0559L61.9155 55.2863L47.6686 43.9694Z" fill="black"/>
</g>
<g opacity="0.7">
<path d="M56.111 33.3393L48.3506 43.1089L62.5975 54.4258L70.3579 44.6561L56.111 33.3393Z" fill="black"/>
</g>
<path d="M21.504 75.0851L32.0995 89.4884C32.4316 89.9455 32.929 90.2549 33.4858 90.3508C34.0426 90.4467 34.6148 90.3216 35.0807 90.002L89.3449 50.2C89.7812 49.8525 90.0669 49.3503 90.1425 48.7977C90.2181 48.2451 90.0779 47.6846 89.7509 47.2327L79.1564 32.8365C78.8253 32.378 78.3283 32.067 77.7712 31.9697C77.2141 31.8724 76.6411 31.9966 76.1742 32.3158L21.8983 72.0828C21.4539 72.4329 21.164 72.9428 21.0904 73.5037C21.0167 74.0646 21.1652 74.6321 21.504 75.0851Z" fill="#F5F5F5"/>
<path d="M21.504 75.0862C21.403 74.9647 21.3173 74.8313 21.2489 74.6889C21.0407 74.2618 20.9786 73.7782 21.0721 73.3123C21.139 72.9682 21.2936 72.6471 21.5208 72.3801C21.8149 72.0864 22.1375 71.8229 22.4838 71.5932L24.9657 69.7513L40.8098 58.0597L64.3288 40.7546L71.1352 35.7554L74.6448 33.1765L75.5374 32.5225C75.8332 32.2779 76.1558 32.0678 76.4991 31.8961C76.8733 31.7406 77.2819 31.6861 77.6838 31.7381C78.0857 31.7901 78.4669 31.9467 78.7892 32.1924C79.0931 32.4443 79.3553 32.7427 79.566 33.0765L80.2361 33.9816C80.6793 34.5952 81.1216 35.2016 81.5791 35.8133C82.4655 37.0405 83.3538 38.282 84.3003 39.5233C86.1217 42.0151 87.974 44.5394 89.8571 47.0962C90.1128 47.4437 90.2701 47.8537 90.3124 48.2831C90.3547 48.7124 90.2805 49.1452 90.0976 49.536C89.9063 49.917 89.6151 50.2391 89.2552 50.4677L88.3098 51.1649L84.5319 53.924L77.204 59.289L63.2951 69.4784L39.7167 86.7184C38.0299 87.9407 36.4612 89.1188 34.9101 90.2072C34.4843 90.4375 33.9955 90.5242 33.5164 90.4544C33.0374 90.3847 32.5936 90.1621 32.2512 89.8198C31.6517 89.1243 31.2046 88.4238 30.7039 87.7593C28.7582 85.0939 27.0854 82.7944 25.7207 80.9071C24.3559 79.0199 23.3029 77.5736 22.584 76.5727L21.775 75.4376C21.5895 75.1845 21.5056 75.0422 21.5056 75.0422C21.5056 75.0422 21.6163 75.1665 21.801 75.4124C21.9856 75.6584 22.2828 76.0429 22.6726 76.5249C23.4121 77.5158 24.4866 78.9593 25.862 80.8161L30.8989 87.6322C31.3997 88.2967 31.8854 89.0141 32.4299 89.622C32.7389 89.9254 33.1371 90.1217 33.5659 90.1821C33.9948 90.2425 34.4317 90.1637 34.8124 89.9573C36.3142 88.8826 37.916 87.6784 39.5777 86.4301L63.1039 69.124L77.01 58.913L84.3341 53.5194L88.0978 50.7621L89.0431 50.065C89.3544 49.8636 89.6031 49.5792 89.7613 49.2439C89.9139 48.9151 89.9754 48.5512 89.9393 48.1905C89.9032 47.8297 89.7709 47.4853 89.5562 47.1932L83.9994 39.6203L81.2854 35.9094L79.9423 34.0776L79.2722 33.1725C79.082 32.8706 78.8481 32.5986 78.5782 32.3652C78.3064 32.1568 77.9845 32.0235 77.6448 31.9789C77.3052 31.9342 76.9598 31.9797 76.6433 32.1108C76.3294 32.2751 76.0322 32.4695 75.7558 32.6913L74.8704 33.3443L71.3536 35.9241L64.5454 40.9089L40.9742 58.1479L25.0683 69.8693L22.5638 71.6486C22.2194 71.8705 21.8982 72.1266 21.6052 72.413C21.3825 72.6632 21.2282 72.9667 21.1572 73.2941C21.0532 73.7447 21.0959 74.2167 21.2792 74.6413C21.4139 74.952 21.5183 75.0843 21.504 75.0862Z" fill="#263238"/>
<path d="M76.172 35.1639L66.1553 42.6025L77.003 57.2098L87.0197 49.7711L76.172 35.1639Z" fill="#5000FF"/>
<path d="M43.549 59.3863L33.5322 66.825L44.3799 81.4322L54.3967 73.9935L43.549 59.3863Z" fill="#5000FF"/>
<path d="M54.4308 51.3067L44.4141 58.7454L55.2618 73.3526L65.2785 65.914L54.4308 51.3067Z" fill="#5000FF"/>
<path d="M65.3244 43.2151L55.3076 50.6538L66.1553 65.2611L76.1721 57.8224L65.3244 43.2151Z" fill="#5000FF"/>
<g opacity="0.5">
<path d="M76.172 35.1651L66.1553 42.6038L77.003 57.211L87.0197 49.7724L76.172 35.1651Z" fill="black"/>
</g>
<g opacity="0.2">
<path d="M43.549 59.3873L33.5322 66.8259L44.3799 81.4332L54.3967 73.9945L43.549 59.3873Z" fill="black"/>
</g>
<g opacity="0.3">
<path d="M54.4308 51.3062L44.4141 58.7449L55.2618 73.3522L65.2785 65.9135L54.4308 51.3062Z" fill="black"/>
</g>
<g opacity="0.4">
<path d="M65.3253 43.2154L55.3086 50.6541L66.1563 65.2613L76.173 57.8227L65.3253 43.2154Z" fill="black"/>
</g>
<path d="M19.3357 75.2255L25.3443 92.0473C25.4403 92.3191 25.5895 92.5692 25.7833 92.7827C25.977 92.9962 26.2114 93.1689 26.4727 93.2907C26.734 93.4126 27.017 93.4811 27.3051 93.4923C27.5932 93.5034 27.8806 93.4571 28.1506 93.3558L94.7355 69.5868C95.0089 69.4938 95.2609 69.3472 95.4768 69.1555C95.6927 68.9638 95.8682 68.7309 95.9929 68.4705C96.1177 68.2101 96.1891 67.9275 96.2031 67.6391C96.2172 67.3507 96.1735 67.0624 96.0746 66.7911L90.0742 49.9756C89.9789 49.703 89.8302 49.4522 89.6366 49.2378C89.4431 49.0234 89.2087 48.8499 88.9473 48.7273C88.6858 48.6048 88.4024 48.5357 88.1139 48.5241C87.8253 48.5125 87.5374 48.5587 87.2669 48.6599L20.6829 72.4361C20.4096 72.5283 20.1574 72.6741 19.9411 72.865C19.7248 73.0559 19.5488 73.288 19.4233 73.5478C19.2979 73.8076 19.2255 74.0897 19.2105 74.3778C19.1954 74.6659 19.238 74.9541 19.3357 75.2255Z" fill="#F5F5F5"/>
<path d="M19.3361 75.2255C19.2705 75.0728 19.2277 74.9113 19.209 74.7462C19.1437 74.2573 19.247 73.7607 19.5019 73.3384C19.6921 73.0279 19.9534 72.767 20.2641 72.5773C20.6506 72.3857 21.0515 72.2246 21.4631 72.0953L24.4755 70.9797L43.7222 64.0475L72.2897 53.8193L80.5465 50.864L84.8111 49.3397L86.9783 48.5658C87.3555 48.4037 87.7643 48.3288 88.1745 48.3465C88.5971 48.3727 89.005 48.5116 89.3558 48.7487C89.721 48.977 90.0153 49.3026 90.2054 49.6891C90.3726 50.083 90.4832 50.4332 90.618 50.8022C90.8805 51.541 91.1511 52.2861 91.4136 53.0249C91.9501 54.5157 92.4853 56.0163 93.0194 57.5268C94.0972 60.5465 95.19 63.608 96.298 66.7114C96.448 67.1343 96.4746 67.5911 96.3747 68.0286C96.2747 68.466 96.0522 68.866 95.7334 69.1817C95.4187 69.4866 95.0349 69.7109 94.6148 69.8355L93.4649 70.2455L88.9004 71.874L79.9593 75.0629L63.0802 81.0788L34.5035 91.2353L28.6977 93.3001C28.4667 93.3735 28.2455 93.4675 27.9982 93.5284C27.637 93.6173 27.2596 93.6177 26.8981 93.5297C26.5366 93.4416 26.2017 93.2676 25.9218 93.0225C25.572 92.7056 25.3196 92.2956 25.1942 91.8406C25.0529 91.4214 24.9054 91.0104 24.7588 90.6065C23.6145 87.3718 22.6377 84.5893 21.8347 82.3092C21.0317 80.0292 20.4197 78.2712 19.9941 77.0577C19.794 76.4639 19.6409 76.0098 19.5232 75.6606C19.4055 75.3113 19.3755 75.1912 19.3755 75.1912C19.3755 75.1912 19.4459 75.3425 19.5581 75.6488L20.0675 77.0045C20.5064 78.209 21.1767 79.9668 21.9698 82.2263C22.7629 84.4858 23.7927 87.2833 24.9575 90.5081C25.1032 90.9048 25.2507 91.3159 25.3992 91.7341C25.5114 92.1531 25.7421 92.5309 26.0637 92.8221C26.3999 93.1139 26.8211 93.2898 27.265 93.3238C27.7307 93.3396 28.1933 93.2427 28.6135 93.0413L34.4093 90.9559L62.9768 80.7277L79.846 74.6912L88.7727 71.5041L93.3373 69.8757L94.4871 69.4656C94.8578 69.3644 95.1966 69.1704 95.4715 68.9019C95.7361 68.634 95.9198 68.2969 96.0015 67.9293C96.0832 67.5618 96.0596 67.1786 95.9334 66.8238C94.8207 63.7211 93.7279 60.6595 92.6549 57.6392C92.1106 56.1251 91.5753 54.6245 91.0491 53.1373C90.7794 52.3994 90.516 51.6534 90.2535 50.9146C90.1205 50.56 89.9963 50.1605 89.8598 49.8355C89.7059 49.5106 89.4663 49.234 89.1667 49.0354C88.8659 48.8369 88.5188 48.7199 88.1593 48.6959C87.7998 48.6718 87.4402 48.7414 87.1157 48.8979L84.9547 49.6638L80.6902 51.1881L72.4315 54.1291L43.8548 64.2855L24.5756 71.1344L21.5414 72.1946C21.1357 72.3205 20.739 72.4737 20.3541 72.6532C20.053 72.833 19.7978 73.0804 19.6087 73.3757C19.3571 73.7823 19.2444 74.2598 19.2878 74.736C19.2791 75.0651 19.3505 75.2236 19.3361 75.2255Z" fill="#263238"/>
<path d="M19.2017 75.3161C19.21 75.3806 18.3414 75.4266 16.8725 75.9067C14.8141 76.591 12.9619 77.784 11.4875 79.3751C9.32791 81.7573 8.18215 84.8876 8.29365 88.101C8.4181 90.8524 9.47631 93.4793 11.2939 95.5486C13.1114 97.618 15.5798 99.0062 18.2921 99.4847C21.0044 99.9631 23.7988 99.5031 26.2147 98.1804C28.6305 96.8578 30.5236 94.7514 31.5819 92.2087C32.4173 90.2053 32.7191 88.0196 32.458 85.8648C32.4092 85.4848 32.3659 85.1479 32.3272 84.8467C32.2885 84.5456 32.2008 84.3164 32.1562 84.1399C32.0969 83.9375 32.0698 83.727 32.0761 83.5161C32.184 83.6979 32.2678 83.8929 32.3256 84.0963C32.3944 84.2915 32.4902 84.527 32.5682 84.7939C32.6462 85.0608 32.7156 85.4309 32.8012 85.8135C33.1826 88.03 32.9484 90.3088 32.1241 92.4014C31.5163 93.9639 30.6008 95.3884 29.4318 96.5902C28.2628 97.792 26.8642 98.7466 25.3191 99.3974C23.4242 100.211 21.3588 100.547 19.3038 100.376C17.2489 100.205 15.2672 99.5332 13.5324 98.4186C12.6334 97.8323 11.8099 97.1377 11.0804 96.3503C8.89028 93.9848 7.68348 90.8738 7.70541 87.6502C7.72734 84.4266 8.97635 81.3323 11.1984 78.9968C12.7607 77.377 14.7302 76.2077 16.9002 75.6117C17.4842 75.4571 18.0801 75.3513 18.6816 75.2954C18.855 75.2736 19.0307 75.2805 19.2017 75.3161Z" fill="#263238"/>
<path d="M33.6594 80.5213C33.84 81.0275 33.8666 81.5759 33.7356 82.0971C33.6047 82.6184 33.3222 83.0891 32.9238 83.4498C32.5254 83.8105 32.029 84.045 31.4973 84.1237C30.9657 84.2023 30.4226 84.1216 29.9368 83.8917C29.4511 83.6618 29.0443 83.293 28.7681 82.832C28.4918 82.371 28.3585 81.8385 28.3848 81.3017C28.4111 80.7649 28.596 80.248 28.9161 79.8162C29.2362 79.3845 29.6771 79.0574 30.183 78.8761C30.8623 78.6349 31.6094 78.6725 32.2609 78.9809C32.9124 79.2892 33.4153 79.8431 33.6594 80.5213Z" fill="#263238"/>
<path d="M88.0637 50.9048L76.3135 55.1001L82.4314 72.2353L94.1817 68.0401L88.0637 50.9048Z" fill="#5000FF"/>
<path d="M75.3479 55.4429L63.5977 59.6382L69.7156 76.7734L81.4658 72.5781L75.3479 55.4429Z" fill="#5000FF"/>
<path d="M62.5676 60.0086L50.8174 64.2039L56.9353 81.3391L68.6856 77.1438L62.5676 60.0086Z" fill="#5000FF"/>
<path d="M49.7991 64.5655L38.0488 68.7607L44.1667 85.896L55.917 81.7007L49.7991 64.5655Z" fill="#5000FF"/>
<g opacity="0.8">
<path d="M49.8001 64.5664L38.0498 68.7617L44.1677 85.897L55.918 81.7017L49.8001 64.5664Z" fill="white"/>
</g>
<g opacity="0.6">
<path d="M62.5676 60.0093L50.8174 64.2046L56.9353 81.3398L68.6856 77.1446L62.5676 60.0093Z" fill="white"/>
</g>
<g opacity="0.4">
<path d="M75.3489 55.4422L63.5986 59.6375L69.7165 76.7727L81.4668 72.5774L75.3489 55.4422Z" fill="white"/>
</g>
<path d="M409.694 54.4625L413.876 85.5134L375.038 90.7438L370.856 59.6929L409.694 54.4625Z" fill="white"/>
<path d="M370.853 59.6935H371.041L371.584 59.6256L373.703 59.3542L381.658 58.3136L409.687 54.5659L409.566 54.4754C410.81 63.7202 412.235 74.3147 413.736 85.5276L413.834 85.3994L375 90.6778L375.106 90.7608C373.824 81.418 372.768 73.6662 372.021 68.2445C371.652 65.5375 371.35 63.411 371.154 61.9557C371.049 61.2016 370.973 60.6813 370.921 60.2968L370.83 59.7237C370.83 59.7237 370.83 59.9122 370.898 60.2817C370.966 60.6512 371.011 61.2092 371.102 61.9255C371.298 63.3733 371.569 65.4998 371.923 68.1993C372.678 73.6361 373.673 81.4104 374.94 90.8211V90.9116H375.03L413.887 85.6256H414V85.5125C412.492 74.2997 411.059 63.7051 409.807 54.4603V54.3623H409.709L381.606 58.2005L373.68 59.2939L371.592 59.5879L371.056 59.6633L370.853 59.6935Z" fill="#212121"/>
<path d="M408.609 56.5971L412.265 83.7395L376.154 88.6025L372.499 61.4601L408.609 56.5971Z" fill="#FFCE05"/>
<path d="M412.273 83.7403L397.388 68.5686L390.994 80.1736L384.939 75.242L376.162 88.604L412.273 83.7403Z" fill="#FFCE05"/>
<path d="M385.979 67.9947C386.054 68.5565 386.294 69.0834 386.669 69.5087C387.044 69.934 387.536 70.2387 388.084 70.3842C388.632 70.5296 389.21 70.5093 389.747 70.3259C390.283 70.1424 390.753 69.804 391.097 69.3535C391.441 68.903 391.643 68.3606 391.679 67.7949C391.715 67.2292 391.582 66.6657 391.297 66.1755C391.012 65.6854 390.589 65.2907 390.08 65.0414C389.571 64.792 388.999 64.6993 388.437 64.7748C387.685 64.878 387.005 65.2745 386.544 65.8778C386.083 66.4811 385.88 67.2421 385.979 67.9947Z" fill="#FFCE05"/>
<g opacity="0.2">
<path d="M412.273 83.7413L397.388 68.5696L390.994 80.1746L384.939 75.243L376.162 88.605L412.273 83.7413Z" fill="#212121"/>
</g>
<g opacity="0.2">
<path d="M385.98 67.9947C386.055 68.5565 386.295 69.0834 386.67 69.5087C387.045 69.934 387.537 70.2387 388.085 70.3842C388.633 70.5296 389.211 70.5093 389.748 70.3259C390.284 70.1424 390.754 69.804 391.098 69.3535C391.442 68.903 391.644 68.3606 391.68 67.7949C391.716 67.2292 391.583 66.6657 391.298 66.1755C391.013 65.6854 390.59 65.2907 390.081 65.0414C389.572 64.792 389 64.6993 388.438 64.7748C387.686 64.878 387.006 65.2745 386.545 65.8778C386.084 66.4811 385.881 67.2421 385.98 67.9947Z" fill="#212121"/>
</g>
<path d="M382.356 28.1275L389.347 74.9561L330.779 83.6986L323.789 36.87L382.356 28.1275Z" fill="white"/>
<path d="M323.769 36.8904L324.056 36.8527L324.878 36.7396L328.06 36.2796L340.057 34.5302L382.36 28.3167L382.186 28.181C384.26 42.1235 386.643 58.1021 389.161 75.0081L389.305 74.8196L330.744 83.5893L330.903 83.71C328.769 69.6166 326.997 57.9362 325.76 49.7773C325.134 45.6902 324.636 42.4855 324.305 40.2912C324.131 39.2053 324.003 38.3683 323.913 37.7877C323.822 37.2071 323.769 36.9281 323.769 36.9281C323.769 36.9281 323.769 37.2071 323.875 37.7651C323.98 38.3231 324.078 39.1676 324.229 40.2459C324.554 42.4327 324.983 45.6299 325.609 49.7094L330.624 83.7703V83.9136H330.767L389.327 75.1363H389.493V74.9704C386.96 58.0644 384.569 42.0934 382.48 28.1508V28H382.33L339.951 34.4095L328 36.2343L324.855 36.7245L324.048 36.8527L323.769 36.8904Z" fill="#212121"/>
<path d="M380.774 31.3793L386.884 72.3086L332.426 80.4377L326.316 39.5084L380.774 31.3793Z" fill="#FFCE05"/>
<path d="M386.869 72.3152L364.051 49.7161L354.648 67.3912L345.388 60.0769L332.418 80.4515L386.869 72.3152Z" fill="#FFCE05"/>
<path d="M346.806 49.1063C346.937 49.9526 347.316 50.741 347.896 51.372C348.475 52.003 349.228 52.4484 350.06 52.6518C350.892 52.8553 351.766 52.8078 352.571 52.5153C353.376 52.2228 354.076 51.6984 354.583 51.0083C355.091 50.3182 355.382 49.4933 355.421 48.6377C355.46 47.782 355.245 46.934 354.803 46.2006C354.36 45.4672 353.711 44.8812 352.935 44.5166C352.16 44.1521 351.295 44.0252 350.448 44.1521C349.883 44.2367 349.34 44.4322 348.85 44.7274C348.361 45.0225 347.935 45.4115 347.597 45.8719C347.258 46.3323 347.014 46.8551 346.878 47.4101C346.742 47.9652 346.718 48.5416 346.806 49.1063Z" fill="#FFCE05"/>
<g opacity="0.2">
<path d="M386.869 72.3174L364.051 49.7183L354.648 67.3934L345.388 60.0791L332.418 80.4537L386.869 72.3174Z" fill="#212121"/>
</g>
<g opacity="0.2">
<path d="M346.806 49.1053C346.937 49.9516 347.316 50.74 347.896 51.371C348.475 52.0021 349.228 52.4474 350.06 52.6509C350.892 52.8543 351.766 52.8068 352.571 52.5143C353.376 52.2218 354.076 51.6974 354.583 51.0073C355.091 50.3172 355.382 49.4923 355.421 48.6367C355.46 47.7811 355.245 46.933 354.803 46.1996C354.36 45.4662 353.711 44.8802 352.935 44.5157C352.16 44.1511 351.295 44.0242 350.448 44.1511C349.883 44.2357 349.34 44.4313 348.85 44.7264C348.361 45.0216 347.935 45.4105 347.597 45.8709C347.258 46.3313 347.014 46.8541 346.878 47.4091C346.742 47.9642 346.718 48.5406 346.806 49.1053Z" fill="#212121"/>
</g>
<path d="M164.562 38.3565C168.161 38.3347 171.285 37.2548 174.2 35.16C174.21 35.3603 174.192 35.5806 174.168 35.8443C174.108 36.292 173.915 36.783 173.648 37.1438L173.632 37.1661L173.618 37.1901C172.446 39.2096 170.456 40.8903 168.363 41.8899C164.463 43.75 159.731 43.6688 155.577 42.4989L155.575 42.4983C153.588 41.9483 151.679 41.0995 149.73 40.2328C148.894 39.8613 148.051 39.4864 147.192 39.1304C144.363 37.959 141.408 37.0219 138.187 37.2924C135.843 37.4545 133.258 38.3774 131.65 40.3159L131.645 40.3221L131.64 40.3285C131.617 40.3591 131.593 40.3897 131.569 40.4201C131.298 40.7711 131.038 41.1056 130.756 41.3542C130.647 41.4493 130.546 41.5221 130.451 41.5748C130.763 38.6893 132.161 35.9574 134.633 34.5375C137.315 32.9972 140.617 33.0352 143.677 33.6421L143.678 33.6423C146.038 34.1054 148.306 34.8308 150.606 35.5663C151.733 35.9268 152.868 36.2898 154.025 36.6254C154.026 36.6261 154.026 36.6267 154.027 36.6273C154.081 36.6675 154.138 36.6988 154.187 36.7228C154.284 36.771 154.398 36.8131 154.511 36.8496C154.739 36.9236 155.022 36.9945 155.297 37.0572C155.575 37.1205 155.857 37.1782 156.085 37.2245L156.136 37.2348C156.347 37.2777 156.486 37.3058 156.54 37.32L156.54 37.3201L156.55 37.3226L156.56 37.3249C157.399 37.5269 158.261 37.7343 159.162 37.874C160.969 38.2033 162.735 38.375 164.562 38.3565Z" fill="#FFCE05" stroke="#212121"/>
<path d="M178.566 59.9654C182.165 59.9436 185.289 58.8637 188.204 56.7688C188.214 56.9663 188.196 57.1832 188.173 57.4418C188.075 57.9808 187.877 58.4637 187.659 58.7434L187.639 58.7699L187.622 58.7989C186.449 60.8184 184.46 62.4992 182.367 63.4988C178.467 65.3589 173.735 65.2777 169.581 64.1077L169.578 64.1072C167.592 63.5572 165.683 62.7084 163.734 61.8417C162.898 61.4702 162.055 61.0953 161.195 60.7393C158.367 59.5679 155.412 58.6308 152.191 58.9013C149.847 59.0634 147.262 59.9863 145.654 61.9247L145.649 61.931L145.644 61.9374C145.62 61.968 145.597 61.9986 145.573 62.029C145.301 62.38 145.042 62.7145 144.76 62.9631C144.651 63.0582 144.55 63.131 144.455 63.1837C144.767 60.2982 146.165 57.5663 148.637 56.1464C151.319 54.6061 154.621 54.6441 157.681 55.251L157.682 55.2512C160.042 55.7143 162.31 56.4397 164.61 57.1752C165.737 57.5357 166.872 57.8987 168.029 58.2343C168.03 58.2349 168.03 58.2355 168.031 58.2361C168.085 58.2763 168.142 58.3077 168.19 58.3317C168.288 58.3799 168.402 58.422 168.515 58.4585C168.742 58.5325 169.026 58.6034 169.301 58.6661C169.579 58.7294 169.86 58.7871 170.089 58.8333L170.139 58.8437C170.351 58.8866 170.49 58.9147 170.544 58.9289L170.544 58.929L170.554 58.9315L170.564 58.9338C171.403 59.1358 172.265 59.3432 173.166 59.4829C174.973 59.8122 176.739 59.9839 178.566 59.9654Z" fill="white" stroke="#212121"/>
<path d="M192.566 80.7862C196.165 80.7644 199.289 79.6845 202.204 77.5897C202.214 77.79 202.196 78.0103 202.171 78.274C202.112 78.7217 201.919 79.2127 201.652 79.5735L201.636 79.5958L201.622 79.6198C200.449 81.6393 198.46 83.32 196.367 84.3196C192.467 86.1797 187.735 86.0985 183.581 84.9286L183.578 84.928C181.592 84.378 179.683 83.5292 177.734 82.6625C176.898 82.291 176.055 81.9161 175.196 81.5601C172.367 80.3887 169.412 79.4516 166.191 79.7221C163.847 79.8842 161.262 80.8071 159.654 82.7455L159.649 82.7518L159.644 82.7581C159.62 82.7888 159.597 82.8194 159.573 82.8498C159.301 83.2008 159.042 83.5353 158.76 83.7839C158.651 83.879 158.55 83.9518 158.455 84.0045C158.767 81.119 160.165 78.3871 162.637 76.9672C165.319 75.4269 168.621 75.4649 171.681 76.0718L171.682 76.072C174.042 76.5351 176.31 77.2605 178.61 77.996C179.737 78.3565 180.872 78.7195 182.029 79.0551C182.03 79.0558 182.03 79.0564 182.031 79.057C182.085 79.0972 182.142 79.1285 182.19 79.1525C182.288 79.2007 182.402 79.2428 182.515 79.2793C182.742 79.3533 183.026 79.4242 183.301 79.4869C183.579 79.5502 183.86 79.6079 184.089 79.6542L184.14 79.6645C184.351 79.7074 184.49 79.7355 184.544 79.7497L184.544 79.7498L184.554 79.7523L184.564 79.7546C185.403 79.9566 186.265 80.164 187.166 80.3037C188.973 80.633 190.739 80.8047 192.566 80.7862Z" fill="#A780FF" stroke="#212121"/>
<path d="M267.243 57.8899L267.243 57.8899C264.257 63.249 261.818 67.0816 260.126 69.5724C259.28 70.8177 258.622 71.7276 258.175 72.3251C257.952 72.6238 257.782 72.8445 257.668 72.9899C257.611 73.0626 257.568 73.1165 257.54 73.1519L257.508 73.1913L257.501 73.2007L257.499 73.2029L257.499 73.2033L257.499 73.2034L257.481 73.2249L257.467 73.2489L253.947 79.1837L253.946 79.1861L253.818 79.4051L253.716 79.5806L253.81 79.7605C253.943 80.0135 254.05 80.2837 254.14 80.562L254.141 80.5647C255.111 83.5016 253.7 87.1609 250.363 90.2376C248.479 91.9571 245.969 94.041 244.595 95.1775C244.573 95.1949 244.554 95.1999 244.538 95.2008C244.52 95.2018 244.5 95.1972 244.481 95.1864C244.462 95.1757 244.45 95.1616 244.444 95.1488C244.438 95.1384 244.433 95.1221 244.439 95.0943L244.439 95.0943L244.439 95.0901C244.49 94.7941 244.547 94.4315 244.618 93.9883C244.815 92.7407 245.113 90.8545 245.649 88.0173L245.649 88.0168C246.426 83.8698 248.023 81.5264 249.396 80.2231C250.085 79.5696 250.722 79.1725 251.182 78.94C251.412 78.8237 251.598 78.7485 251.723 78.7031C251.786 78.6804 251.834 78.6652 251.864 78.656C251.88 78.6514 251.891 78.6483 251.897 78.6465L251.903 78.645L251.903 78.6449L251.903 78.6448L251.903 78.6448L251.904 78.6447L252.073 78.6026L252.147 78.4431L252.235 78.2525L252.236 78.2507L255.196 71.9524L255.209 71.9234L255.218 71.8925L254.864 71.7963L255.218 71.8924L255.218 71.8922L255.218 71.8912L255.219 71.8869L255.224 71.8693L255.244 71.7986C255.261 71.736 255.287 71.6428 255.322 71.5211C255.392 71.2777 255.497 70.9206 255.635 70.4671C255.912 69.5602 256.324 68.2682 256.865 66.7306C257.946 63.654 259.538 59.6004 261.583 55.681L261.583 55.6803C266.103 46.968 277.421 29.4865 281.939 22.5681C281.949 22.5528 281.958 22.5462 281.962 22.5435C281.963 22.5426 281.964 22.5418 281.966 22.5412C281.968 22.5398 281.97 22.539 281.973 22.5385C281.982 22.5365 281.999 22.5367 282.019 22.5466C282.04 22.5567 282.049 22.5697 282.052 22.5756C282.053 22.5779 282.054 22.5801 282.054 22.5831C282.054 22.5861 282.054 22.5951 282.048 22.6113C279.389 30.0181 272.686 48.1262 267.243 57.8899Z" fill="white" stroke="black" stroke-width="0.733822"/>
<path d="M267.252 57.8775C264.266 63.2366 261.826 67.0692 260.135 69.56C259.289 70.8053 258.631 71.7152 258.184 72.3127C257.961 72.6114 257.791 72.8321 257.677 72.9775C257.62 73.0502 257.577 73.1041 257.549 73.1395L257.517 73.1789L257.51 73.1883L257.508 73.1905L257.507 73.1909L257.507 73.1909L257.507 73.191L257.49 73.2125L257.476 73.2365L254.079 78.9637C253.581 78.5204 252.995 78.1517 252.39 77.895L255.193 71.9311L255.206 71.9021L255.215 71.8712L254.861 71.775L255.215 71.8711L255.215 71.8709L255.215 71.8699L255.216 71.8656L255.221 71.848L255.241 71.7773C255.258 71.7147 255.284 71.6215 255.319 71.4998C255.389 71.2564 255.494 70.8993 255.632 70.4458C255.909 69.5389 256.321 68.2469 256.862 66.7093C257.943 63.6327 259.535 59.5791 261.58 55.6597L261.58 55.6594C266.103 46.9675 277.421 29.4857 281.939 22.5674C281.949 22.5523 281.958 22.5457 281.962 22.543C281.966 22.5402 281.969 22.5388 281.973 22.5379C281.982 22.536 281.999 22.5361 282.019 22.5461C282.04 22.5561 282.049 22.5691 282.052 22.575C282.053 22.5774 282.054 22.5795 282.054 22.5826C282.054 22.5856 282.054 22.5945 282.048 22.6107L282.394 22.7338L282.049 22.6098C279.39 30.0161 272.686 48.1253 267.252 57.8775ZM267.252 57.8775L267.573 58.0561L267.252 57.8775Z" fill="#FFCE05" stroke="black" stroke-width="0.733822"/>
<path d="M244.507 95.4649L244.507 95.4653C244.473 95.493 244.426 95.501 244.37 95.4682C244.315 95.436 244.288 95.3835 244.295 95.3228C244.347 94.9875 244.404 94.5742 244.475 94.0644C244.647 92.8258 244.898 91.017 245.342 88.3693C245.352 88.3824 245.361 88.3958 245.371 88.4095C245.548 88.6661 245.62 88.9582 245.709 89.3188C245.729 89.4032 245.751 89.4913 245.775 89.5835L245.775 89.5836L245.778 89.5928C245.859 89.8724 245.985 90.142 246.218 90.3287C246.46 90.5215 246.758 90.5809 247.086 90.5604C247.352 90.5469 247.618 90.4952 247.853 90.4494C247.901 90.4401 247.947 90.4311 247.992 90.4227C248.274 90.3698 248.518 90.3355 248.759 90.3576C249.118 90.3912 249.442 90.5452 249.703 90.8135C249.761 90.8807 249.813 90.945 249.857 91.0076C248.306 92.3589 246.503 93.833 245.215 94.8859C244.956 95.0974 244.718 95.2919 244.507 95.4649Z" fill="#A780FF" stroke="black" stroke-width="0.733822"/>
<path d="M258.059 72.9204C257.604 71.7999 256.403 71.0811 255.194 71.2097C254.808 71.2536 254.893 71.8551 255.279 71.8112C256.206 71.7119 257.156 72.2969 257.511 73.1566C257.646 73.5183 258.195 73.2821 258.059 72.9204Z" fill="black"/>
</svg>
