<svg width="32" height="32" viewBox="0 0 32 32" fill="none" xmlns="http://www.w3.org/2000/svg">
<g clip-path="url(#clip0_3055_25655)">
<rect width="32" height="32" rx="16" fill="#FFF48F"/>
<path d="M14.9015 7.07313C14.8442 7.01584 14.7869 7.01585 14.7869 7.01585C12.438 6.04189 10.8338 8.1044 10.089 9.5367C8.37021 12.9742 8.08375 14.6357 6.36498 16.7555C4.64622 18.8753 7.85458 18.9326 8.14104 18.7607C8.14104 18.7607 8.14104 19.9066 8.88583 20.3076C9.51605 20.5941 10.1463 20.5368 10.3181 20.4795C11.1202 20.4222 11.6931 19.7347 12.0369 19.1045C12.5525 18.1878 13.0109 17.2711 13.4692 16.2972C13.8702 15.3232 14.214 14.3492 14.5578 13.3753C14.9015 12.344 15.2453 11.3127 15.4171 10.2815C15.589 9.13565 15.5317 7.9898 14.9015 7.07313Z" fill="#FFCE00"/>
<path d="M13.9847 6.72988C13.0681 6.55801 12.1514 6.90175 11.4639 7.47467C10.5472 8.21947 9.97429 9.36532 9.51596 10.3966C9.00033 11.5997 8.4847 12.8028 7.85449 13.9487C7.51074 14.5216 7.22428 15.0945 6.82324 15.6102C6.65136 15.8966 6.47949 16.1831 6.25032 16.4122C6.07844 16.6414 5.84926 16.8706 5.73468 17.157C5.44822 17.6727 5.6201 18.2456 6.13573 18.5893C6.70865 18.9904 7.45344 18.9331 8.08365 18.8758C8.02636 18.8758 8.02637 18.8185 7.96908 18.8185C8.02637 19.2195 8.08365 19.6206 8.31282 19.9071C8.4847 20.1935 8.77117 20.3654 9.05763 20.48C9.85972 20.7664 10.7764 20.5946 11.5785 20.3081C11.6931 20.2508 11.6358 20.0216 11.5212 20.0789C10.7764 20.3654 9.97429 20.5373 9.2295 20.3081C8.94304 20.1935 8.65659 20.0789 8.542 19.7925C8.37013 19.506 8.31283 19.105 8.25554 18.7612C8.25554 18.7039 8.19824 18.6466 8.14095 18.7039C7.56803 18.7612 6.93782 18.8758 6.42219 18.532C6.19302 18.4175 6.02115 18.1883 5.96386 17.9591C5.90657 17.6727 5.96385 17.4435 6.13573 17.2143C6.47948 16.6987 6.82323 16.2404 7.16698 15.7247C7.51073 15.2091 7.79719 14.6935 8.08365 14.1779C8.65658 13.1466 9.11492 12.1153 9.57325 11.0268C10.0316 9.99553 10.4899 8.84968 11.292 8.04759C11.9795 7.36009 12.9535 6.84447 13.9847 7.01634C14.042 6.95905 14.0993 6.78718 13.9847 6.72988Z" fill="#15111E"/>
<path d="M8.19818 18.8181C9.00027 18.016 9.34402 16.8129 9.4586 15.7243C9.63048 14.3493 9.45861 12.9743 9.57319 11.542C9.63048 10.8545 9.85966 10.167 10.2034 9.4795C10.2607 9.36491 10.0888 9.25032 10.0315 9.3649C9.4586 10.4535 9.34403 11.6566 9.34403 12.8597C9.34403 14.1774 9.40132 15.5525 9.05757 16.8702C8.88569 17.5004 8.59922 18.1306 8.08359 18.5889C7.96901 18.7608 8.0836 18.9327 8.19818 18.8181Z" fill="#15111E"/>
<path d="M17.8809 24.6618C18.1674 27.0108 8.08398 24.6618 8.08398 24.6618L9.22983 22.7139C9.22983 22.7139 10.3757 20.5368 11.235 18.7034C11.4642 18.1878 11.6934 17.7295 11.8653 17.3284C11.8653 17.3284 12.6101 17.2711 13.584 17.1565C15.4747 16.9274 18.1674 16.6409 18.1674 16.6982C18.1101 16.8128 17.5945 22.3701 17.8809 24.6618Z" fill="white"/>
<path d="M15.1309 17.4431C13.9278 18.3025 12.0371 18.589 11.1777 18.7036C11.4069 18.1879 11.6361 17.7296 11.808 17.3286C11.808 17.3286 12.5527 17.2713 13.5267 17.1567L15.1309 17.4431Z" fill="#15111E"/>
<path d="M11.464 17.7868C11.1776 18.5316 10.8338 19.2764 10.4901 20.0211C10.1463 20.7659 9.80255 21.4535 9.4588 22.1983C9.4015 22.3128 9.57339 22.4274 9.63068 22.3128C9.97444 21.568 10.3182 20.8232 10.7192 20.0784C11.063 19.3336 11.4067 18.5889 11.6932 17.8441C11.7505 17.6722 11.5213 17.6149 11.464 17.7868Z" fill="#15111E"/>
<path d="M17.7087 20.8231C17.6514 21.3387 17.6514 21.8543 17.6514 22.37C17.6514 22.5418 17.8805 22.5418 17.8805 22.37C17.8805 21.8543 17.9378 21.3387 17.9378 20.8231C17.9378 20.7085 17.7087 20.7085 17.7087 20.8231Z" fill="#15111E"/>
<path d="M23.7245 40.5319C23.6672 40.4174 -2.28613 39.6153 -2.28613 39.6153C-2.17155 39.2142 4.64621 23.1151 4.64621 23.1151L8.3129 24.261L9.00041 23.0579L9.45874 22.1985C9.45874 22.1985 15.2453 23.8599 17.7088 22.3704C17.7088 22.3704 17.6515 22.8287 17.7088 23.4016C17.7088 24.1464 17.8234 25.1777 18.2244 25.8079C18.9119 26.8964 23.7818 40.6465 23.7245 40.5319Z" fill="white"/>
<path d="M17.7081 23.4016C17.1352 23.6881 15.8174 24.0891 13.583 24.0318C11.0049 23.9745 9.5153 23.3443 8.94238 23.0579L9.40073 22.1985C9.40073 22.1985 13.4685 23.5735 17.6508 22.3704C17.7081 22.4276 17.7081 22.8287 17.7081 23.4016Z" fill="#FFCE00"/>
<path d="M9.45816 22.1986C8.82795 23.3444 8.08315 24.3757 7.45294 25.5215C7.39564 25.6361 7.56753 25.7507 7.62482 25.6361C8.31233 24.5476 8.99983 23.459 9.63005 22.3132C9.68734 22.1986 9.51545 22.084 9.45816 22.1986Z" fill="#15111E"/>
<path d="M8.99996 23.2869C11.8646 24.089 14.901 24.5473 17.7656 23.5734C17.8802 23.5161 17.8229 23.2869 17.7084 23.3442C14.8438 24.3182 11.8646 23.8598 9.05725 23.0577C8.94267 23.0577 8.88537 23.2869 8.99996 23.2869Z" fill="#15111E"/>
<path d="M17.5938 22.4271C17.5938 23.1146 17.651 23.8021 17.7656 24.5469C17.8229 24.8334 17.8802 25.1199 17.9375 25.4636C17.9375 25.5782 18.1667 25.5209 18.1667 25.4063C18.1094 25.1199 18.0521 24.8334 17.9948 24.5469C17.8802 23.8594 17.8802 23.1719 17.8802 22.4844C17.8229 22.2553 17.5938 22.2553 17.5938 22.4271Z" fill="#15111E"/>
<path d="M9.51589 22.37C12.2086 23.0002 15.0732 23.4585 17.7659 22.5419C17.8805 22.4846 17.8232 22.2554 17.7087 22.3127C15.0732 23.1721 12.2659 22.771 9.57318 22.1408C9.40131 22.0835 9.34401 22.3127 9.51589 22.37Z" fill="#15111E"/>
<path d="M43.5473 -6.56247L41.8286 -9.82813C41.8286 -9.88542 41.8286 -9.9427 41.714 -10C40.5681 -10.6302 30.141 -6.73435 27.2191 -3.69787C27.0472 -3.52599 26.9326 -3.23953 27.3337 -3.12495L29.2243 1.00009L43.5473 -6.56247Z" fill="#15111E"/>
<path d="M43.5467 -15.4427C43.4894 -15.3282 43.3749 -15.2136 43.3176 -15.099C42.7446 -14.4115 42.0571 -13.8959 41.3696 -13.2656C40.6821 -12.6354 39.9946 -11.9479 39.3071 -11.3177C38.9634 -10.9739 38.6769 -10.5156 38.6196 -10.0573C38.5623 -9.82812 38.5623 -9.65624 38.5623 -9.42707C38.5623 -9.25519 38.6196 -9.08332 38.6769 -8.91145C38.7342 -8.62498 38.9061 -8.39581 39.078 -7.99477C39.1925 -7.82289 39.2498 -7.59372 39.3644 -7.36455C39.3644 -7.30726 39.4217 -7.24998 39.4217 -7.19268C39.5363 -6.96352 39.7082 -6.67704 39.8227 -6.44788C39.9373 -6.276 40.0519 -6.04685 40.1665 -5.81768C40.6821 -4.84371 41.2551 -3.81245 41.7134 -2.95307C42.229 -2.0364 42.1717 -1.40618 41.255 -0.775965C38.8488 0.770922 36.0988 2.26052 33.2342 2.94802C33.005 3.00531 32.7185 3.06261 32.4894 3.00532C31.5727 2.83344 31.1717 1.6303 30.8279 0.885502C30.4269 0.0834122 30.0258 -0.718683 29.6248 -1.52077C29.3956 -2.0364 29.1091 -2.49472 28.88 -3.01035C28.88 -3.06764 28.8227 -3.06765 28.8227 -3.12494C28.5935 -3.58328 28.4216 -3.98432 28.1925 -4.44265C27.505 -5.98954 26.8747 -7.65102 26.4164 -9.42707C26.0727 -10.6875 26.3018 -12.0625 27.1039 -13.1511C27.906 -14.2396 29.1091 -14.8125 30.1977 -15.5573C30.5987 -15.8438 31.0571 -16.1303 31.4581 -16.4167C32.7185 -17.2761 34.0363 -18.0209 35.354 -18.823C36.9009 -19.7969 38.6196 -21.1147 40.5676 -21.1719C42.0571 -21.2292 43.7186 -20.9428 44.2915 -19.3959C44.7499 -18.1928 44.2915 -16.5886 43.5467 -15.4427Z" fill="white"/>
<path d="M43.4321 -15.5002C42.7446 -14.5262 41.7133 -13.8387 40.854 -13.0366C40.3956 -12.5783 39.88 -12.1199 39.4217 -11.6616C39.0206 -11.2605 38.6769 -10.9168 38.505 -10.3439C38.3331 -9.82825 38.3331 -9.31262 38.505 -8.85428C38.6769 -8.33866 38.9633 -7.88032 39.1925 -7.36469C39.7654 -6.21885 40.3956 -5.1303 40.9685 -4.04175C41.255 -3.52612 41.5415 -3.06779 41.7706 -2.55216C41.8852 -2.15111 41.8852 -1.75007 41.5987 -1.40631C41.4269 -1.23444 41.255 -1.06257 41.0258 -0.947985C40.7967 -0.77611 40.5102 -0.604221 40.281 -0.489637C39.7654 -0.145885 39.2498 0.140577 38.7341 0.427038C37.6456 0.99996 36.557 1.57287 35.4112 1.97391C34.8383 2.20308 34.2654 2.37496 33.6924 2.54683C33.1768 2.71871 32.6039 2.89059 32.0883 2.54683C31.7445 2.31767 31.5153 1.91663 31.2862 1.51558C31.1143 1.11454 30.9424 0.713495 30.7132 0.369743C30.1403 -0.776098 29.5674 -1.92194 28.9945 -3.06778C28.4789 -4.21362 27.9059 -5.30217 27.5049 -6.44801C27.2757 -7.02093 27.1039 -7.59385 26.8747 -8.16677C26.7028 -8.73969 26.4736 -9.36991 26.4163 -9.94283C26.2445 -11.0887 26.4736 -12.2345 27.1039 -13.1512C27.7341 -14.0106 28.708 -14.5835 29.5674 -15.1564C30.0257 -15.5002 30.5414 -15.7866 30.9997 -16.1304C31.5153 -16.4741 32.0883 -16.8179 32.6039 -17.1616C33.6924 -17.8491 34.781 -18.4221 35.8122 -19.1096C36.7289 -19.6825 37.6456 -20.3127 38.6768 -20.771C39.5935 -21.1721 40.6248 -21.2867 41.5987 -21.1721C42.4581 -21.0575 43.3175 -20.7137 43.8331 -19.9689C44.4061 -19.0523 44.4061 -17.9064 44.0623 -16.9325C43.9477 -16.4168 43.7186 -15.9012 43.4321 -15.5002C43.3748 -15.3856 43.5467 -15.271 43.604 -15.3856C44.6925 -16.9325 45.1508 -19.6252 43.2602 -20.8283C42.5154 -21.2867 41.5987 -21.4012 40.7394 -21.4012C39.6508 -21.4012 38.6196 -21.0002 37.6456 -20.4846C36.6143 -19.9116 35.6404 -19.2242 34.6664 -18.6512C33.5206 -17.9637 32.3747 -17.2762 31.2289 -16.5314C30.7132 -16.1877 30.1976 -15.8439 29.682 -15.4429C29.2237 -15.1564 28.7653 -14.8699 28.307 -14.5262C27.3903 -13.896 26.6455 -13.0939 26.3018 -12.0053C26.1299 -11.4897 26.0726 -10.9168 26.1299 -10.3439C26.1872 -9.77096 26.3591 -9.19804 26.5309 -8.62512C26.8747 -7.42199 27.333 -6.21885 27.8486 -5.073C28.3643 -3.86987 28.9372 -2.66675 29.5101 -1.52091C30.0257 -0.489649 30.5414 0.541609 31.057 1.63016C31.2289 2.0312 31.4581 2.37497 31.7445 2.66143C32.0883 3.00518 32.4893 3.06247 33.0049 3.00518C33.6351 2.8906 34.2081 2.71871 34.781 2.48954C35.3539 2.26037 35.9268 2.03121 36.4998 1.80204C37.6456 1.28642 38.7914 0.6562 39.88 0.0259876C40.3956 -0.260473 40.9112 -0.604233 41.4269 -0.947985C41.7706 -1.17715 41.9998 -1.5209 42.0571 -1.92194C42.1144 -2.38028 41.9425 -2.78132 41.7133 -3.12508C41.4269 -3.698 41.0831 -4.27092 40.7967 -4.84384C40.1664 -5.98968 39.5362 -7.13552 38.9633 -8.28136C38.7341 -8.79699 38.505 -9.31261 38.6196 -9.88553C38.7341 -10.5157 39.0779 -10.9741 39.5362 -11.4324C39.9946 -11.8908 40.5102 -12.3491 40.9685 -12.8074C41.4269 -13.2658 41.9425 -13.6668 42.4008 -14.0679C42.8592 -14.4689 43.2602 -14.8699 43.604 -15.3283C43.7185 -15.5002 43.4894 -15.6148 43.4321 -15.5002Z" fill="#15111E"/>
<path d="M54.7767 15.0371C53.6881 12.0006 42.287 -8.79645 42.287 -8.79645C42.287 -8.79645 40.6828 -7.36415 35.8703 -4.90059C32.089 -2.95266 29.0525 -2.66621 27.9067 -2.66621C27.6775 -2.66621 27.5629 -2.49432 27.6775 -2.26515L30.714 4.32343C30.7713 4.49531 35.1255 13.2037 37.4172 17.8444C31.9744 19.7923 19.5993 24.433 18.6827 25.0059C17.5368 25.6934 16.3337 25.9798 16.2191 28.6153C16.1045 31.2507 18.3389 40.532 18.3389 40.532L40.3964 32.0528C40.5682 32.1101 40.7401 32.0528 40.9693 31.9955C41.8287 31.5945 42.8026 31.1934 43.8912 30.7351L45.4954 30.1049L45.4381 30.0476C47.6725 29.0736 50.136 27.8132 52.4277 26.0371C56.4954 22.8861 55.8079 18.0162 54.7767 15.0371Z" fill="white"/>
<path d="M16.7347 27.2398C17.0785 25.6929 18.7399 25.0627 20.0576 24.6044C21.5472 24.0314 22.9795 23.4585 24.4691 22.9429C27.1619 21.9116 29.7973 20.9377 32.49 19.9637C34.1515 19.3335 35.813 18.7033 37.4744 18.0731C37.589 18.0158 37.5317 17.7866 37.4171 17.8439C34.5525 18.9897 31.6306 20.0783 28.7087 21.1095C25.8441 22.1981 22.9795 23.2866 20.1149 24.3752C18.6826 24.9481 16.8493 25.521 16.4482 27.2398C16.5055 27.2971 16.7347 27.3544 16.7347 27.2398Z" fill="#15111E"/>
<path d="M38.3341 18.9899C36.7872 16.3544 35.3549 13.6044 34.0372 10.8544C32.6049 7.93248 31.2298 5.01059 29.8548 2.0314C29.4538 1.11473 28.9955 0.19805 28.5944 -0.661331C28.3653 -1.11967 28.1361 -1.578 27.9069 -2.09363C27.7923 -2.3228 27.6777 -2.55196 27.6205 -2.72383C27.5632 -2.89571 27.4486 -3.18217 27.334 -3.29675C27.334 -3.23946 27.2767 -3.18218 27.2767 -3.12488C29.5684 -2.95301 31.8601 -3.52592 33.9799 -4.4426C35.8705 -5.24468 37.7612 -6.16136 39.4226 -7.42179C40.3393 -8.10929 41.1987 -8.91139 41.9435 -9.77077C41.8862 -9.77077 41.8289 -9.77077 41.7716 -9.77077C43.8341 -5.9322 45.8966 -2.09363 47.9591 1.74494C49.2769 4.2085 50.6519 6.72936 51.9123 9.25021C52.5425 10.5106 53.1727 11.7711 53.8029 13.0315C54.3759 14.12 55.0061 15.2086 55.2925 16.4117C55.8081 18.4169 55.6363 20.594 54.9488 22.4847C54.605 23.4586 54.0894 24.3753 53.3446 25.1774C52.5425 26.0941 51.454 26.7243 50.4227 27.4118C47.9591 28.9587 45.3237 30.2191 42.631 31.3077C40.3393 32.2243 37.933 33.0264 35.584 33.8858C31.0007 35.5472 26.4746 37.3806 21.8912 39.214C21.4329 39.3858 20.9173 39.615 20.4589 39.7869C20.3444 39.8442 20.4017 40.0733 20.5162 40.016C25.0996 38.1827 29.6257 36.3493 34.2663 34.5733C36.558 33.7139 38.8497 32.9691 41.1414 32.1097C43.8341 31.0785 46.4695 29.9326 48.9904 28.5003C50.1935 27.8128 51.3967 27.068 52.5425 26.2087C53.3446 25.5785 53.9748 24.8336 54.4331 23.9743C55.4644 22.1982 55.9227 20.0211 55.7509 18.0159C55.6936 17.0419 55.4644 16.068 55.0634 15.2086C54.4904 13.8909 53.8029 12.6304 53.1727 11.37C51.9123 8.79186 50.5946 6.27102 49.2769 3.75016C46.9852 -0.546741 44.6362 -4.78635 42.4018 -9.08326C42.2872 -9.31242 42.1154 -9.5989 42.0008 -9.82806C41.9435 -9.88536 41.8862 -9.88536 41.8289 -9.82806C40.5685 -8.28118 38.907 -7.02075 37.1309 -6.04678C35.2403 -5.01553 33.2351 -4.09884 31.1726 -3.58321C29.9121 -3.29675 28.6517 -3.12489 27.334 -3.23948C27.2194 -3.23948 27.1621 -3.12488 27.2767 -3.06759C27.334 -3.0103 27.3913 -2.83842 27.3913 -2.78113C27.4486 -2.66654 27.5059 -2.55196 27.5632 -2.49467C27.6777 -2.2655 27.735 -2.09362 27.8496 -1.86445C28.0215 -1.46341 28.2507 -1.06238 28.4225 -0.661331C28.8236 0.140758 29.1673 0.942854 29.5684 1.74494C30.2559 3.29183 31.0007 4.78142 31.6882 6.32831C33.0059 9.13562 34.3809 11.9429 35.8132 14.693C36.6153 16.1825 37.4174 17.6721 38.2768 19.1617C38.2195 19.219 38.4487 19.1044 38.3341 18.9899Z" fill="#15111E"/>
<path d="M14.3859 -18.3078C13.7557 -16.4744 12.5526 -14.6984 10.8911 -13.6671C10.5474 -13.4379 10.1463 -13.2661 9.74529 -13.0942C8.37028 -12.5786 6.88069 -12.2921 5.56297 -11.6046C3.78691 -10.6306 2.12544 -9.19834 0.922308 -7.53687C-0.509995 -5.58894 -4.23398 -1.23473 -5.37982 0.312153C-5.5517 0.254862 -5.78087 0.140278 -5.95274 0.025692C-12.4267 -3.06808 -13.9736 -7.88061 -13.9736 -7.88061C-13.057 -8.91186 -12.1403 -10.115 -11.1663 -11.2609C-9.44756 -13.3807 -7.61421 -15.3859 -5.89545 -16.3025C-5.60899 -16.4744 -5.32253 -16.589 -5.03607 -16.7036C-2.22875 -18.0786 0.234806 -18.8807 3.27129 -19.9119C4.93276 -20.4849 7.68277 -20.2557 9.45882 -20.2557C11.2349 -20.2557 12.3234 -20.1984 14.0422 -20.0265C14.8443 -19.9692 14.5578 -18.8807 14.3859 -18.3078Z" fill="white"/>
<path d="M14.2714 -18.3649C13.6412 -16.4743 12.3807 -14.6982 10.662 -13.7243C9.68799 -13.1514 8.54215 -12.9222 7.51089 -12.5784C6.47963 -12.2347 5.50566 -11.8336 4.58899 -11.2034C3.72961 -10.6305 2.87024 -9.94301 2.12544 -9.19821C1.49522 -8.568 0.9796 -7.8805 0.463971 -7.19299C-0.509995 -5.93256 -1.54126 -4.72943 -2.51522 -3.46901C-3.48919 -2.26587 -4.52045 -1.06274 -5.43712 0.197683C-5.37983 0.197683 -5.32253 0.197697 -5.26524 0.140406C-7.44234 -0.833559 -9.50486 -2.20857 -11.1663 -3.92734C-12.083 -4.95859 -12.9424 -6.04714 -13.5153 -7.30756C-13.6299 -7.53673 -13.6872 -7.70861 -13.8018 -7.93778C-13.8018 -7.88049 -13.8018 -7.8805 -13.859 -7.82321C-12.1976 -9.77114 -10.6507 -11.8336 -8.87465 -13.7243C-8.07256 -14.5264 -7.27047 -15.3285 -6.2965 -15.9587C-5.78088 -16.2451 -5.26524 -16.5316 -4.74961 -16.7608C-4.17669 -17.0472 -3.66107 -17.2764 -3.08814 -17.5056C-1.99959 -17.9639 -0.853744 -18.3649 0.234806 -18.766C0.807727 -18.9951 1.38065 -19.167 1.95357 -19.3389C2.52649 -19.5108 3.04211 -19.7399 3.61504 -19.9118C4.589 -20.1983 5.62025 -20.1983 6.59421 -20.1983C7.56818 -20.1983 8.54215 -20.141 9.51611 -20.141C10.662 -20.141 11.7505 -20.141 12.8391 -20.0264C13.1255 -20.0264 13.412 -19.9691 13.6984 -19.9691C13.9276 -19.9691 14.2141 -19.9691 14.3859 -19.7972C14.6151 -19.5681 14.5578 -19.1097 14.5005 -18.8233C14.3859 -18.6514 14.3287 -18.5368 14.2714 -18.3649C14.2141 -18.2504 14.4432 -18.1931 14.5005 -18.3076C14.6724 -18.766 14.9016 -19.4535 14.5578 -19.9118C14.3859 -20.1983 14.0422 -20.1983 13.6984 -20.2556C13.2401 -20.3129 12.7245 -20.3702 12.2661 -20.3702C11.3495 -20.4275 10.4328 -20.4275 9.51611 -20.4275C8.71402 -20.4275 7.91194 -20.4847 7.10986 -20.4847C6.25047 -20.4847 5.39109 -20.4848 4.53171 -20.3702C4.18796 -20.3129 3.7869 -20.2556 3.44315 -20.141C2.98481 -20.0264 2.52648 -19.8545 2.06814 -19.6827C0.234796 -19.0524 -1.59855 -18.4222 -3.4319 -17.6201C-4.34857 -17.2191 -5.26524 -16.8181 -6.18191 -16.3024C-6.92671 -15.9014 -7.61422 -15.3285 -8.24443 -14.6983C-9.79132 -13.266 -11.109 -11.5472 -12.484 -9.88571C-12.8278 -9.48466 -13.1143 -9.08363 -13.458 -8.68259C-13.6299 -8.51071 -13.8018 -8.28154 -13.9163 -8.10967C-13.9736 -7.99508 -14.1455 -7.93779 -14.1455 -7.82321C-14.1455 -7.70862 -14.0882 -7.59404 -14.0309 -7.53675C-13.8018 -6.90653 -13.458 -6.33361 -13.057 -5.76069C-11.5101 -3.41171 -9.27569 -1.52107 -6.81213 -0.20335C-6.35379 0.0258179 -5.95274 0.25499 -5.4944 0.426867C-5.43711 0.426867 -5.37982 0.426863 -5.32253 0.36957C-4.52044 -0.718979 -3.60377 -1.80753 -2.74439 -2.83879C-1.71313 -4.09921 -0.681877 -5.35964 0.34938 -6.62007C0.865008 -7.25028 1.32335 -7.88049 1.83898 -8.5107C2.58377 -9.31279 3.38586 -10.0576 4.30253 -10.6878C5.2192 -11.318 6.13588 -11.8336 7.22443 -12.1774C8.25569 -12.5211 9.34423 -12.7503 10.3182 -13.266C12.0943 -14.1253 13.412 -15.7868 14.2141 -17.6201C14.3287 -17.8493 14.3859 -18.0785 14.4432 -18.3076C14.5578 -18.4222 14.3287 -18.4795 14.2714 -18.3649Z" fill="#15111E"/>
<path d="M7.62487 23.9744C7.62487 23.9744 5.10402 39.6152 -2.80229 37.6099C-2.80229 37.6099 -21.5941 29.0161 -27.1514 25.7505C-27.4952 25.5213 -27.8389 25.3494 -28.0681 25.1776C-32.0213 22.4848 -33.9692 20.1359 -32.9379 15.6671C-32.6515 14.5212 -31.7921 12.8598 -30.5317 10.9118C-27.2087 5.81285 -21.4795 -1.11948 -18.7295 -4.72888C-16.667 -7.4789 -15.0628 -9.42685 -14.0888 -10.6873C-13.2294 -11.7185 -12.7711 -12.2914 -12.7711 -12.2914C-12.7711 -12.2914 -11.8544 -8.51017 -7.67212 -5.24452C-1.88562 -1.807 -1.02624 -1.69241 -1.02624 -1.69241L-1.88562 -0.546566L-14.0315 15.839C-13.8597 15.839 7.62487 23.9744 7.62487 23.9744Z" fill="white"/>
<path d="M8.31262 24.0319C6.02093 23.3444 3.72925 22.5423 1.49486 21.7402C-1.42703 20.6516 -4.34892 19.5058 -7.21352 18.4173C-9.44791 17.5579 -11.7396 16.6412 -13.974 15.7818C-14.0886 15.7245 -14.1459 15.9537 -14.0313 16.011C-10.3646 17.4433 -6.6979 18.8756 -3.03121 20.2506C-0.510357 21.2246 1.95321 22.1985 4.53135 23.0579C5.79178 23.459 7.05219 23.9173 8.31262 24.261C8.36991 24.261 8.4272 24.0892 8.31262 24.0319Z" fill="#15111E"/>
<path d="M3.04202 22.9431C0.463879 26.8963 -13.3435 50.0423 -46 157.064C-46 157.064 -13.3435 157.866 -13.3435 156.491C-13.3435 155.116 6.19309 82.1258 6.19309 82.1258C6.36496 83.329 16.3338 131.683 28.0214 159.298L56.8966 159.126C54.433 150.934 51.9695 142.741 49.5632 134.548C44.6934 118.105 39.8808 101.605 35.2975 85.0478C32.1464 73.7612 28.7662 62.4747 26.6463 50.9017C24.9849 41.9641 24.6411 32.9692 24.0682 23.9171C24.0682 23.6306 24.0109 23.3442 24.0109 23.0577L22.464 23.6306C22.0057 23.8025 21.6619 24.089 21.6047 24.6046C21.1463 27.9848 20.1723 36.0057 19.5421 37.7245C18.8546 39.7297 18.0526 39.386 15.0734 39.0995C9.34415 38.5839 5.391 38.6412 2.75556 38.813C0.40659 38.9276 0.177418 38.0109 0.693047 36.1203C2.98473 27.8702 5.62017 23.4015 5.62017 23.4015L3.9587 22.714C3.50036 22.4275 3.27119 22.5994 3.04202 22.9431Z" fill="#15111E"/>
<path d="M15.4164 7.64633C15.4164 7.64633 13.583 7.35988 12.4372 9.30781C11.2914 11.1984 10.0882 13.3755 10.1455 15.4381C10.2028 17.6724 11.9216 18.3027 13.2966 17.9589C14.6716 17.5579 15.8174 17.386 16.906 16.3547C17.9945 15.3235 18.8539 11.1984 18.281 9.93801C17.7081 8.62029 16.7914 8.04737 15.4164 7.64633Z" fill="white"/>
<path d="M14.7867 7.5318C13.7554 7.5318 13.0106 8.21931 12.4377 9.0214C12.1512 9.42244 11.9221 9.88077 11.6929 10.3391C11.4064 10.912 11.12 11.485 10.8335 12.1152C10.3179 13.3183 9.80227 14.636 9.97414 15.8964C10.146 16.9277 10.8908 17.7871 11.9221 18.0162C12.9533 18.2454 14.0992 17.959 15.0731 17.4433C15.1877 17.386 15.0731 17.1569 14.9585 17.2715C14.1565 17.6725 13.2398 17.959 12.3231 17.8444C11.3491 17.7298 10.4898 17.0996 10.2606 16.1256C9.97414 14.9225 10.4325 13.6047 10.8908 12.5162C11.12 11.886 11.4064 11.3131 11.6929 10.7402C11.9221 10.3391 12.0939 9.93807 12.3231 9.53702C12.8387 8.62035 13.5835 7.76096 14.7294 7.76096C14.9585 7.76096 14.9586 7.5318 14.7867 7.5318Z" fill="#15111E"/>
<path d="M13.2395 11.4273C13.1249 11.3701 12.953 11.2555 12.8957 11.0836C12.8384 10.9117 12.953 10.7398 13.0676 10.6253C13.354 10.2815 13.5832 9.93776 13.8697 9.59401C13.9843 9.47943 13.8124 9.30754 13.6978 9.42212C13.5259 9.65129 13.354 9.82317 13.1822 10.0523C13.0103 10.2242 12.8384 10.4534 12.7238 10.6253C12.6092 10.7971 12.6092 11.0263 12.6665 11.1982C12.7811 11.3701 12.953 11.4846 13.1249 11.5992C13.2395 11.7138 13.354 11.5419 13.2395 11.4273Z" fill="#15111E"/>
<path d="M11.807 13.4328C12.3799 13.3182 12.9528 13.2036 13.4684 13.0317C13.6976 12.9745 13.9268 12.8599 14.0987 12.7453C14.2132 12.688 14.3278 12.6307 14.4424 12.5734C14.557 12.5161 14.7289 12.4015 14.9007 12.4588C15.1872 12.4588 15.3591 12.7453 15.2445 13.0317C15.1872 13.2609 14.958 13.4901 14.7289 13.6047C14.3278 13.8338 13.8695 13.9484 13.4112 13.9484C12.8955 13.9484 12.3799 13.7765 12.208 13.2609C12.1507 13.1463 11.9216 13.2036 11.9789 13.3182C12.3799 14.3495 13.8122 14.2922 14.6716 13.8911C15.1299 13.662 15.7028 13.1463 15.4164 12.5734C15.3018 12.2869 15.0153 12.1724 14.7289 12.1724C14.6143 12.1724 14.4424 12.2869 14.3278 12.3442C14.1559 12.4015 14.0414 12.4588 13.8695 12.5734C13.182 12.8599 12.4372 13.089 11.6924 13.1463C11.6351 13.2609 11.6924 13.4901 11.807 13.4328Z" fill="#15111E"/>
<path d="M12.7236 9.07849C12.7236 9.07849 12.7809 9.0785 12.7809 9.02121C12.8382 9.02121 12.8382 9.02121 12.8955 9.02121C12.8955 9.02121 12.8955 9.02121 12.9528 9.02121H13.0101H13.0674C13.1247 9.02121 13.1247 9.02121 13.182 9.02121H13.2393C13.2965 9.02121 13.2966 9.07849 13.3538 9.07849C13.4111 9.07849 13.4111 9.07849 13.4111 9.13578C13.4684 9.19308 13.5257 9.19308 13.583 9.13578C13.6403 9.07849 13.6403 9.02121 13.583 8.96391C13.3538 8.73475 12.9528 8.67745 12.609 8.84932C12.5517 8.84932 12.5518 8.96392 12.5518 9.02121C12.609 9.0785 12.6663 9.07849 12.7236 9.07849Z" fill="#15111E"/>
<path d="M14.6719 9.25064C14.901 9.07877 15.1302 9.02148 15.3594 9.02148C15.4167 9.02148 15.474 8.96418 15.474 8.90689C15.474 8.8496 15.4167 8.7923 15.3594 8.7923C15.0729 8.7923 14.7865 8.90688 14.5573 9.07876C14.5 9.13605 14.5 9.19335 14.5 9.25064C14.5573 9.25064 14.6146 9.25064 14.6719 9.25064Z" fill="#15111E"/>
<path d="M15.3018 10.3962C15.1872 10.6827 14.9008 10.7973 14.7289 10.74C14.557 10.6254 14.4997 10.339 14.6143 10.1098C14.7289 9.82333 15.0153 9.70874 15.1872 9.76603C15.3591 9.88062 15.4164 10.1671 15.3018 10.3962Z" fill="#15111E"/>
<path d="M12.8772 10.2233C13.0156 9.93875 13.0125 9.65199 12.8702 9.58278C12.728 9.51356 12.5004 9.6881 12.362 9.97262C12.2235 10.2571 12.2267 10.5439 12.3689 10.6131C12.5112 10.6823 12.7387 10.5078 12.8772 10.2233Z" fill="#15111E"/>
<path d="M25.7302 21.1674C25.7302 21.2247 25.6729 21.3393 25.6729 21.3966C25.501 21.7977 24.9854 22.1414 24.3552 22.256C23.6104 22.4279 22.751 21.6831 22.751 21.6831C22.1781 22.1987 21.5479 22.4279 20.9177 22.4852C20.2301 22.5425 19.7145 22.256 19.2562 21.7977C18.7979 21.3393 18.7406 20.5372 18.7406 20.5372C18.3395 20.9383 17.251 20.7091 17.251 20.7091C16.277 20.6518 15.7614 19.506 15.7041 18.3028C15.6468 17.0997 16.7353 13.4903 16.9645 12.4018C17.0791 12.0007 17.3083 10.8549 16.9645 10.4538C16.9072 10.3965 16.7926 10.3392 16.7353 10.2819C16.277 9.99549 15.876 9.59444 15.5895 9.13611C15.303 8.67777 15.1884 8.16214 14.902 7.7038C14.6155 7.24547 14.2718 7.30277 13.928 6.95901C13.6989 6.72985 15.0739 6.04233 15.2457 5.98504C15.7041 5.75587 16.2197 5.6413 16.678 5.58401C17.3655 5.46942 18.0531 5.5267 18.7406 5.64129C19.0843 5.69858 19.3708 5.75588 19.6572 5.87047C21.2041 6.32881 22.2354 7.64652 22.8656 9.02153C23.4958 10.3965 23.9541 14.407 24.1833 15.6674C24.4125 16.9278 24.8135 18.0737 25.2146 18.9331C25.7875 19.7924 25.7875 20.7091 25.7302 21.1674Z" fill="#FFCE00"/>
<path d="M25.3868 18.9325C24.9857 18.0731 24.5847 16.9273 24.3555 15.6668C24.069 14.0627 23.8972 12.4585 23.5534 10.8543C23.2669 9.65117 22.8659 8.44804 22.0638 7.47407C21.2617 6.50011 20.1159 5.8126 18.8555 5.75531C19.3711 5.75531 20.0586 6.27093 20.4596 6.5001C20.9753 6.84385 21.4336 7.2449 21.7774 7.76053C22.4649 8.61991 22.8086 9.76575 22.9805 10.797C23.2097 11.9428 23.2097 13.146 23.2669 14.3491C23.3815 16.1252 23.2669 18.0158 23.8399 19.7346C24.0117 20.3075 24.3555 20.8231 24.8138 21.1669C25.043 21.3388 25.6732 21.6825 25.7305 21.2242C25.7878 20.7085 25.7878 19.7919 25.3868 18.9325Z" fill="white"/>
<path d="M14.7298 7.41705C14.959 8.27644 15.3027 9.19312 15.933 9.88062C16.5632 10.5681 17.3653 10.9692 18.2246 11.3129C18.3392 11.3702 18.3965 11.141 18.2819 11.0837C17.4798 10.7973 16.6777 10.3962 16.1048 9.70874C15.5319 9.07852 15.1882 8.21914 14.959 7.35976C14.9017 7.18788 14.6725 7.24518 14.7298 7.41705Z" fill="#15111E"/>
<path d="M16.9645 10.6254C17.1364 12.516 16.277 14.2921 15.876 16.0681C15.7041 16.8129 15.5895 17.615 15.6468 18.3598C15.6468 18.99 15.8187 19.6775 16.2198 20.1931C16.4489 20.4796 16.7927 20.6515 17.1364 20.7661C17.6521 20.9379 18.1677 20.9379 18.6833 20.7661C18.626 20.7661 18.5687 20.7088 18.5687 20.7088C18.626 21.0525 18.7979 21.4536 18.9698 21.74C19.2562 22.1411 19.7719 22.4275 20.2875 22.5994C20.8031 22.7713 21.376 22.6567 21.8344 22.4275C22.1208 22.3129 22.35 22.1411 22.5792 21.9692L22.6365 21.9119C22.6937 21.9119 22.6937 21.8546 22.6365 21.8546C22.6937 21.9119 22.751 21.9119 22.8083 21.9692C23.0948 22.1411 23.324 22.3129 23.6677 22.4275C24.1833 22.5994 24.7563 22.4848 25.2146 22.0838C26.0167 21.3963 25.9594 20.3077 25.6156 19.391C25.3865 18.7608 25.1 18.1879 24.8709 17.615C24.6417 16.9848 24.5271 16.4119 24.4125 15.7816C24.1833 14.5212 24.0688 13.2035 23.8396 11.9431C23.4385 9.70868 22.6938 7.24513 20.5167 6.15658C18.5114 5.12533 15.876 5.23991 14.0426 6.67221C13.9853 6.7295 13.9281 6.78679 13.8708 6.84408C13.9281 6.84408 13.9853 6.90137 14.0426 6.90137C14.0426 6.78679 13.8135 6.78679 13.8135 6.90137C13.8135 7.01596 13.9281 7.07325 13.9854 6.95867C14.2145 6.7295 14.5583 6.55763 14.8447 6.38575C15.3604 6.09929 15.876 5.92741 16.4489 5.81283C17.5375 5.58366 18.6833 5.69824 19.7146 6.04199C20.7458 6.38575 21.6052 7.01595 22.2354 7.93262C22.8656 8.8493 23.2094 9.93786 23.4386 11.0264C23.9542 13.3754 23.9542 15.7816 24.8136 18.0733C25.1573 19.0473 25.8448 20.0785 25.5584 21.1671C25.4438 21.6254 25.1 22.0838 24.5844 22.2556C24.2979 22.3702 23.9542 22.3702 23.6677 22.2556C23.5531 22.1984 23.4385 22.1411 23.324 22.0838C23.2094 22.0265 23.0375 21.9119 22.9229 21.8546C22.8656 21.7973 22.751 21.74 22.6937 21.74C22.5792 21.74 22.5219 21.8546 22.4646 21.8546C22.35 21.9119 22.2354 22.0265 22.1208 22.0838C21.8917 22.2557 21.6625 22.3702 21.376 22.4275C20.8031 22.5994 20.2875 22.4848 19.7718 22.2556C19.5427 22.1411 19.3135 21.9692 19.1416 21.74C18.9698 21.5681 18.9125 21.339 18.8552 21.1098C18.7979 20.9952 18.7979 20.8806 18.7406 20.7661C18.7406 20.7088 18.6833 20.6515 18.626 20.7088C18.3395 20.8234 18.0531 20.8806 17.7666 20.8233C17.5947 20.8233 17.3656 20.7661 17.1937 20.7088C16.9072 20.5942 16.6208 20.4796 16.3916 20.1931C15.9906 19.7348 15.8187 19.0473 15.8187 18.4171C15.7614 16.9848 16.2198 15.6098 16.5635 14.2348C16.9073 13.0889 17.251 11.8858 17.1364 10.6827C17.1937 10.5108 16.9645 10.5108 16.9645 10.6254Z" fill="#15111E"/>
<path d="M18.7406 20.7085C18.6833 19.5054 18.6833 18.3595 18.7406 17.1564C18.8552 15.9532 19.027 14.8074 19.2562 13.6043C19.4854 12.573 19.6573 11.4845 19.3708 10.5105C19.0843 9.53653 18.3395 8.96362 17.5375 8.44799C16.6781 7.87507 15.5322 7.24486 15.4177 6.09902C15.4177 5.98443 15.1885 5.92714 15.1885 6.09902C15.4176 8.21882 18.1104 8.3907 18.9698 10.1095C19.4854 11.0834 19.3135 12.2866 19.1416 13.3178C18.9125 14.4637 18.6833 15.6095 18.5687 16.7553C18.4541 18.0731 18.3968 19.3908 18.5114 20.7085C18.5687 20.8231 18.7979 20.8231 18.7406 20.7085Z" fill="#15111E"/>
<path d="M17.1367 5.69806C17.7669 8.16162 20.9753 8.21891 22.0638 10.2241C22.694 11.4273 22.1211 12.8023 21.892 14.0627C21.6628 15.3804 21.6055 16.7554 21.7201 18.0732C21.7774 18.818 21.892 19.5054 22.0065 20.2502C22.1211 20.8232 22.2357 21.3961 22.694 21.8544C22.8086 21.969 22.9805 21.7971 22.8659 21.6825C22.4649 21.2815 22.3503 20.7086 22.2357 20.193C22.1211 19.5628 22.0065 18.8752 21.9492 18.245C21.8347 16.9273 21.892 15.5523 22.1211 14.2346C22.3503 13.0314 22.8659 11.7137 22.4076 10.5106C22.0065 9.47933 21.0326 8.79183 20.1159 8.2762C19.0273 7.64599 17.6523 6.95848 17.3086 5.64076C17.3659 5.46889 17.1367 5.52618 17.1367 5.69806Z" fill="#15111E"/>
<path d="M15.1881 19.9064C15.1309 19.9064 15.1309 19.9064 15.0736 19.9064C15.0736 19.9064 15.0163 19.9064 15.0163 19.9637L14.959 20.021C14.959 20.021 14.959 20.0783 14.959 20.1356V20.1929C14.959 20.2502 15.0163 20.2502 15.0163 20.3075C15.0163 20.3075 15.0736 20.3075 15.0736 20.3648C15.1309 20.3648 15.1309 20.4221 15.1881 20.4221C15.2454 20.4221 15.2454 20.4221 15.3027 20.4221C15.3027 20.4221 15.36 20.4221 15.36 20.3648L15.4173 20.3075C15.4173 20.3075 15.4173 20.2502 15.4173 20.1929V20.1356C15.4173 20.0783 15.36 20.0783 15.36 20.021C15.36 20.021 15.3027 20.021 15.3027 19.9637C15.2454 19.9064 15.1881 19.9064 15.1881 19.9064Z" fill="white"/>
</g>
<rect x="1" y="1" width="30" height="30" rx="15" stroke="#5000FF" stroke-width="2" stroke-linecap="round" stroke-linejoin="round"/>
<defs>
<clipPath id="clip0_3055_25655">
<rect width="32" height="32" rx="16" fill="white"/>
</clipPath>
</defs>
</svg>
