<svg width="32" height="32" viewBox="0 0 32 32" fill="none" xmlns="http://www.w3.org/2000/svg">
<g clip-path="url(#clip0_3055_25653)">
<rect width="32" height="32" rx="16" fill="#FFF48F"/>
<path d="M6.26236 49.7586C6.09647 51.3621 5.98589 52.4127 5.98589 52.468C5.98589 52.468 2.66822 53.2421 -1.53416 54.1268C-1.70005 54.1821 -1.81063 54.1821 -1.97652 54.2374C-2.1424 54.2927 -2.25299 54.2927 -2.41888 54.348C-5.73654 55.0668 -9.49656 55.841 -12.593 56.3939C-14.7495 56.781 -16.5742 57.0574 -17.7354 57.168C-18.399 57.2233 -19.1178 57.2786 -19.7813 57.2786C-22.2143 57.3892 -24.6472 57.2786 -26.5825 56.8916C-28.1861 56.5598 -29.4579 55.9515 -30.232 55.1221C-30.3426 55.0115 -30.4532 54.901 -30.5085 54.7904C-31.172 54.0715 -32.0014 53.2421 -32.7202 52.0809C-33.9367 50.2562 -34.932 47.6021 -34.8767 43.2891V43.2338C-34.8767 42.4597 -34.8214 41.6856 -34.7661 40.8009C-34.6555 39.8609 -34.6002 39.0315 -34.4896 38.202C-33.8814 33.7232 -32.8861 31.0138 -31.5038 27.0326C-30.6743 24.6549 -29.7343 21.8902 -28.6837 18.0196C-28.5731 17.7431 -28.5178 17.4113 -28.4073 17.1349C-27.0249 12.4901 -25.8084 8.7854 -25.1449 6.7395V6.68422C-24.9237 6.07598 -24.8131 5.57833 -24.7025 5.30186C-24.6472 5.19127 -24.6472 5.13597 -24.6472 5.08067V5.02539C-24.6472 5.08069 -24.6472 5.41245 -24.5367 5.85481C-24.5367 5.9101 -24.5367 5.91009 -24.5367 5.96539C-24.4814 6.07597 -24.4814 6.18657 -24.4261 6.29716C-24.2602 6.73951 -23.9837 7.29245 -23.5413 7.90069C-22.7119 9.06187 -21.2743 10.3889 -18.7307 11.6054C-18.3437 11.7713 -17.9566 11.9925 -17.5695 12.1584C-17.4037 12.2137 -17.2378 12.269 -17.1272 12.3242C-15.4131 12.9878 -13.9201 13.4301 -12.6483 13.7066C-12.0401 13.8172 -11.4872 13.9278 -10.9895 13.9831H-10.9342C-10.6577 14.0384 -10.3813 14.0384 -10.1601 14.0384C-9.44127 14.0937 -8.83303 14.0937 -8.39068 14.0384C-8.22479 14.0384 -8.1142 13.9831 -7.94832 13.9831C-7.89302 13.9831 -7.83773 13.9831 -7.78243 13.9831C-7.50596 13.9278 -7.34008 13.8725 -7.34008 13.8725L-8.28009 16.5266C-8.28009 16.5819 -8.33538 16.6925 -8.33538 16.7478C-10.326 22.7749 -11.653 26.922 -12.5378 29.9079C-12.5378 29.9079 -12.5378 29.9079 -12.5378 29.9632C-12.9248 31.1796 -13.2013 32.2302 -13.4778 33.0597C-13.8648 34.3314 -14.086 35.2714 -14.2519 35.935C-14.3625 36.3773 -14.4178 36.7091 -14.4731 36.9856C-14.086 36.9303 -13.6436 36.8197 -13.0354 36.7091C-12.9801 36.7091 -12.9801 36.7091 -12.9248 36.7091C-12.0954 36.5432 -11.1001 36.3773 -9.99421 36.1561C-5.79184 35.382 0.01408 34.3314 3.93998 33.6679C5.10117 33.4467 6.09647 33.2808 6.8153 33.1703C7.70001 33.0044 8.19766 32.9491 8.19766 33.0044C8.25296 33.0597 6.8706 44.4503 6.26236 49.7586Z" fill="#FFCE00"/>
<path d="M-24.7024 4.80441C-24.7577 5.13618 -24.9236 5.46795 -24.9789 5.74442C-25.0895 6.13148 -25.2001 6.51855 -25.366 6.90561C-25.5871 7.62443 -25.8083 8.34326 -26.0295 9.06209C-26.4719 10.555 -26.9695 12.048 -27.4119 13.5409C-28.3519 16.4715 -29.2366 19.4021 -30.1766 22.3881C-31.1166 25.3187 -32.0013 28.2493 -32.886 31.1799C-33.7707 34.0552 -34.5448 36.9858 -34.8213 40.027C-35.1531 42.7917 -35.0425 45.667 -34.3237 48.3764C-33.6601 50.92 -32.3884 53.4082 -30.2319 55.0671C-28.0201 56.8365 -25.2554 57.3894 -22.4907 57.4447C-20.9977 57.4447 -19.5048 57.3341 -18.0118 57.1682C-16.5742 57.0024 -15.1918 56.8365 -13.7541 56.6153C-8.05881 55.7859 -2.41877 54.4035 3.22126 53.1318C3.94009 52.9659 4.65891 52.8 5.37774 52.6341C5.54362 52.5788 5.43303 52.4129 5.32244 52.4129C-0.262299 53.6294 -5.79174 55.0118 -11.4318 55.9518C-14.3071 56.4494 -17.1824 56.8918 -20.113 57.0577C-22.933 57.2788 -25.9742 57.1683 -28.5177 55.8412C-33.6048 53.187 -34.9319 46.9388 -34.7107 41.6858C-34.5448 38.6446 -33.8813 35.714 -33.1072 32.7834C-32.2778 29.9081 -31.3378 27.0328 -30.4531 24.1575C-28.6283 18.3515 -26.8589 12.6009 -25.0342 6.79501C-24.9236 6.46325 -24.813 6.07619 -24.7024 5.74442C-24.5918 5.41265 -24.4813 5.08088 -24.426 4.80441C-24.426 4.74911 -24.6471 4.63853 -24.7024 4.80441Z" fill="#15111E"/>
<path d="M-5.40488 -4.8719C-4.74134 -5.53543 -4.07781 -6.25425 -3.46957 -6.97308C-2.97192 -7.58132 -2.52957 -8.24485 -2.03192 -8.90838C-1.75545 -9.29544 -1.47898 -9.68251 -1.14722 -10.0696C-0.870744 -10.4013 -0.594262 -10.7331 -0.151906 -10.8437C0.345744 -11.0096 0.6775 -10.6225 0.788089 -10.1249C0.898678 -9.57192 0.788099 -9.01898 0.67751 -8.46604C0.511627 -7.8578 0.345744 -7.24955 0.124566 -6.64131C-0.373084 -5.31424 -1.03662 -4.04247 -1.97662 -2.99187C-2.75075 -2.10716 -3.69075 -1.27775 -4.79664 -0.835392C-5.34959 -0.55892 -6.01312 -0.393034 -6.62136 -0.22715C-6.73195 -0.171856 -6.67665 0.0493183 -6.56606 -0.00597572C-6.01312 -0.171859 -5.46018 -0.337743 -4.90723 -0.55892C-3.91193 -0.945981 -3.08252 -1.60952 -2.30839 -2.32835C-1.20251 -3.43424 -0.37308 -4.81659 0.179864 -6.30954C0.401042 -6.91778 0.622206 -7.52603 0.788089 -8.18956C0.953972 -8.7978 1.06457 -9.40603 1.00928 -10.0143C0.953986 -10.4566 0.788096 -10.899 0.34574 -11.0649C-0.428381 -11.3413 -1.09191 -10.5672 -1.53427 -10.0143C-2.64016 -8.57662 -3.69076 -7.02838 -4.96253 -5.70131C-5.18371 -5.48014 -5.34958 -5.25895 -5.57076 -5.09307C-5.62606 -4.92719 -5.46017 -4.76131 -5.40488 -4.8719Z" fill="#15111E"/>
<path d="M40.1028 58.2188C39.7157 59.933 38.1675 61.7577 32.1957 64.5224C26.2239 67.2871 20.0862 68.1718 16.8238 68.5589C13.5615 68.9459 9.85673 68.6695 8.58495 68.3377C7.31318 68.006 7.03671 67.453 6.59435 66.6789C6.15199 65.9048 5.70965 64.0247 5.37788 54.9012C5.10141 45.7776 5.48846 41.4646 5.48846 41.4646C5.54376 38.8105 5.98611 36.1564 6.92612 33.3916C7.03671 33.3363 7.09201 33.3363 7.25789 33.281C7.31318 32.9493 7.36847 32.5069 7.42377 32.2304C7.70024 31.0693 8.30848 29.9081 8.91672 28.8575C9.52496 27.8069 10.1885 26.8116 11.0179 25.8716C15.3862 21.0057 21.0815 20.508 21.0815 20.508C21.6344 20.4527 22.1874 20.3974 22.6297 20.3974C25.1733 20.3421 26.4451 21.061 27.6615 22.3327C27.9933 22.7198 28.2698 23.1622 28.4909 23.6045C28.8227 24.3786 28.9333 25.1528 28.9333 25.8163C28.9886 26.6457 28.878 27.1987 28.878 27.1987L30.0945 26.6457L30.3157 26.5351L30.8133 28.1387L34.9051 41.0223L35.5686 43.0129C35.5686 43.0129 35.7345 43.5105 36.0663 44.2846C36.1216 44.4505 36.1769 44.6164 36.2875 44.8376C36.5639 45.5011 36.8404 46.3305 37.1722 47.2152C38.0016 49.3717 38.831 51.7494 39.1075 52.4682C39.2181 52.7447 39.3287 53.0765 39.4393 53.4082C39.8263 54.9012 40.3793 56.8365 40.1028 58.2188Z" fill="#FFCE00"/>
<path d="M26.224 24.6551C26.4452 25.0422 26.6664 25.4292 27.0534 25.761C27.4958 26.1481 28.104 26.3692 28.5464 25.8163C28.7123 25.5951 28.8229 25.2634 28.8229 24.9316C28.8229 24.4892 28.657 23.9916 28.4911 23.6045C28.3252 23.1622 28.0487 22.7198 27.6617 22.3327C26.4452 21.061 25.1734 20.3421 22.6299 20.3974C23.6252 20.7845 24.5099 21.448 25.1181 22.2774C25.6711 22.9963 25.8923 23.881 26.224 24.6551Z" fill="white"/>
<path d="M7.42377 35.3269C7.03671 33.8893 7.47906 32.3963 7.97671 31.0693C8.47436 29.7422 9.1379 28.4704 9.96732 27.3092C11.5156 25.1528 13.672 23.4386 16.0497 22.2222C18.538 20.9504 21.358 20.121 24.1227 20.6186C25.3392 20.8398 26.5556 21.2269 27.3298 22.1669C27.7721 22.7198 28.1039 23.328 28.3251 23.9916C29.0439 26.0375 28.6568 28.3598 27.9933 30.3504C27.8827 30.6822 27.7721 31.0693 27.6062 31.401C27.5509 31.5116 27.7721 31.5669 27.8274 31.4563C28.6568 29.2446 29.2651 26.7563 28.6568 24.4339C28.491 23.7151 28.1592 22.941 27.7168 22.3327C27.0533 21.448 26.1133 20.8951 25.0627 20.5633C22.298 19.7892 19.3674 20.4527 16.8238 21.5586C14.3356 22.6092 12.0132 24.268 10.2991 26.3692C9.41437 27.4751 8.69555 28.7469 8.08731 30.074C7.81084 30.7375 7.53437 31.4563 7.31319 32.1199C7.09201 32.8387 6.92613 33.5575 6.98142 34.3316C6.98142 34.6634 7.03671 35.0505 7.1473 35.3822C7.25789 35.5481 7.47906 35.4928 7.42377 35.3269Z" fill="#15111E"/>
<path d="M20.5285 24.5999C19.312 26.7564 18.8144 27.1434 18.3167 27.807C17.8191 28.4705 16.105 29.7423 15.7732 29.9635C15.4414 30.1846 15.3308 30.627 15.3308 30.627C15.2203 30.4058 15.2203 30.4058 14.6673 30.0741C14.225 29.7976 13.672 29.0235 13.5614 28.5258C12.6214 25.7058 12.2897 17.5775 12.2897 17.5775C12.2344 16.6928 11.5708 16.6928 12.6767 16.6375C14.2802 16.5269 17.045 19.5128 17.6532 20.1764C17.7085 20.2317 17.7638 20.2869 17.7638 20.2869C17.7638 20.2869 18.8144 22.0011 19.7544 23.3281C19.9756 23.8258 20.252 24.2681 20.5285 24.5999Z" fill="white"/>
<path d="M12.0684 18.7388C12.2895 20.9506 12.5107 23.1623 12.7872 25.3741C12.8425 26.093 12.9531 26.7565 13.0084 27.4753C13.0084 27.6412 13.2295 27.6412 13.2295 27.4753C12.9531 25.2082 12.7319 22.9965 12.5107 20.7294C12.4554 20.0659 12.4001 19.4023 12.2895 18.7388C12.2895 18.5729 12.0684 18.5729 12.0684 18.7388Z" fill="#15111E"/>
<path d="M17.8184 20.7846C18.6478 22.1117 19.5325 23.3835 20.5278 24.5999C20.6384 24.7105 20.749 24.5446 20.6937 24.4341C19.6984 23.2176 18.869 21.9458 18.0395 20.674C17.9843 20.5635 17.7631 20.674 17.8184 20.7846Z" fill="#15111E"/>
<path d="M12.3999 27.9174C11.5705 29.7421 11.6811 32.0645 12.0129 33.7233C12.7317 32.6727 13.8376 31.9539 14.7776 31.1245C15.6623 30.3504 14.7776 30.2951 14.2247 29.7421C13.727 29.2445 13.3952 28.5809 13.2294 27.9174L13.1188 27.475C12.9529 27.5303 12.5658 27.5303 12.3999 27.9174Z" fill="white"/>
<path d="M12.2891 27.8623C11.4597 29.687 11.4597 31.8435 11.902 33.7235C11.902 33.8341 12.0679 33.8341 12.1232 33.7235C12.5103 33.1706 13.0079 32.6729 13.5056 32.2305C13.782 32.0094 14.0032 31.7882 14.2797 31.567C14.5562 31.3458 14.8326 31.18 14.9985 30.9035C15.1091 30.7929 15.275 30.5717 15.2197 30.4058C15.1644 30.2399 15.0538 30.1294 14.9432 30.0188C14.722 29.8529 14.5009 29.7423 14.335 29.5764C14.1138 29.3552 13.8926 29.0788 13.7268 28.8023C13.4503 28.3599 13.3397 27.807 13.2291 27.3093C13.2291 27.254 13.1738 27.1987 13.1185 27.254C13.0079 27.3093 12.842 27.3093 12.6761 27.3646C12.5103 27.5305 12.3997 27.6964 12.2891 27.8623C12.2338 27.9729 12.3997 28.0835 12.455 27.9729C12.6209 27.6964 12.842 27.6964 13.1185 27.5858C13.0632 27.5858 13.0079 27.5305 13.0079 27.5305C13.2291 28.4705 13.5056 29.4658 14.335 30.0741C14.5009 30.1847 14.722 30.2952 14.8879 30.4611C15.0538 30.627 14.9985 30.7929 14.8326 30.9035C14.6115 31.1247 14.335 31.3458 14.1138 31.567C13.8926 31.7882 13.6162 31.9541 13.395 32.1752C12.842 32.6176 12.3444 33.1153 11.902 33.7235C11.9573 33.7235 12.0126 33.7235 12.1232 33.7235C11.7361 31.8988 11.7361 29.7976 12.5103 28.0282C12.5656 27.8623 12.3444 27.7517 12.2891 27.8623Z" fill="#15111E"/>
<path d="M15.4408 30.24C15.2197 30.4612 15.1644 30.6824 15.5514 30.9035C15.8279 31.0694 16.3809 31.3459 16.6573 31.4565C18.7032 32.4518 19.1456 32.7283 21.1362 33.3918C21.4127 33.4471 21.9103 31.0694 21.9656 30.8482C22.2421 29.6318 23.3479 24.6553 21.2468 24.4341C21.0256 24.4341 20.6938 24.6553 20.5832 24.8211C19.5326 26.5353 18.2609 28.1388 16.6573 29.3553C16.4914 29.4659 16.3256 29.5765 16.215 29.6871C15.9938 29.7423 15.662 29.9635 15.4408 30.24Z" fill="white"/>
<path d="M15.33 30.1294C15.2194 30.2953 15.1088 30.4612 15.1641 30.6271C15.2194 30.8482 15.4959 30.9588 15.6618 31.0694C16.1594 31.3459 16.6571 31.5671 17.1547 31.8435C17.9841 32.2306 18.8689 32.6729 19.7536 33.0047C19.9747 33.1153 20.2512 33.1706 20.4724 33.2812C20.6383 33.3365 20.7489 33.3918 20.9148 33.4471C20.97 33.4471 21.0253 33.5024 21.1359 33.4471C21.3018 33.3918 21.4124 33.06 21.4677 32.8941C21.6889 32.2306 21.8548 31.5671 22.0206 30.9588C22.2971 29.7423 22.5736 28.4706 22.5736 27.1988C22.5736 26.5353 22.5736 25.7611 22.2971 25.1529C22.0759 24.6553 21.523 24.1576 20.97 24.3235C20.7489 24.3788 20.583 24.5447 20.4171 24.7105C20.2512 24.987 20.0853 25.2635 19.9194 25.4847C19.5324 26.0376 19.1453 26.5353 18.7583 27.0329C17.9288 28.0282 17.0441 28.9129 15.9383 29.5765C15.7724 29.7976 15.5512 29.9635 15.33 30.1294C15.2194 30.24 15.3853 30.4059 15.4959 30.2953C15.883 29.9082 16.3806 29.6318 16.7677 29.3C17.21 28.9682 17.6524 28.5259 18.0947 28.1388C18.9242 27.3094 19.5877 26.3694 20.2512 25.4294C20.4724 25.0423 20.7489 24.3788 21.3018 24.4894C21.523 24.5447 21.7442 24.6553 21.91 24.8764C22.2418 25.3188 22.3524 25.9823 22.3524 26.5353C22.4077 27.8623 22.1865 29.1894 21.8548 30.4059C21.7442 30.8482 21.6336 31.3459 21.523 31.7882C21.4124 32.12 21.3571 32.4518 21.2465 32.7835C21.1912 32.8941 21.1912 33.0047 21.0806 33.1153L21.0253 33.1706C21.0806 33.1706 20.97 33.1706 20.97 33.1706C20.9147 33.1706 20.8595 33.1153 20.8042 33.1153C18.9794 32.5071 17.2653 31.6776 15.6065 30.7929C15.4959 30.7376 15.33 30.6823 15.33 30.5718C15.2747 30.4612 15.3853 30.3506 15.4406 30.24C15.6065 30.1847 15.4406 30.0188 15.33 30.1294Z" fill="#15111E"/>
<path d="M19.6427 23.328C18.9239 23.5492 18.0945 23.6045 17.2651 23.4386C15.2745 22.941 14.611 21.1716 14.5557 21.061L17.5416 20.1763C17.5969 20.2316 17.6521 20.2868 17.6521 20.2868C17.6521 20.2868 18.758 22.001 19.6427 23.328Z" fill="#15111E"/>
<path d="M22.5183 8.78582C22.4077 8.84111 22.2971 8.9517 22.2418 9.00699C22.1312 9.11758 21.9653 9.22817 21.8548 9.33876C21.6336 9.55994 21.3571 9.78113 21.1359 10.0023C20.6383 10.4447 20.0853 10.887 19.5324 11.2188C18.9242 11.5505 18.2606 11.827 17.5971 12.0482C15.883 12.5458 14.1688 12.6011 12.4547 12.0482C11.6806 11.827 10.9618 11.4399 10.3535 10.9423C10.8512 12.2694 13.2288 17.1353 19.8089 15.4212C21.0806 14.9788 21.9653 13.8176 22.4077 12.6011C22.7948 11.5505 22.9053 10.3894 22.9053 9.28347C22.85 9.06229 22.7948 8.67523 22.5183 8.78582Z" fill="#15111E"/>
<path d="M20.0856 17.1907C19.4773 14.7024 18.9797 11.7718 16.7679 10.113C15.4408 9.06239 13.5608 8.84121 11.9573 9.28356C10.7408 9.61533 9.63489 10.3895 9.08195 11.5506C8.47371 12.7671 8.63959 14.2048 9.08195 15.4765C9.80077 17.3013 11.2384 18.7942 12.5655 20.1766C13.3949 21.0613 14.2796 21.8907 15.4408 22.2225C16.602 22.5542 17.9291 22.6095 18.9797 21.946C20.915 20.6742 20.5279 18.7942 20.0856 17.1907Z" fill="white"/>
<path d="M13.3399 21.0061C14.1693 21.7249 15.1093 22.3332 16.2152 22.5544C17.2105 22.7202 18.3717 22.5544 19.2564 22.0014C19.6988 21.7249 20.0858 21.3379 20.307 20.8955C20.5282 20.3979 20.5835 19.9002 20.5835 19.4026C20.5835 18.7943 20.4729 18.2414 20.3623 17.6332C20.2517 17.0249 20.1411 16.3614 19.9752 15.7531C19.5882 14.3708 19.0905 13.0437 18.4823 11.7166C18.427 11.6061 18.2058 11.7167 18.3164 11.8272C19.3117 13.9837 20.0305 16.3061 20.3623 18.6837C20.4176 19.1814 20.4729 19.7343 20.3623 20.232C20.2517 20.7296 20.0305 21.172 19.5882 21.5591C18.814 22.2226 17.7634 22.4991 16.7681 22.3885C15.5517 22.2779 14.5011 21.6143 13.6164 20.8402C13.3952 20.7296 13.2293 20.8955 13.3399 21.0061Z" fill="#15111E"/>
<path d="M17.5425 16.1956C17.7084 16.0298 17.8743 15.8639 17.9849 15.6427C18.0955 15.4215 17.9849 15.2556 17.8743 15.0897C17.4872 14.7027 17.1002 14.3156 16.7131 13.9286C16.6025 13.818 16.4366 13.9839 16.5472 14.0945C16.879 14.4262 17.2108 14.758 17.5425 15.0897C17.5978 15.145 17.7084 15.2556 17.7637 15.3109C17.819 15.3662 17.8743 15.4215 17.819 15.5321C17.7084 15.698 17.5978 15.8639 17.4319 16.0298C17.3213 16.1403 17.4319 16.3062 17.5425 16.1956Z" fill="#15111E"/>
<path d="M13.9477 14.5366C14.1689 13.9837 14.7219 13.6519 15.3301 13.6519C15.496 13.6519 15.496 13.4308 15.3301 13.4308C14.6666 13.3755 14.003 13.8178 13.7266 14.4261C13.7266 14.4814 13.7265 14.5366 13.7818 14.5366C13.8371 14.5919 13.8924 14.5919 13.9477 14.5366Z" fill="#15111E"/>
<path d="M17.0442 13.1543C17.1547 12.9331 17.3206 12.7672 17.5971 12.7119C17.8183 12.6566 18.0947 12.7119 18.3159 12.8778C18.3712 12.9331 18.4265 12.9331 18.4818 12.8778C18.5371 12.8225 18.5371 12.7672 18.4818 12.7119C18.2053 12.4908 17.8736 12.4355 17.5418 12.4908C17.2653 12.5461 16.9889 12.7672 16.8783 13.0437C16.7677 13.2096 16.9336 13.3202 17.0442 13.1543Z" fill="#15111E"/>
<path d="M18.5929 16.638C17.874 16.8592 17.2105 17.025 16.4917 17.2462C16.2152 17.3015 15.9387 17.4121 15.7728 17.578C15.607 17.7992 15.607 18.0204 15.7728 18.2968C16.2152 19.1815 17.7082 19.5686 18.3717 18.7392C18.8141 18.1862 18.5929 17.5227 18.427 16.9145C18.3717 16.8039 18.1505 16.8592 18.2058 16.9698C18.3717 17.4121 18.5376 17.9651 18.3164 18.4627C18.0952 18.8498 17.7082 19.0157 17.2658 19.0157C16.7682 19.0157 16.3258 18.7945 16.0493 18.4074C15.8834 18.1862 15.7728 17.9098 15.994 17.7439C16.1599 17.578 16.4364 17.5227 16.7129 17.4674C17.3764 17.3015 17.9846 17.0804 18.6482 16.9145C18.8141 16.8039 18.7588 16.5827 18.5929 16.638Z" fill="#15111E"/>
<path d="M15.7169 14.9237C15.8275 15.2555 15.7169 15.532 15.4957 15.5873C15.2746 15.6426 15.0534 15.4214 14.9428 15.1449C14.8322 14.8131 14.9428 14.5367 15.164 14.4814C15.3852 14.4261 15.6063 14.6473 15.7169 14.9237Z" fill="#15111E"/>
<path d="M18.2612 14.2049C18.3717 14.5367 18.2612 14.8132 18.0953 14.8684C17.9294 14.9237 17.7082 14.7026 17.6529 14.3708C17.5423 14.039 17.6529 13.7626 17.8188 13.7073C17.9294 13.652 18.1506 13.8731 18.2612 14.2049Z" fill="#15111E"/>
<path d="M10.2431 10.5002C10.0772 10.3896 9.91136 10.3343 9.69018 10.2237C9.35842 10.0578 8.86078 10.1131 8.47372 10.2237C7.86548 10.4449 7.42312 10.8872 7.03606 11.3849C6.48311 12.0484 5.98547 12.8225 5.43252 13.4861C4.99017 14.039 4.43721 14.5367 3.82897 14.8684C3.60779 14.979 3.60779 15.2555 3.82897 15.4214C4.60309 15.8637 5.43251 16.1955 6.37252 16.3061L4.49251 17.7438C4.27133 17.9096 4.27133 18.2414 4.49251 18.4626C6.04075 19.9002 8.03135 20.1214 9.91136 18.9602C11.0172 18.2967 11.7914 17.0802 12.1784 15.8637C12.5655 14.5367 12.5102 13.1543 12.3996 11.8272C12.3996 11.772 12.3996 11.7167 12.3443 11.6614C12.3443 11.6061 12.289 11.6061 12.2337 11.6061C11.5702 11.1637 10.9067 10.832 10.2431 10.5002Z" fill="#15111E"/>
<path d="M6.42828 16.5823C7.09182 16.7482 7.81065 16.7481 8.47418 16.527C8.58477 16.4717 8.52948 16.2505 8.41889 16.3058C7.81065 16.527 7.09182 16.527 6.48358 16.3611C6.3177 16.3611 6.2624 16.5823 6.42828 16.5823Z" fill="white"/>
<path d="M10.1881 10.5001C10.9623 11.2189 11.847 11.6613 12.8423 11.8824C14.5011 12.2695 16.2152 12.2695 17.8741 11.7718C18.7035 11.5507 19.4776 11.1636 20.1964 10.7212C20.9153 10.2789 21.4682 9.67066 21.8553 8.89653C22.5188 7.56947 22.6847 6.02121 22.5741 4.58356C22.5741 4.47297 22.5741 4.36239 22.5741 4.19651C22.5741 3.97533 22.2976 3.86474 22.1317 3.92004L17.3211 6.35299C17.4317 5.85534 17.4317 5.30238 17.2658 4.80473C17.2105 4.58356 16.9341 4.47297 16.7129 4.63886C15.9941 5.2471 15.1094 5.63415 14.2246 5.96592C13.174 6.35298 12.1234 6.74005 11.294 7.51417C10.4093 8.2883 9.85637 9.44948 10.1881 10.5001Z" fill="#15111E"/>
<path d="M12.3448 11.5508C12.0131 11.4955 11.6813 11.3849 11.4048 11.2191C11.1283 11.0532 10.8519 10.8873 10.5754 10.6661C10.4648 10.5555 10.2989 10.7214 10.4095 10.832C10.686 11.0532 10.9624 11.2743 11.2942 11.4402C11.626 11.6061 11.9578 11.7167 12.2895 11.772C12.4001 11.772 12.4554 11.5508 12.3448 11.5508Z" fill="white"/>
<path d="M18.5375 11.8825C19.754 11.3849 20.8046 10.5001 21.5234 9.39426C21.5787 9.28367 21.4128 9.17307 21.3575 9.28366C20.694 10.3343 19.6987 11.1637 18.5375 11.6613C18.3163 11.7166 18.3716 11.9378 18.5375 11.8825Z" fill="white"/>
<path d="M16.989 6.13202C16.4361 6.57437 15.7725 6.85083 15.109 7.01671C14.9431 7.07201 15.0537 7.2379 15.1643 7.2379C15.8831 7.07202 16.5467 6.79555 17.0996 6.35319C17.2102 6.2426 17.0996 6.07672 16.989 6.13202Z" fill="white"/>
<path d="M12.2346 16.8037C11.8475 16.4719 11.2392 16.3613 10.7416 16.4719C9.80159 16.6931 9.19337 17.6884 9.30396 18.6284C9.52514 20.3425 11.4051 20.8402 12.7322 19.9554L12.2346 16.8037Z" fill="white"/>
<path d="M12.3449 16.6931C11.8473 16.2507 11.0178 16.1954 10.4096 16.4719C9.80137 16.7484 9.4143 17.3013 9.24842 17.9096C8.97195 19.0708 9.74607 20.2872 10.9626 20.4531C11.6261 20.5637 12.2343 20.3978 12.7873 20.0107C12.8979 19.9555 12.7873 19.7343 12.6767 19.8449C11.9025 20.3978 10.7414 20.5084 9.96724 19.7896C9.13783 18.9602 9.24841 17.5225 10.1884 16.859C10.7414 16.4719 11.6261 16.4166 12.1237 16.859C12.2896 16.9696 12.4555 16.8037 12.3449 16.6931Z" fill="#15111E"/>
<path d="M10.7416 19.5686C10.0781 19.1815 9.74631 18.2968 10.244 17.578C10.4651 17.3015 10.7969 17.0803 11.184 17.0803C11.5157 17.0803 11.8475 17.2462 12.0687 17.578C12.124 17.6886 12.3451 17.578 12.2346 17.4674C11.9028 16.9144 11.1287 16.6933 10.5204 17.025C9.91219 17.3568 9.63573 18.1309 9.85691 18.7944C9.9675 19.1815 10.244 19.5133 10.631 19.7344C10.7416 19.7897 10.8522 19.6239 10.7416 19.5686Z" fill="#15111E"/>
<path d="M79.6934 58.3295C79.6934 58.3295 75.6569 56.6707 69.851 58.3848C65.3722 59.7119 62.4968 61.7025 61.3909 62.5319C61.1145 62.753 60.7827 62.6424 60.6721 62.3107L55.9721 49.2612L51.1615 37.1517C51.0509 36.8752 50.8297 37.1517 50.5532 37.3176C50.0556 37.5941 49.1709 38.2576 41.7614 41.6859L36.1214 44.2847L28.9331 47.3259C28.0484 47.713 27.0531 47.16 26.8319 46.2753L23.7907 32.3411C23.5143 31.014 24.1225 29.6317 25.2837 28.9128L30.0943 26.6458C30.0943 26.6458 30.8684 26.2587 32.0296 25.6505C34.2414 24.4893 38.0014 22.6093 41.2638 20.9504C43.6967 19.734 45.8532 18.6834 46.7379 18.241C49.5579 16.914 54.5344 15.8634 58.0733 17.5775C61.6121 19.2916 64.7639 22.7199 66.0357 25.0422C66.091 25.1528 66.1463 25.2081 66.2016 25.3187C67.418 27.4199 68.2475 28.3046 70.6251 34.3317C73.0581 40.58 79.6934 58.3295 79.6934 58.3295Z" fill="#FFCE00"/>
<path d="M28.9331 27.3092C33.799 24.9869 38.6649 22.5539 43.4755 20.0656C45.7426 18.9045 48.1203 17.7433 50.6085 17.1903C53.1521 16.6374 55.7509 16.6927 58.1839 17.7986C62.3309 19.6786 65.2063 23.4939 67.3074 27.3645C69.851 31.954 71.4545 36.9857 73.2792 41.8517C75.2698 47.1046 77.2604 52.3576 79.251 57.6106C79.4722 58.2188 79.7487 58.8271 79.9699 59.4906C80.0252 59.4353 80.0804 59.4353 80.1357 59.38C78.3663 57.5 75.4357 57.5553 73.0581 57.7212C70.1827 57.9976 67.3074 58.7165 64.7639 60.0988C63.3262 60.8729 61.9439 61.8682 60.838 63.0847C60.8933 63.0847 60.9486 63.14 61.0039 63.14C59.6768 59.5459 58.2944 56.007 56.9121 52.4129C55.5297 48.874 54.1474 45.2799 52.8203 41.7411C52.0462 39.6952 51.2721 37.7046 50.4979 35.6587C50.4426 35.5481 50.2214 35.6034 50.2767 35.714C51.6591 39.3081 53.0415 42.847 54.4238 46.4411C55.8062 49.9799 57.1886 53.5741 58.5156 57.1129C59.2898 59.1035 60.0639 61.1494 60.838 63.14C60.838 63.1953 60.9486 63.2506 61.0039 63.1953C62.9945 61.0941 65.538 59.6565 68.3027 58.7718C69.6851 58.3294 71.1228 58.0529 72.5051 57.887C73.7216 57.7764 74.9381 57.6659 76.1545 57.7765C77.5369 57.887 78.9746 58.3294 79.9699 59.38C80.0252 59.4353 80.191 59.38 80.1357 59.2694C78.0898 53.9611 76.0992 48.6529 74.0534 43.3446C73.1133 40.8011 72.1734 38.2575 71.1781 35.714C70.238 33.281 69.298 30.8481 68.1369 28.5257C66.1463 24.4892 63.4368 20.4527 59.4556 18.1303C57.2991 16.8586 54.8662 16.3056 52.3779 16.5268C49.8344 16.748 47.4014 17.688 45.1344 18.7939C42.7014 19.9551 40.3237 21.2821 37.8908 22.4986C35.4578 23.7151 32.9696 24.9869 30.4813 26.148C29.8731 26.4245 29.2649 26.701 28.7119 27.0327C28.7119 27.1986 28.8225 27.3645 28.9331 27.3092Z" fill="#15111E"/>
<path d="M30.0941 26.6457L28.9329 27.1986C28.7118 27.9728 28.6012 28.8022 28.38 29.6316C28.2694 29.9634 28.2141 30.2951 28.1035 30.6269C28.7118 30.2398 29.3753 29.7422 30.0388 29.0787C30.3153 28.8022 30.5365 28.4704 30.8129 28.1386C31.3106 27.4751 31.6976 26.6457 32.0294 25.6504C30.8129 26.2586 30.0941 26.6457 30.0941 26.6457Z" fill="#15111E"/>
<path d="M28.4353 26.48C28.1588 26.3694 27.8271 26.3141 27.5506 26.3141C26.6106 26.3141 25.7259 26.7565 25.2282 27.5306C24.7859 28.1389 24.4541 28.8024 24.2882 29.5212C24.1224 30.24 24.0671 31.0142 24.1777 31.733C24.2882 32.3965 24.5647 33.0601 25.1177 33.3918C26.113 34.0554 27.1635 33.1707 27.6059 32.2859C27.8271 31.8436 27.9377 31.2906 28.1036 30.793C28.3247 29.7977 28.6012 28.8024 28.8224 27.8624C28.8777 27.5306 28.9883 27.1436 28.9883 26.7565C28.7671 26.6459 28.6012 26.5353 28.4353 26.48Z" fill="#FFCE00"/>
<path d="M28.7121 25.7613C28.7674 26.8119 28.7121 27.9177 28.4909 28.913C28.325 29.7425 28.0485 30.5719 27.7721 31.346C27.6062 31.7331 27.4403 32.1754 27.2744 32.5625C27.2191 32.6731 27.4403 32.7284 27.4956 32.6178C27.7721 31.899 28.1038 31.1248 28.325 30.406C28.6015 29.5213 28.8227 28.5813 28.878 27.6413C28.9333 27.033 28.9333 26.3695 28.878 25.706C28.9333 25.5954 28.7121 25.5954 28.7121 25.7613Z" fill="#15111E"/>
</g>
<rect x="1" y="1" width="30" height="30" rx="15" stroke="#5000FF" stroke-width="2" stroke-linecap="round" stroke-linejoin="round"/>
<defs>
<clipPath id="clip0_3055_25653">
<rect width="32" height="32" rx="16" fill="white"/>
</clipPath>
</defs>
</svg>
