<svg width="32" height="32" viewBox="0 0 32 32" fill="none" xmlns="http://www.w3.org/2000/svg">
<g clip-path="url(#clip0_3055_25652)">
<rect width="32" height="32" rx="16" fill="#FFF48F"/>
<g clip-path="url(#clip1_3055_25652)">
<path d="M28.8983 76.3959L28.9004 76.3941L28.9019 76.3929C29.7042 75.7285 30.5094 75.0618 31.3426 74.4087C31.4379 74.327 31.5254 74.254 31.6279 74.1804C33.2399 72.9153 34.8931 71.706 36.6012 70.525L36.6148 70.5156L36.6296 70.5082C36.6291 70.5084 36.6287 70.5089 36.6391 70.5019C36.6473 70.4965 36.6622 70.4864 36.6819 70.4755C38.5011 69.221 40.3746 68.0214 42.289 66.8766C42.3101 66.8559 42.3323 66.8416 42.3515 66.832C42.3555 66.83 42.3594 66.8281 42.3633 66.8265C44.0084 65.8341 45.6927 64.8951 47.4031 63.9967C47.4031 63.9965 47.4031 63.9964 47.4031 63.9963V63.9963V63.9962V63.9961V63.996V63.9959V63.9959V63.9958V63.9957V63.9956V63.9955V63.9955V63.9954V63.9953V63.9952V63.9951V63.9951V63.995V63.9949V63.9948V63.9947V63.9946V63.9946V63.9945V63.9944V63.9943V63.9942V63.9942V63.9941V63.994V63.9939V63.9938V63.9938V63.9937V63.9936V63.9935V63.9934V63.9933V63.9933V63.9932V63.9931V63.993V63.9929V63.9929V63.9928V63.9927V63.9926V63.9925V63.9924V63.9924V63.9923V63.9922V63.9921V63.992V63.992V63.9919V63.9918V63.9917V63.9916V63.9916V63.9915V63.9914V63.9913V63.9912V63.9911V63.9911V63.991V63.9909V63.9908V63.9907V63.9907V63.9906V63.9905V63.9904V63.9903V63.9903V63.9902V63.9901V63.99V63.9899V63.9898V63.9898V63.9897V63.9896V63.9895V63.9894V63.9894V63.9893V63.9892V63.9891V63.989V63.989V63.9889V63.9888V63.9887V63.9886V63.9885V63.9885V63.9884V63.9883V63.9882V63.9881V63.9881V63.988V63.9879V63.9878V63.9877V63.9877V63.9876V63.9875V63.9874V63.9873V63.9872V63.9872V63.9871V63.987V63.9869V63.9868V63.9868V63.9867V63.9866V63.9865V63.9864V63.9864V63.9863V63.9862V63.9861V63.986V63.9721V63.9719V63.9717V63.9714V63.9712V63.9709V63.9707V63.9704V63.9702V63.97V63.9697V63.9695V63.9692V63.969V63.9688V63.9685V63.9683V63.968V63.9678V63.9676V63.9673V63.9671V63.9669V63.9666V63.9664V63.9661V63.9659V63.9657V63.9654V63.9652V63.965V63.9647V63.9645V63.9643V63.964V63.9638V63.9636V63.9633V63.9631V63.9629V63.9626V63.9624V63.9622V63.9619V63.9617V63.9615V63.9612V63.961V63.9608V63.9606V63.9603V63.9601V63.9599V63.9596V63.9594V63.9592V63.959V63.9587V63.9585V63.9583V63.9581V63.9578V63.9576V63.9574V63.9572V63.9569V63.9567V63.9565V63.9563V63.956V63.9558V63.9556V63.9554V63.9551V63.9549V63.9547V63.9545V63.9543V63.954V63.9538V63.9536V63.9534V63.9532V63.9529V63.9527V63.9525V63.9523V63.9521V63.9518V63.9516V63.9514V63.9512V63.951V63.9507V63.9505V63.9503V63.9501V63.9499V63.9497V63.9494V63.9492V63.949V63.9488V63.9486V63.9484V63.9482V63.9479V63.9477V63.9475V63.9473V63.9471V63.9469V63.9467V63.9465V63.9462V63.946V63.9458V63.9456V63.9454V63.9452V63.945V63.9448V63.9446V63.9443V63.9441V63.9439V63.9437V63.9435V63.9433V63.9431V63.9429V63.9427V63.9425V63.9423V63.9421V63.9419V63.9416V63.9414V63.9412V63.941V63.9408V63.9406V63.9404V63.9402V63.94V63.9398V63.9396V63.9394V63.9392V63.939V63.9388V63.9386V63.9384V63.9382V63.938V63.9378V63.9376V63.9374V63.9372V63.937V63.9368V63.9366V63.9364V63.9362V63.936V63.9358V63.9356V63.9354V63.9352V63.935V63.9348V63.9346V63.9344V63.9342V63.934V63.9338V63.9336V63.9334V63.9332V63.933V63.9328V63.9326V63.9324V63.9322V63.932V63.9318V63.9316V63.9314V63.9312V63.931V63.9308V63.9306V63.9304V63.9302V63.93V63.9298V63.9297V63.9295V63.9293V63.9291V63.9289V63.9287V63.9285V63.9283V63.9281V63.9279V63.9277V63.9275V63.9273V63.9272V63.927V63.9268V63.9266V63.9264V63.9262V63.926V63.9258V63.9256V63.9254V63.9252V63.9251V63.9249V63.9247V63.9245V63.9243V63.9241V63.9239V63.9237V63.9236V63.9234V63.9232V63.923V63.9228V63.9226V63.9224V63.9222V63.9221V63.9219V63.9217V63.9215V63.9213V63.9211V63.9209V63.9208V63.9206V63.9204V63.9202V63.92V63.9198V63.9197V63.9195V63.9193V63.9191V63.9189V63.9187V63.9185V63.9184V63.9182V63.918V63.9178V63.9176V63.9175V63.9173V63.9171V63.9169V63.9167V63.9165V63.9164V63.9162V63.916V63.9158V63.9156V63.9155V63.9153V63.9151V63.9149V63.9147V63.9146V63.9144V63.9142V63.914V63.9138V63.9137V63.9135V63.9133V63.9131V63.9129V63.9128V63.9126V63.9124V63.9122V63.9121V63.9119V63.9117V63.9115V63.9113V63.9112V63.911V63.9108V63.9106V63.9105V63.9103V63.9101V63.9099V63.9098V63.9096V63.9094V63.9092V63.9091V63.9089V63.9087V63.9085V63.9083V63.9082V63.908V63.9078V63.9077V63.9075V63.9073V63.9071V63.907V63.9068V63.9066V63.9064V63.9063V63.9061V63.9059V63.9057V63.9056V63.9054V63.9052V63.905V63.9049V63.9047V63.9045V63.9044V63.9042V63.904V63.9038V63.9037V63.9035V63.9033V63.9032V63.903V63.9028V63.9026V63.9025V63.9023V63.9021V63.902V63.9018V63.9016V63.9014V63.9013V63.9011V63.9009V63.9008V63.9006V63.9004V63.9002V63.9001V63.8999V63.8997V63.8996V63.8994V63.8992V63.8991V63.8989V63.8987V63.8986V63.8984V63.8982V63.898V63.8979V63.8977V63.8975V63.8974V63.8972V63.897V63.8969V63.8967V63.8965V63.8964V63.8962V63.896V63.8959V63.8957V63.8955V63.8954V63.8952V63.895V63.8949V63.8947V63.8945V63.8944V63.8942V63.894V63.8939V63.8937V63.8935V63.8934V63.8932V63.893V63.8929V63.8927V63.8925V63.8924V63.8922V63.892V63.8919V63.8917V63.8915V63.8914V63.8912V63.891V63.8909V63.8907V63.8905V63.8904V63.8902V63.89V63.8899V63.8897V63.8895V63.8894V63.8892V63.889V63.8889V63.8887V63.8886V63.8884V63.8882V63.8881V63.8879V63.8877V63.8876V63.8874V63.8872V63.8871V63.8869V63.8867V63.8866V63.8864V63.8863V63.8861V63.8859V63.8858V63.8856V63.8854V63.8853V63.8851V63.8849V63.8848V63.8846V63.8844V63.8843V63.8841V63.884V63.8838V63.8836V63.8835V63.8833V63.8831V63.883V63.8828V63.8827V63.8825V63.8823V63.8822V63.882V63.8818V63.8817V63.8815V63.8813V63.8812V63.881V63.8809V63.8807V63.8805V63.8804V63.8802V63.88V63.8799V63.8797V63.8796V63.8794V63.8792V63.8791V63.8789V63.8787V63.8786V63.8784V63.8782V63.8781V63.8779V63.8778V63.8776V63.8774V63.8773V63.8771V63.8769V63.8768V63.8766V63.8765V63.8763V63.8761V63.876V63.8758V63.8756V63.8755V63.8753V63.8752V63.875H47.637L47.5058 63.9551L47.5147 63.9721L47.522 63.986L47.5241 63.99L47.637 64.0277H47.5438L28.8983 76.3959ZM28.8983 76.3959L28.8972 76.3968C28.2602 76.9372 27.6208 77.4796 26.9949 78.0362C26.8895 78.1276 26.7845 78.2222 26.6813 78.3151L26.6806 78.3158C26.5763 78.4097 26.4739 78.5019 26.3718 78.5905L26.3718 78.5904L26.3689 78.593M28.8983 76.3959L26.3689 78.593M26.3689 78.593C24.7924 80.0058 23.2841 81.4721 21.8174 82.9782M26.3689 78.593L21.8174 82.9782M21.8174 82.9782C21.7647 82.8339 21.712 82.6899 21.6594 82.5463C21.4084 81.8607 21.1599 81.182 20.9199 80.4944L20.92 80.4944L20.9185 80.4903C20.7316 79.9848 20.5481 79.4757 20.3643 78.9655L20.3641 78.9649C20.1805 78.4554 19.9965 77.9449 19.809 77.4377C19.7365 77.2375 19.664 77.0366 19.5913 76.8352C19.3196 76.0827 19.0456 75.3236 18.7632 74.573C18.751 74.4847 18.7413 74.398 18.7413 74.3259C18.7413 74.2752 18.7373 74.2224 18.734 74.18L18.7337 74.1761C18.7301 74.1289 18.7275 74.0932 18.7275 74.0622H18.7277L18.7272 74.0511C18.7133 73.7591 18.6997 73.459 18.6997 73.1739C18.6997 72.889 18.7133 72.6031 18.7272 72.3107L18.7275 72.3107V72.2995C18.7275 72.2367 18.7306 72.1695 18.7341 72.0955L18.7343 72.0928C18.7376 72.0234 18.7412 71.9477 18.7413 71.8742L18.7619 71.3722L18.7827 70.8659L18.7829 70.8659V70.8561C18.7829 70.786 18.7861 70.715 18.7896 70.6397L18.79 70.6322C18.7932 70.563 18.7966 70.4892 18.7968 70.4177C18.8037 70.271 18.8072 70.1248 18.8106 69.9817L18.8106 69.9804C18.8141 69.8342 18.8175 69.6912 18.8243 69.5487L18.8246 69.5488V69.5376C18.8246 69.4034 18.8279 69.2688 18.8313 69.1291L18.8314 69.1253C18.8349 68.9851 18.8384 68.8401 18.8384 68.691C18.8384 68.5485 18.8418 68.402 18.8453 68.2523L18.8453 68.2509C18.8488 68.103 18.8523 67.9519 18.8523 67.8038M21.8174 82.9782L18.8523 67.8038M18.8523 67.8038C18.8523 67.8042 18.8523 67.8045 18.8523 67.8049L18.6184 67.8027H18.8523C18.8523 67.8031 18.8523 67.8035 18.8523 67.8038ZM18.8523 67.8038C18.88 64.7631 18.8662 61.7088 18.8246 58.641V58.6404V58.6397V58.6389V58.6382V58.6375V58.6367V58.636V58.6353V58.6345V58.6338V58.6331V58.6323V58.6316V58.6309V58.6301V58.6294V58.6286V58.6279V58.6272V58.6264V58.6257V58.625V58.6242V58.6235V58.6227V58.622V58.6213V58.6205V58.6198V58.619V58.6183V58.6175V58.6168V58.6161V58.6153V58.6146V58.6138V58.6131V58.6123V58.6116V58.6109V58.6101V58.6094V58.6086V58.6079V58.6071V58.6064V58.6056V58.6049V58.6041V58.6034V58.6027V58.6019V58.6012V58.6004V58.5997V58.5989V58.5982V58.5974V58.5967V58.5959V58.5952V58.5944V58.5937V58.5929V58.5922V58.5914V58.5907V58.5899V58.5892V58.5884V58.5877V58.5869V58.5862V58.5854V58.5847V58.5839V58.5831V58.5824V58.5816V58.5809V58.5801V58.5794V58.5786V58.5779V58.5771V58.5764V58.5756V58.5748V58.5741V58.5733V58.5726V58.5718V58.5711V58.5703V58.5696V58.5688V58.568V58.5673V58.5665V58.5658V58.565V58.5642V58.5635V58.5627V58.562V58.5612V58.5605V58.5597V58.5589V58.5582V58.5574V58.5567V58.5559V58.5551V58.5544V58.5536V58.5529V58.5521V58.5513V58.5506V58.5498V58.549V58.5483V58.5475V58.5468V58.546V58.5452V58.5445V58.5437V58.5429V58.5422V58.5414V58.5407V58.5399V58.5391V58.5384V58.5376V58.5368V58.5361V58.5353V58.5345V58.5338V58.533V58.5322V58.5315V58.5307V58.5299V58.5292V58.5284V58.5277V58.5269V58.5261V58.5254V58.5246V58.5238V58.5231V58.5223V58.5215V58.5208V58.52V58.5192V58.5185V58.5177V58.5169V58.5161V58.5154V58.5146V58.5138V58.5131V58.5123V58.5115V58.5108V58.51V58.5092V58.5085V58.5077V58.5069V58.5062V58.5054V58.5046V58.5039V58.5031V58.5023V58.5015V58.5008V58.5V58.4992V58.4985V58.4977V58.4969V58.4962V58.4954V58.4946V58.4938V58.4931V58.4923V58.4915V58.4908V58.49V58.4892V58.4884V58.4877V58.4869V58.4861V58.4854V58.4846V58.4838V58.483V58.4823V58.4815V58.4807V58.48V58.4792V58.4784V58.4776V58.4769V58.4761V58.4753V58.4746V58.4738V58.473V58.4722V58.4715V58.4707V58.4699V58.4692V58.4684V58.4676V58.4668V58.4661V58.4653V58.4645V58.4638V58.463V58.4622V58.4614V58.4607V58.4599V58.4591V58.4583V58.4576V58.4568V58.456V58.4553V58.4545V58.4537V58.4529V58.4522V58.4514V58.4506V58.4499V58.4491V58.4483V58.4475V58.4468V58.446V58.4452V58.4444V58.4437V58.4429V58.4421V58.4414V58.4406V58.4398V58.439V58.4383V58.4375V58.4367V58.4359V58.4352V58.4344V58.4336V58.4329V58.4321V58.4313V58.4305V58.4298V58.429V58.4282V58.4275V58.4267V58.4259V58.4251V58.4244V58.4236V58.4228V58.422V58.4213V58.4205V58.4197V58.419V58.4182V58.4174V58.4166V58.4159V58.4151V58.4143V58.4136V58.4128V58.412V58.4112V58.4105V58.4097V58.4089V58.4082V58.4074V58.4066V58.4058V58.4051V58.4043V58.4035V58.4028V58.402V58.4012V58.4005V58.3997V58.3989V58.3981V58.3974V58.3966V58.3958V58.3951V58.3943V58.3935V58.3928V58.392V58.3912V58.3904V58.3897V58.3889V58.3881V58.3874V58.3866V58.3858V58.3851V58.3843V58.3835V58.3828V58.382V58.3812V58.3805V58.3797V58.3789V58.3782V58.3774V58.3766V58.3759V58.3751V58.3743V58.3736V58.3728V58.372V58.3713V58.3705V58.3697V58.369V58.3682V58.3674V58.3667V58.3659V58.3651V58.3644V58.3636V58.3628V58.3621V58.3613V58.3605V58.3598V58.359V58.3582V58.3575V58.3567V58.356V58.3552V58.3544V58.3537V58.3529V58.3521V58.3514V58.3506V58.3499V58.3491V58.3483V58.3476V58.3468V58.346V58.3453V58.3445V58.3438V58.343V58.3422V58.3415V58.3407V58.34V58.3392V58.3384V58.3377V58.3369V58.3362V58.3354V58.3346V58.3339V58.3331V58.3324V58.3316V58.3308V58.3301V58.3293V58.3286V58.3278V58.3271V58.3263V58.3255V58.3248V58.324V58.3233V58.3225V58.3218V58.321V58.3203V58.3195V58.3187V58.318V58.3172V58.3165V58.3157V58.315V58.3142V58.3135V58.3127V58.312V58.3112V58.3104V58.3097V58.3089V58.3082V58.3074V58.3067V58.3059V58.3052V58.3044V58.3037V58.3029V58.3022V58.3014V58.3007V58.2999V58.2992V58.2984V58.2977V58.2969V58.2962V58.2954V58.2947V58.294V58.2932V58.2925V58.2917V58.291V58.2902V58.2895V58.2887V58.288V58.2872V58.2865V58.2857V58.285V58.2843V58.2835V58.2828V58.282V58.2813V58.2805V58.2798V58.2791V58.2783V58.2776V58.2768V58.2761V58.2754V58.2746V58.2739V58.2731V58.2724V58.2717V58.2709V58.2702V58.2694V58.2687V58.268V58.2672V58.2665V58.2657V58.265V58.2643V58.2635V58.2628V58.2621V58.2613V58.2606V58.2599V58.2591V58.2584V58.2577V58.2569V58.2562V58.2555V58.2547V58.254V58.2529V58.2517V58.2506V58.2494V58.2483V58.2472V58.246V58.2449V58.2438V58.2426V58.2415V58.2403V58.2392V58.2381V58.2369V58.2358V58.2346V58.2335V58.2324V58.2312V58.2301V58.229V58.2278V58.2267V58.2255V58.2244V58.2233V58.2221V58.221V58.2198V58.2187V58.2176V58.2164V58.2153V58.2142V58.213V58.2119V58.2107V58.2096V58.2085V58.2073V58.2062V58.205V58.2039V58.2028V58.2016V58.2005V58.1994V58.1982V58.1971V58.1959V58.1948V58.1937V58.1925V58.1914V58.1902V58.1891V58.188V58.1868V58.1857V58.1845V58.1834V58.1823V58.1811V58.18V58.1789V58.1777V58.1766V58.1754V58.1743V58.1732V58.172V58.1709V58.1698V58.1686V58.1675V58.1663V58.1652V58.1641V58.1629V58.1618V58.1606V58.1595V58.1584V58.1572V58.1561V58.1549V58.1538V58.1527V58.1515V58.1504V58.1493V58.1481V58.147V58.1458V58.1447V58.1436V58.1424V58.1413V58.1401V58.139V58.1379V58.1367V58.1356V58.1345V58.1333V58.1322V58.131V58.1299V58.1288V58.1276V58.1265V58.1253V58.1242V58.1231V58.1219V58.1208V58.1197V58.1185V58.1174V58.1162V58.1151V58.114V58.1128V58.1117V58.1105V58.1094V58.1083V58.1071V58.106V58.1049V58.1037V58.1026V58.1014V58.1003V58.0992V58.098V58.0969V58.0957V58.0946V58.0935V58.0923V58.0912V58.0901V58.0889V58.0878V58.0866V58.0855V58.0844V58.0832V58.0821V58.0809V58.0798V58.0787V58.0775V58.0764V58.0753V58.0741V58.073V58.0718V58.0707V58.0696V58.0684V58.0673V58.0661V58.065V58.0639V58.0627V58.0616V58.0605V58.0593V58.0582V58.057V58.0559V58.0548V58.0536V58.0525V58.0513V58.0502V58.0491V58.0479V58.0468V58.0457V58.0445V58.0434V58.0422V58.0411V58.04V58.0388V58.0377V58.0365V58.0354V58.0343V58.0331V58.032V58.0308V58.0297V58.0286V58.0274V58.0263V58.0252V58.024V58.0229V58.0217V58.0206V58.0195V58.0183V58.0172V58.016V58.0149V58.0138V58.0126V58.0115V58.0104V58.0092V58.0081V58.0069V58.0058V58.0047V58.0035V58.0024V58.0012V58.0001V57.999V57.9978V57.9967V57.9956V57.9944V57.9933V57.9921V57.991V57.9899V57.9887V57.9876V57.9864V57.9853V57.9842V57.983V57.9819V57.9808V57.9796V57.9785V57.9773V57.9762V57.9751V57.9739V57.9728V57.9716V57.9705V57.9694V57.9682V57.9671V57.966V57.9648V57.9637V57.9625V57.9614V57.9603V57.9591V57.958V57.9568V57.9557V57.9546V57.9534V57.9523V57.9512V57.95V57.9489V57.9477V57.9466V57.9455V57.9443V57.9432V57.942V57.9409V57.9398V57.9386V57.9375V57.9364V57.9352V57.9341V57.9329V57.9318V57.9307V57.9295V57.9284V57.9272V57.9261V57.925V57.9238V57.9227V57.9216V57.9204V57.9193V57.9181V57.917V57.9159V57.9147V57.9136V57.9124V57.9113V57.9102V57.909V57.9079V57.9068V57.9056V57.9045V57.9033V57.9022V57.9011V57.8999V57.8988V57.8976V57.8965V57.8954V57.8942V57.8931V57.892V57.8908V57.8897V57.8885V57.8874V57.8863V57.8851V57.884V57.8828V57.8817V57.8806V57.8794V57.8783V57.8771V57.876V57.8749V57.8737V57.8726V57.8715V57.8703V57.8692V57.868V57.8669V57.8658V57.8646V57.8635V57.8624V57.8612V57.8601V57.8589V57.8578V57.8567V57.8555V57.8544V57.8532V57.8521V57.851V57.8498V57.8487V57.8475V57.8464V57.8453V57.8441V57.843V57.8419V57.8407V57.8396V57.8384V57.8373V57.8362V57.835V57.8339V57.8327V57.8316V57.8305V57.8293V57.8282V57.8271V57.8259V57.8248V57.8236V57.8225V57.8214V57.8202V57.8191V57.8179V57.8168V57.8157V57.8145V57.8134V57.8123V57.8111V57.81V57.8088V57.8077V57.8066V57.8054V57.8043V57.8031V57.802V57.8009V57.7997V57.7986V57.7975V57.7963V57.7952V57.794V57.7929V57.7918V57.7906V57.7895V57.7883V57.7872V57.7861V57.7849V57.7838V57.7827V57.7815V57.7804V57.7792V57.7781V57.777V57.7758V57.7747V57.7735V57.7724V57.7713V57.7701V57.769V57.7679V57.7667V57.7656V57.7644V57.7633V57.7622V57.761V57.7599V57.7587V57.7576V57.7565V57.7553V57.7542V57.7531V57.7519V57.7508V57.7496V57.7485V57.7474V57.7462V57.7451V57.7439V57.7428V57.7417V57.7405V57.7394V57.7383V57.7371V57.736V57.7348V57.7337V57.7326V57.7314V57.7303V57.7291V57.728V57.7269V57.7257V57.7246V57.7235V57.7223V57.7212V57.72V57.7189V57.7178V57.7166V57.7155V57.7143V57.7132V57.7121V57.7109V57.7098V57.7087V57.7075V57.7064V57.7052V57.7041V57.703V57.7018V57.7007V57.6995V57.6984V57.6973V57.6961V57.695V57.6938V57.6927V57.6916V57.6904V57.6893V57.6882V57.687V57.6859V57.6847V57.6836V57.6825V57.6813V57.6802V57.679V57.6779V57.6768V57.6756V57.6745V57.6734V57.6725L18.8523 67.8038Z" fill="#FFCE05" stroke="black" stroke-width="0.467787"/>
<path d="M28.0028 42.5613L28.0029 42.5614C28.0208 42.5315 28.0392 42.4978 28.0605 42.4587L28.0615 42.4568C28.0802 42.4225 28.1013 42.3839 28.1229 42.3473C28.2605 42.072 28.3955 41.8015 28.5168 41.5319C28.8971 40.6619 29.1307 39.788 29.0525 38.9135L29.0515 38.9031L29.0518 38.9031C29.0256 38.3138 28.8684 37.7474 28.6164 37.2165L28.6132 37.2098L28.6105 37.203C28.5877 37.1461 28.5518 37.074 28.5161 37.0144L28.5123 37.0081L28.5089 37.0015C28.3084 36.6135 28.0544 36.2259 27.7613 35.8793L27.7586 35.8761L27.7586 35.876C27.044 34.9992 26.1084 34.2374 25.1621 33.5921L24.7702 33.3445L24.3749 33.0947L24.3639 33.0877L24.3537 33.0796C24.3006 33.0371 24.2462 33.0038 24.1733 32.9673L24.1653 32.9634L24.1577 32.9588C22.2048 31.7892 20.1125 30.8661 17.949 30.1491C16.4176 29.6521 14.8578 29.2378 13.2834 28.8923L13.2829 28.8922C10.8706 28.3574 8.41623 28.0129 5.94649 27.8186C5.87626 27.844 5.79221 27.8685 5.6958 27.8822L5.68825 27.8833L5.68065 27.8839C5.42812 27.9033 5.15892 27.8966 4.90697 27.8904C4.78863 27.8874 4.67409 27.8846 4.56687 27.8846C3.56622 27.8846 2.56249 27.9917 1.54738 28.115C1.53009 28.1211 1.51149 28.1261 1.49125 28.1295C1.46896 28.1332 1.44772 28.1341 1.43339 28.1344C0.900633 28.203 0.367365 28.285 -0.169249 28.3676L-0.175797 28.3686L-0.175808 28.3685C-0.288898 28.3827 -0.385931 28.3951 -0.480988 28.4189L-0.490053 28.4211L-0.499271 28.4227C-1.82318 28.6435 -3.14682 28.9332 -4.44254 29.2918L-4.44462 29.2923L-4.44462 29.2923C-4.54336 29.3187 -4.63948 29.3485 -4.74073 29.3799L-4.74271 29.3806C-4.84181 29.4113 -4.94593 29.4437 -5.0543 29.4726C-5.08278 29.4804 -5.11104 29.488 -5.13904 29.4955C-5.26791 29.5301 -5.39141 29.5633 -5.50691 29.6054L-5.54565 29.6195H-5.57184C-5.57289 29.6198 -5.57398 29.6202 -5.57508 29.6207L-5.57808 29.6219L-5.579 29.6223L-5.57929 29.6225L-5.57933 29.6225L-5.6023 29.634L-5.62722 29.6402C-5.78259 29.6791 -5.94057 29.7316 -6.0895 29.7858L-6.10056 29.7898L-6.10065 29.7895C-6.28212 29.8454 -6.45483 29.8987 -6.62645 29.9647L-6.63637 29.9685L-6.63645 29.9683C-6.66192 29.9768 -6.68618 29.9846 -6.70967 29.9921C-6.77433 30.0129 -6.83323 30.0318 -6.8957 30.0585L-6.90464 30.0624L-6.91387 30.0655C-6.9419 30.0748 -6.96935 30.0838 -6.99625 30.0926C-7.09863 30.126 -7.19312 30.1569 -7.28123 30.1961L-7.2998 30.2043L-7.31951 30.2093C-7.36205 30.2199 -7.38699 30.2284 -7.4242 30.2471L-7.43519 30.2526L-7.44669 30.2569C-7.48099 30.2697 -7.51437 30.2819 -7.54722 30.2938C-7.63075 30.3241 -7.71092 30.3532 -7.79447 30.3904L-7.79948 30.3926L-7.7995 30.3926C-7.88081 30.4265 -7.95896 30.4604 -8.03895 30.4952L-8.03963 30.4955C-8.1186 30.5299 -8.1994 30.565 -8.28391 30.6003C-8.28427 30.6004 -8.28463 30.6006 -8.285 30.6007L-8.5725 30.724C-8.57277 30.7242 -8.57305 30.7243 -8.57333 30.7244C-8.68225 30.7721 -8.79486 30.8233 -8.90931 30.8753L-8.9101 30.8757C-9.02399 30.9275 -9.13969 30.9801 -9.25219 31.0294C-9.36137 31.0772 -9.47427 31.1285 -9.589 31.1807L-9.5898 31.181C-9.70368 31.2328 -9.81938 31.2855 -9.93188 31.3347L-9.93566 31.3364L-9.93567 31.3363C-10.1032 31.4062 -10.2623 31.4726 -10.4204 31.5517L-10.4281 31.5556L-10.4282 31.5554C-10.4795 31.5787 -10.53 31.6011 -10.5803 31.6233C-10.6649 31.6608 -10.7488 31.6978 -10.8341 31.7386C-11.0561 32.1075 -11.2542 32.4773 -11.4553 32.8529C-11.7176 33.3639 -11.9785 33.8723 -12.2256 34.3803C-12.2443 34.4254 -12.2661 34.4645 -12.2814 34.4921L-12.2833 34.4956C-12.3016 34.5285 -12.3117 34.5472 -12.3192 34.566L-12.3221 34.5733L-12.3256 34.5805C-12.6708 35.299 -13.0024 36.0318 -13.3205 36.7651L-13.3211 36.7666C-14.1637 38.6738 -14.8962 40.6233 -15.546 42.6153C-16.1682 44.5244 -16.7073 46.4472 -17.1635 48.3975C-17.8549 51.3719 -18.3666 54.4023 -18.7124 57.4471C-19.1551 61.489 -19.3211 65.5863 -19.2104 69.67C-19.1552 71.7021 -19.0448 73.7199 -18.8655 75.7371C-18.8576 75.7815 -18.8537 75.8259 -18.8507 75.86L-18.8506 75.8617L-18.8505 75.8624C-18.8469 75.9042 -18.8441 75.936 -18.839 75.9667L-18.8376 75.9752L-18.8368 75.9837C-18.6292 78.2412 -18.3524 80.4848 -18.0063 82.7145L-18.0063 82.7148C-17.8934 83.4486 -17.76 84.148 -17.3069 84.6136L-17.3038 84.6167L-17.3039 84.6167C-17.0323 84.9065 -16.669 85.0809 -16.2486 85.1905C-15.8264 85.3007 -15.3645 85.3413 -14.9055 85.3761C-13.5482 85.4731 -12.1922 85.57 -10.8227 85.6531C-10.7743 85.6535 -10.7246 85.6573 -10.6843 85.6604L-10.6805 85.6607C-10.6333 85.6644 -10.5976 85.667 -10.5667 85.667H-10.5582L-10.5497 85.6676C-10.0395 85.7047 -9.53767 85.7293 -9.03052 85.7541C-8.78185 85.7662 -8.53189 85.7784 -8.27902 85.7922L-8.2767 85.7924C-7.85108 85.8198 -7.42483 85.8336 -6.9942 85.8475L-6.99386 85.8475C-5.76096 85.8891 -4.54307 85.9168 -3.31199 85.9168H-3.3115H-3.31102H-3.31053H-3.31004H-3.30955H-3.30906H-3.30857H-3.30808H-3.30759H-3.3071H-3.30661H-3.30612H-3.30563H-3.30513H-3.30464H-3.30415H-3.30366H-3.30316H-3.30267H-3.30218H-3.30168H-3.30119H-3.30069H-3.3002H-3.2997H-3.29921H-3.29871H-3.29822H-3.29772H-3.29722H-3.29673H-3.29623H-3.29573H-3.29523H-3.29473H-3.29424H-3.29374H-3.29324H-3.29274H-3.29224H-3.29174H-3.29124H-3.29074H-3.29024H-3.28974H-3.28923H-3.28873H-3.28823H-3.28773H-3.28723H-3.28672H-3.28622H-3.28572H-3.28521H-3.28471H-3.2842H-3.2837H-3.28319H-3.28269H-3.28218H-3.28168H-3.28117H-3.28067H-3.28016H-3.27965H-3.27915H-3.27864H-3.27813H-3.27762H-3.27711H-3.27661H-3.2761H-3.27559H-3.27508H-3.27457H-3.27406H-3.27355H-3.27304H-3.27253H-3.27202H-3.27151H-3.27099H-3.27048H-3.26997H-3.26946H-3.26895H-3.26843H-3.26792H-3.26741H-3.26689H-3.26638H-3.26587H-3.26535H-3.26484H-3.26432H-3.26381H-3.26329H-3.26278H-3.26226H-3.26174H-3.26123H-3.26071H-3.26019H-3.25968H-3.25916H-3.25864H-3.25812H-3.2576H-3.25709H-3.25657H-3.25605H-3.25553H-3.25501H-3.25449H-3.25397H-3.25345H-3.25293H-3.25241H-3.25189H-3.25137H-3.25084H-3.25032H-3.2498H-3.24928H-3.24876H-3.24823H-3.24771H-3.24719H-3.24666H-3.24614H-3.24562H-3.24509H-3.24457H-3.24405H-3.24352H-3.24299H-3.24247H-3.24194H-3.24142H-3.24089H-3.24037H-3.23984H-3.23931H-3.23879H-3.23826H-3.23773H-3.23721H-3.23668H-3.23615H-3.23562H-3.23509H-3.23456H-3.23404H-3.23351H-3.23298H-3.23245H-3.23192H-3.23139H-3.23086H-3.23033H-3.2298H-3.22927H-3.22873H-3.2282H-3.22767H-3.22714H-3.22661H-3.22608H-3.22554H-3.22501H-3.22448H-3.22395H-3.22341H-3.22288H-3.22235H-3.22181H-3.22128H-3.22074H-3.22021H-3.21967H-3.21914H-3.2186H-3.21807H-3.21753H-3.217H-3.21646H-3.21593H-3.21539H-3.21485H-3.21432H-3.21378H-3.21324H-3.2127H-3.21217H-3.21163H-3.21109H-3.21055H-3.21001H-3.20948H-3.20894H-3.2084H-3.20786H-3.20732H-3.20678H-3.20624H-3.2057H-3.20516H-3.20462H-3.20408H-3.20354H-3.203H-3.20246H-3.20192H-3.20138H-3.20083H-3.20029H-3.19975H-3.19921H-3.19867H-3.19812H-3.19758H-3.19704H-3.1965H-3.19595H-3.19541H-3.19487H-3.19432H-3.19378H-3.19324H-3.19269H-3.19215H-3.1916H-3.19106H-3.19051H-3.18997H-3.18942H-3.18888H-3.18833H-3.18778H-3.18724H-3.18669H-3.18615H-3.1856H-3.18505H-3.18451H-3.18396H-3.18341H-3.18287H-3.18232H-3.18177H-3.18122H-3.18068H-3.18013H-3.17958H-3.17903H-3.17848H-3.17793H-3.17739H-3.17684H-3.17629H-3.17574H-3.17519H-3.17464H-3.17409H-3.17354H-3.17299H-3.17244H-3.17189H-3.17134H-3.17079H-3.17023H-3.16968H-3.16913H-3.16858H-3.16803H-3.16748H-3.16693H-3.16637H-3.16582H-3.16527H-3.16472H-3.16417H-3.16361H-3.16306H-3.16251H-3.16195H-3.1614H-3.16085H-3.1603H-3.15974H-3.15919H-3.15863H-3.15808H-3.15753H-3.15697H-3.15642H-3.15586H-3.15531H-3.15475H-3.1542H-3.15364H-3.15309H-3.15253H-3.15198H-3.15142H-3.15087H-3.15031H-3.14975H-3.1492H-3.14864H-3.14808H-3.14753H-3.14697H-3.14642H-3.14586H-3.1453H-3.14474H-3.14419H-3.14363H-3.14307H-3.14252H-3.14196H-3.1414H-3.14084H-3.14028H-3.13972H-3.13917H-3.13861H-3.13805H-3.13749H-3.13693H-3.13637H-3.13581H-3.13526H-3.1347H-3.13414H-3.13358H-3.13302H-3.13246H-3.1319H-3.13134H-3.13078H-3.13022H-3.12966H-3.1291H-3.12854H-3.12798H-3.12742H-3.12686H-3.1263H-3.12574H-3.12518H-3.12461H-3.12405H-3.12349H-3.12293H-3.12237H-3.12181H-3.12124H-3.12068H-3.12012H-3.11956H-3.119H-3.11843H-3.11787H-3.11731H-3.11675H-3.11619H-3.11562H-3.11506H-3.1145H-3.11394H-3.11337H-3.11281H-3.11225H-3.11168H-3.11112H-3.11056H-3.10999H-3.10943H-3.10887H-3.1083H-3.10774H-3.10718H-3.10661H-3.10605H-3.10548H-3.10492H-3.10435H-3.10379H-3.10323H-3.10266H-3.1021H-3.10153H-3.10097H-3.1004H-3.09984H-3.09927H-3.09871H-3.09814H-3.09758H-3.09701H-3.09645H-3.09588H-3.09532H-3.09475H-3.09419H-3.09362H-3.09306H-3.09249H-3.09192H-3.09136H-3.09079H-3.09023H-3.08966H-3.08909H-3.08853H-3.08796H-3.0874H-3.08683H-3.08626H-3.0857H-3.08513H-3.08456H-3.084H-3.08343H-3.08286H-3.0823H-3.08173H-3.08116H-3.0806H-3.08003H-3.07946H-3.0789H-3.07833H-3.07776H-3.07719H-3.07663H-3.07606H-3.07549H-3.07493H-3.07436H-3.07379H-3.07322H-3.07266H-3.07209H-3.07152H-3.07095H-3.07038H-3.06982H-3.06925H-3.06868H-3.06812H-3.06755H-3.06698H-3.06641H-3.06584H-3.06528H-3.06471H-3.06414H-3.06357H-3.063H-3.06244H-3.06187H-3.0613H-3.06073H-3.06016H-3.05959H-3.05902H-3.05846H-3.05789H-3.05732H-3.05675H-3.05618H-3.05561H-3.05505H-3.05448H-3.05391H-3.05334H-3.05277H-3.0522H-3.05163H-3.05107H-3.0505H-3.04993H-3.04936H-3.04879H-3.04822H-3.04765H-3.04708H-3.04651H-3.04595H-3.04538H-3.04481H-3.04424H-3.04367H-3.0431H-3.04253H-3.04197H-3.0414H-3.04083H-3.04026H-3.03969H-3.03912H-3.03855H-3.03798H-3.03741H-3.03684H-3.03628H-3.03571H-3.03514H-3.03457H-3.03351H-3.03246H-3.0314H-3.03034H-3.02928H-3.02822H-3.02716H-3.02611H-3.02505H-3.02399H-3.02293H-3.02187H-3.02081H-3.01974H-3.01868H-3.01762H-3.01656H-3.0155H-3.01444H-3.01337H-3.01231H-3.01125H-3.01018H-3.00912H-3.00806H-3.00699H-3.00593H-3.00486H-3.0038H-3.00273H-3.00167H-3.0006H-2.99953H-2.99846H-2.9974H-2.99633H-2.99526H-2.99419H-2.99313H-2.99206H-2.99099H-2.98992H-2.98885H-2.98778H-2.98671H-2.98564H-2.98457H-2.9835H-2.98243H-2.98136H-2.98028H-2.97921H-2.97814H-2.97707H-2.97599H-2.97492H-2.97385H-2.97277H-2.9717H-2.97062H-2.96955H-2.96847H-2.9674H-2.96632H-2.96525H-2.96417H-2.96309H-2.96202H-2.96094H-2.95986H-2.95879H-2.95771H-2.95663H-2.95555H-2.95448H-2.9534H-2.95232H-2.95124H-2.95016H-2.94908H-2.948H-2.94692H-2.94584H-2.94476H-2.94367H-2.94259H-2.94151H-2.94043H-2.93935H-2.93826H-2.93718H-2.9361H-2.93501H-2.93393H-2.93285H-2.93176H-2.93068H-2.92959H-2.92851H-2.92743H-2.92634H-2.92525H-2.92417H-2.92308H-2.922H-2.92091H-2.91982H-2.91874H-2.91765H-2.91656H-2.91547H-2.91438H-2.9133H-2.91221H-2.91112H-2.91003H-2.90894H-2.90785H-2.90676H-2.90567H-2.90458H-2.90349H-2.9024H-2.90131H-2.90022H-2.89912H-2.89803H-2.89694H-2.89585H-2.89476H-2.89366H-2.89257H-2.89148H-2.89038H-2.88929H-2.8882H-2.8871H-2.88601H-2.88491H-2.88382H-2.88272H-2.88163H-2.88053H-2.87944H-2.87834H-2.87724H-2.87615H-2.87505H-2.87395H-2.87286H-2.87176H-2.87066H-2.86956H-2.86847H-2.86737H-2.86627H-2.86517H-2.86407H-2.86297H-2.86187H-2.86077H-2.85967H-2.85857H-2.85747H-2.85637H-2.85527H-2.85417H-2.85307H-2.85197H-2.85087H-2.84977H-2.84866H-2.84756H-2.84646H-2.84536H-2.84425H-2.84315H-2.84205H-2.84094H-2.83984H-2.83874H-2.83763H-2.83653H-2.83542H-2.83432H-2.83322H-2.83211H-2.83101H-2.8299H-2.82879H-2.82769H-2.82658H-2.82548H-2.82437H-2.82326H-2.82216H-2.82105H-2.81994H-2.81883H-2.81773H-2.81662H-2.81551H-2.8144H-2.8133H-2.81219H-2.81108H-2.80997H-2.80886H-2.80775H-2.80664H-2.80553H-2.80442H-2.80331H-2.8022H-2.80109H-2.79998H-2.79887H-2.79776H-2.79665H-2.79554H-2.79442H-2.79331H-2.7922H-2.79109H-2.78998H-2.78886H-2.78775H-2.78664H-2.78552H-2.78441H-2.7833H-2.78218H-2.78107H-2.77996H-2.77884H-2.77773H-2.77662H-2.7755H-2.77439H-2.77327H-2.77216H-2.77104H-2.76993H-2.76881H-2.76769H-2.76658H-2.76546H-2.76435H-2.76323H-2.76211H-2.761H-2.75988H-2.75876H-2.75765H-2.75653H-2.75541H-2.75429H-2.75318H-2.75206H-2.75094H-2.74982H-2.7487H-2.74759H-2.74647H-2.74535H-2.74423H-2.74311H-2.74199H-2.74087H-2.73975H-2.73863H-2.73751H-2.73639H-2.73527H-2.73415H-2.73303H-2.73191H-2.73079H-2.72967H-2.72855H-2.72742H-2.7263H-2.72518H-2.72406H-2.72294H-2.72182H-2.72069H-2.71957H-2.71845H-2.71733H-2.7162H-2.71508H-2.71396H-2.71284H-2.71171H-2.71059H-2.70947H-2.70834H-2.70722H-2.70609H-2.70497H-2.70385H-2.70272H-2.7016H-2.70047H-2.69935H-2.69822H-2.6971H-2.69597H-2.69485H-2.69372H-2.6926H-2.69147H-2.69035H-2.68922H-2.6881H-2.68697H-2.68584H-2.68472H-2.68359H-2.68246H-2.68134H-2.68021H-2.67908H-2.67796H-2.67683H-2.6757H-2.67457H-2.67345H-2.67232H-2.67119H-2.67006H-2.66894H-2.66781H-2.66668H-2.66555H-2.66442H-2.6633H-2.66217H-2.66104H-2.65991H-2.65878H-2.65765H-2.65652H-2.65539H-2.65426H-2.65314H-2.65201H-2.65088H-2.64975H-2.64862H-2.64749H-2.64636H-2.64523H-2.6441H-2.64297H-2.64184H-2.64071H-2.63957H-2.63844H-2.63731H-2.63618H-2.63505H-2.63392H-2.63279H-2.63166H-2.63053H-2.62939H-2.62826H-2.62713H-2.626H-2.62487H-2.62374H-2.6226H-2.62147H-2.62034H-2.61921H-2.61808H-2.61694H-2.61581H-2.61468H-2.61355H-2.61241H-2.61128H-2.61015H-2.60902H-2.60788H-2.60675H-2.60562H-2.60448H-2.60335H-2.60222H-2.60108H-2.59995H-2.59882H-2.59768H-2.59655H-2.59542H-2.59428H-2.59315H-2.59201H-2.59088H-2.58974H-2.58861H-2.58748H-2.58634H-2.58521H-2.58407H-2.58294H-2.5818H-2.58067H-2.57953H-2.5784H-2.57726H-2.57613H-2.575H-2.57386H-2.57273H-2.57159H-2.57045H-2.56932H-2.56818H-2.56705H-2.56591H-2.56478H-2.56364H-2.56251H-2.56137H-2.56023H-2.5591H-2.55796H-2.55683H-2.55569H-2.55456H-2.55342H-2.55228H-2.55115H-2.55001H-2.54888H-2.54774H-2.5466H-2.54547H-2.54433H-2.54319H-2.54206H-2.54092H-2.53978H-2.53865H-2.53751H-2.53638H-2.53524H-2.5341H-2.53296H-2.53183H-2.53069H-2.52955H-2.52842H-2.52728H-2.52614H-2.52501H-2.52387H-2.52273H-2.5216H-2.52046H-2.51932H-2.51818H-2.51705H-2.51591H-2.51477H-2.51363H-2.5125H-2.51136H-2.51022H-2.50908H-2.50795H-2.50681H-2.50567H-2.50453H-2.5034H-2.50226H-2.50112H-2.49998H-2.49885H-2.49771H-2.49657H-2.49543H-2.4943H-2.49316H-2.49202H-2.49088H-2.48975H-2.48861H-2.48747H-2.48633H-2.48519H-2.48406H-2.48292H-2.48178H-2.48064H-2.47951H-2.47837H-2.47723H-2.47609H-2.47495H-2.47382H-2.47268H-2.47154H-2.4704H-2.46926H-2.46813H-2.46699H-2.46585H-2.4392C-1.01535 85.903 0.407585 85.8476 1.81594 85.7371L1.81916 85.7368C2.24466 85.7094 2.67077 85.6682 3.10126 85.6265C4.22373 85.5155 5.3544 85.3913 6.48333 85.1984L6.48369 85.1984C10.237 84.5633 13.8397 83.3402 16.4657 80.5902L16.508 80.5459C16.7835 80.2571 17.0487 79.979 17.3017 79.7259C17.4964 79.5311 17.6736 79.3537 17.8505 79.1631L17.8564 79.1568L17.8565 79.1569C17.894 79.1194 17.9288 79.0815 17.9674 79.0393C18.0041 78.9993 18.0443 78.9554 18.0885 78.9109C18.5296 78.4282 18.9496 77.9529 19.3554 77.3711C19.4034 77.3013 19.4511 77.2336 19.4984 77.1666C19.6049 77.0156 19.7094 76.8676 19.81 76.7042L20.9703 73.8497C20.9729 73.829 20.9756 73.8086 20.9782 73.7886C20.9813 73.765 20.9844 73.7419 20.9874 73.7189L20.9875 73.7188C20.9944 73.6666 21.0012 73.6156 21.008 73.5612L21.0091 73.5527L21.0107 73.5443C21.0243 73.4767 21.0339 73.4128 21.0339 73.3681V73.3552L21.0354 73.3423C21.057 73.1472 21.1149 72.9512 21.1655 72.7798C21.1699 72.7646 21.1743 72.7497 21.1787 72.735C21.2348 72.5435 21.2778 72.3834 21.2837 72.2366C21.2854 72.1636 21.2871 72.0921 21.2887 72.0217C21.3142 70.9345 21.3327 70.1444 21.2444 69.0212L21.1524 68.6663L21.1449 68.6374V68.6076C21.1449 68.5905 21.1422 68.572 21.1352 68.5351C21.1347 68.5328 21.1342 68.5302 21.1337 68.5275C21.128 68.498 21.1185 68.449 21.1173 68.3966C21.0992 68.177 21.0473 67.9585 20.9898 67.7168C20.9847 67.6953 20.9795 67.6737 20.9743 67.6518C20.912 67.3885 20.8474 67.0999 20.8398 66.7953L20.8398 66.7946C20.812 65.5272 20.8397 64.2735 20.923 63.0198C20.9235 62.9751 20.9278 62.9296 20.9309 62.8961C20.9346 62.8554 20.9369 62.8283 20.9369 62.8062V62.7988L20.9373 62.7914C20.9933 61.9096 21.0911 61.043 21.2166 60.1644M28.0028 42.5613L27.066 44.5553M28.0028 42.5613L28.0004 42.5657C27.9748 42.6104 27.949 42.6524 27.921 42.6979L27.9203 42.6991C27.8932 42.7431 27.8641 42.7905 27.8347 42.8419M28.0028 42.5613L28.037 42.9592M21.2166 60.1644C21.2726 59.7582 21.3424 59.3527 21.4116 58.9516L21.4119 58.9498L21.4119 58.9494C21.5233 58.3084 21.6488 57.6528 21.7883 57.0106L21.7925 56.9916L21.7997 56.9735C21.8183 56.9271 21.8286 56.8784 21.843 56.8063L21.8441 56.8009L21.8442 56.8009C22.3324 54.6233 23.0021 52.4877 23.839 50.422C23.8391 50.4219 23.8391 50.4217 23.8392 50.4216L23.8804 50.3185L23.922 50.2144L23.9229 50.2121C24.7461 48.216 25.7364 46.276 26.8662 44.4338M21.2166 60.1644C21.2166 60.1642 21.2166 60.1641 21.2166 60.1639L21.4482 60.197L21.2165 60.165C21.2165 60.1648 21.2165 60.1646 21.2166 60.1644ZM26.8662 44.4338C26.8663 44.4336 26.8665 44.4333 26.8666 44.433L27.066 44.5553M26.8662 44.4338C26.8661 44.434 26.866 44.4341 26.8659 44.4343L27.066 44.5553M26.8662 44.4338C26.99 44.229 27.1147 44.0263 27.2394 43.8237C27.439 43.499 27.6386 43.1745 27.8347 42.8419M27.066 44.5553C27.188 44.3537 27.312 44.152 27.4365 43.9496C27.6376 43.6226 27.84 43.2936 28.037 42.9592M27.8347 42.8419C27.8344 42.8424 27.8342 42.8428 27.8339 42.8432L28.037 42.9592M27.8347 42.8419C27.8349 42.8414 27.8352 42.841 27.8355 42.8405L28.037 42.9592" fill="#FFCE05" stroke="black" stroke-width="0.467787"/>
<mask id="path-5-inside-1_3055_25652" fill="white">
<path fill-rule="evenodd" clip-rule="evenodd" d="M17.4326 29.6953C17.648 29.7617 17.8629 29.8296 18.0773 29.8992C18.2801 29.9633 18.294 30.7343 18.3023 31.1937C18.3047 31.3313 18.3067 31.4409 18.3131 31.4953C18.3617 32.1754 18.3626 32.8692 18.3636 33.567C18.364 33.866 18.3644 34.1657 18.3686 34.4654C18.3686 34.7569 18.3686 35.0622 18.3408 35.3536C18.3408 35.3883 18.3374 35.4265 18.3339 35.4647C18.3304 35.5028 18.327 35.541 18.327 35.5757C18.2715 36.0615 18.1744 36.5472 17.9941 37.0053C17.7305 37.6576 17.134 38.5042 16.3989 38.6985C15.5805 38.9067 14.6511 38.4209 13.9853 37.9907C13.2224 37.5049 12.5149 36.9359 11.8491 36.3113L11.849 36.3113C11.7658 36.228 11.6826 36.1447 11.5855 36.0615C10.4758 35.0067 9.47712 33.7992 8.56161 32.564C8.47839 32.4529 8.39516 32.3419 8.32581 32.2309C8.27673 32.1613 8.22766 32.093 8.17895 32.0251C8.06241 31.8628 7.94791 31.7033 7.84031 31.5369C7.76402 31.4259 7.6912 31.3149 7.61837 31.2038C7.54555 31.0928 7.47272 30.9818 7.39643 30.8707C7.36869 30.8291 7.34095 30.7875 7.3132 30.7319C6.67513 29.7327 6.09254 28.6917 5.56543 27.6369C5.62091 27.6369 5.66252 27.6369 5.71801 27.623C5.81511 27.6092 5.89834 27.5814 5.96769 27.5537C6.02715 27.5583 6.0866 27.563 6.14605 27.5678C7.59822 26.8136 8.6322 25.7934 9.29681 24.2506C9.62972 23.5012 9.83778 22.6962 10.0181 21.9051C10.0228 21.8838 10.0308 21.8489 10.0412 21.8028C10.0923 21.5781 10.2035 21.0889 10.2955 20.6282C10.2955 20.6143 10.299 20.597 10.3025 20.5796C10.3059 20.5623 10.3094 20.545 10.3094 20.5311C10.3926 20.0731 10.4481 19.6567 10.3926 19.6151C10.351 19.5873 10.3372 19.5457 10.351 19.504C10.5868 18.7546 11.211 18.1855 11.9601 17.9357C12.7091 17.6859 13.5414 17.7969 14.2627 18.13C14.9701 18.4631 15.5389 19.0321 15.9827 19.6706C16.1215 19.8788 16.2463 20.0869 16.3434 20.2951C16.3989 20.3923 16.4405 20.4894 16.4821 20.5866L16.4821 20.5866C16.4924 20.6113 16.5027 20.6357 16.5129 20.6599C16.5714 20.7988 16.627 20.9305 16.6624 21.0724C16.7318 21.2667 16.7734 21.461 16.815 21.6692C16.8289 21.7333 16.8433 21.7987 16.8579 21.8649C17.0044 22.5295 17.1719 23.289 16.9953 23.9453C16.9884 23.98 16.978 24.0147 16.9676 24.0494C16.9572 24.0841 16.9468 24.1188 16.9399 24.1535V24.1674C16.9335 24.1832 16.9272 24.1983 16.9211 24.213C16.9002 24.2628 16.8812 24.3081 16.8705 24.3617C16.8636 24.3686 16.8601 24.379 16.8566 24.3894C16.8532 24.3998 16.8497 24.4103 16.8428 24.4172C16.7979 24.5257 16.75 24.6332 16.7021 24.7407C16.5722 25.0322 16.4421 25.3243 16.3711 25.6385C16.2602 26.1382 16.2324 26.6656 16.274 27.1791C16.2879 27.4012 16.3295 27.6232 16.385 27.8453C16.4266 28.0257 16.4821 28.22 16.5515 28.4005C16.5653 28.4352 16.5792 28.4664 16.5931 28.4976C16.607 28.5288 16.6208 28.5601 16.6347 28.5948C16.7179 28.803 16.8289 28.9834 16.9537 29.1777C17.0787 29.3595 17.2408 29.5321 17.4326 29.6953Z"/>
</mask>
<path fill-rule="evenodd" clip-rule="evenodd" d="M17.4326 29.6953C17.648 29.7617 17.8629 29.8296 18.0773 29.8992C18.2801 29.9633 18.294 30.7343 18.3023 31.1937C18.3047 31.3313 18.3067 31.4409 18.3131 31.4953C18.3617 32.1754 18.3626 32.8692 18.3636 33.567C18.364 33.866 18.3644 34.1657 18.3686 34.4654C18.3686 34.7569 18.3686 35.0622 18.3408 35.3536C18.3408 35.3883 18.3374 35.4265 18.3339 35.4647C18.3304 35.5028 18.327 35.541 18.327 35.5757C18.2715 36.0615 18.1744 36.5472 17.9941 37.0053C17.7305 37.6576 17.134 38.5042 16.3989 38.6985C15.5805 38.9067 14.6511 38.4209 13.9853 37.9907C13.2224 37.5049 12.5149 36.9359 11.8491 36.3113L11.849 36.3113C11.7658 36.228 11.6826 36.1447 11.5855 36.0615C10.4758 35.0067 9.47712 33.7992 8.56161 32.564C8.47839 32.4529 8.39516 32.3419 8.32581 32.2309C8.27673 32.1613 8.22766 32.093 8.17895 32.0251C8.06241 31.8628 7.94791 31.7033 7.84031 31.5369C7.76402 31.4259 7.6912 31.3149 7.61837 31.2038C7.54555 31.0928 7.47272 30.9818 7.39643 30.8707C7.36869 30.8291 7.34095 30.7875 7.3132 30.7319C6.67513 29.7327 6.09254 28.6917 5.56543 27.6369C5.62091 27.6369 5.66252 27.6369 5.71801 27.623C5.81511 27.6092 5.89834 27.5814 5.96769 27.5537C6.02715 27.5583 6.0866 27.563 6.14605 27.5678C7.59822 26.8136 8.6322 25.7934 9.29681 24.2506C9.62972 23.5012 9.83778 22.6962 10.0181 21.9051C10.0228 21.8838 10.0308 21.8489 10.0412 21.8028C10.0923 21.5781 10.2035 21.0889 10.2955 20.6282C10.2955 20.6143 10.299 20.597 10.3025 20.5796C10.3059 20.5623 10.3094 20.545 10.3094 20.5311C10.3926 20.0731 10.4481 19.6567 10.3926 19.6151C10.351 19.5873 10.3372 19.5457 10.351 19.504C10.5868 18.7546 11.211 18.1855 11.9601 17.9357C12.7091 17.6859 13.5414 17.7969 14.2627 18.13C14.9701 18.4631 15.5389 19.0321 15.9827 19.6706C16.1215 19.8788 16.2463 20.0869 16.3434 20.2951C16.3989 20.3923 16.4405 20.4894 16.4821 20.5866L16.4821 20.5866C16.4924 20.6113 16.5027 20.6357 16.5129 20.6599C16.5714 20.7988 16.627 20.9305 16.6624 21.0724C16.7318 21.2667 16.7734 21.461 16.815 21.6692C16.8289 21.7333 16.8433 21.7987 16.8579 21.8649C17.0044 22.5295 17.1719 23.289 16.9953 23.9453C16.9884 23.98 16.978 24.0147 16.9676 24.0494C16.9572 24.0841 16.9468 24.1188 16.9399 24.1535V24.1674C16.9335 24.1832 16.9272 24.1983 16.9211 24.213C16.9002 24.2628 16.8812 24.3081 16.8705 24.3617C16.8636 24.3686 16.8601 24.379 16.8566 24.3894C16.8532 24.3998 16.8497 24.4103 16.8428 24.4172C16.7979 24.5257 16.75 24.6332 16.7021 24.7407C16.5722 25.0322 16.4421 25.3243 16.3711 25.6385C16.2602 26.1382 16.2324 26.6656 16.274 27.1791C16.2879 27.4012 16.3295 27.6232 16.385 27.8453C16.4266 28.0257 16.4821 28.22 16.5515 28.4005C16.5653 28.4352 16.5792 28.4664 16.5931 28.4976C16.607 28.5288 16.6208 28.5601 16.6347 28.5948C16.7179 28.803 16.8289 28.9834 16.9537 29.1777C17.0787 29.3595 17.2408 29.5321 17.4326 29.6953Z" fill="white"/>
<path d="M17.4326 29.6953L17.2381 29.9237L17.2852 29.9638L17.3442 29.982L17.4326 29.6953ZM18.0773 29.8992L17.9847 30.1846L17.9869 30.1853L18.0773 29.8992ZM18.3023 31.1937L18.0023 31.1991V31.1991L18.3023 31.1937ZM18.3131 31.4953L18.6127 31.4739L18.611 31.4603L18.3131 31.4953ZM18.3636 33.567L18.6636 33.5666V33.5666L18.3636 33.567ZM18.3686 34.4654H18.6686L18.6686 34.4612L18.3686 34.4654ZM18.3408 35.3536L18.0422 35.3252L18.0408 35.3394V35.3536H18.3408ZM18.3339 35.4647L18.0351 35.4375V35.4375L18.3339 35.4647ZM18.327 35.5757L18.625 35.6098L18.627 35.5928V35.5757H18.327ZM17.9941 37.0053L18.2722 37.1176L18.2732 37.1152L17.9941 37.0053ZM16.3989 38.6985L16.4728 38.9892L16.4755 38.9885L16.3989 38.6985ZM13.9853 37.9907L14.1481 37.7387L14.1464 37.7376L13.9853 37.9907ZM11.8491 36.3113L11.6369 36.5235L11.6439 36.5301L11.8491 36.3113ZM11.849 36.3113L11.6369 36.5233L11.6369 36.5234L11.849 36.3113ZM11.5855 36.0615L11.3789 36.2789L11.3844 36.2842L11.3902 36.2892L11.5855 36.0615ZM8.56161 32.564L8.80264 32.3853L8.80166 32.384L8.56161 32.564ZM8.32581 32.2309L8.58025 32.0719L8.57579 32.0648L8.57094 32.0579L8.32581 32.2309ZM8.17895 32.0251L7.93525 32.2001L8.17895 32.0251ZM7.84031 31.5369L8.09232 31.3739L8.08757 31.367L7.84031 31.5369ZM7.61837 31.2038L7.86923 31.0393L7.86923 31.0393L7.61837 31.2038ZM7.39643 30.8707L7.14675 31.0371L7.14917 31.0406L7.39643 30.8707ZM7.3132 30.7319L7.58156 30.5978L7.57452 30.5838L7.56605 30.5705L7.3132 30.7319ZM5.56543 27.6369V27.3369H5.08014L5.29707 27.771L5.56543 27.6369ZM5.71801 27.623L5.67556 27.3261L5.66023 27.3283L5.64521 27.332L5.71801 27.623ZM5.96769 27.5537L5.99097 27.2546L5.9212 27.2491L5.85623 27.2751L5.96769 27.5537ZM6.14605 27.5678L6.1219 27.8668L6.20782 27.8738L6.28431 27.834L6.14605 27.5678ZM9.29681 24.2506L9.02262 24.1289L9.02129 24.132L9.29681 24.2506ZM10.0181 21.9051L10.3106 21.9718L10.311 21.9701L10.0181 21.9051ZM10.0412 21.8028L10.3338 21.8692V21.8692L10.0412 21.8028ZM10.2955 20.6282L10.5897 20.687L10.5955 20.6579V20.6282H10.2955ZM10.3094 20.5311L10.0142 20.4774L10.0094 20.504V20.5311H10.3094ZM10.3926 19.6151L10.5727 19.3751L10.566 19.3701L10.5591 19.3655L10.3926 19.6151ZM10.351 19.504L10.6357 19.5989L10.6372 19.5941L10.351 19.504ZM11.9601 17.9357L12.055 18.2203H12.055L11.9601 17.9357ZM14.2627 18.13L14.3905 17.8586L14.3885 17.8576L14.2627 18.13ZM15.9827 19.6706L16.2324 19.5042L16.2291 19.4993L15.9827 19.6706ZM16.3434 20.2951L16.0715 20.4219L16.0767 20.4332L16.0829 20.4439L16.3434 20.2951ZM16.4821 20.5866L16.7667 20.4917L16.7628 20.4799L16.7579 20.4685L16.4821 20.5866ZM16.4821 20.5866L16.1975 20.6815L16.201 20.6918L16.2052 20.7019L16.4821 20.5866ZM16.5129 20.6599L16.7893 20.5434L16.7893 20.5434L16.5129 20.6599ZM16.6624 21.0724L16.3714 21.1451L16.375 21.1593L16.3799 21.1732L16.6624 21.0724ZM16.815 21.6692L16.5208 21.728L16.5218 21.7324L16.815 21.6692ZM16.8579 21.8649L16.5649 21.9295L16.5649 21.9295L16.8579 21.8649ZM16.9953 23.9453L16.7057 23.8674L16.7031 23.8769L16.7012 23.8865L16.9953 23.9453ZM16.9399 24.1535L16.6457 24.0947L16.6399 24.1238V24.1535H16.9399ZM16.9399 24.1674L17.2184 24.2787L17.2399 24.2251V24.1674H16.9399ZM16.9211 24.213L17.1978 24.3289L17.1978 24.3289L16.9211 24.213ZM16.8705 24.3617L17.0827 24.5737L17.1469 24.5095L17.1647 24.4205L16.8705 24.3617ZM16.8566 24.3894L17.1413 24.4843L17.1413 24.4843L16.8566 24.3894ZM16.8428 24.4172L16.6306 24.2051L16.5884 24.2474L16.5655 24.3025L16.8428 24.4172ZM16.7021 24.7407L16.9761 24.8628L16.7021 24.7407ZM16.3711 25.6385L16.0785 25.5725L16.0783 25.5735L16.3711 25.6385ZM16.274 27.1791L16.5735 27.1604L16.5731 27.1549L16.274 27.1791ZM16.385 27.8453L16.6774 27.7779L16.6761 27.7726L16.385 27.8453ZM16.5515 28.4005L16.2714 28.5081L16.2729 28.5118L16.5515 28.4005ZM16.5931 28.4976L16.3189 28.6194L16.3189 28.6194L16.5931 28.4976ZM16.6347 28.5948L16.3561 28.7061V28.7061L16.6347 28.5948ZM16.9537 29.1777L16.7012 29.3399L16.7065 29.3476L16.9537 29.1777ZM17.3442 29.982C17.5583 30.0479 17.7717 30.1155 17.9847 30.1846L18.1699 29.6138C17.9541 29.5438 17.7377 29.4754 17.5209 29.4086L17.3442 29.982ZM17.9869 30.1853C17.9282 30.1667 17.9022 30.1309 17.8996 30.1272C17.8967 30.1231 17.9028 30.1308 17.9127 30.1601C17.9325 30.2186 17.9506 30.3107 17.9647 30.4327C17.9926 30.6737 17.9981 30.9661 18.0023 31.1991L18.6022 31.1883C18.5981 30.9619 18.5926 30.6391 18.5607 30.3637C18.545 30.2275 18.5211 30.0861 18.481 29.9677C18.461 29.9085 18.4326 29.8419 18.3901 29.7816C18.3479 29.7217 18.2771 29.6477 18.1677 29.6131L17.9869 30.1853ZM18.0023 31.1991C18.0046 31.3267 18.0065 31.457 18.0152 31.5303L18.611 31.4603C18.6069 31.4249 18.6049 31.3359 18.6022 31.1883L18.0023 31.1991ZM18.0139 31.5166C18.0615 32.1845 18.0626 32.8677 18.0636 33.5674L18.6636 33.5666C18.6626 32.8707 18.6618 32.1663 18.6123 31.4739L18.0139 31.5166ZM18.0636 33.5674C18.064 33.8661 18.0644 34.1677 18.0686 34.4696L18.6686 34.4612C18.6644 34.1637 18.664 33.8659 18.6636 33.5666L18.0636 33.5674ZM18.0686 34.4654C18.0686 34.7595 18.0683 35.0504 18.0422 35.3252L18.6395 35.3821C18.6688 35.074 18.6686 34.7542 18.6686 34.4654H18.0686ZM18.0408 35.3536C18.0408 35.3722 18.0389 35.3961 18.0351 35.4375L18.6327 35.4918C18.6358 35.4569 18.6408 35.4045 18.6408 35.3536H18.0408ZM18.0351 35.4375C18.032 35.4724 18.027 35.5248 18.027 35.5757H18.627C18.627 35.5572 18.6289 35.5333 18.6327 35.4918L18.0351 35.4375ZM18.0289 35.5417C17.9752 36.0117 17.8825 36.4697 17.7149 36.8953L18.2732 37.1152C18.4663 36.6247 18.5678 36.1112 18.625 35.6098L18.0289 35.5417ZM17.7159 36.8929C17.5953 37.1915 17.3967 37.5373 17.1462 37.8276C16.893 38.121 16.6086 38.3327 16.3222 38.4084L16.4755 38.9885C16.9243 38.8699 17.3057 38.5612 17.6004 38.2196C17.8978 37.875 18.1293 37.4713 18.2722 37.1176L17.7159 36.8929ZM16.3249 38.4077C15.9957 38.4915 15.6237 38.44 15.2357 38.3015C14.8495 38.1636 14.473 37.9487 14.1481 37.7387L13.8224 38.2426C14.1633 38.4629 14.5845 38.706 15.034 38.8665C15.4817 39.0264 15.9837 39.1137 16.4728 38.9892L16.3249 38.4077ZM14.1464 37.7376C13.4021 37.2637 12.7093 36.7068 12.0543 36.0925L11.6439 36.5301C12.3206 37.1649 13.0426 37.7461 13.8241 38.2437L14.1464 37.7376ZM12.0612 36.0992L12.0612 36.0991L11.6369 36.5234L11.637 36.5234L12.0612 36.0992ZM12.0612 36.0992C11.9789 36.0168 11.8879 35.9256 11.7808 35.8338L11.3902 36.2892C11.4773 36.3639 11.5528 36.4392 11.6369 36.5233L12.0612 36.0992ZM11.7922 35.844C10.6995 34.8054 9.71227 33.6127 8.80263 32.3853L8.3206 32.7426C9.24196 33.9858 10.2522 35.208 11.3789 36.2789L11.7922 35.844ZM8.80166 32.384C8.71683 32.2709 8.64163 32.1702 8.58025 32.0719L8.07137 32.3898C8.14869 32.5136 8.23995 32.635 8.32157 32.7439L8.80166 32.384ZM8.57094 32.0579C8.52104 31.9872 8.47125 31.9178 8.42264 31.8502L7.93525 32.2001C7.98408 32.2681 8.03243 32.3354 8.08067 32.4038L8.57094 32.0579ZM8.42264 31.8502C8.30541 31.6869 8.19521 31.5333 8.09222 31.374L7.5884 31.6998C7.70062 31.8734 7.81941 32.0387 7.93525 32.2001L8.42264 31.8502ZM8.08757 31.367C8.0134 31.2591 7.94233 31.1507 7.86923 31.0393L7.36752 31.3684C7.44006 31.479 7.51464 31.5927 7.59306 31.7068L8.08757 31.367ZM7.86923 31.0393C7.79668 30.9287 7.72211 30.815 7.64369 30.7008L7.14917 31.0406C7.22334 31.1486 7.29442 31.2569 7.36752 31.3684L7.86923 31.0393ZM7.64609 30.7044C7.61831 30.6627 7.60008 30.6349 7.58156 30.5978L7.04484 30.866C7.08181 30.94 7.11906 30.9955 7.14677 31.0371L7.64609 30.7044ZM7.56605 30.5705C6.9342 29.5809 6.35671 28.5493 5.83379 27.5028L5.29707 27.771C5.82836 28.8342 6.41606 29.8844 7.06035 30.8934L7.56605 30.5705ZM5.56543 27.9369C5.62055 27.9369 5.69567 27.9379 5.79081 27.9141L5.64521 27.332C5.63593 27.3343 5.62898 27.3353 5.62033 27.336C5.60863 27.3368 5.59531 27.3369 5.56543 27.3369V27.9369ZM5.76046 27.92C5.88938 27.9016 5.99687 27.8651 6.07916 27.8322L5.85623 27.2751C5.79981 27.2977 5.74083 27.3167 5.67556 27.3261L5.76046 27.92ZM5.94442 27.8527C6.00359 27.8574 6.06275 27.862 6.1219 27.8668L6.1702 27.2688C6.11046 27.2639 6.05072 27.2592 5.99097 27.2546L5.94442 27.8527ZM6.28431 27.834C7.79085 27.0516 8.87737 25.9825 9.57233 24.3693L9.02129 24.132C8.38703 25.6042 7.4056 26.5756 6.00778 27.3016L6.28431 27.834ZM9.57098 24.3724C9.91636 23.5949 10.1296 22.766 10.3106 21.9718L9.72561 21.8384C9.54601 22.6264 9.34307 23.4075 9.02264 24.1289L9.57098 24.3724ZM10.311 21.9701C10.3155 21.9498 10.3232 21.9157 10.3338 21.8692L9.74871 21.7363C9.73832 21.782 9.73017 21.8179 9.72525 21.84L10.311 21.9701ZM10.3338 21.8692C10.3848 21.6449 10.4968 21.152 10.5897 20.687L10.0014 20.5694C9.91015 21.0257 9.7998 21.5114 9.74871 21.7363L10.3338 21.8692ZM10.5955 20.6282C10.5955 20.6369 10.595 20.6433 10.5947 20.6466C10.5945 20.6484 10.5943 20.6498 10.5942 20.6506C10.5941 20.6515 10.594 20.652 10.594 20.652C10.594 20.6521 10.5941 20.6518 10.5942 20.6512C10.5943 20.6506 10.5944 20.6497 10.5947 20.6485C10.5952 20.6459 10.5957 20.643 10.5967 20.6385L10.0083 20.5208C10.0068 20.5281 9.99553 20.5781 9.99553 20.6282H10.5955ZM10.5967 20.6385C10.5981 20.6312 10.6094 20.5811 10.6094 20.5311H10.0094C10.0094 20.5224 10.0099 20.516 10.0103 20.5127C10.0104 20.5109 10.0106 20.5095 10.0107 20.5087C10.0108 20.5078 10.0109 20.5073 10.0109 20.5073C10.0109 20.5072 10.0109 20.5075 10.0108 20.5081C10.0107 20.5087 10.0105 20.5096 10.0103 20.5108C10.0098 20.5134 10.0092 20.5162 10.0083 20.5208L10.5967 20.6385ZM10.6046 20.5847C10.6466 20.3533 10.6829 20.1259 10.7014 19.948C10.7105 19.8604 10.7164 19.7752 10.7146 19.7039C10.7138 19.6692 10.7109 19.6258 10.7012 19.5822C10.6955 19.5568 10.6721 19.4497 10.5727 19.3751L10.2126 19.855C10.1646 19.819 10.1412 19.7776 10.1314 19.7572C10.1209 19.7355 10.1169 19.7187 10.1156 19.7129C10.1131 19.7019 10.1144 19.7014 10.1148 19.7188C10.1157 19.7516 10.1129 19.8069 10.1047 19.8859C10.0885 20.0411 10.0554 20.2509 10.0142 20.4774L10.6046 20.5847ZM10.5591 19.3655C10.5838 19.382 10.6151 19.4131 10.633 19.4623C10.6511 19.5121 10.6482 19.561 10.6356 19.5988L10.0664 19.4092C10.0069 19.5877 10.0797 19.7669 10.2262 19.8646L10.5591 19.3655ZM10.6372 19.5941C10.8401 18.949 11.3838 18.4441 12.055 18.2203L11.8652 17.6511C11.0382 17.9269 10.3335 18.5601 10.0649 19.414L10.6372 19.5941ZM12.055 18.2203C12.7155 18 13.4678 18.0934 14.1369 18.4024L14.3885 17.8576C13.615 17.5005 12.7028 17.3717 11.8652 17.6511L12.055 18.2203ZM14.1349 18.4014C14.7799 18.7051 15.3116 19.2308 15.7364 19.8418L16.2291 19.4993C15.7661 18.8335 15.1604 18.2211 14.3905 17.8586L14.1349 18.4014ZM15.7331 19.8369C15.8673 20.0383 15.9832 20.2326 16.0715 20.4219L16.6153 20.1683C16.5094 19.9413 16.3756 19.7192 16.2324 19.5042L15.7331 19.8369ZM16.0829 20.4439C16.1286 20.5239 16.1639 20.6056 16.2063 20.7047L16.7579 20.4685C16.7171 20.3733 16.6692 20.2607 16.6039 20.1464L16.0829 20.4439ZM16.1975 20.6814L16.1975 20.6815L16.7667 20.4917L16.7667 20.4917L16.1975 20.6814ZM16.2052 20.7019C16.2158 20.7274 16.2263 20.7524 16.2365 20.7765L16.7893 20.5434C16.7791 20.5191 16.769 20.4953 16.7591 20.4713L16.2052 20.7019ZM16.2365 20.7765C16.2965 20.9189 16.3425 21.0295 16.3714 21.1451L16.9535 20.9996C16.9115 20.8316 16.8464 20.6786 16.7893 20.5434L16.2365 20.7765ZM16.3799 21.1732C16.4412 21.3449 16.4793 21.5202 16.5208 21.728L17.1092 21.6103C17.0675 21.4018 17.0224 21.1884 16.945 20.9715L16.3799 21.1732ZM16.5218 21.7324C16.5358 21.7974 16.5503 21.8634 16.5649 21.9295L17.1508 21.8003C17.1362 21.7339 17.1219 21.6693 17.1083 21.6059L16.5218 21.7324ZM16.5649 21.9295C16.7156 22.6129 16.8595 23.2955 16.7057 23.8674L17.285 24.0233C17.4843 23.2826 17.2932 22.4461 17.1508 21.8003L16.5649 21.9295ZM16.7012 23.8865C16.6975 23.905 16.6914 23.926 16.6802 23.9632L17.255 24.1356C17.2646 24.1034 17.2793 24.055 17.2895 24.0041L16.7012 23.8865ZM16.6802 23.9632C16.6706 23.9954 16.6559 24.0438 16.6457 24.0947L17.234 24.2123C17.2377 24.1938 17.2438 24.1728 17.255 24.1356L16.6802 23.9632ZM16.6399 24.1535V24.1674H17.2399V24.1535H16.6399ZM16.6613 24.056C16.656 24.0692 16.6506 24.0821 16.6443 24.0971L17.1978 24.3289C17.2038 24.3145 17.211 24.2972 17.2184 24.2787L16.6613 24.056ZM16.6443 24.0971C16.6248 24.1437 16.5938 24.2155 16.5763 24.3029L17.1647 24.4205C17.1686 24.4007 17.1756 24.3819 17.1978 24.3289L16.6443 24.0971ZM16.6583 24.1496C16.6201 24.1878 16.5995 24.2273 16.5891 24.2502C16.5793 24.2718 16.5727 24.2924 16.572 24.2946L17.1413 24.4843C17.144 24.476 17.1409 24.4862 17.1354 24.4983C17.1293 24.5117 17.114 24.5425 17.0827 24.5737L16.6583 24.1496ZM16.572 24.2946C16.5693 24.3028 16.5724 24.2926 16.5779 24.2805C16.5839 24.2672 16.5993 24.2364 16.6306 24.2051L17.0549 24.6293C17.0932 24.5911 17.1137 24.5516 17.1241 24.5287C17.134 24.5071 17.1405 24.4865 17.1413 24.4843L16.572 24.2946ZM16.5655 24.3025C16.5225 24.4067 16.4762 24.5104 16.428 24.6186L16.9761 24.8628C17.0238 24.7559 17.0733 24.6447 17.12 24.5318L16.5655 24.3025ZM16.428 24.6186C16.3002 24.9056 16.157 25.2245 16.0785 25.5725L16.6638 25.7046C16.7271 25.424 16.8442 25.1588 16.9761 24.8628L16.428 24.6186ZM16.0783 25.5735C15.9601 26.1057 15.9313 26.6635 15.975 27.2033L16.5731 27.1549C16.5336 26.6677 16.5603 26.1707 16.664 25.7036L16.0783 25.5735ZM15.9746 27.1978C15.99 27.4441 16.0358 27.6853 16.094 27.918L16.6761 27.7726C16.6233 27.5612 16.5858 27.3582 16.5735 27.1604L15.9746 27.1978ZM16.0927 27.9127C16.1366 28.1031 16.1958 28.3114 16.2714 28.5081L16.8315 28.2928C16.7684 28.1286 16.7167 27.9483 16.6773 27.7779L16.0927 27.9127ZM16.2729 28.5118C16.2892 28.5525 16.3053 28.5887 16.3189 28.6194L16.8672 28.3758C16.8531 28.3441 16.8415 28.3178 16.83 28.2891L16.2729 28.5118ZM16.3189 28.6194C16.333 28.6511 16.3447 28.6774 16.3561 28.7061L16.9133 28.4834C16.897 28.4427 16.8809 28.4065 16.8672 28.3758L16.3189 28.6194ZM16.3561 28.7061C16.4509 28.9433 16.5759 29.1446 16.7013 29.3399L17.2061 29.0155C17.0819 28.8222 16.9849 28.6627 16.9133 28.4834L16.3561 28.7061ZM16.7065 29.3476C16.8495 29.5558 17.031 29.7475 17.2381 29.9237L17.6271 29.4669C17.4506 29.3167 17.3078 29.1633 17.201 29.0078L16.7065 29.3476Z" fill="black" mask="url(#path-5-inside-1_3055_25652)"/>
<path d="M15.857 9.04969L15.857 9.04968C17.0881 8.93896 18.3601 8.92887 19.4474 9.38552C20.5567 9.85358 21.3778 10.7927 21.8372 11.847C22.1071 12.4682 22.2569 13.1331 22.339 13.8034C22.3934 14.2803 22.4072 14.759 22.4073 15.2415C22.3659 17.3282 21.8581 19.3887 20.9514 21.2993L20.9514 21.2994C20.5711 22.102 20.1038 23.0121 19.5219 23.8342C18.9394 24.6569 18.2481 25.3826 17.4233 25.8254C16.7066 26.2101 15.8858 26.1942 15.1342 25.9174C14.3815 25.6402 13.7112 25.1053 13.3066 24.4748L13.3063 24.4744C10.9976 20.8994 10.2826 16.955 11.0254 12.785C11.248 11.543 11.8112 10.6731 12.6317 10.082C13.4565 9.48768 14.5539 9.16634 15.857 9.04969Z" fill="white" stroke="black" stroke-width="0.3"/>
<path d="M16.5231 17.7831C16.5231 17.7692 16.5231 17.7553 16.5092 17.7276C16.4537 17.6304 16.3428 17.5749 16.2318 17.5888C16.107 17.6027 16.0099 17.6721 15.9405 17.7692C15.8712 17.8664 15.8157 17.9913 15.7741 18.1023C15.7324 18.2272 15.7047 18.3521 15.677 18.477C15.6631 18.6019 15.6492 18.7269 15.6908 18.8379C15.7463 18.9628 15.8712 19.0183 15.996 18.9906C16.1208 18.9628 16.2041 18.8518 16.2873 18.7546C16.3705 18.6436 16.426 18.5326 16.4815 18.4215C16.5647 18.2411 16.6757 17.9496 16.5231 17.7831Z" fill="#36151D"/>
<path d="M20.4213 18.6573C20.4075 18.5601 20.352 18.463 20.241 18.4352C20.1578 18.4214 20.0746 18.4491 20.0052 18.5046C19.9775 18.5046 19.9497 18.5185 19.9358 18.5324C19.7971 18.6851 19.6862 18.8516 19.6029 19.032C19.5613 19.1292 19.5336 19.2125 19.5058 19.3235C19.4781 19.4206 19.4642 19.5178 19.4781 19.615C19.492 19.7121 19.5613 19.8093 19.6584 19.837C19.7694 19.8648 19.8665 19.8231 19.9497 19.7537C20.0191 19.6982 20.0746 19.6011 20.1162 19.5178C20.1717 19.4206 20.2271 19.3235 20.2688 19.2263C20.3104 19.1292 20.352 19.032 20.3797 18.921C20.3936 18.8377 20.4352 18.7406 20.4213 18.6573Z" fill="#36151D"/>
<path d="M17.0784 18.0051C16.4958 17.4221 15.6081 17.2972 14.8868 17.6997C14.7619 17.7691 14.8729 17.9634 14.9977 17.894C15.6219 17.547 16.4126 17.6581 16.9258 18.1716C17.0229 18.2549 17.1755 18.1022 17.0784 18.0051Z" fill="#36151D"/>
<path d="M21.0454 18.824C20.6709 18.3243 20.0051 18.1717 19.4502 18.4631C19.3254 18.5325 19.4364 18.7129 19.5612 18.6574C20.0051 18.4215 20.5599 18.5464 20.8651 18.935C20.9067 18.9766 20.9622 19.0044 21.0177 18.9766C21.0593 18.9489 21.087 18.8656 21.0454 18.824Z" fill="#36151D"/>
<path d="M17.5222 16.5618C16.676 16.1176 15.6495 16.0621 14.7618 16.423C14.6369 16.4785 14.6924 16.6867 14.8173 16.6311C15.6495 16.2842 16.6067 16.3258 17.4112 16.7422C17.536 16.8116 17.647 16.6311 17.5222 16.5618Z" fill="#36151D"/>
<path d="M19.256 18.1022C19.2421 18.0883 19.2282 18.0883 19.2282 18.0883C19.2282 18.0883 19.2144 18.0883 19.2144 18.0744C19.2005 18.0744 19.2005 18.0744 19.2144 18.0744C19.2005 18.0744 19.1866 18.0606 19.1727 18.0606C19.1589 18.0606 19.145 18.0606 19.1311 18.0467C19.1311 18.0467 19.1311 18.0467 19.145 18.0467C19.1589 18.0467 19.1589 18.0467 19.145 18.0467C19.145 18.0467 19.145 18.0467 19.1311 18.0467C19.1173 18.0467 19.1173 18.0467 19.1034 18.0467H19.0895H19.0756C19.0756 18.0467 19.0756 18.0467 19.0618 18.0467C18.9369 18.3382 18.8398 18.6574 18.7843 18.9766C18.715 19.3236 18.6872 19.7122 18.493 20.0175C18.2989 20.309 17.9798 20.4894 17.6885 20.6698C17.5637 20.7392 17.6746 20.9335 17.7995 20.8641C18.0908 20.6976 18.396 20.5172 18.604 20.2535C18.826 19.9759 18.8953 19.6289 18.9647 19.2819C19.0063 18.8794 19.1034 18.4769 19.256 18.1022Z" fill="#36151D"/>
<path d="M17.189 21.8217C16.7452 21.9189 16.3152 21.6968 16.1348 21.2943C16.1071 21.2388 16.0377 21.225 15.9822 21.2527C15.9268 21.2805 15.9129 21.3499 15.9406 21.4054C16.1626 21.905 16.7174 22.1548 17.2445 22.0438C17.3971 22.0022 17.3278 21.794 17.189 21.8217Z" fill="#36151D"/>
<path d="M21.586 17.9774C21.2947 17.3112 20.5873 16.881 19.8521 16.9504C19.7134 16.9643 19.7134 17.1863 19.8521 17.1724C20.5179 17.1169 21.1282 17.4917 21.3918 18.1023C21.4473 18.2134 21.6415 18.1023 21.586 17.9774Z" fill="#36151D"/>
<path d="M15.2888 11.024C15.1362 10.6492 14.8311 10.3578 14.4843 10.1218C14.1236 9.87201 13.7075 9.63607 13.2914 9.46952C12.903 9.33073 12.3759 9.33073 12.14 9.69159V9.70547C10.8084 11.3016 10.101 13.2724 10.1287 15.2432C10.1426 15.7983 10.1981 16.3535 10.3229 16.8948C10.3368 16.9503 10.3784 16.9642 10.42 16.9781C10.8223 17.5887 11.3771 18.1023 12.0429 18.5048C12.1262 18.5603 12.2094 18.5048 12.2233 18.4354C12.2649 18.4215 12.2926 18.3937 12.2926 18.3382C12.3065 16.3813 13.111 14.4521 14.5398 12.9393C14.5536 12.9254 14.5675 12.8976 14.5675 12.8838C15.1085 12.3564 15.594 11.7318 15.2888 11.024Z" fill="black"/>
<path d="M12.3011 19.893L12.3011 19.893L12.3001 19.8968C12.2429 20.1194 12.1438 20.3065 11.9964 20.4437C11.8505 20.5794 11.6476 20.6753 11.3651 20.7007C10.9429 20.7319 10.476 20.577 10.0567 20.3107C9.63782 20.0446 9.28261 19.6772 9.0816 19.3074L9.08151 19.3072C8.75896 18.7155 8.5796 18.0315 8.72178 17.3849L8.72182 17.3847C8.83642 16.8605 9.06998 16.5613 9.34486 16.41C9.62306 16.2568 9.97048 16.2403 10.3387 16.3371C11.082 16.5325 11.8392 17.1714 12.1115 17.8655L12.1115 17.8655L12.1119 17.8664C12.3274 18.4054 12.4826 19.2573 12.3011 19.893Z" fill="white" stroke="black" stroke-width="0.3"/>
<path d="M18.8952 7.88747C18.0629 7.33231 17.1613 6.77715 16.1625 6.58285C15.2332 6.40242 14.2483 6.55509 13.527 7.19352C12.9028 7.7348 12.5283 8.53979 12.4589 9.35865C12.3757 10.3163 12.6808 11.2739 13.2079 12.0651C13.305 12.2038 13.4021 12.3426 13.5131 12.4675C13.4299 12.4675 13.3605 12.5786 13.4299 12.6618C14.0125 13.3836 14.7477 13.9942 15.5522 14.4522C16.4122 14.938 17.3832 15.2711 18.368 15.3266C19.2974 15.3683 20.2407 15.1184 20.9481 14.5078C21.6139 13.9248 21.9191 13.0643 21.9052 12.2038C21.8497 10.2747 20.4071 8.88676 18.8952 7.88747Z" fill="black"/>
<path d="M25.1655 9.40001C24.3471 8.24806 23.3067 7.12386 21.9335 6.65197C20.477 6.15233 18.8124 6.59646 17.8137 7.74841C17.8137 7.73453 17.8137 7.72065 17.8137 7.70678C17.8137 7.56799 17.5918 7.56799 17.5918 7.70678C17.5501 9.24735 18.1882 10.7602 19.2841 11.8427C19.4089 11.9676 19.5476 12.0925 19.6863 12.2036C19.5892 12.2036 19.5476 12.384 19.6724 12.4256C21.1012 12.8975 21.6422 14.5491 22.9461 15.2153C24.2638 15.8954 25.7619 15.0349 26.2197 13.7164C26.7468 12.2036 26.0532 10.6352 25.1655 9.40001Z" fill="black"/>
<path d="M22.8766 8.41464C22.8628 8.38688 22.835 8.38688 22.8211 8.37301C21.9334 7.42923 21.004 6.49934 19.8804 5.83315C18.8262 5.20859 17.5917 4.8755 16.371 5.04204C15.8855 5.11144 15.4278 5.26411 15.0116 5.50005C14.3874 5.41678 13.7355 5.45841 13.0835 5.65272C12.0709 5.95806 11.1693 6.58261 10.5451 7.41535C9.80992 8.38688 9.53249 9.63599 9.67121 10.8296C9.82379 12.1481 10.448 13.3556 11.3358 14.3271C11.2941 14.4104 11.4051 14.5075 11.4883 14.4659C11.5577 14.4798 11.6132 14.4243 11.6132 14.3549C12.8338 13.2445 14.3042 12.4257 15.83 11.8011C17.5639 11.0794 19.3672 10.5659 21.1289 9.94133C21.3785 9.85806 21.6282 9.76091 21.8779 9.66375C22.0998 9.58048 22.3357 9.51108 22.5298 9.38617C22.8628 9.20575 23.1541 8.76162 22.8766 8.41464Z" fill="black"/>
</g>
</g>
<rect x="1" y="1" width="30" height="30" rx="15" stroke="#5000FF" stroke-width="2" stroke-linecap="round" stroke-linejoin="round"/>
<defs>
<clipPath id="clip0_3055_25652">
<rect width="32" height="32" rx="16" fill="white"/>
</clipPath>
<clipPath id="clip1_3055_25652">
<rect width="131" height="234" fill="white" transform="translate(-41 5)"/>
</clipPath>
</defs>
</svg>
