<svg width="178" height="134" viewBox="0 0 178 134" fill="none" xmlns="http://www.w3.org/2000/svg">
<path opacity="0.3" d="M73.0557 58.5141C73.8367 57.9247 74.6172 57.3345 75.3982 56.7451C74.6172 57.3345 73.8367 57.9247 73.0557 58.5141Z" fill="black"/>
<path opacity="0.3" d="M70.9102 53.9987C71.1054 53.6058 71.301 53.2124 71.301 52.623L70.9102 53.9987Z" fill="black"/>
<path opacity="0.3" d="M82.4192 17.2793C82.224 17.6722 82.2246 18.2612 82.0293 18.8506C82.0293 18.2612 82.224 17.8687 82.4192 17.2793Z" fill="black"/>
<path opacity="0.5" d="M106.419 30.6289C105.834 30.8254 105.247 30.8258 104.661 31.0222C105.247 30.8258 105.834 30.8254 106.419 30.6289Z" fill="black"/>
<path d="M73.4502 43.021C72.483 39.8561 70.6432 37.0323 68.1444 34.8777C67.4004 34.3247 66.602 33.743 65.7492 33.1327C65.3872 32.8798 65.0504 32.6269 64.6709 32.374C64.6558 32.3619 64.6398 32.351 64.6232 32.3411L63.746 31.714H63.7284L63.462 31.5218C63.1151 31.2689 62.7658 31.016 62.434 30.7909C62.248 30.6568 62.0821 30.538 61.8987 30.3964L61.1773 29.8425C57.1559 26.8887 54.1725 24.3622 52.7374 22.2783L49.8897 31.0463L49.5228 32.1717L49.5027 32.2349L49 33.7523C49 33.7523 49 33.7751 49 33.7827C49.0007 33.9906 49.0337 34.1971 49.098 34.3947C49.6987 36.3673 53.1798 39.4855 60.7425 44.8192C60.8883 44.9203 61.014 45.0139 61.1572 45.1125C61.4287 45.3022 61.685 45.4868 61.9439 45.674L62.7306 46.2354C67.697 49.8215 71.1102 52.6034 72.7238 54.9123C72.7557 54.9605 72.7901 55.0069 72.8268 55.0514C74.4387 51.2409 74.6595 46.9796 73.4502 43.021Z" fill="url(#paint0_linear_2261_17454)"/>
<path d="M71.9203 57.2564C71.4512 55.3883 68.2407 52.3282 62.2891 48.0762C62.2413 48.2203 62.2011 48.3493 62.1533 48.4909C59.0644 57.9316 58.1772 62.8353 59.2931 64.2895C59.4706 64.3825 59.6686 64.4286 59.8687 64.4235C62.1935 64.4235 67.0997 60.9765 71.9203 57.2564Z" fill="#B7BABB"/>
<path d="M64.1035 29.7153C66.069 28.9085 68.3184 22.1662 69.7561 17.3232H68.3637C58.7399 17.3232 54.0374 18.0187 53.203 19.5766C52.7958 21.7186 60.0469 26.9258 64.1035 29.7153Z" fill="#B7BABB"/>
<path d="M87.6045 13.5402C88.5747 15.1992 92.1034 18.6816 97.7585 18.6816C99.1898 18.6683 100.612 18.4564 101.986 18.0519C101.735 17.3109 101.496 16.5345 101.232 15.7075L100.853 14.5214C98.6433 7.57178 96.0846 0.455217 93.8377 0C91.6661 0.37429 89.0773 8.52521 87.6045 13.5402Z" fill="#B7BABB"/>
<path d="M100.636 57.8253C100.572 57.8097 100.507 57.7995 100.44 57.7949C98.1784 57.7949 93.7046 60.8297 88.8789 64.5195C89.0398 64.6333 89.1805 64.7319 89.3414 64.8508C96.4919 70.1237 100.77 72.5819 102.798 72.5819C103.05 72.5843 103.298 72.5253 103.522 72.4099C105.073 70.8748 102.285 62.466 100.636 57.8253Z" fill="#B7BABB"/>
<path d="M112.119 47.654C109.59 40.6487 108.982 38.5851 107.972 35.1735C107.793 34.564 107.698 34.2428 107.469 33.5195L107.421 33.5651C104.87 35.74 102.912 38.533 101.731 41.6806C100.863 43.813 100.427 46.0984 100.449 48.4026C100.449 48.5012 100.437 48.5973 100.437 48.6934C100.437 48.7895 100.449 48.9059 100.449 49.0171C100.449 49.0601 100.449 49.1006 100.449 49.1385C100.516 51.9151 101.163 54.6465 102.347 57.1554C102.457 57.4564 102.568 57.7598 102.666 58.0481C102.842 58.5666 103.005 59.0597 103.169 59.5453C104.82 64.4439 105.808 68.2045 105.777 70.7335L111.43 66.4621L113.094 65.2102L114.072 64.4692L115.401 63.4779C115.406 63.4675 115.413 63.458 115.421 63.4501C116.922 61.8619 114.604 54.5784 112.119 47.654Z" fill="url(#paint1_linear_2261_17454)"/>
<path d="M87.4072 52.127C84.1142 52.1273 80.8891 53.0692 78.1077 54.8432C77.3655 55.3911 76.5796 55.9879 75.7502 56.6337C75.4033 56.9043 75.0716 57.1572 74.7046 57.4455C74.6884 57.4546 74.6739 57.4666 74.6619 57.4809L73.8074 58.1409C73.8074 58.1409 73.8074 58.1409 73.7898 58.1409C73.7018 58.2118 73.6163 58.275 73.5384 58.3433L72.5331 59.1171L72.0002 59.5167C71.7615 59.7013 71.5252 59.8784 71.2915 60.0554C67.2977 63.0497 64.0253 65.1842 61.625 65.9505L69.1174 71.2613L70.08 71.9467L70.1353 71.9846L71.4397 72.9102H71.4724C71.664 72.9759 71.8658 73.0059 72.0681 72.9987C74.1215 72.9987 78.1002 70.5658 85.389 64.8529L85.7937 64.5418L86.5477 63.95L87.3017 63.3582C92.1726 59.628 95.812 57.1673 98.4787 56.2771C98.5325 56.2598 98.5854 56.2395 98.637 56.2164C95.49 53.5637 91.5126 52.1153 87.4072 52.127Z" fill="url(#paint2_linear_2261_17454)"/>
<path d="M81.843 0.144202L80.6265 0.164434L78.9727 0.184666H78.9526C77.2762 0.475499 75.2077 5.02261 72.3776 14.9211C72.3198 15.1082 72.2695 15.2776 72.2218 15.4623C72.1313 15.7759 72.0433 16.0793 71.9503 16.3879C71.8573 16.6964 71.7719 17.0151 71.6789 17.3135C69.9195 23.2692 68.4115 27.4547 66.7502 29.7055C67.0392 29.7232 67.3207 29.746 67.6122 29.7485H68.3663C71.9124 29.6478 75.3442 28.4638 78.2057 26.3538C81.0672 24.2438 83.2229 21.3077 84.3865 17.9356C84.5298 17.4753 84.6655 17.0024 84.8038 16.532C84.9696 15.9706 85.1405 15.4167 85.3064 14.8528C85.3138 14.8347 85.3197 14.8161 85.324 14.7971C85.4346 14.4102 85.5427 14.0536 85.6533 13.6793C85.696 13.5352 85.7362 13.3885 85.7764 13.2469C85.887 12.8776 85.9976 12.4882 86.1057 12.1316C86.2138 11.775 86.3369 11.3906 86.45 11.0188C86.4902 10.8899 86.5279 10.7659 86.5681 10.6344C88.1239 5.61439 89.5138 2.03588 91.0018 0.0126953L81.843 0.144202Z" fill="url(#paint3_linear_2261_17454)"/>
<path d="M118.522 17.4676C117.544 17.3867 116.579 17.3311 115.626 17.3311C112.186 17.3519 108.767 17.8845 105.482 18.9117C105.093 19.0305 104.678 19.1469 104.318 19.2607L103.481 19.5389H103.441C103.373 19.5641 103.308 19.5793 103.24 19.5996C103.011 19.6754 102.783 19.7386 102.557 19.8044C100.998 20.2669 99.3833 20.5095 97.7585 20.5252C95.7716 20.5306 93.8045 20.1279 91.9777 19.3416C91.0634 18.9471 90.1911 18.4607 89.3738 17.89C89.1677 17.7458 88.9642 17.5991 88.7706 17.4499C88.779 17.4856 88.7841 17.522 88.7857 17.5587C89.3666 20.8038 90.9799 23.7711 93.3826 26.0135C95.7852 28.2559 98.847 29.6519 102.107 29.9911C102.609 30.0417 103.125 30.0746 103.645 30.0746C104.568 30.0703 105.488 29.9806 106.394 29.8065C107.015 29.6497 107.603 29.498 108.154 29.3791H108.179C109.839 28.9816 111.547 28.8291 113.251 28.9264C115.169 29.0403 117.461 29.4702 120.841 30.3022L129 19.726C125.609 18.5567 122.091 17.7986 118.522 17.4676Z" fill="url(#paint4_linear_2261_17454)"/>
<path d="M159.641 95.9814C159.641 95.9814 158.387 101.043 158.199 101.72C158.089 102.34 158.156 102.979 158.394 103.563L160.025 108.618C160.025 108.618 160.987 111.29 158.24 112.07L154.992 112.277V109.757H156.874C157.962 109.702 157.62 108.562 157.62 108.562L155.905 103.895C155.572 103.22 155.505 102.447 155.717 101.726C155.94 101.036 157.111 96.5476 157.111 96.5476H154.267V118.14H151.73V94.2275H158.059C160.08 94.2275 159.641 95.9814 159.641 95.9814ZM163.057 107.775H160.422V105.428H174.711C174.711 105.428 176.105 105.365 176.029 106.636C176.022 106.798 175.982 106.957 175.911 107.103C175.84 107.249 175.74 107.379 175.617 107.486C175.494 107.592 175.35 107.673 175.194 107.723C175.038 107.773 174.874 107.79 174.711 107.775H171.853C171.853 107.775 170.878 107.727 170.878 108.922V114.597C170.878 115.212 171.191 115.516 171.832 115.516H176.015C176.159 115.517 176.302 115.546 176.435 115.603C176.568 115.66 176.687 115.743 176.787 115.847C176.887 115.95 176.964 116.073 177.014 116.207C177.065 116.342 177.088 116.484 177.081 116.628C177.098 116.772 177.082 116.919 177.035 117.058C176.988 117.196 176.911 117.322 176.809 117.428C176.708 117.533 176.584 117.615 176.446 117.668C176.309 117.72 176.162 117.742 176.015 117.732H171.135C170.395 117.788 169.662 117.561 169.086 117.097C168.633 116.683 168.389 115.854 168.389 114.625V108.852C168.405 108.713 168.39 108.572 168.344 108.439C168.298 108.307 168.223 108.186 168.125 108.085C168.026 107.985 167.906 107.907 167.773 107.859C167.64 107.81 167.499 107.791 167.358 107.803C166.451 107.803 166.458 108.818 166.451 108.894C166.277 111.186 165.95 112.795 164.911 114.328C163.872 115.861 162.123 117.132 159.732 118.167L158.122 115.944C160.338 115.189 161.877 114.225 162.736 113.051C163.554 111.82 163.994 110.381 164.005 108.908C164.005 108.908 164.193 107.775 163.057 107.775ZM173.512 102.942H162.457V101.664H160.366V95.7397H165.943C166.64 95.7397 166.305 95.1873 166.305 95.1873L165.462 93.5715L168.089 93.2539L169.03 95.1252C169.123 95.3058 169.263 95.4582 169.436 95.5664C169.609 95.6745 169.809 95.7344 170.013 95.7397H174.363C174.529 95.7366 174.694 95.7688 174.847 95.8343C175 95.8998 175.137 95.9971 175.249 96.1195C175.36 96.2419 175.444 96.3866 175.495 96.5438C175.545 96.7011 175.561 96.8672 175.541 97.031V101.692H173.491L173.512 102.942ZM173.073 98.0667H162.862V100.711H173.052L173.073 98.0667Z" fill="black" fill-opacity="0.87"/>
<path d="M4.28608 104.233L2.89201 112.519L1.0379 111.324C1.0379 111.324 2.35529 104.544 2.43197 104.074L4.28608 104.233ZM10.9985 102.23C10.9037 102.217 10.8069 102.225 10.7159 102.254C10.6249 102.284 10.5422 102.335 10.4744 102.402C10.4067 102.469 10.3557 102.551 10.3257 102.641C10.2956 102.731 10.2874 102.827 10.3015 102.921V114.86C10.356 115.525 10.1598 116.187 9.75081 116.717C9.47978 116.951 9.16237 117.126 8.81902 117.23C8.47567 117.335 8.11399 117.367 7.75729 117.325H6.28656L5.82652 114.936L7.29726 115.046C7.88277 115.046 8.16855 114.77 8.16855 114.211V102.714C8.17809 102.648 8.1718 102.58 8.15019 102.517C8.12858 102.453 8.09225 102.396 8.04412 102.349C7.99599 102.302 7.93741 102.266 7.87307 102.246C7.80872 102.225 7.74042 102.22 7.67365 102.23C7.61022 102.228 7.54703 102.239 7.48831 102.263C7.42959 102.287 7.37669 102.323 7.33315 102.369C7.2896 102.415 7.25641 102.469 7.2358 102.529C7.21518 102.588 7.20762 102.651 7.21361 102.714C7.21361 103.294 7.21361 103.259 7.21361 103.584V104.122C7.2992 106.815 7.01785 109.507 6.37717 112.125C5.7044 114.239 4.61718 116.201 3.1778 117.898L1.31672 116.462C2.68601 115.023 3.71253 113.298 4.32093 111.414C4.86461 109.64 5.13646 106.664 5.13646 103.128C5.13646 102.175 4.39063 102.237 4.39063 102.237H1.40036V100.021H5.74985C5.74985 100.021 6.41203 100.09 6.41203 99.3304V98.6399C6.41774 98.5458 6.40394 98.4515 6.37147 98.3629C6.33901 98.2743 6.28856 98.1932 6.22326 98.1246C6.15796 98.056 6.07918 98.0014 5.99176 97.9641C5.90435 97.9269 5.81016 97.9078 5.71499 97.9079H2.19498V95.65H5.9032C5.99231 95.6503 6.08052 95.6322 6.16219 95.5969C6.24386 95.5616 6.31722 95.5098 6.37756 95.4448C6.43789 95.3798 6.48389 95.3031 6.51263 95.2196C6.54137 95.136 6.55221 95.0474 6.54446 94.9595V93.2539H8.89346V95.1114C8.89346 95.1114 8.80981 95.65 9.44411 95.65H11.5352C11.697 95.6314 11.8609 95.647 12.0161 95.6959C12.1713 95.7448 12.3143 95.8258 12.4355 95.9335C12.5568 96.0412 12.6535 96.1732 12.7194 96.3207C12.7853 96.4683 12.8188 96.628 12.8178 96.7893C12.8178 97.9355 11.5352 97.8458 11.5352 97.8458H9.72293C9.62777 97.8456 9.53358 97.8647 9.44616 97.902C9.35875 97.9393 9.27996 97.9939 9.21465 98.0624C9.14935 98.131 9.09892 98.2121 9.06645 98.3007C9.03399 98.3893 9.02019 98.4836 9.0259 98.5777V99.427C9.0259 99.427 9.0259 99.9863 9.72293 99.9863H11.8977C12.0523 99.9709 12.2085 99.9877 12.3561 100.036C12.5037 100.084 12.6395 100.163 12.7545 100.266C12.8695 100.37 12.9613 100.496 13.0238 100.637C13.0864 100.778 13.1183 100.93 13.1175 101.084C13.1175 102.21 11.8977 102.23 11.8977 102.23H10.9985ZM13.2151 108.645L11.2773 109.232L10.3781 104.64L12.1765 104.205L13.2151 108.645ZM15.9474 104.751L14.8182 113.237L12.8665 111.69L13.9609 104.419L15.9474 104.751ZM22.855 102.23C22.7726 102.226 22.69 102.239 22.6134 102.269C22.5368 102.3 22.468 102.347 22.412 102.407C22.3559 102.467 22.3141 102.539 22.2895 102.617C22.2648 102.695 22.258 102.778 22.2695 102.859V114.597V115.212C22.3186 115.872 22.1228 116.528 21.7189 117.056C21.446 117.294 21.1256 117.472 20.7785 117.579C20.4314 117.686 20.0654 117.72 19.7044 117.677H18.2267L17.7318 115.295L19.2374 115.398C19.8229 115.398 20.1087 115.122 20.1087 114.563V102.686C20.1087 102.686 20.1087 102.23 19.5162 102.23C18.9238 102.23 18.9656 102.686 18.9656 102.686V104.122C19.0534 106.815 18.772 109.508 18.1291 112.125C17.4196 114.293 16.2955 116.304 14.8182 118.05L12.9014 116.593C14.2987 115.14 15.3658 113.407 16.0311 111.511C16.6096 109.757 16.8884 104.04 16.8884 102.956C16.8884 102.113 16.1914 102.265 16.1914 102.265H13.8424V100.021H17.3276C17.4158 100.032 17.5054 100.024 17.5903 99.9974C17.6751 99.9709 17.7532 99.9268 17.8193 99.8678C17.8854 99.8089 17.938 99.7366 17.9734 99.6557C18.0088 99.5749 18.0263 99.4875 18.0246 99.3994V98.6399C18.036 98.5362 18.0234 98.4312 17.988 98.333C17.9526 98.2348 17.8952 98.1458 17.82 98.0727C17.7449 97.9996 17.654 97.9443 17.5543 97.911C17.4545 97.8777 17.3484 97.8672 17.2439 97.8803H14.2536V95.65H17.5297C17.6144 95.6609 17.7005 95.6526 17.7815 95.6258C17.8625 95.599 17.9363 95.5544 17.9974 95.4952C18.0585 95.436 18.1052 95.3639 18.1341 95.2843C18.1629 95.2046 18.1731 95.1195 18.164 95.0354V93.2539H20.513V95.0837C20.513 95.0837 20.513 95.65 21.0149 95.65H24.1933C24.3328 95.6463 24.4714 95.6722 24.6 95.7257C24.7286 95.7793 24.8442 95.8593 24.9392 95.9606C25.0341 96.0618 25.1062 96.1819 25.1507 96.3129C25.1951 96.4439 25.2109 96.5827 25.197 96.7203C25.2173 96.8622 25.2062 97.0068 25.1643 97.144C25.1225 97.2813 25.051 97.4078 24.9549 97.5149C24.8587 97.622 24.7401 97.7071 24.6074 97.7642C24.4747 97.8214 24.331 97.8492 24.1864 97.8458H21.217C21.1434 97.8335 21.068 97.8383 20.9966 97.8599C20.9253 97.8815 20.86 97.9193 20.8059 97.9702C20.7518 98.0211 20.7104 98.0838 20.6849 98.1533C20.6595 98.2227 20.6508 98.2971 20.6594 98.3706V99.4063C20.6594 100.048 21.3564 99.9863 21.3564 99.9863H24.8067C24.9566 99.9716 25.1079 99.9897 25.2498 100.039C25.3918 100.089 25.521 100.169 25.6281 100.274C25.7353 100.379 25.8178 100.506 25.8698 100.646C25.9218 100.786 25.942 100.936 25.9289 101.084C25.9336 101.233 25.908 101.381 25.8537 101.52C25.7994 101.659 25.7175 101.786 25.6128 101.893C25.5081 102 25.3828 102.085 25.2444 102.143C25.1059 102.201 24.9571 102.231 24.8067 102.23H22.855ZM23.6775 114.211L22.9108 104.91L24.9601 104.585L25.8941 113.651L23.6775 114.211Z" fill="black" fill-opacity="0.87"/>
<path d="M34.7888 111.324L33.6248 117.884H31.3594L32.5444 111.055L34.7888 111.324Z" fill="black" fill-opacity="0.87"/>
<path d="M39.6201 97.1191L41.6554 98.003L36.1628 106.779C36.1628 106.779 35.5982 107.47 36.2046 107.47C37.2083 107.401 39.5016 107.118 39.4946 107.069C39.4179 106.862 38.7279 105.101 38.7279 105.101L40.5262 104.57L42.5128 109.403L40.4844 110.094L40.0592 109.079L33.3119 109.769C33.3119 109.769 31.6042 109.942 32.3919 108.602L36.4207 102.512L33.2422 102.843C33.2422 102.843 31.5484 103.023 31.9597 101.759C31.9597 101.676 35.877 93.3145 35.877 93.3145L38.1563 93.9152L35.1451 100.019C35.1451 100.019 34.8315 100.613 35.5355 100.565C36.2395 100.516 37.6963 100.282 37.6963 100.282" fill="black" fill-opacity="0.87"/>
<path d="M35.9883 117.319L35.6885 111.139L37.7308 110.862L38.2536 117.056L35.9883 117.319Z" fill="black" fill-opacity="0.87"/>
<path d="M39.5365 115.462L38.9371 110.594L40.7981 110.187L41.5649 114.896L39.5365 115.462Z" fill="black" fill-opacity="0.87"/>
<path d="M41.6898 95.9413V93.8076H55.1076C55.1076 93.8076 56.5017 93.8076 56.5017 94.8089C56.5017 96.0794 55.1076 95.9758 55.1076 95.9758L41.6898 95.9413Z" fill="black" fill-opacity="0.87"/>
<path d="M46.9166 108.19H42.2744V105.884H47.1536C47.2238 105.883 47.2931 105.868 47.3575 105.84C47.4218 105.813 47.48 105.773 47.5287 105.723C47.5773 105.672 47.6154 105.613 47.6408 105.548C47.6661 105.484 47.6782 105.414 47.6764 105.345V103.563H50.0811V105.442C50.0811 105.442 50.0812 105.884 50.4785 105.884H55.1695C55.3252 105.872 55.4817 105.893 55.6287 105.945C55.7758 105.997 55.9102 106.079 56.0232 106.186C56.1362 106.292 56.2253 106.421 56.2848 106.565C56.3443 106.708 56.3727 106.861 56.3684 107.016C56.3723 107.172 56.3438 107.328 56.2848 107.473C56.2257 107.618 56.1373 107.75 56.025 107.86C55.9127 107.97 55.7789 108.056 55.6317 108.112C55.4846 108.169 55.3273 108.196 55.1695 108.19C55.1695 108.19 51.531 108.19 50.8479 108.19C50.1648 108.19 50.5342 108.708 50.5342 108.708L56.3126 117.974H53.0784L50.0811 112.333V118.147H47.6764V112.326L43.3757 118.071H40.5318L47.0281 108.908C47.2861 108.563 47.5649 108.19 46.9166 108.19Z" fill="black" fill-opacity="0.87"/>
<path d="M43.6903 103.917L42.129 99.097L44.4292 98.4756L46.1996 103.288L43.6903 103.917Z" fill="black" fill-opacity="0.87"/>
<path d="M47.922 102.637L47.3504 98.0938L49.6994 97.7969L50.4034 102.396L47.922 102.637Z" fill="black" fill-opacity="0.87"/>
<path d="M56.0639 98.3098L53.687 104.069L51.2823 102.991L53.7986 97.502L56.0639 98.3098Z" fill="black" fill-opacity="0.87"/>
<path d="M64.8637 96.3336C64.8637 96.3336 66.0905 96.4026 65.4353 95.2495L64.6128 93.5715L67.0664 93.2539L67.8052 94.8973C67.8052 94.8973 68.4116 96.3474 69.4572 96.3474C70.5027 96.3474 70.6003 96.3474 70.6003 96.3474C70.6003 96.3474 71.9316 96.2852 71.9316 97.4729C71.9297 97.6388 71.8928 97.8025 71.8231 97.9534C71.7535 98.1042 71.6527 98.239 71.5273 98.3489C71.4018 98.4589 71.2546 98.5416 71.0949 98.5917C70.9352 98.6418 70.7668 98.6582 70.6003 98.6399H61.5389V96.3336H64.8637ZM62.2917 100.311H69.6384C69.6384 100.311 70.9767 100.276 70.9767 101.436C70.9767 102.596 69.6384 102.527 69.6384 102.527H62.2917V100.311ZM62.2917 104.261H69.6593C69.6593 104.261 71.0534 104.198 71.0534 105.393C71.0534 106.588 69.6593 106.477 69.6593 106.477H62.2917V104.261ZM62.3753 108.486H69.5826C69.5826 108.486 71.0325 108.335 71.0325 110.013V117.864H68.5719V116.648H64.8289V118.14H62.3753V108.486ZM68.5719 110.668H64.8289V114.459H68.5719V110.668ZM83.4048 95.6016V99.7999C83.3504 100.209 83.4416 100.624 83.6627 100.974C83.948 101.18 84.3018 101.271 84.6525 101.229H85.1404C85.1404 101.229 86.3741 101.229 86.3741 102.327C86.3741 103.425 85.1404 103.508 85.1404 103.508H83.7463C82.953 103.559 82.1693 103.312 81.5507 102.817C81.0628 102.382 80.8537 101.54 80.8537 100.276V96.2507H77.0827V97.1207C77.1211 98.3763 76.8832 99.6251 76.3857 100.78C75.5936 102.159 74.5432 103.375 73.2908 104.364L71.2973 102.61C72.4046 101.864 73.3249 100.877 73.9879 99.724C74.47 98.3403 74.6737 96.8765 74.5873 95.4152V93.9789H81.8643C81.8643 93.9789 83.4048 93.8063 83.4048 95.6016ZM84.8476 106.871C84.8476 108.728 84.7849 110.813 83.8509 112.395C83.262 113.47 82.4523 114.411 81.474 115.157C82.5912 115.49 83.7506 115.665 84.9173 115.675C85.0758 115.661 85.2353 115.681 85.3859 115.731C85.5364 115.782 85.6746 115.863 85.7919 115.97C85.9091 116.076 86.0028 116.206 86.0671 116.35C86.1313 116.494 86.1647 116.65 86.165 116.807C86.165 117.995 84.8407 117.953 84.8407 117.953C82.8157 117.996 80.8079 117.578 78.9717 116.731C77.0618 117.919 71.9386 117.877 71.9386 117.877V115.468C73.4512 115.607 74.9766 115.438 76.4205 114.97C75.6927 114.15 75.0635 113.248 74.5455 112.284C73.9733 110.995 73.6065 109.625 73.4581 108.224H75.8699C75.8945 109.084 76.0256 109.937 76.2602 110.765C76.7542 112.164 77.7453 113.337 79.0483 114.066C80.0728 113.459 80.9187 112.598 81.5019 111.566C82.2756 109.957 82.0595 107.181 82.0595 107.181H72.4474V104.93H82.4708C82.4708 104.93 84.8476 104.64 84.8476 106.871Z" fill="black" fill-opacity="0.87"/>
<path d="M103.265 97.5354C103.265 98.6195 102.067 98.6885 102.067 98.6885H91.1998V96.3892H95.0265C95.0265 96.3892 96.1975 96.4789 95.8141 95.6986C95.4308 94.9184 94.7198 93.5374 94.7198 93.5374L97.3685 93.2197L98.5186 95.6434C98.6064 95.8682 98.7668 96.0578 98.9749 96.1828C99.183 96.3077 99.4269 96.3608 99.6687 96.3339H102.094C102.253 96.3308 102.41 96.3601 102.556 96.4199C102.702 96.4798 102.834 96.5689 102.944 96.6817C103.054 96.7944 103.14 96.9285 103.195 97.0754C103.25 97.2223 103.274 97.3789 103.265 97.5354ZM92.0432 100.422H101.258C101.408 100.411 101.559 100.433 101.7 100.486C101.841 100.539 101.969 100.621 102.075 100.727C102.181 100.833 102.263 100.961 102.314 101.101C102.365 101.242 102.386 101.391 102.373 101.54C102.391 101.685 102.375 101.831 102.326 101.968C102.277 102.105 102.197 102.229 102.092 102.33C101.986 102.431 101.859 102.506 101.719 102.55C101.579 102.594 101.431 102.605 101.286 102.583H92.0711L92.0432 100.422ZM92.0432 104.399H101.202C101.202 104.399 102.429 104.399 102.429 105.462C102.429 106.526 101.202 106.533 101.202 106.533H92.0711L92.0432 104.399ZM92.1268 108.618H100.686C100.904 108.593 101.125 108.618 101.331 108.69C101.538 108.762 101.726 108.88 101.88 109.034C102.034 109.188 102.151 109.375 102.222 109.58C102.293 109.786 102.316 110.004 102.29 110.22C102.29 111.718 102.29 117.864 102.29 117.864H99.6687V116.704H94.7477V118.14H92.1547L92.1268 108.618ZM99.6408 110.69H94.7198V114.556H99.6408V110.69ZM111.309 93.2197V100.021C111.301 100.143 111.319 100.266 111.362 100.38C111.406 100.495 111.473 100.599 111.56 100.686C111.647 100.773 111.752 100.84 111.867 100.884C111.983 100.928 112.106 100.947 112.229 100.94H115.15C115.314 100.919 115.482 100.935 115.639 100.988C115.796 101.04 115.939 101.127 116.058 101.242C116.176 101.357 116.267 101.497 116.324 101.651C116.38 101.806 116.401 101.971 116.384 102.134C116.395 102.3 116.372 102.466 116.315 102.622C116.258 102.777 116.168 102.92 116.051 103.039C115.935 103.158 115.795 103.252 115.639 103.313C115.484 103.375 115.317 103.404 115.15 103.398H112.132C111.163 103.398 111.309 104.413 111.309 104.413V118.14H108.633V104.226C108.642 104.107 108.623 103.988 108.577 103.878C108.532 103.767 108.461 103.669 108.37 103.591C108.279 103.512 108.171 103.456 108.055 103.426C107.938 103.396 107.816 103.393 107.699 103.419H103.6V100.96H107.824C107.94 100.967 108.056 100.948 108.163 100.904C108.271 100.86 108.367 100.793 108.445 100.708C108.522 100.622 108.58 100.52 108.612 100.41C108.645 100.299 108.652 100.183 108.633 100.07V93.2543L111.309 93.2197Z" fill="black" fill-opacity="0.87"/>
<path d="M140.027 107.618C140.027 107.618 141.568 107.535 141.637 108.695C141.707 110.076 140.027 110.401 140.027 110.401L135.601 111.865H145.088C145.088 111.865 146.614 111.72 146.649 112.887C146.684 114.054 145.088 113.991 145.088 113.991H135.601V115.642C135.601 117.138 134.79 117.886 133.168 117.886H128.93V115.745L132.297 115.863C132.406 115.879 132.517 115.87 132.622 115.836C132.726 115.802 132.821 115.744 132.899 115.666C132.976 115.589 133.034 115.494 133.068 115.39C133.101 115.287 133.11 115.176 133.092 115.069V113.991H121.514V111.851H133.092C133.165 111.512 133.318 111.195 133.538 110.926C133.851 110.622 134.081 110.525 135.134 110.235L137.755 109.545H126.533V107.618H140.027ZM143.742 106.479H124.49V110.38H122.086V105.477C122.068 105.323 122.088 105.166 122.143 105.02C122.199 104.874 122.288 104.743 122.404 104.638C122.521 104.533 122.66 104.456 122.812 104.415C122.964 104.374 123.123 104.369 123.277 104.4V94.2429L128.993 93.4764L130.164 95.4306L125.585 96.1211V97.5021H129.676V99.3319H125.585V100.823H129.676V102.66H125.585V104.421H142.543V102.626H138.71V100.789H142.543V99.3319H138.71V97.4883H142.543V96.052H138.41V93.9805H143.324C143.324 93.9805 144.837 93.9115 144.837 95.6999V104.386C144.837 104.386 146.112 104.235 146.112 105.698V110.38H143.714L143.742 106.479ZM134.507 96.9704L131.579 98.7657L130.241 97.0049L132.91 95.6239L131.468 94.2429L132.862 93L134.653 94.6779L136.451 93.4281L137.699 94.747L136.082 95.8794L137.643 97.3157L136.026 98.4067L134.507 96.9704ZM134.548 102.405L131.76 104.034L130.624 102.37L133.05 100.989L131.656 99.6081L133.301 98.5241L134.744 100.036L136.835 98.6552L138.006 100.126L136.249 101.245L137.643 102.688L136.068 103.924L134.548 102.405Z" fill="black" fill-opacity="0.87"/>
<path d="M2.99654 128.332H4.00724L6.09834 133.704H5.08067L4.57184 132.282H2.40406L1.89523 133.704H0.912415L2.99654 128.332ZM2.66196 131.571H4.3209L3.50538 129.257L2.66196 131.571Z" fill="black" fill-opacity="0.87"/>
<path d="M7.52851 128.333H9.91934C10.2413 128.321 10.5621 128.378 10.8603 128.498C11.079 128.59 11.2725 128.732 11.4249 128.913C11.5544 129.07 11.6473 129.254 11.6968 129.451C11.7383 129.63 11.7616 129.813 11.7665 129.997C11.7622 130.178 11.7388 130.359 11.6968 130.535C11.6429 130.747 11.539 130.944 11.3936 131.108C11.2481 131.272 11.0654 131.4 10.8603 131.481C10.5621 131.602 10.2413 131.658 9.91934 131.647H8.46951V133.718H7.52155L7.52851 128.333ZM8.47648 130.874H9.87054C9.98107 130.873 10.0911 130.86 10.1981 130.832C10.3071 130.799 10.4105 130.75 10.5048 130.687C10.6047 130.617 10.684 130.521 10.7349 130.411C10.7971 130.279 10.8281 130.135 10.8255 129.99C10.8294 129.839 10.8033 129.689 10.7488 129.548C10.7028 129.442 10.631 129.35 10.5397 129.279C10.4558 129.208 10.355 129.161 10.2469 129.14C10.1306 129.112 10.0112 129.098 9.89145 129.099H8.49739L8.47648 130.874Z" fill="black" fill-opacity="0.87"/>
<path d="M13.5023 128.333H15.9001C16.222 128.321 16.5428 128.378 16.841 128.498C17.0597 128.59 17.2532 128.732 17.4056 128.913C17.5327 129.071 17.6231 129.255 17.6705 129.451C17.7176 129.629 17.7433 129.812 17.7472 129.997C17.7438 130.179 17.718 130.359 17.6705 130.535C17.6206 130.748 17.5189 130.945 17.3743 131.11C17.2297 131.275 17.0467 131.402 16.841 131.481C16.5428 131.602 16.222 131.658 15.9001 131.647H14.4572V133.718H13.5023V128.333ZM14.4572 130.874H15.8513C15.9617 130.873 16.0717 130.859 16.1789 130.832C16.2879 130.799 16.3912 130.75 16.4856 130.687C16.5854 130.617 16.6648 130.521 16.7156 130.411C16.7754 130.279 16.804 130.135 16.7992 129.99C16.805 129.839 16.7813 129.689 16.7295 129.548C16.6812 129.444 16.6097 129.351 16.5204 129.279C16.4366 129.208 16.3357 129.161 16.2277 129.14C16.109 129.112 15.9873 129.098 15.8652 129.099H14.4711L14.4572 130.874Z" fill="black" fill-opacity="0.87"/>
<path d="M19.4818 128.332H23.3921V129.147H20.4367V130.528H23.1691V131.301H20.4367V132.869H23.4409V133.683H19.4818V128.332Z" fill="black" fill-opacity="0.87"/>
<path d="M25.1971 128.332H27.4415C27.8126 128.322 28.1813 128.393 28.5219 128.539C28.8121 128.673 29.0673 128.872 29.2678 129.119C29.4675 129.373 29.6144 129.664 29.6999 129.975C29.7939 130.315 29.8408 130.666 29.8393 131.018C29.8404 131.372 29.7935 131.725 29.6999 132.068C29.6131 132.376 29.4662 132.664 29.2678 132.917C29.0693 133.166 28.8136 133.365 28.5219 133.497C28.1813 133.643 27.8126 133.714 27.4415 133.704H25.1971V128.332ZM26.145 132.938H27.0791C27.3878 132.948 27.6956 132.899 27.9852 132.793C28.2045 132.709 28.397 132.568 28.5428 132.385C28.6776 132.205 28.7705 131.997 28.8147 131.778C28.917 131.276 28.917 130.76 28.8147 130.258C28.7705 130.038 28.6776 129.831 28.5428 129.651C28.397 129.468 28.2045 129.327 27.9852 129.243C27.6956 129.137 27.3878 129.088 27.0791 129.098H26.145V132.938Z" fill="black" fill-opacity="0.87"/>
<path d="M31.5197 128.332H32.4676V131.46C32.4572 131.644 32.4572 131.828 32.4676 132.012C32.4836 132.187 32.5358 132.356 32.621 132.51C32.7074 132.666 32.8383 132.793 32.9974 132.876C33.2142 132.98 33.4536 133.03 33.6944 133.021C33.9354 133.031 34.1751 132.981 34.3914 132.876C34.5539 132.795 34.6876 132.667 34.7748 132.51C34.86 132.356 34.9122 132.187 34.9282 132.012C34.9282 131.826 34.9282 131.646 34.9282 131.46V128.332H35.8761V131.785C35.8819 132.093 35.8274 132.401 35.7158 132.689C35.6169 132.935 35.4618 133.155 35.2627 133.331C35.0611 133.508 34.8234 133.64 34.5657 133.718C34.2704 133.81 33.9621 133.854 33.6526 133.849C33.3454 133.854 33.0394 133.81 32.7464 133.718C32.4881 133.642 32.2501 133.51 32.0494 133.331C31.8503 133.155 31.6952 132.935 31.5963 132.689C31.4847 132.401 31.4303 132.093 31.436 131.785L31.5197 128.332Z" fill="black" fill-opacity="0.87"/>
<path d="M44.6672 130.03C44.6273 129.882 44.5712 129.738 44.4999 129.602C44.4314 129.473 44.3392 129.359 44.2281 129.264C44.1107 129.166 43.976 129.091 43.8308 129.043C43.6648 128.987 43.4901 128.961 43.315 128.967C43.0532 128.959 42.7939 129.019 42.5622 129.139C42.3561 129.249 42.1811 129.408 42.0533 129.602C41.9132 129.812 41.8139 130.046 41.7606 130.293C41.6304 130.786 41.6304 131.304 41.7606 131.798C41.8123 132.045 41.9117 132.279 42.0533 132.488C42.1811 132.682 42.3561 132.842 42.5622 132.951C42.7932 133.074 43.0526 133.136 43.315 133.131C43.5065 133.132 43.6963 133.094 43.8726 133.02C44.0333 132.951 44.1762 132.847 44.2908 132.716C44.412 132.586 44.5066 132.433 44.5696 132.267C44.6342 132.091 44.6763 131.908 44.6951 131.722H45.6221C45.6054 132.024 45.5346 132.321 45.413 132.599C45.3006 132.858 45.1371 133.093 44.9321 133.289C44.7324 133.484 44.4954 133.636 44.235 133.738C43.9407 133.833 43.631 133.873 43.3219 133.856C42.9454 133.861 42.5721 133.785 42.2276 133.635C41.916 133.491 41.6382 133.284 41.4121 133.027C41.185 132.763 41.0122 132.459 40.9032 132.129C40.6616 131.424 40.6616 130.659 40.9032 129.954C41.0136 129.626 41.1863 129.321 41.4121 129.057C41.6382 128.8 41.916 128.593 42.2276 128.449C42.5706 128.293 42.9445 128.215 43.3219 128.221C43.6124 128.22 43.9014 128.262 44.1793 128.345C44.4312 128.427 44.667 128.55 44.8763 128.711C45.079 128.867 45.2474 129.062 45.3712 129.284C45.5028 129.523 45.5835 129.787 45.6082 130.058L44.6672 130.03Z" fill="black" fill-opacity="0.87"/>
<path d="M49.7129 128.194C50.0719 128.186 50.4283 128.256 50.757 128.4C51.0857 128.543 51.3789 128.755 51.6158 129.023C51.8432 129.287 52.0182 129.592 52.1316 129.92C52.3638 130.627 52.3638 131.389 52.1316 132.095C52.0202 132.425 51.845 132.73 51.6158 132.993C51.3897 133.25 51.1119 133.457 50.8003 133.601C50.4553 133.746 50.0843 133.821 49.7094 133.821C49.3345 133.821 48.9635 133.746 48.6186 133.601C48.3069 133.457 48.0292 133.25 47.803 132.993C47.5738 132.73 47.3986 132.425 47.2872 132.095C47.0551 131.389 47.0551 130.627 47.2872 129.92C47.4006 129.592 47.5756 129.287 47.803 129.023C48.0292 128.766 48.3069 128.559 48.6186 128.415C48.9618 128.26 49.3359 128.185 49.7129 128.194ZM49.7129 128.967C49.4511 128.959 49.1916 129.019 48.9601 129.14C48.754 129.25 48.579 129.409 48.4513 129.603C48.3112 129.813 48.2119 130.047 48.1585 130.293C48.0283 130.787 48.0283 131.305 48.1585 131.799C48.2102 132.045 48.3097 132.28 48.4513 132.489C48.579 132.683 48.754 132.842 48.9601 132.952C49.1919 133.07 49.4488 133.131 49.7094 133.131C49.9701 133.131 50.2269 133.07 50.4587 132.952C50.6662 132.841 50.8433 132.683 50.9745 132.489C51.1112 132.278 51.208 132.044 51.2603 131.799C51.3905 131.305 51.3905 130.787 51.2603 130.293C51.206 130.048 51.1094 129.815 50.9745 129.603C50.8433 129.409 50.6662 129.25 50.4587 129.14C50.2295 129.019 49.9724 128.96 49.7129 128.967Z" fill="black" fill-opacity="0.87"/>
<path d="M54.0687 128.332H55.407L56.9056 132.537L58.3763 128.332H59.7007V133.704H58.7945V129.561L57.289 133.704H56.4943L54.9888 129.561V133.704H54.0826L54.0687 128.332Z" fill="black" fill-opacity="0.87"/>
<path d="M61.7508 128.333H64.1486C64.4706 128.321 64.7913 128.378 65.0896 128.498C65.3083 128.59 65.5018 128.732 65.6542 128.913C65.778 129.073 65.8681 129.256 65.919 129.451C65.9661 129.629 65.9919 129.812 65.9957 129.997C65.9923 130.179 65.9666 130.359 65.919 130.535C65.8681 130.731 65.778 130.914 65.6542 131.074C65.5039 131.255 65.3096 131.395 65.0896 131.481C64.7913 131.602 64.4706 131.658 64.1486 131.647H62.7057V133.718H61.7508V128.333ZM62.7057 130.874H64.0998C64.2103 130.873 64.3202 130.859 64.4274 130.832C64.5364 130.799 64.6398 130.75 64.7341 130.687C64.8321 130.615 64.911 130.52 64.9641 130.411C65.024 130.279 65.0526 130.135 65.0478 129.99C65.0551 129.839 65.0289 129.688 64.9711 129.548C64.9271 129.443 64.8577 129.35 64.7689 129.279C64.6817 129.209 64.5789 129.162 64.4692 129.14C64.3529 129.112 64.2335 129.098 64.1137 129.099H62.7197L62.7057 130.874Z" fill="black" fill-opacity="0.87"/>
<path d="M67.6708 128.332H68.6257V131.46C68.6257 131.646 68.6257 131.826 68.6257 132.012C68.6417 132.187 68.6939 132.356 68.7791 132.51C68.8663 132.667 69 132.795 69.1624 132.876C69.379 132.981 69.6186 133.03 69.8595 133.021C70.1003 133.03 70.3397 132.98 70.5565 132.876C70.7156 132.793 70.8465 132.666 70.9329 132.51C71.0211 132.357 71.0735 132.187 71.0862 132.012C71.0967 131.828 71.0967 131.644 71.0862 131.46V128.332H72.0342V131.785C72.0433 132.094 71.9888 132.402 71.8739 132.689C71.775 132.935 71.6199 133.155 71.4208 133.331C71.2197 133.509 70.9818 133.641 70.7238 133.718C70.4284 133.809 70.1201 133.854 69.8107 133.849C69.5012 133.854 69.1929 133.81 68.8976 133.718C68.6399 133.64 68.4021 133.508 68.2005 133.331C68.0036 133.153 67.8489 132.934 67.7475 132.689C67.6358 132.401 67.5814 132.093 67.5871 131.785L67.6708 128.332Z" fill="black" fill-opacity="0.87"/>
<path d="M73.6148 128.332H78.0061V129.147H76.2775V133.704H75.3295V129.147H73.6148V128.332Z" fill="black" fill-opacity="0.87"/>
<path d="M79.5662 128.332H83.4696V129.147H80.5142V130.528H83.2535V131.301H80.5142V132.869H83.5254V133.683H79.5662V128.332Z" fill="black" fill-opacity="0.87"/>
<path d="M85.2464 128.332H87.8324C88.3122 128.295 88.7894 128.43 89.1777 128.712C89.3271 128.847 89.445 129.013 89.5232 129.198C89.6015 129.382 89.6381 129.582 89.6307 129.782C89.6372 130 89.5968 130.216 89.5122 130.417C89.4505 130.568 89.3607 130.707 89.2474 130.825C89.1636 130.918 89.0617 130.993 88.9476 131.046L88.7316 131.142C88.8234 131.153 88.9129 131.179 88.9964 131.218C89.0958 131.26 89.1841 131.324 89.2543 131.405C89.3447 131.505 89.4135 131.623 89.4565 131.75C89.5169 131.918 89.5453 132.096 89.5401 132.275C89.5365 132.564 89.5599 132.853 89.6098 133.138C89.6344 133.338 89.7113 133.529 89.8329 133.69H88.8152C88.7447 133.575 88.7018 133.445 88.6897 133.311C88.6897 133.166 88.6897 133.034 88.6897 132.903C88.6923 132.691 88.6783 132.478 88.6479 132.268C88.6214 132.109 88.5646 131.957 88.4806 131.819C88.3985 131.702 88.2816 131.612 88.1461 131.564C87.9763 131.503 87.7966 131.475 87.6163 131.481H86.2222V133.69H85.2743L85.2464 128.332ZM86.1944 130.776H87.7487C88.0001 130.795 88.2491 130.718 88.4458 130.562C88.5268 130.477 88.5891 130.376 88.6287 130.265C88.6682 130.155 88.6843 130.037 88.6758 129.92C88.6817 129.777 88.658 129.633 88.6061 129.499C88.5558 129.402 88.4844 129.317 88.397 129.25C88.3047 129.188 88.2002 129.146 88.0903 129.126C87.9719 129.119 87.8532 129.119 87.7348 129.126H86.1944V130.776Z" fill="black" fill-opacity="0.87"/>
<path d="M94.5325 128.332H96.777C97.148 128.322 97.5167 128.393 97.8574 128.539C98.1475 128.673 98.4027 128.872 98.6032 129.119C98.803 129.373 98.9499 129.664 99.0354 129.975C99.1294 130.315 99.1763 130.666 99.1748 131.018C99.1758 131.372 99.1289 131.725 99.0354 132.068C98.9485 132.376 98.8017 132.664 98.6032 132.917C98.4047 133.166 98.149 133.365 97.8574 133.497C97.5167 133.643 97.148 133.714 96.777 133.704H94.5325V128.332ZM95.4805 132.938H96.4145C96.7232 132.948 97.031 132.899 97.3207 132.793C97.5399 132.709 97.7324 132.568 97.8783 132.385C98.0131 132.205 98.1059 131.997 98.1501 131.778C98.2523 131.276 98.2523 130.76 98.1501 130.258C98.1059 130.038 98.0131 129.831 97.8783 129.651C97.7324 129.468 97.5399 129.327 97.3207 129.243C97.031 129.137 96.7232 129.088 96.4145 129.098H95.4805V132.938Z" fill="black" fill-opacity="0.87"/>
<path d="M100.93 128.332H104.834V129.147H101.871V130.528H104.603V131.301H101.871V132.869H104.875V133.683H100.923L100.93 128.332Z" fill="black" fill-opacity="0.87"/>
<path d="M107.251 131.91C107.246 132.091 107.282 132.27 107.355 132.435C107.423 132.576 107.523 132.699 107.648 132.794C107.78 132.888 107.929 132.956 108.087 132.994C108.262 133.043 108.443 133.066 108.624 133.063C108.804 133.066 108.983 133.041 109.154 132.987C109.282 132.947 109.402 132.887 109.509 132.808C109.597 132.738 109.666 132.648 109.711 132.545C109.75 132.451 109.769 132.35 109.767 132.248C109.775 132.167 109.767 132.085 109.743 132.007C109.719 131.929 109.68 131.856 109.628 131.793C109.543 131.701 109.438 131.63 109.321 131.586C109.126 131.517 108.903 131.447 108.624 131.385L107.676 131.144C107.47 131.092 107.273 131.01 107.091 130.902C106.951 130.816 106.829 130.706 106.728 130.577C106.639 130.462 106.572 130.331 106.533 130.191C106.493 130.056 106.474 129.917 106.477 129.776C106.474 129.536 106.531 129.299 106.645 129.086C106.759 128.893 106.914 128.726 107.098 128.596C107.292 128.461 107.509 128.363 107.739 128.306C107.966 128.244 108.2 128.212 108.436 128.209C108.707 128.209 108.977 128.247 109.237 128.319C109.477 128.389 109.701 128.501 109.9 128.651C110.089 128.795 110.243 128.979 110.353 129.19C110.469 129.418 110.527 129.672 110.52 129.928H109.572C109.574 129.787 109.543 129.646 109.48 129.519C109.417 129.392 109.324 129.281 109.21 129.196C108.969 129.045 108.686 128.97 108.401 128.982C108.287 128.972 108.173 128.972 108.06 128.982C107.947 129.006 107.839 129.045 107.739 129.1C107.643 129.15 107.561 129.224 107.502 129.314C107.432 129.412 107.397 129.532 107.404 129.652C107.399 129.736 107.412 129.819 107.443 129.897C107.475 129.975 107.523 130.044 107.586 130.101C107.721 130.215 107.881 130.298 108.053 130.343L108.29 130.405L108.757 130.529L109.258 130.667L109.614 130.757C109.781 130.806 109.939 130.883 110.081 130.985C110.207 131.075 110.317 131.185 110.408 131.309C110.495 131.429 110.561 131.562 110.604 131.703C110.651 131.841 110.674 131.986 110.673 132.131C110.681 132.399 110.616 132.663 110.485 132.898C110.364 133.107 110.198 133.286 109.997 133.422C109.786 133.564 109.549 133.665 109.3 133.719C109.043 133.783 108.778 133.815 108.513 133.816C108.218 133.817 107.925 133.777 107.641 133.699C107.387 133.633 107.15 133.516 106.944 133.353C106.738 133.194 106.572 132.991 106.456 132.759C106.332 132.488 106.268 132.194 106.268 131.896L107.251 131.91Z" fill="black" fill-opacity="0.87"/>
<path d="M112.46 128.332H113.415V133.704H112.46V128.332Z" fill="black" fill-opacity="0.87"/>
<path d="M120.218 133.697H119.611L119.465 133.069C119.259 133.319 118.999 133.522 118.705 133.663C118.429 133.778 118.133 133.834 117.834 133.828C117.459 133.833 117.088 133.758 116.746 133.607C116.432 133.465 116.151 133.258 115.924 133C115.697 132.736 115.524 132.431 115.415 132.102C115.173 131.397 115.173 130.632 115.415 129.927C115.525 129.598 115.698 129.294 115.924 129.029C116.151 128.771 116.432 128.564 116.746 128.422C117.087 128.265 117.458 128.187 117.834 128.194C118.117 128.194 118.398 128.233 118.67 128.311C118.92 128.387 119.156 128.503 119.367 128.656C119.578 128.812 119.753 129.01 119.883 129.236C120.025 129.48 120.113 129.75 120.141 130.03H119.228C119.208 129.867 119.154 129.709 119.067 129.568C118.985 129.438 118.879 129.326 118.754 129.236C118.624 129.146 118.48 129.076 118.329 129.029C118.167 128.987 118.001 128.966 117.834 128.967C117.574 128.959 117.317 129.018 117.088 129.14C116.879 129.248 116.702 129.407 116.572 129.602C116.432 129.812 116.333 130.047 116.279 130.293C116.149 130.786 116.149 131.305 116.279 131.798C116.331 132.045 116.43 132.279 116.572 132.489C116.702 132.684 116.879 132.843 117.088 132.951C117.316 133.075 117.573 133.137 117.834 133.131C118.054 133.137 118.273 133.104 118.482 133.034C118.659 132.969 118.821 132.868 118.956 132.737C119.086 132.603 119.186 132.443 119.249 132.268C119.314 132.069 119.349 131.862 119.353 131.653H117.903V130.963H120.211L120.218 133.697Z" fill="black" fill-opacity="0.87"/>
<path d="M122.126 128.332H123.13L125.604 132.289V128.332H126.51V133.704H125.506L123.039 129.754V133.704H122.133L122.126 128.332Z" fill="black" fill-opacity="0.87"/>
<path d="M131.586 128.332H132.541V133.704H131.593L131.586 128.332Z" fill="black" fill-opacity="0.87"/>
<path d="M134.57 128.332H135.574L138.055 132.289V128.332H138.954V133.704H137.957L135.483 129.754V133.704H134.577L134.57 128.332Z" fill="black" fill-opacity="0.87"/>
<path d="M141.602 131.91C141.597 132.091 141.633 132.27 141.707 132.435C141.777 132.576 141.879 132.7 142.006 132.794C142.137 132.887 142.283 132.955 142.438 132.994C142.613 133.042 142.794 133.066 142.975 133.063C143.155 133.067 143.334 133.041 143.505 132.988C143.635 132.949 143.758 132.888 143.867 132.808C143.953 132.737 144.02 132.647 144.063 132.546C144.103 132.452 144.125 132.351 144.125 132.249C144.135 132.085 144.085 131.924 143.986 131.793C143.9 131.703 143.795 131.632 143.679 131.586C143.451 131.507 143.218 131.44 142.982 131.386L142.034 131.144C141.83 131.093 141.635 131.011 141.456 130.902C141.314 130.817 141.189 130.707 141.086 130.578C140.999 130.461 140.933 130.33 140.891 130.191C140.854 130.056 140.836 129.917 140.835 129.777C140.831 129.535 140.892 129.297 141.01 129.086C141.122 128.893 141.274 128.726 141.456 128.596C141.65 128.462 141.867 128.364 142.097 128.306C142.324 128.245 142.558 128.213 142.794 128.209C143.098 128.205 143.401 128.247 143.693 128.334C143.93 128.403 144.152 128.515 144.348 128.665C144.539 128.808 144.694 128.992 144.801 129.204C144.918 129.432 144.975 129.686 144.969 129.942H144.021C144.023 129.801 143.991 129.662 143.93 129.535C143.868 129.408 143.778 129.297 143.665 129.21C143.422 129.057 143.137 128.983 142.85 128.996C142.736 128.986 142.622 128.986 142.508 128.996C142.396 129.02 142.288 129.059 142.187 129.114C142.093 129.166 142.012 129.239 141.951 129.328C141.875 129.45 141.842 129.593 141.857 129.736C141.872 129.878 141.935 130.011 142.034 130.115C142.17 130.229 142.329 130.312 142.501 130.357L142.738 130.419L143.205 130.543L143.714 130.681L144.069 130.771C144.234 130.822 144.39 130.899 144.53 130.999C144.779 131.164 144.965 131.407 145.059 131.689C145.101 131.828 145.122 131.973 145.122 132.117C145.129 132.385 145.065 132.65 144.934 132.884C144.815 133.094 144.648 133.274 144.446 133.409C144.234 133.549 143.998 133.65 143.749 133.706C143.491 133.769 143.227 133.801 142.961 133.802C142.664 133.803 142.369 133.764 142.083 133.685C141.829 133.619 141.591 133.502 141.386 133.34C141.178 133.183 141.011 132.979 140.898 132.746C140.767 132.477 140.703 132.181 140.71 131.883L141.602 131.91Z" fill="black" fill-opacity="0.87"/>
<path d="M146.327 128.332H150.718V129.147H148.99V133.704H148.042V129.147H146.327V128.332Z" fill="black" fill-opacity="0.87"/>
<path d="M152.26 128.332H153.208V133.704H152.26V128.332Z" fill="black" fill-opacity="0.87"/>
<path d="M154.768 128.332H159.159V129.147H157.431V133.704H156.483V129.147H154.768V128.332Z" fill="black" fill-opacity="0.87"/>
<path d="M160.638 128.332H161.593V131.46C161.593 131.646 161.593 131.826 161.593 132.012C161.609 132.187 161.661 132.356 161.746 132.51C161.833 132.667 161.967 132.795 162.13 132.876C162.346 132.981 162.586 133.031 162.827 133.021C163.067 133.03 163.307 132.98 163.524 132.876C163.683 132.793 163.814 132.666 163.9 132.51C163.985 132.356 164.037 132.187 164.053 132.012C164.064 131.828 164.064 131.644 164.053 131.46V128.332H165.001V131.785C165.007 132.093 164.953 132.401 164.841 132.689C164.742 132.935 164.587 133.155 164.388 133.331C164.187 133.51 163.949 133.642 163.691 133.718C163.398 133.81 163.092 133.854 162.785 133.849C162.475 133.854 162.167 133.81 161.872 133.718C161.614 133.64 161.376 133.508 161.175 133.331C160.976 133.155 160.82 132.935 160.722 132.689C160.61 132.401 160.556 132.093 160.561 131.785L160.638 128.332Z" fill="black" fill-opacity="0.87"/>
<path d="M166.584 128.332H170.975V129.147H169.246V133.704H168.298V129.147H166.584V128.332Z" fill="black" fill-opacity="0.87"/>
<path d="M172.517 128.332H176.455V129.147H173.5V130.528H176.239V131.301H173.5V132.869H176.455V133.683H172.496L172.517 128.332Z" fill="black" fill-opacity="0.87"/>
<defs>
<linearGradient id="paint0_linear_2261_17454" x1="53.4814" y1="32.5232" x2="72.0234" y2="44.6178" gradientUnits="userSpaceOnUse">
<stop stop-color="#92C767"/>
<stop offset="1" stop-color="#4EB133"/>
</linearGradient>
<linearGradient id="paint1_linear_2261_17454" x1="102.867" y1="38.6913" x2="111.042" y2="65.3844" gradientUnits="userSpaceOnUse">
<stop stop-color="#EA6143"/>
<stop offset="1" stop-color="#BC003B"/>
</linearGradient>
<linearGradient id="paint2_linear_2261_17454" x1="94.0778" y1="51.3304" x2="65.3852" y2="71.2035" gradientUnits="userSpaceOnUse">
<stop stop-color="#48BEE5"/>
<stop offset="1" stop-color="#2D64AE"/>
</linearGradient>
<linearGradient id="paint3_linear_2261_17454" x1="78.8722" y1="3.88457" x2="78.8722" y2="28.0768" gradientUnits="userSpaceOnUse">
<stop stop-color="#AB1C87"/>
<stop offset="1" stop-color="#90529C"/>
</linearGradient>
<linearGradient id="paint4_linear_2261_17454" x1="126.265" y1="23.8204" x2="92.4452" y2="23.8204" gradientUnits="userSpaceOnUse">
<stop stop-color="#F5D44F"/>
<stop offset="1" stop-color="#EEA800"/>
</linearGradient>
</defs>
</svg>
