<svg width="118" height="88" viewBox="0 0 118 88" fill="none" xmlns="http://www.w3.org/2000/svg">
<g clip-path="url(#clip0_3032_2400)">
<circle cx="59" cy="44" r="42" fill="#9E9E9E"/>
<path d="M94.519 64.5305C90.9205 70.7633 85.7447 75.939 79.5119 79.5375C73.2791 83.136 66.2089 85.0305 59.0119 85.0305C51.8149 85.0305 44.7447 83.136 38.5119 79.5375C32.2791 75.939 27.1034 70.7633 23.5049 64.5305L59.0119 44.0305L94.519 64.5305Z" fill="#9160FD"/>
<path d="M23.4996 64.5066C19.9011 58.2738 18.0066 51.2036 18.0066 44.0066C18.0066 36.8096 19.9011 29.7394 23.4996 23.5066C27.0981 17.2738 32.2738 12.0981 38.5066 8.49958C44.7394 4.90108 51.8096 3.00662 59.0066 3.00662L59.0066 44.0066L23.4996 64.5066Z" fill="#424242"/>
<path d="M59.0264 3.01953C66.2234 3.01953 73.2936 4.91398 79.5264 8.51249C85.7592 12.111 90.9349 17.2867 94.5334 23.5195C98.1319 29.7523 100.026 36.8225 100.026 44.0195C100.026 51.2165 98.1319 58.2867 94.5334 64.5195L59.0264 44.0195L59.0264 3.01953Z" fill="#F6D763"/>
<path opacity="0.2" d="M59.0215 19.5303L80.2391 31.7803V56.2803L59.0215 68.5303L37.8039 56.2803V31.7803L59.0215 19.5303Z" fill="white"/>
<circle cx="59.0215" cy="44.0303" r="34.5" stroke="white"/>
<circle cx="47.5215" cy="19.5303" r="2" stroke="white"/>
</g>
<defs>
<clipPath id="clip0_3032_2400">
<rect width="118" height="88" fill="white"/>
</clipPath>
</defs>
</svg>
