<svg width="30" height="30" viewBox="0 0 30 30" fill="none" xmlns="http://www.w3.org/2000/svg">
<rect x="0.5" y="0.5" width="29" height="29" rx="3.5" fill="#FFCE05"/>
<rect x="0.5" y="0.5" width="29" height="29" rx="3.5" stroke="#5000FF"/>
<path d="M21.5879 11.5125C21.5136 11.2159 21.3624 10.9441 21.1495 10.7246C20.9366 10.5052 20.6696 10.3457 20.3754 10.2625C19.3004 10 15.0004 10 15.0004 10C15.0004 10 10.7004 10 9.62536 10.2875C9.33114 10.3707 9.06409 10.5302 8.8512 10.7496C8.6383 10.9691 8.4871 11.2409 8.41286 11.5375C8.21612 12.6285 8.11988 13.7352 8.12536 14.8438C8.11834 15.9607 8.21459 17.0758 8.41286 18.175C8.49471 18.4624 8.6493 18.7238 8.8617 18.934C9.0741 19.1443 9.33712 19.2961 9.62536 19.375C10.7004 19.6625 15.0004 19.6625 15.0004 19.6625C15.0004 19.6625 19.3004 19.6625 20.3754 19.375C20.6696 19.2918 20.9366 19.1323 21.1495 18.9129C21.3624 18.6934 21.5136 18.4216 21.5879 18.125C21.7831 17.0422 21.8793 15.944 21.8754 14.8438C21.8824 13.7268 21.7861 12.6117 21.5879 11.5125Z" fill="#5000FF"/>
<path d="M13.5938 16.3145C13.5938 16.5702 13.8697 16.7306 14.0919 16.6043L16.678 15.1336C16.9027 15.0057 16.9027 14.6818 16.678 14.554L14.0919 13.0833C13.8697 12.957 13.5938 13.1174 13.5938 13.3731V16.3145Z" fill="#FFCE05"/>
</svg>
