<svg width="1440" height="792" viewBox="0 0 1440 792" fill="none" xmlns="http://www.w3.org/2000/svg">
<g clip-path="url(#clip0_414_5027)">
<rect width="1439.5" height="792" fill="white"/>
<path d="M0 72.5H1440" stroke="#E3E3E3"/>
<path d="M0 0.5H1440" stroke="#E3E3E3"/>
<path d="M0 144.5H1440" stroke="#E3E3E3"/>
<path d="M0 216.5H1440" stroke="#E3E3E3"/>
<path d="M0 288.5H1440" stroke="#E3E3E3"/>
<path d="M0 360.5H1440" stroke="#E3E3E3"/>
<path d="M0 432.5H1440" stroke="#E3E3E3"/>
<path d="M0 504.5H1440" stroke="#E3E3E3"/>
<path d="M0 576.5H1440" stroke="#E3E3E3"/>
<path d="M0 648.5H1440" stroke="#E3E3E3"/>
<path d="M0 720.5H1440" stroke="#E3E3E3"/>
<path d="M720 -323.5L720 1116.5" stroke="#E3E3E3"/>
<path d="M792 -323.5L792 1116.5" stroke="#E3E3E3"/>
<path d="M864 -323.5L864 1116.5" stroke="#E3E3E3"/>
<path d="M936 -323.5L936 1116.5" stroke="#E3E3E3"/>
<path d="M1008 -323.5L1008 1116.5" stroke="#E3E3E3"/>
<path d="M1080 -323.5L1080 1116.5" stroke="#E3E3E3"/>
<path d="M1152 -323.5L1152 1116.5" stroke="#E3E3E3"/>
<path d="M1224 -323.5L1224 1116.5" stroke="#E3E3E3"/>
<path d="M1296 -323.5L1296 1116.5" stroke="#E3E3E3"/>
<path d="M1368 -323.5L1368 1116.5" stroke="#E3E3E3"/>
<path d="M648 -323.5L648 1116.5" stroke="#E3E3E3"/>
<path d="M576 -323.5L576 1116.5" stroke="#E3E3E3"/>
<path d="M504 -323.5L504 1116.5" stroke="#E3E3E3"/>
<path d="M432 -323.5L432 1116.5" stroke="#E3E3E3"/>
<path d="M360 -323.5L360 1116.5" stroke="#E3E3E3"/>
<path d="M288 -323.5L288 1116.5" stroke="#E3E3E3"/>
<path d="M216 -323.5L216 1116.5" stroke="#E3E3E3"/>
<path d="M144 -323.5L144 1116.5" stroke="#E3E3E3"/>
<path d="M72 -323.5L71.9999 1116.5" stroke="#E3E3E3"/>
<path d="M0 -323.5L-6.29444e-05 1116.5" stroke="#E3E3E3"/>
</g>
<defs>
<clipPath id="clip0_414_5027">
<rect width="1439.5" height="792" fill="white"/>
</clipPath>
</defs>
</svg>
