<svg width="24" height="25" viewBox="0 0 24 25" fill="none" xmlns="http://www.w3.org/2000/svg">
<rect y="0.5" width="24" height="24" rx="12" fill="#0F6DCA"/>
<path d="M6 17.9522C6 16.9202 6.15 16.0082 6.45 15.2162C6.762 14.4242 7.266 13.6802 7.962 12.9842C8.658 12.2762 9.618 11.5442 10.842 10.7882C11.202 10.5602 11.454 10.3682 11.598 10.2122C11.754 10.0442 11.832 9.84616 11.832 9.61816C11.832 9.12616 11.478 8.88016 10.77 8.88016C10.242 8.88016 9.636 9.01816 8.952 9.29416C8.268 9.57016 7.65 9.91816 7.098 10.3382L6.036 6.50416C6.804 6.12016 7.686 5.79616 8.682 5.53216C9.678 5.25616 10.68 5.11816 11.688 5.11816C13.344 5.11816 14.628 5.48416 15.54 6.21616C16.452 6.94816 16.908 7.98616 16.908 9.33016C16.908 10.0502 16.746 10.6862 16.422 11.2382C16.11 11.7782 15.726 12.2342 15.27 12.6062C14.826 12.9782 14.244 13.4042 13.524 13.8842C12.72 14.4122 12.126 14.8682 11.742 15.2522C11.37 15.6242 11.184 16.0562 11.184 16.5482H13.362V15.5222H17.052V19.5002H6V17.9522Z" fill="white"/>
</svg>
