<svg width="80" height="72" viewBox="0 0 80 72" fill="none" xmlns="http://www.w3.org/2000/svg">
<path opacity="0.3" d="M24.0547 57.7105C24.8357 57.1292 25.6162 56.5471 26.3972 55.9658C25.6162 56.5471 24.8357 57.1292 24.0547 57.7105Z" fill="white"/>
<path opacity="0.3" d="M21.9102 53.2582C22.1058 52.8706 22.3018 52.4827 22.3018 51.9014L21.9102 53.2582Z" fill="white"/>
<path opacity="0.3" d="M33.4229 17.043C33.2273 17.4305 33.2279 18.0115 33.0322 18.5928C33.0322 18.0115 33.2273 17.6243 33.4229 17.043Z" fill="white"/>
<path opacity="0.5" d="M57.4192 30.2109C56.8334 30.4047 56.2469 30.4051 55.6611 30.5989C56.2469 30.4051 56.8334 30.4047 57.4192 30.2109Z" fill="white"/>
<path d="M24.4506 42.4311C23.4835 39.3095 21.6436 36.5244 19.1448 34.3994C18.4008 33.8539 17.6023 33.2803 16.7495 32.6783C16.3875 32.4289 16.0507 32.1794 15.6712 31.93C15.6561 31.9181 15.6401 31.9072 15.6234 31.8976L14.7463 31.279H14.7287L14.4622 31.0894C14.1154 30.84 13.766 30.5905 13.4343 30.3685C13.2483 30.2363 13.0824 30.1191 12.8989 29.9794L12.1775 29.4332C8.15606 26.5198 5.17263 24.028 3.73746 21.9727L0.889752 30.6205L0.522792 31.7304L0.502685 31.7928L0 33.2894C0 33.2894 0 33.3118 0 33.3193C0.000664107 33.5244 0.0337408 33.7281 0.0980235 33.923C0.698732 35.8685 4.17983 38.944 11.7427 44.2046C11.8885 44.3043 12.0142 44.3966 12.1574 44.4939C12.4289 44.681 12.6853 44.8631 12.9441 45.0476L13.7308 45.6014C18.6974 49.1383 22.1106 51.8821 23.7242 54.1594C23.7561 54.2069 23.7905 54.2527 23.8273 54.2966C25.4391 50.5383 25.6599 46.3354 24.4506 42.4311Z" fill="white"/>
<path d="M22.9215 56.4714C22.4524 54.6289 19.2419 51.6108 13.2901 47.417C13.2423 47.5592 13.2021 47.6864 13.1544 47.8261C10.0654 57.1374 9.17813 61.9739 10.2941 63.4081C10.4716 63.4998 10.6696 63.5453 10.8697 63.5403C13.1946 63.5403 18.1008 60.1405 22.9215 56.4714Z" fill="white"/>
<path d="M15.1047 29.3081C17.0702 28.5124 19.3197 21.8626 20.7574 17.0859H19.3649C9.74102 17.0859 5.0384 17.7719 4.20395 19.3084C3.79677 21.4211 11.048 26.5569 15.1047 29.3081Z" fill="white"/>
<path d="M38.6064 13.3546C39.5766 14.9909 43.1055 18.4256 48.7607 18.4256C50.1919 18.4124 51.6146 18.2034 52.9883 17.8045C52.7369 17.0736 52.4981 16.3079 52.2342 15.4922L51.8547 14.3224C49.6454 7.468 47.0867 0.448978 44.8397 0C42.6681 0.36916 40.0793 8.40836 38.6064 13.3546Z" fill="white"/>
<path d="M51.6377 57.0329C51.5733 57.0175 51.5077 57.0074 51.4416 57.0029C49.1796 57.0029 44.7057 59.9961 39.8799 63.6353C40.0407 63.7476 40.1815 63.8449 40.3424 63.9621C47.493 69.1627 51.7709 71.5872 53.7992 71.5872C54.0508 71.5896 54.2992 71.5314 54.5231 71.4176C56.0739 69.9036 53.2865 61.6099 51.6377 57.0329Z" fill="white"/>
<path d="M63.1209 47.0013C60.5924 40.092 59.9841 38.0567 58.9737 34.6918C58.7953 34.0907 58.6998 33.7739 58.471 33.0605L58.4233 33.1054C55.8723 35.2506 53.9139 38.0053 52.7329 41.1097C51.8651 43.213 51.4293 45.467 51.451 47.7396C51.451 47.8369 51.4385 47.9317 51.4385 48.0265C51.4385 48.1213 51.451 48.236 51.451 48.3458C51.451 48.3882 51.451 48.4281 51.451 48.4655C51.5181 51.204 52.1647 53.898 53.3487 56.3725C53.4593 56.6693 53.5699 56.9686 53.6679 57.253C53.8438 57.7643 54.0072 58.2507 54.1706 58.7296C55.8219 63.5611 56.8097 67.2702 56.7795 69.7645L62.4322 65.5516L64.0961 64.3169L65.0738 63.5861L66.4034 62.6083C66.4084 62.598 66.4152 62.5887 66.4235 62.5808C67.924 61.0144 65.6067 53.8308 63.1209 47.0013Z" fill="white"/>
<path d="M38.4077 51.4132C35.1146 51.4134 31.8894 52.3424 29.108 54.0921C28.3657 54.6325 27.5799 55.2212 26.7504 55.858C26.4036 56.1249 26.0718 56.3744 25.7049 56.6587C25.6886 56.6677 25.6741 56.6795 25.6621 56.6936L24.8076 57.3447C24.8076 57.3447 24.8076 57.3447 24.79 57.3447C24.702 57.4145 24.6165 57.4769 24.5386 57.5442L23.5333 58.3075L23.0004 58.7016C22.7616 58.8837 22.5254 59.0583 22.2916 59.2329C18.2978 62.1861 15.0253 64.2913 12.625 65.0471L20.1175 70.2852L21.0802 70.9612L21.1355 70.9986L22.4399 71.9115H22.4726C22.6642 71.9763 22.866 72.0058 23.0683 71.9988C25.1217 71.9988 29.1005 69.5993 36.3894 63.9646L36.7941 63.6578L37.5481 63.0741L38.3021 62.4904C43.1732 58.8113 46.8126 56.3843 49.4793 55.5063C49.5332 55.4893 49.586 55.4693 49.6377 55.4465C46.4906 52.8301 42.5131 51.4016 38.4077 51.4132Z" fill="white"/>
<path d="M32.8431 0.143377L31.6266 0.163331L29.9728 0.183286H29.9527C28.2762 0.470133 26.2077 4.95492 23.3776 14.7177C23.3197 14.9023 23.2695 15.0694 23.2217 15.2515C23.1312 15.5608 23.0433 15.8601 22.9503 16.1644C22.8573 16.4687 22.7718 16.783 22.6788 17.0773C20.9194 22.9515 19.4114 27.0796 17.75 29.2995C18.039 29.317 18.3205 29.3394 18.6121 29.3419H19.3661C22.9124 29.2426 26.3442 28.0748 29.2058 25.9937C32.0673 23.9127 34.2231 21.0168 35.3867 17.6909C35.53 17.237 35.6657 16.7705 35.8039 16.3066C35.9698 15.7528 36.1407 15.2066 36.3066 14.6504C36.314 14.6326 36.3199 14.6142 36.3242 14.5955C36.4348 14.2138 36.5429 13.8621 36.6535 13.493C36.6962 13.3508 36.7364 13.2061 36.7766 13.0665C36.8872 12.7023 36.9978 12.3182 37.1059 11.9665C37.214 11.6148 37.3371 11.2356 37.4502 10.869C37.4904 10.7418 37.5281 10.6195 37.5684 10.4898C39.1242 5.5386 40.5141 2.00913 42.002 0.0136719L32.8431 0.143377Z" fill="white"/>
<path d="M69.5219 17.2284C68.5442 17.1486 67.579 17.0938 66.6265 17.0938C63.1861 17.1143 59.7677 17.6396 56.4823 18.6527C56.0927 18.7699 55.678 18.8847 55.3186 18.9969L54.4816 19.2713H54.4414C54.3735 19.2962 54.3082 19.3112 54.2403 19.3312C54.0116 19.406 53.7829 19.4683 53.5566 19.5332C51.9981 19.9894 50.3833 20.2286 48.7585 20.2441C46.7716 20.2495 44.8045 19.8522 42.9776 19.0767C42.0634 18.6876 41.191 18.2079 40.3737 17.645C40.1676 17.5028 39.964 17.3581 39.7705 17.211C39.7789 17.2462 39.7839 17.2821 39.7856 17.3182C40.3665 20.5189 41.9798 23.4456 44.3825 25.6572C46.7852 27.8689 49.847 29.2457 53.1067 29.5803C53.6094 29.6302 54.1247 29.6626 54.645 29.6626C55.5678 29.6584 56.4882 29.5699 57.3946 29.3982C58.0155 29.2436 58.6036 29.0939 59.154 28.9767H59.1792C60.8391 28.5846 62.5477 28.4342 64.2513 28.5302C66.169 28.6425 68.4613 29.0665 71.8418 29.8871L80.0004 19.4559C76.6092 18.3026 73.0915 17.5549 69.5219 17.2284Z" fill="white"/>
</svg>
