<svg width="70" height="72" viewBox="0 0 70 72" fill="none" xmlns="http://www.w3.org/2000/svg">
<g clip-path="url(#clip0_216_8286)">
<path fill-rule="evenodd" clip-rule="evenodd" d="M42.6155 -0.00195312L67.1124 24.6534L59.9244 31.8879L35.4275 7.23258L42.6155 -0.00195312ZM16.4258 31.5002C24.8719 31.5002 31.7188 24.4487 31.7188 15.7502C31.7188 7.05176 24.8719 0.000244141 16.4258 0.000244141C7.97971 0.000244141 1.13281 7.05176 1.13281 15.7502C1.13281 24.4487 7.97971 31.5002 16.4258 31.5002ZM54.375 72.0002C63.1339 72.0002 70.2344 64.9487 70.2344 56.2502C70.2344 47.5518 63.1339 40.5002 54.375 40.5002C45.6161 40.5002 38.5156 47.5518 38.5156 56.2502C38.5156 64.9487 45.6161 72.0002 54.375 72.0002ZM30.5859 55.6877C30.5859 64.0756 23.739 70.8752 15.293 70.8752C6.8469 70.8752 0 64.0756 0 55.6877C0 55.4892 0.0038377 55.2915 0.0114435 55.0947C-0.0319077 54.3472 -0.624657 40.0635 16.9922 34.8752C16.9922 34.8752 14.8843 37.4062 13.2542 40.634C13.9212 40.5458 14.6017 40.5002 15.293 40.5002C23.739 40.5002 30.5859 47.2999 30.5859 55.6877Z" fill="white"/>
</g>
<defs>
<clipPath id="clip0_216_8286">
<rect width="70" height="72" fill="white"/>
</clipPath>
</defs>
</svg>
