<svg width="95" height="74" viewBox="0 0 95 74" fill="none" xmlns="http://www.w3.org/2000/svg">
<path d="M24.8898 1C20.9042 0.998834 17.0078 2.17715 13.6932 4.38595C10.3787 6.59475 7.79493 9.73483 6.26863 13.4091C4.74234 17.0834 4.34208 21.1268 5.11848 25.0281C5.89488 28.9294 7.81307 32.5133 10.6305 35.3266C13.4479 38.1399 17.038 40.0563 20.9467 40.8334C24.8555 41.6105 28.9074 41.2135 32.59 39.6924C36.2727 38.1714 39.4207 35.5947 41.6359 32.2882C43.8511 28.9817 45.0341 25.0939 45.0353 21.1164C45.0361 18.4754 44.5156 15.8602 43.5036 13.42C42.4917 10.9798 41.008 8.76239 39.1373 6.8944C37.2666 5.02642 35.0455 3.54444 32.601 2.53308C30.1564 1.52172 27.5361 1.00078 24.8898 1ZM24.8898 30.4458C23.0385 30.4458 21.2288 29.898 19.6895 28.8715C18.1502 27.8451 16.9505 26.3862 16.242 24.6793C15.5336 22.9724 15.3482 21.0942 15.7094 19.2822C16.0706 17.4702 16.962 15.8057 18.2711 14.4993C19.5801 13.193 21.248 12.3033 23.0637 11.9429C24.8794 11.5824 26.7614 11.7674 28.4718 12.4744C30.1822 13.1814 31.644 14.3787 32.6725 15.9149C33.7011 17.451 34.25 19.2571 34.25 21.1046C34.2508 22.3315 34.0092 23.5466 33.5391 24.6803C33.069 25.8139 32.3796 26.844 31.5102 27.7116C30.6409 28.5791 29.6087 29.2672 28.4727 29.7364C27.3367 30.2055 26.1192 30.4466 24.8898 30.4458Z" fill="white" stroke="#0F6DCA"/>
<path d="M77.7395 33.5866V34.7078C77.6009 36.4338 76.8142 38.0439 75.5369 39.2157C74.2596 40.3876 72.5859 41.0348 70.8509 41.0278C69.2018 41.0326 67.6063 40.4439 66.357 39.3696L62.2179 35.829C61.2204 33.87 60.8077 31.6662 61.0288 29.4798C61.25 27.2935 62.0958 25.2165 63.4656 23.496C63.6725 23.2363 63.8913 22.9826 64.1219 22.7407C64.6701 22.1628 65.2765 21.6428 65.9313 21.1887L66.1382 21.0176L66.7295 21.5487L75.3211 28.9072C76.0128 29.4901 76.5824 30.2035 76.9974 31.0065C77.4124 31.8095 77.6646 32.6862 77.7395 33.5866Z" fill="white" stroke="#0F6DCA" stroke-linejoin="round"/>
<path d="M77.7385 7.34959V8.46488C77.6009 10.2754 76.7505 11.9578 75.3733 13.1443L66.1846 21.0162L65.9776 21.1874C65.3127 21.6379 64.6965 22.156 64.1387 22.7334C63.9081 22.9754 63.6893 23.2291 63.4823 23.4887C62.1125 25.2093 61.2668 27.2862 61.0456 29.4726C60.8244 31.659 61.2371 33.8627 62.2347 35.8218L51.3075 26.4628L51.0651 26.2563C50.9705 26.1678 50.8699 26.0852 50.7753 25.9908L50.6453 25.8609C50.3254 25.5378 50.0382 25.184 49.7879 24.8047L49.7169 24.6866C49.646 24.5804 49.5868 24.4683 49.5218 24.3562C49.4567 24.2441 49.4627 24.25 49.4331 24.1969L49.3621 24.0434V24.0139L49.2971 23.8723C49.2799 23.826 49.2601 23.7807 49.238 23.7366C49.238 23.6658 49.1847 23.6009 49.1552 23.5301C49.1421 23.4839 49.1263 23.4386 49.1079 23.3943C49.1079 23.3294 49.0665 23.2704 49.0428 23.1996C49.0192 23.1288 49.0074 23.0875 48.9837 23.0285L48.9541 22.9045L48.9187 22.7806L48.8832 22.6331C48.8536 22.5269 48.8359 22.4266 48.8122 22.3204C48.7886 22.2141 48.7531 21.9604 48.7354 21.7834V21.6004C48.7354 21.5473 48.7354 21.4883 48.7354 21.4293C48.7354 21.3703 48.7354 21.3113 48.7354 21.2523C48.7354 21.1933 48.7354 21.1283 48.7354 21.0693C48.7354 21.0044 48.7354 20.9454 48.7354 20.8864C48.7354 20.8274 48.7354 20.7684 48.7354 20.7094C48.7354 20.6504 48.7354 20.5914 48.7354 20.5324C48.7354 20.2845 48.7886 20.0426 48.83 19.8124C48.848 19.705 48.8716 19.5987 48.9009 19.4938C48.9119 19.438 48.9257 19.3829 48.9423 19.3286C48.9423 19.2813 48.9423 19.24 48.9423 19.1987C48.9896 19.0394 49.0428 18.886 49.096 18.7326C49.1125 18.6942 49.1263 18.6548 49.1374 18.6145C49.232 18.3785 49.3385 18.1425 49.4508 17.9123L49.5395 17.753C49.6046 17.6409 49.6637 17.5288 49.7346 17.4225L49.8056 17.3045C50.056 16.9271 50.3432 16.5752 50.663 16.2542L50.7931 16.1184L51.0828 15.8588L51.3252 15.6464L66.356 2.67013C67.7478 1.48185 69.5546 0.892303 71.381 1.03055C73.2073 1.1688 74.9044 2.02357 76.1006 3.40775C77.0638 4.50764 77.6391 5.89227 77.7385 7.34959Z" fill="white" stroke="#0F6DCA"/>
<path d="M71.2256 37.8401C71.2256 38.0388 71.0639 38.2016 70.8623 38.2016C70.6607 38.2016 70.499 38.0388 70.499 37.8401C70.499 37.6413 70.6607 37.4785 70.8623 37.4785C71.0639 37.4785 71.2256 37.6413 71.2256 37.8401Z" fill="white" stroke="#0F6DCA"/>
<path d="M67.585 34.2014C67.585 34.4001 67.4233 34.5629 67.2217 34.5629C67.0201 34.5629 66.8584 34.4001 66.8584 34.2014C66.8584 34.0027 67.0201 33.8398 67.2217 33.8398C67.4233 33.8398 67.585 34.0027 67.585 34.2014Z" fill="white" stroke="#0F6DCA"/>
<path d="M74.9326 34.136C74.9326 34.3347 74.771 34.4975 74.5693 34.4975C74.3677 34.4975 74.2061 34.3347 74.2061 34.136C74.2061 33.9372 74.3678 33.7744 74.5693 33.7744C74.7709 33.7744 74.9326 33.9372 74.9326 34.136Z" fill="white" stroke="#0F6DCA"/>
<path d="M71.291 30.51C71.291 30.7087 71.1293 30.8715 70.9277 30.8715C70.7261 30.8715 70.5645 30.7087 70.5645 30.51C70.5645 30.3113 70.7261 30.1484 70.9277 30.1484C71.1294 30.1484 71.291 30.3113 71.291 30.51Z" fill="white" stroke="#0F6DCA"/>
<path d="M71.2256 11.6203C71.2256 11.819 71.0639 11.9819 70.8623 11.9819C70.6607 11.9819 70.499 11.819 70.499 11.6203C70.499 11.4216 70.6607 11.2588 70.8623 11.2588C71.0639 11.2588 71.2256 11.4216 71.2256 11.6203Z" fill="white" stroke="#0F6DCA"/>
<path d="M67.585 7.98165C67.585 8.18038 67.4233 8.3432 67.2217 8.3432C67.0201 8.3432 66.8584 8.18037 66.8584 7.98165C66.8584 7.78294 67.0201 7.62012 67.2217 7.62012C67.4233 7.62012 67.585 7.78294 67.585 7.98165Z" fill="white" stroke="#0F6DCA"/>
<path d="M74.9326 7.92013C74.9326 8.11885 74.7709 8.28168 74.5693 8.28168C74.3678 8.28168 74.2061 8.11885 74.2061 7.92013C74.2061 7.72141 74.3677 7.55859 74.5693 7.55859C74.771 7.55859 74.9326 7.72142 74.9326 7.92013Z" fill="white" stroke="#0F6DCA"/>
<path d="M71.291 4.28635C71.291 4.48506 71.1294 4.64789 70.9277 4.64789C70.7261 4.64789 70.5645 4.48507 70.5645 4.28635C70.5645 4.08763 70.7261 3.9248 70.9277 3.9248C71.1293 3.9248 71.291 4.08763 71.291 4.28635Z" fill="white" stroke="#0F6DCA"/>
<path d="M89.7359 72.6331C92.0909 72.6331 94.0001 70.6372 94.0001 68.175C94.0001 65.7128 92.0909 63.7168 89.7359 63.7168C87.3808 63.7168 85.4717 65.7128 85.4717 68.175C85.4717 70.6372 87.3808 72.6331 89.7359 72.6331Z" fill="white" stroke="#0F6DCA"/>
<path d="M3.14735 49.6348H12.0112C13.5081 49.6366 14.943 50.2264 16.0005 51.2745C17.058 52.3226 17.6516 53.7433 17.6506 55.2242V57.4233C17.6506 58.1568 17.5046 58.8832 17.2209 59.5609C16.9371 60.2387 16.5212 60.8545 15.9969 61.3732C15.4726 61.8919 14.8502 62.3034 14.1651 62.5841C13.4801 62.8648 12.7459 63.0093 12.0044 63.0093H3.54527C2.87022 63.0093 2.22281 62.744 1.74548 62.2717C1.26815 61.7995 1 61.159 1 60.4912V51.7626C0.999999 51.1989 1.22612 50.6581 1.62873 50.2592C2.03134 49.8602 2.57752 49.6357 3.14735 49.6348Z" fill="white" stroke="#0F6DCA"/>
<path d="M3.39955 57.6367H14.1925C15.8636 57.6367 17.4663 58.2969 18.6479 59.4719C19.8296 60.647 20.4935 62.2407 20.4935 63.9025V66.3667C20.4935 68.0284 19.8296 69.6221 18.6479 70.7972C17.4663 71.9723 15.8636 72.6324 14.1925 72.6324H3.83988C3.46694 72.6324 3.09765 72.5594 2.7531 72.4174C2.40855 72.2755 2.09549 72.0675 1.83179 71.8053C1.56808 71.543 1.35888 71.2317 1.21617 70.8891C1.07345 70.5465 1 70.1792 1 69.8084V60.0127C1 59.3825 1.25172 58.7782 1.69981 58.3326C2.14789 57.887 2.75563 57.6367 3.38932 57.6367H3.39955Z" fill="white" stroke="#0F6DCA"/>
<path d="M56.6023 50.1252L47.8307 65.3569C46.8164 67.1181 47.4248 69.3665 49.1897 70.3787L50.5638 71.1668C52.3287 72.179 54.5816 71.5718 55.5959 69.8106L64.3675 54.5789C65.3818 52.8176 64.7734 50.5693 63.0085 49.557L61.6344 48.7689C59.8695 47.7567 57.6166 48.3639 56.6023 50.1252Z" fill="white" stroke="#0F6DCA"/>
<path d="M80.0401 71.5749L79.9224 71.6423C78.9187 72.2218 77.7264 72.3785 76.6074 72.078C75.4884 71.7774 74.5343 71.0442 73.9549 70.0395L71.1173 65.1165C70.9873 64.8907 70.8001 64.7031 70.5746 64.5727C70.3492 64.4422 70.0934 64.3736 69.8331 64.3736C69.5727 64.3736 69.3169 64.4422 69.0915 64.5727C68.866 64.7031 68.6789 64.8907 68.5488 65.1165L65.7214 70.0226C65.1413 71.0268 64.187 71.7593 63.0681 72.0592C61.9491 72.3591 60.7571 72.2019 59.7538 71.6221L59.6361 71.5581C59.139 71.2707 58.7032 70.8881 58.3537 70.432C58.0042 69.9759 57.7478 69.4553 57.5992 68.9C57.4506 68.3447 57.4127 67.7654 57.4876 67.1954C57.5625 66.6254 57.7488 66.0757 58.0358 65.5779L65.718 52.2536L66.0374 51.698C66.2114 51.3983 66.4201 51.1203 66.6593 50.8697C66.6795 50.8461 66.7031 50.8259 66.7232 50.8057C66.9745 50.5659 67.2532 50.3568 67.5536 50.1828L67.6713 50.1188C68.2865 49.7627 68.9791 49.5621 69.6891 49.5345C70.3991 49.507 71.1052 49.6532 71.746 49.9605L71.8839 50.0279L72.0083 50.0986L72.1024 50.1525L72.1293 50.1693C72.7552 50.5494 73.2746 51.0824 73.6388 51.7182L74.0053 52.358L81.6404 65.6014C82.2179 66.6064 82.3738 67.7998 82.0738 68.9197C81.7738 70.0396 81.0423 70.9946 80.0401 71.5749Z" fill="white" stroke="#0F6DCA"/>
<path d="M34.0987 49.5313C31.8095 49.5313 29.5717 50.2087 27.6684 51.4779C25.765 52.7471 24.2815 54.5511 23.4055 56.6617C22.5294 58.7723 22.3002 61.0948 22.7468 63.3354C23.1934 65.576 24.2958 67.6342 25.9144 69.2496C27.5331 70.8649 29.5955 71.965 31.8406 72.4107C34.0858 72.8564 36.413 72.6277 38.5279 71.7534C40.6428 70.8792 42.4505 69.3987 43.7223 67.4992C44.9941 65.5997 45.6729 63.3665 45.6729 61.082C45.6733 59.565 45.3743 58.0628 44.7928 56.6612C44.2113 55.2596 43.3587 53.9861 42.2839 52.9134C41.209 51.8407 39.9329 50.9899 38.5285 50.4096C37.124 49.8293 35.6187 49.5308 34.0987 49.5313ZM34.0987 66.4438C33.0356 66.4425 31.9969 66.1267 31.1137 65.5363C30.2304 64.946 29.5424 64.1076 29.1366 63.1271C28.7307 62.1466 28.6252 61.068 28.8334 60.0277C29.0416 58.9874 29.5542 58.032 30.3063 57.2824C31.0585 56.5327 32.0164 56.0224 33.0591 55.8159C34.1018 55.6095 35.1824 55.7161 36.1644 56.1224C37.1464 56.5287 37.9856 57.2163 38.576 58.0985C39.1665 58.9807 39.4816 60.0177 39.4816 61.0786C39.4825 61.784 39.3438 62.4826 39.0736 63.1344C38.8033 63.7862 38.4067 64.3783 37.9066 64.8768C37.4064 65.3753 36.8126 65.7703 36.1592 66.0392C35.5057 66.3081 34.8055 66.4456 34.0987 66.4438Z" fill="white" stroke="#0F6DCA"/>
</svg>
