<svg width="2696" height="128" viewBox="0 0 2696 128" fill="none" xmlns="http://www.w3.org/2000/svg">
<mask id="mask0_409_4656" style="mask-type:alpha" maskUnits="userSpaceOnUse" x="0" y="0" width="1388" height="128">
<rect width="1387.4" height="128" fill="#0F6DCA" fill-opacity="0.4"/>
</mask>
<g mask="url(#mask0_409_4656)">
<rect width="18.9961" height="1147.92" transform="matrix(0.865966 0.500103 -0.499897 0.866085 399.904 -908)" fill="#0F6DCA" fill-opacity="0.4"/>
<rect width="18.9961" height="1147.92" transform="matrix(0.865966 0.500103 -0.499897 0.866085 423.352 -880)" fill="#0F6DCA" fill-opacity="0.4"/>
<rect width="18.9961" height="1147.92" transform="matrix(0.865966 0.500103 -0.499897 0.866085 446.797 -852)" fill="#0F6DCA" fill-opacity="0.4"/>
<rect width="18.9961" height="1147.92" transform="matrix(0.865966 0.500103 -0.499897 0.866085 470.246 -824)" fill="#0F6DCA" fill-opacity="0.4"/>
<rect width="18.9961" height="1147.92" transform="matrix(0.865966 0.500103 -0.499897 0.866085 493.699 -796)" fill="#0F6DCA" fill-opacity="0.4"/>
<rect width="18.9961" height="1147.92" transform="matrix(0.865966 0.500103 -0.499897 0.866085 517.145 -768)" fill="#0F6DCA" fill-opacity="0.4"/>
<rect width="18.9961" height="1147.92" transform="matrix(0.865966 0.500103 -0.499897 0.866085 540.592 -740)" fill="#0F6DCA" fill-opacity="0.4"/>
<rect width="18.9961" height="1147.92" transform="matrix(0.865966 0.500103 -0.499897 0.866085 564.041 -712)" fill="#0F6DCA" fill-opacity="0.4"/>
<rect width="18.9961" height="1147.92" transform="matrix(0.865966 0.500103 -0.499897 0.866085 587.49 -684)" fill="#0F6DCA" fill-opacity="0.4"/>
<rect width="18.9961" height="1147.92" transform="matrix(0.865966 0.500103 -0.499897 0.866085 610.934 -656)" fill="#0F6DCA" fill-opacity="0.4"/>
<rect width="18.9961" height="1147.92" transform="matrix(0.865966 0.500103 -0.499897 0.866085 634.387 -628)" fill="#0F6DCA" fill-opacity="0.4"/>
<rect width="18.9961" height="1147.92" transform="matrix(0.865966 0.500103 -0.499897 0.866085 657.834 -600)" fill="#0F6DCA" fill-opacity="0.4"/>
<rect width="18.9961" height="1147.92" transform="matrix(0.865966 0.500103 -0.499897 0.866085 681.283 -572)" fill="#0F6DCA" fill-opacity="0.4"/>
<rect width="18.9961" height="1147.92" transform="matrix(0.865966 0.500103 -0.499897 0.866085 704.73 -544)" fill="#0F6DCA" fill-opacity="0.4"/>
<rect width="18.9961" height="1147.92" transform="matrix(0.865966 0.500103 -0.499897 0.866085 728.176 -516)" fill="#0F6DCA" fill-opacity="0.4"/>
<rect width="18.9961" height="1147.92" transform="matrix(0.865966 0.500103 -0.499897 0.866085 751.623 -488)" fill="#0F6DCA" fill-opacity="0.4"/>
<rect width="18.9961" height="1147.92" transform="matrix(0.865966 0.500103 -0.499897 0.866085 775.07 -460)" fill="#0F6DCA" fill-opacity="0.4"/>
<rect width="18.9961" height="1147.92" transform="matrix(0.865966 0.500103 -0.499897 0.866085 798.518 -432)" fill="#0F6DCA" fill-opacity="0.4"/>
<rect width="18.9961" height="1147.92" transform="matrix(0.865966 0.500103 -0.499897 0.866085 821.967 -404)" fill="#0F6DCA" fill-opacity="0.4"/>
<rect width="18.9961" height="1147.92" transform="matrix(0.865966 0.500103 -0.499897 0.866085 845.42 -376)" fill="#0F6DCA" fill-opacity="0.4"/>
<rect width="18.9961" height="1147.92" transform="matrix(0.865966 0.500103 -0.499897 0.866085 868.867 -348)" fill="#0F6DCA" fill-opacity="0.4"/>
<rect width="18.9961" height="1147.92" transform="matrix(0.865966 0.500103 -0.499897 0.866085 892.314 -320)" fill="#0F6DCA" fill-opacity="0.4"/>
<rect width="18.9961" height="1147.92" transform="matrix(0.865966 0.500103 -0.499897 0.866085 915.762 -292)" fill="#0F6DCA" fill-opacity="0.4"/>
<rect width="18.9961" height="1147.92" transform="matrix(0.865966 0.500103 -0.499897 0.866085 939.209 -264)" fill="#0F6DCA" fill-opacity="0.4"/>
<rect width="18.9961" height="1147.92" transform="matrix(0.865966 0.500103 -0.499897 0.866085 962.656 -236)" fill="#0F6DCA" fill-opacity="0.4"/>
<rect width="18.9961" height="1147.92" transform="matrix(0.865966 0.500103 -0.499897 0.866085 986.107 -208)" fill="#0F6DCA" fill-opacity="0.4"/>
<rect width="18.9961" height="1147.92" transform="matrix(0.865966 0.500103 -0.499897 0.866085 1009.55 -180)" fill="#0F6DCA" fill-opacity="0.4"/>
<rect width="18.9961" height="1147.92" transform="matrix(0.865966 0.500103 -0.499897 0.866085 1033 -152)" fill="#0F6DCA" fill-opacity="0.4"/>
<rect width="18.9961" height="1147.92" transform="matrix(0.865966 0.500103 -0.499897 0.866085 1056.45 -124)" fill="#0F6DCA" fill-opacity="0.4"/>
<rect width="18.9961" height="1147.92" transform="matrix(0.865966 0.500103 -0.499897 0.866085 1079.9 -96)" fill="#0F6DCA" fill-opacity="0.4"/>
<rect width="18.9961" height="1147.92" transform="matrix(0.865966 0.500103 -0.499897 0.866085 1513.6 -777)" fill="#0F6DCA" fill-opacity="0.4"/>
<rect width="18.9961" height="1147.92" transform="matrix(0.865966 0.500103 -0.499897 0.866085 1537.04 -749)" fill="#0F6DCA" fill-opacity="0.4"/>
<rect width="18.9961" height="1147.92" transform="matrix(0.865966 0.500103 -0.499897 0.866085 1560.49 -720.996)" fill="#0F6DCA" fill-opacity="0.4"/>
<rect width="18.9961" height="1147.92" transform="matrix(0.865966 0.500103 -0.499897 0.866085 1583.94 -692.996)" fill="#0F6DCA" fill-opacity="0.4"/>
<rect width="18.9961" height="1147.92" transform="matrix(0.865966 0.500103 -0.499897 0.866085 1607.39 -665)" fill="#0F6DCA" fill-opacity="0.4"/>
<rect width="18.9961" height="1147.92" transform="matrix(0.865966 0.500103 -0.499897 0.866085 1630.84 -637)" fill="#0F6DCA" fill-opacity="0.4"/>
<rect width="18.9961" height="1147.92" transform="matrix(0.865966 0.500103 -0.499897 0.866085 1654.29 -609)" fill="#0F6DCA" fill-opacity="0.4"/>
<rect width="18.9961" height="1147.92" transform="matrix(0.865966 0.500103 -0.499897 0.866085 1677.74 -580.996)" fill="#0F6DCA" fill-opacity="0.4"/>
<rect width="18.9961" height="1147.92" transform="matrix(0.865966 0.500103 -0.499897 0.866085 1748.08 -497)" fill="#0F6DCA" fill-opacity="0.4"/>
<rect width="18.9961" height="1147.92" transform="matrix(0.865966 0.500103 -0.499897 0.866085 1777.52 -468.996)" fill="#0F6DCA" fill-opacity="0.4"/>
<rect width="18.9961" height="1147.92" transform="matrix(0.865966 0.500103 -0.499897 0.866085 1800.97 -440.996)" fill="#0F6DCA" fill-opacity="0.4"/>
<rect width="18.9961" height="1147.92" transform="matrix(0.865966 0.500103 -0.499897 0.866085 1824.42 -412.996)" fill="#0F6DCA" fill-opacity="0.4"/>
<rect width="18.9961" height="1147.92" transform="matrix(0.865966 0.500103 -0.499897 0.866085 1847.87 -384.996)" fill="#0F6DCA" fill-opacity="0.4"/>
<rect width="18.9961" height="1147.92" transform="matrix(0.865966 0.500103 -0.499897 0.866085 1871.32 -356.996)" fill="#0F6DCA" fill-opacity="0.4"/>
<rect width="18.9961" height="1147.92" transform="matrix(0.865966 0.500103 -0.499897 0.866085 1894.77 -328.996)" fill="#0F6DCA" fill-opacity="0.4"/>
<rect width="18.9961" height="1147.92" transform="matrix(0.865966 0.500103 -0.499897 0.866085 1918.21 -300.996)" fill="#0F6DCA" fill-opacity="0.4"/>
<rect width="18.9961" height="1147.92" transform="matrix(0.865966 0.500103 -0.499897 0.866085 1941.66 -272.996)" fill="#0F6DCA" fill-opacity="0.4"/>
</g>
<mask id="mask1_409_4656" style="mask-type:alpha" maskUnits="userSpaceOnUse" x="1307" y="0" width="1389" height="128">
<rect x="1307.8" width="1387.4" height="128" fill="#0F6DCA" fill-opacity="0.4"/>
</mask>
<g mask="url(#mask1_409_4656)">
<rect width="18.9961" height="1147.92" transform="matrix(0.865966 0.500103 -0.499897 0.866085 1707.7 -908)" fill="#0F6DCA" fill-opacity="0.4"/>
<rect width="18.9961" height="1147.92" transform="matrix(0.865966 0.500103 -0.499897 0.866085 1731.15 -880)" fill="#0F6DCA" fill-opacity="0.4"/>
<rect width="18.9961" height="1147.92" transform="matrix(0.865966 0.500103 -0.499897 0.866085 1754.6 -852)" fill="#0F6DCA" fill-opacity="0.4"/>
<rect width="18.9961" height="1147.92" transform="matrix(0.865966 0.500103 -0.499897 0.866085 1824.94 -768)" fill="#0F6DCA" fill-opacity="0.4"/>
<rect width="18.9961" height="1147.92" transform="matrix(0.865966 0.500103 -0.499897 0.866085 1848.39 -740)" fill="#0F6DCA" fill-opacity="0.4"/>
<rect width="18.9961" height="1147.92" transform="matrix(0.865966 0.500103 -0.499897 0.866085 1871.84 -712)" fill="#0F6DCA" fill-opacity="0.4"/>
<rect width="18.9961" height="1147.92" transform="matrix(0.865966 0.500103 -0.499897 0.866085 1895.29 -684)" fill="#0F6DCA" fill-opacity="0.4"/>
<rect width="18.9961" height="1147.92" transform="matrix(0.865966 0.500103 -0.499897 0.866085 1918.73 -656)" fill="#0F6DCA" fill-opacity="0.4"/>
<rect width="18.9961" height="1147.92" transform="matrix(0.865966 0.500103 -0.499897 0.866085 1942.19 -628)" fill="#0F6DCA" fill-opacity="0.4"/>
<rect width="18.9961" height="1147.92" transform="matrix(0.865966 0.500103 -0.499897 0.866085 1965.63 -600)" fill="#0F6DCA" fill-opacity="0.4"/>
<rect width="18.9961" height="1147.92" transform="matrix(0.865966 0.500103 -0.499897 0.866085 1989.08 -572)" fill="#0F6DCA" fill-opacity="0.4"/>
<rect width="18.9961" height="1147.92" transform="matrix(0.865966 0.500103 -0.499897 0.866085 2012.53 -544)" fill="#0F6DCA" fill-opacity="0.4"/>
<rect width="18.9961" height="1147.92" transform="matrix(0.865966 0.500103 -0.499897 0.866085 2035.97 -516)" fill="#0F6DCA" fill-opacity="0.4"/>
<rect width="18.9961" height="1147.92" transform="matrix(0.865966 0.500103 -0.499897 0.866085 2059.42 -488)" fill="#0F6DCA" fill-opacity="0.4"/>
<rect width="18.9961" height="1147.92" transform="matrix(0.865966 0.500103 -0.499897 0.866085 2082.87 -460)" fill="#0F6DCA" fill-opacity="0.4"/>
<rect width="18.9961" height="1147.92" transform="matrix(0.865966 0.500103 -0.499897 0.866085 2106.32 -432)" fill="#0F6DCA" fill-opacity="0.4"/>
<rect width="18.9961" height="1147.92" transform="matrix(0.865966 0.500103 -0.499897 0.866085 2129.77 -404)" fill="#0F6DCA" fill-opacity="0.4"/>
<rect width="18.9961" height="1147.92" transform="matrix(0.865966 0.500103 -0.499897 0.866085 2153.22 -376)" fill="#0F6DCA" fill-opacity="0.4"/>
<rect width="18.9961" height="1147.92" transform="matrix(0.865966 0.500103 -0.499897 0.866085 2176.67 -348)" fill="#0F6DCA" fill-opacity="0.4"/>
<rect width="18.9961" height="1147.92" transform="matrix(0.865966 0.500103 -0.499897 0.866085 2200.11 -320)" fill="#0F6DCA" fill-opacity="0.4"/>
<rect width="18.9961" height="1147.92" transform="matrix(0.865966 0.500103 -0.499897 0.866085 2223.56 -292)" fill="#0F6DCA" fill-opacity="0.4"/>
<rect width="18.9961" height="1147.92" transform="matrix(0.865966 0.500103 -0.499897 0.866085 2247.01 -264)" fill="#0F6DCA" fill-opacity="0.4"/>
<rect width="18.9961" height="1147.92" transform="matrix(0.865966 0.500103 -0.499897 0.866085 2270.46 -236)" fill="#0F6DCA" fill-opacity="0.4"/>
<rect width="18.9961" height="1147.92" transform="matrix(0.865966 0.500103 -0.499897 0.866085 2293.91 -208)" fill="#0F6DCA" fill-opacity="0.4"/>
<rect width="18.9961" height="1147.92" transform="matrix(0.865966 0.500103 -0.499897 0.866085 2317.35 -180)" fill="#0F6DCA" fill-opacity="0.4"/>
<rect width="18.9961" height="1147.92" transform="matrix(0.865966 0.500103 -0.499897 0.866085 2340.8 -152)" fill="#0F6DCA" fill-opacity="0.4"/>
<rect width="18.9961" height="1147.92" transform="matrix(0.865966 0.500103 -0.499897 0.866085 2364.25 -124)" fill="#0F6DCA" fill-opacity="0.4"/>
<rect width="18.9961" height="1147.92" transform="matrix(0.865966 0.500103 -0.499897 0.866085 2387.7 -96)" fill="#0F6DCA" fill-opacity="0.4"/>
<rect width="18.9961" height="1147.92" transform="matrix(0.865966 0.500103 -0.499897 0.866085 2821.4 -777)" fill="#0F6DCA" fill-opacity="0.4"/>
<rect width="18.9961" height="1147.92" transform="matrix(0.865966 0.500103 -0.499897 0.866085 2844.84 -749)" fill="#0F6DCA" fill-opacity="0.4"/>
<rect width="18.9961" height="1147.92" transform="matrix(0.865966 0.500103 -0.499897 0.866085 2868.29 -720.996)" fill="#0F6DCA" fill-opacity="0.4"/>
<rect width="18.9961" height="1147.92" transform="matrix(0.865966 0.500103 -0.499897 0.866085 2891.74 -692.996)" fill="#0F6DCA" fill-opacity="0.4"/>
<rect width="18.9961" height="1147.92" transform="matrix(0.865966 0.500103 -0.499897 0.866085 2915.19 -665)" fill="#0F6DCA" fill-opacity="0.4"/>
<rect width="18.9961" height="1147.92" transform="matrix(0.865966 0.500103 -0.499897 0.866085 2938.64 -637)" fill="#0F6DCA" fill-opacity="0.4"/>
<rect width="18.9961" height="1147.92" transform="matrix(0.865966 0.500103 -0.499897 0.866085 2962.09 -609)" fill="#0F6DCA" fill-opacity="0.4"/>
<rect width="18.9961" height="1147.92" transform="matrix(0.865966 0.500103 -0.499897 0.866085 2985.54 -580.996)" fill="#0F6DCA" fill-opacity="0.4"/>
<rect width="18.9961" height="1147.92" transform="matrix(0.865966 0.500103 -0.499897 0.866085 3008.98 -552.996)" fill="#0F6DCA" fill-opacity="0.4"/>
<rect width="18.9961" height="1147.92" transform="matrix(0.865966 0.500103 -0.499897 0.866085 3032.43 -525)" fill="#0F6DCA" fill-opacity="0.4"/>
<rect width="18.9961" height="1147.92" transform="matrix(0.865966 0.500103 -0.499897 0.866085 3055.88 -497)" fill="#0F6DCA" fill-opacity="0.4"/>
<rect width="18.9961" height="1147.92" transform="matrix(0.865966 0.500103 -0.499897 0.866085 3085.32 -468.996)" fill="#0F6DCA" fill-opacity="0.4"/>
<rect width="18.9961" height="1147.92" transform="matrix(0.865966 0.500103 -0.499897 0.866085 3108.77 -440.996)" fill="#0F6DCA" fill-opacity="0.4"/>
<rect width="18.9961" height="1147.92" transform="matrix(0.865966 0.500103 -0.499897 0.866085 3132.22 -412.996)" fill="#0F6DCA" fill-opacity="0.4"/>
<rect width="18.9961" height="1147.92" transform="matrix(0.865966 0.500103 -0.499897 0.866085 3155.67 -384.996)" fill="#0F6DCA" fill-opacity="0.4"/>
<rect width="18.9961" height="1147.92" transform="matrix(0.865966 0.500103 -0.499897 0.866085 3179.12 -356.996)" fill="#0F6DCA" fill-opacity="0.4"/>
<rect width="18.9961" height="1147.92" transform="matrix(0.865966 0.500103 -0.499897 0.866085 3202.56 -328.996)" fill="#0F6DCA" fill-opacity="0.4"/>
<rect width="18.9961" height="1147.92" transform="matrix(0.865966 0.500103 -0.499897 0.866085 3226.01 -300.996)" fill="#0F6DCA" fill-opacity="0.4"/>
<rect width="18.9961" height="1147.92" transform="matrix(0.865966 0.500103 -0.499897 0.866085 3249.46 -272.996)" fill="#0F6DCA" fill-opacity="0.4"/>
</g>
</svg>
