<svg width="240" height="324" viewBox="0 0 240 324" fill="none" xmlns="http://www.w3.org/2000/svg">
<path d="M189.749 158.784C198.057 160.928 205.963 165.35 213.467 172.05C221.24 178.481 227.538 186.655 232.362 196.571C237.454 206.486 240 217.474 240 229.533C240 259.012 229.414 282.194 208.241 299.077C187.337 315.692 156.248 324 114.975 324C95.4104 324 75.8459 321.856 56.2814 317.568C36.7169 313.012 19.2965 307.519 4.0201 301.087V215.464C20.6365 222.7 37.7889 228.596 55.4774 233.151C73.4338 237.707 90.4523 239.985 106.533 239.985C117.789 239.985 125.963 238.243 131.055 234.759C136.415 231.275 139.095 225.514 139.095 217.474C139.095 201.931 129.715 194.159 110.955 194.159H82.01V128.233H104.523C122.211 128.233 131.055 120.73 131.055 105.722C131.055 91.2506 122.211 84.0149 104.523 84.0149C91.6583 84.0149 78.258 87.0968 64.3216 93.2606C50.3853 99.1563 36.8509 106.928 23.7186 116.576L0 30.9529C16.3484 22.3772 34.9749 15.1414 55.8794 9.24566C76.7839 3.08189 97.8224 0 118.995 0C155.98 0 184.389 7.77172 204.221 23.3151C224.054 38.8586 233.97 60.8337 233.97 89.2407C233.97 106.928 229.816 121.534 221.508 133.057C213.199 144.313 202.613 152.888 189.749 158.784Z" fill="#106DC9" fill-opacity="0.15"/>
</svg>
