<svg width="415" height="176" viewBox="0 0 415 176" fill="none" xmlns="http://www.w3.org/2000/svg">
<path d="M381.081 10.9205H415V23.1264H411.146C409.604 42.2703 404.465 57.0459 395.599 68.8663C400.096 72.7208 405.364 76.0614 411.531 79.0165V96.1047C400.482 91.7363 391.231 86.9824 383.65 81.0722C376.198 86.9824 367.333 91.8648 356.669 96.1047V79.0165C362.451 76.1899 367.461 72.9778 371.701 68.9948C364.892 60.1295 360.523 49.2084 358.211 35.4608H377.74C379.025 42.3988 380.952 48.4375 383.65 53.5769C387.89 45.2255 390.588 35.2038 391.873 23.1264H376.07L372.472 32.1202H352.686L351.016 26.8524H353.585L364.249 0.12793H385.578L381.081 10.9205ZM352.3 79.0165V96.1047C339.452 92.2502 328.66 88.0103 320.051 82.357C311.314 88.0103 300.65 92.2502 287.802 96.1047V79.0165C295.511 75.9329 301.678 73.3632 306.689 70.5366C301.421 63.727 297.695 55.5041 295.511 44.9685H289.087L287.288 38.8013H289.986L296.41 23.5118H317.61L309.901 42.0134H314.526C315.811 48.823 317.61 53.9623 320.051 58.0737C322.492 53.9623 324.291 48.823 325.576 42.0134H330.201L322.749 23.5118H343.821L350.373 38.8013H352.943L351.273 44.9685H344.463C342.407 55.5041 338.681 63.727 333.285 70.5366C338.424 73.3632 344.591 75.9329 352.3 79.0165ZM332.386 8.22236H351.915V19.0149H288.958V8.22236H308.359V0.384897H332.386V8.22236Z" fill="white"/>
<path d="M145.571 95.3344V47.5387H268.915V95.3344H244.246L240.392 87.6254H244.888V57.9458H169.726V95.3344H145.571ZM151.353 44.4551V18.7585H263.261V44.4551H237.565V29.1656H176.921V34.048H237.565L232.811 44.4551H151.353ZM175.508 91.0944V61.9288H239.107V91.0944H217.907V72.3359H196.579V80.6873H217.907L211.997 91.0944H175.508ZM220.091 4.62538H271.356V15.5464H143.13V4.62538H194.395V0H220.091V4.62538Z" fill="white"/>
<path d="M0.128483 30.5786H17.8591V19.5291H1.28483V8.09407H17.8591V1.66992H39.8297V8.09407H56.2755V19.5291H39.8297V30.5786H57.5604V41.8851H45.7399V56.4037H56.404V67.8386H45.7399V83.899H126.684L121.802 95.334H25.6966L21.0712 83.899V95.334H0V83.899H3.08359V45.9965H21.0712V83.899H26.339V41.8851H0.128483V30.5786ZM82.3576 69.3804H101.759L97.1331 79.1451H62.1858V43.2984H123.729V79.1451H101.759V53.577H82.3576V69.3804ZM85.8266 40.0863H64.8839L62.6997 31.7349H67.839L72.8498 11.8201H62.6997V1.66992H123.729V40.0863H99.1889L95.8483 31.7349H102.915V11.8201H93.2786L85.8266 40.0863Z" fill="white"/>
<path d="M42.1013 150.529H52.4816C54.3168 152.956 56.5534 155.22 59.1341 157.323C62.5178 154.573 65.2705 151.338 67.6792 147.698H41.4131V140.176H78.0021V147.698C76.2816 153.036 72.898 158.294 68.138 162.823C71.2349 164.279 74.6185 165.412 78.2889 166.22V175.199C71.4069 174.551 65.0985 172.368 59.6503 169.132C54.0874 172.368 47.5495 174.551 40.3809 175.199V166.22C44.338 165.25 47.7789 164.037 50.8758 162.5C47.0907 158.86 44.0512 154.735 42.1013 150.529ZM56.0845 121.977V138.073H41.2411V130.065H43.191V115.749H75.3067V130.065H78.5183L77.6007 138.073H62.5684V121.977H56.0845Z" fill="white"/>
<path d="M1.02897 175.199V152.03H38.2697V175.199H30.3546V159.27H8.90453V168.039H30.3546L27.8217 175.199H1.02897ZM0 119.932H15.4345V115.749H23.8246V119.932H39.2591V127.172H0V119.932ZM0.791514 130.39H38.4676V137.63H0.791514V130.39ZM0.791514 140.929H38.4676V148.169H0.791514V140.929Z" fill="white"/>
<path d="M155.791 175.199H141.77L141.77 137.471H128.87V130.331H141.77L141.77 115.749H155.791L155.791 130.331H168.129V137.471H155.791L155.791 175.199Z" fill="white"/>
<path d="M88.4256 175.199V152.03H126.73V175.199H118.589V159.27H96.5261V168.039H118.589L115.984 175.199H88.4256ZM87.3672 119.932H103.243V115.749H111.872V119.932H127.748V127.172H87.3672V119.932ZM88.1813 130.39H126.934V137.63H88.1813V130.39ZM88.1813 140.929H126.934V148.169H88.1813V140.929Z" fill="white"/>
<path fill-rule="evenodd" clip-rule="evenodd" d="M244.531 115.749H224.785V124.063H234.138V129.26H224.785V134.456H234.138V136.534H224.785V141.731H234.138V143.81H194.645V141.731H205.038V136.534H194.645V134.456H205.038V129.26H194.645V124.063H205.038V115.749H183.213V121.985V124.063V129.26V134.456V136.534V141.731V143.81H176.978V156.281H190.256V150.045H239.144V156.281H250.767V143.81H244.531L244.531 141.731V136.534V134.456V129.26V124.063L244.531 121.985L244.531 115.749ZM192.567 152.124H235.697V157.84L221.699 159.842H250.767V166.155H221.699V174.988H202.014L198.285 167.713H208.277V166.155H176.978V159.842H208.277V158.88L211.274 157.84H192.567V152.124ZM214.683 126.075L211.54 127.871H206.078V122.933L208.248 121.735L206.078 120.613V115.749H211.54L214.683 117.47L217.826 115.749H223.288V120.613L221.118 121.735L223.288 122.933V127.871H217.826L214.683 126.075ZM214.683 139.919L211.54 141.714H206.078V136.776L208.322 135.579L206.078 134.306V129.143H211.54L214.683 130.864L217.826 129.143H223.288V134.306L221.043 135.579L223.288 136.776V141.714H217.826L214.683 139.919Z" fill="white"/>
<path d="M259.616 115.749H293.587V146.035H279.256L277.133 139.304H279.433V123.601H259.616V115.749ZM261.739 125.26H273.275L275.54 130.331H278.513L276.814 132.581H264.924L261.739 125.26ZM294.649 115.749H328.62V149.4H310.644L308.52 142.67H314.465V123.601H294.649V115.749ZM296.701 125.253H308.237L310.502 130.324H313.475L311.776 132.574H299.957L296.701 125.253ZM301.16 134.329H313.475L308.591 142.289H296.277L294.79 140.039H297.834L301.16 134.329ZM266.127 135.391H278.513L273.629 143.351H261.315L259.829 141.1H262.801L266.127 135.391Z" fill="white"/>
<path d="M275.32 168.298H311.214L308.748 175.198H261.859L261.859 151.082H268.366L270.518 147.597H287.097L284.946 151.082H327.127L327.127 175.198H311.214V165.113H275.32V168.298ZM275.32 157.682V161.397H311.214V157.682H275.32Z" fill="white"/>
<path d="M398.689 128.087H415.001V135.378H412.619V175.198H393.438L392.017 165.664H402.358V135.378H398.689V128.087ZM401.306 116.87H414.053V124.722H401.306V116.87Z" fill="white"/>
<path d="M351.585 144.112L357.713 131.933H349.56L357.713 115.749H344.946L340.169 125.283H337.469L339.182 132.334H344.738L340.169 141.468H337.469L339.182 148.518H341.83V175.199H354.14V144.112H351.585Z" fill="white"/>
<path d="M370.94 115.749H382.848V128.088H396.775V135.379H382.848V175.199H370.94V135.379H358.903V128.088H370.94V115.749ZM383.884 137.622H394.756L396.775 158.008H398.668L397.733 164.542H385.825L383.884 137.622ZM360.094 137.622H370.327L367.13 171.851H356.897L356.173 165.317H357.53L360.094 137.622ZM384.443 117.104H397.733L396.677 124.834H384.443V117.104Z" fill="white"/>
</svg>
