<svg width="384" height="99" viewBox="0 0 384 99" fill="none" xmlns="http://www.w3.org/2000/svg">
<g clip-path="url(#clip0_389_4196)">
<path fill-rule="evenodd" clip-rule="evenodd" d="M52.1155 0.998047L76.6124 25.6534L69.4244 32.8879L44.9275 8.23258L52.1155 0.998047ZM25.9258 32.5002C34.3719 32.5002 41.2188 25.4487 41.2188 16.7502C41.2188 8.05176 34.3719 1.00024 25.9258 1.00024C17.4797 1.00024 10.6328 8.05176 10.6328 16.7502C10.6328 25.4487 17.4797 32.5002 25.9258 32.5002ZM63.875 73.0002C72.6339 73.0002 79.7344 65.9487 79.7344 57.2502C79.7344 48.5518 72.6339 41.5002 63.875 41.5002C55.1161 41.5002 48.0156 48.5518 48.0156 57.2502C48.0156 65.9487 55.1161 73.0002 63.875 73.0002ZM40.0859 56.6877C40.0859 65.0756 33.239 71.8752 24.793 71.8752C16.3469 71.8752 9.5 65.0756 9.5 56.6877C9.5 56.4892 9.50384 56.2915 9.51144 56.0947C9.46809 55.3472 8.87534 41.0635 26.4922 35.8752C26.4922 35.8752 24.3843 38.4062 22.7542 41.634C23.4212 41.5458 24.1017 41.5002 24.793 41.5002C33.239 41.5002 40.0859 48.2999 40.0859 56.6877Z" fill="white"/>
</g>
<path d="M9.90761 90.346C9.90761 91.0653 9.81661 91.7197 9.63461 92.309C9.46128 92.8897 9.19261 93.3923 8.82861 93.817C8.47328 94.2417 8.01828 94.5667 7.46361 94.792C6.91761 95.0173 6.27628 95.13 5.53961 95.13C4.79428 95.13 4.14428 95.0173 3.58961 94.792C3.04361 94.558 2.59294 94.233 2.23761 93.817C1.88228 93.3923 1.61361 92.8853 1.43161 92.296C1.25828 91.7067 1.17161 91.0523 1.17161 90.333C1.17161 89.371 1.32761 88.5347 1.63961 87.824C1.96028 87.1133 2.44128 86.563 3.08261 86.173C3.73261 85.7743 4.55594 85.575 5.55261 85.575C6.53194 85.575 7.34228 85.7743 7.98361 86.173C8.62494 86.563 9.10594 87.1177 9.42661 87.837C9.74728 88.5477 9.90761 89.384 9.90761 90.346ZM2.92661 90.346C2.92661 91.048 3.01761 91.6503 3.19961 92.153C3.39028 92.6557 3.67628 93.0413 4.05761 93.31C4.44761 93.5787 4.94161 93.713 5.53961 93.713C6.15494 93.713 6.65328 93.5787 7.03461 93.31C7.41594 93.0413 7.69761 92.6557 7.87961 92.153C8.06161 91.6503 8.15261 91.048 8.15261 90.346C8.15261 89.2973 7.94894 88.474 7.54161 87.876C7.13428 87.278 6.47128 86.979 5.55261 86.979C4.94594 86.979 4.44761 87.1133 4.05761 87.382C3.67628 87.6507 3.39028 88.0363 3.19961 88.539C3.01761 89.0417 2.92661 89.644 2.92661 90.346ZM15.1991 85.718C16.0051 85.718 16.6811 85.796 17.2271 85.952C17.7731 86.0993 18.1805 86.342 18.4491 86.68C18.7265 87.018 18.8651 87.473 18.8651 88.045C18.8651 88.4003 18.8045 88.721 18.6831 89.007C18.5618 89.293 18.3841 89.527 18.1501 89.709C17.9248 89.891 17.6431 90.0123 17.3051 90.073V90.138C17.6518 90.1987 17.9595 90.3113 18.2281 90.476C18.5055 90.632 18.7221 90.8617 18.8781 91.165C19.0428 91.4597 19.1251 91.8497 19.1251 92.335C19.1251 92.8983 18.9908 93.3793 18.7221 93.778C18.4535 94.1767 18.0678 94.48 17.5651 94.688C17.0711 94.896 16.4818 95 15.7971 95H12.4041V85.718H15.1991ZM15.4201 89.501C16.0788 89.501 16.5295 89.397 16.7721 89.189C17.0235 88.981 17.1491 88.6733 17.1491 88.266C17.1491 87.85 17.0018 87.551 16.7071 87.369C16.4125 87.187 15.9401 87.096 15.2901 87.096H14.0681V89.501H15.4201ZM14.0681 90.84V93.609H15.5761C16.2521 93.609 16.7201 93.479 16.9801 93.219C17.2488 92.959 17.3831 92.6123 17.3831 92.179C17.3831 91.9017 17.3268 91.6633 17.2141 91.464C17.1015 91.2647 16.9065 91.113 16.6291 91.009C16.3518 90.8963 15.9748 90.84 15.4981 90.84H14.0681ZM29.8509 90.346C29.8509 91.0653 29.7599 91.7197 29.5779 92.309C29.4046 92.8897 29.1359 93.3923 28.7719 93.817C28.4166 94.2417 27.9616 94.5667 27.4069 94.792C26.8609 95.0173 26.2196 95.13 25.4829 95.13C24.7376 95.13 24.0876 95.0173 23.5329 94.792C22.9869 94.558 22.5363 94.233 22.1809 93.817C21.8256 93.3923 21.5569 92.8853 21.3749 92.296C21.2016 91.7067 21.1149 91.0523 21.1149 90.333C21.1149 89.371 21.2709 88.5347 21.5829 87.824C21.9036 87.1133 22.3846 86.563 23.0259 86.173C23.6759 85.7743 24.4993 85.575 25.4959 85.575C26.4753 85.575 27.2856 85.7743 27.9269 86.173C28.5683 86.563 29.0493 87.1177 29.3699 87.837C29.6906 88.5477 29.8509 89.384 29.8509 90.346ZM22.8699 90.346C22.8699 91.048 22.9609 91.6503 23.1429 92.153C23.3336 92.6557 23.6196 93.0413 24.0009 93.31C24.3909 93.5787 24.8849 93.713 25.4829 93.713C26.0983 93.713 26.5966 93.5787 26.9779 93.31C27.3593 93.0413 27.6409 92.6557 27.8229 92.153C28.0049 91.6503 28.0959 91.048 28.0959 90.346C28.0959 89.2973 27.8923 88.474 27.4849 87.876C27.0776 87.278 26.4146 86.979 25.4959 86.979C24.8893 86.979 24.3909 87.1133 24.0009 87.382C23.6196 87.6507 23.3336 88.0363 23.1429 88.539C22.9609 89.0417 22.8699 89.644 22.8699 90.346ZM39.4424 84.626H47.2554V96.053H45.7734V85.978H40.8594V96.157H39.4424V84.626ZM41.1974 87.577H45.4744V88.708H41.1974V87.577ZM40.1704 94.038H46.4884V95.403H40.1704V94.038ZM42.6924 86.251H43.9014V90.424H42.6924V86.251ZM42.6534 90.918V92.27H43.9794V90.918H42.6534ZM41.5354 89.839H45.1624V93.349H41.5354V89.839ZM37.8304 84.002L39.2604 84.431C38.5064 86.68 37.2584 89.085 35.9064 90.619C35.7894 90.242 35.3994 89.332 35.1524 88.929C36.2444 87.733 37.2454 85.861 37.8304 84.002ZM36.7644 87.564L38.2334 86.095L38.2464 86.108V96.183H36.7644V87.564ZM55.9914 85.549H57.5124V92.907H55.9914V85.549ZM59.0594 84.223H60.6064V94.285C60.6064 95.195 60.4244 95.624 59.8914 95.884C59.3454 96.131 58.4874 96.183 57.2914 96.183C57.2134 95.741 56.9664 95.013 56.7454 94.571C57.6034 94.61 58.4354 94.61 58.7084 94.597C58.9554 94.597 59.0594 94.519 59.0594 94.272V84.223ZM51.3894 90.177H54.3794V91.542H51.3894V90.177ZM53.6904 90.177H55.1334C55.1334 90.177 55.1204 90.567 55.1074 90.749C54.9774 93.895 54.8474 95.143 54.4834 95.585C54.2234 95.923 53.9244 96.027 53.5084 96.092C53.1574 96.144 52.5594 96.144 51.9354 96.131C51.9094 95.715 51.7534 95.143 51.5194 94.779C52.0654 94.831 52.5724 94.831 52.8064 94.831C53.0014 94.831 53.1314 94.805 53.2484 94.675C53.4694 94.415 53.5864 93.31 53.6904 90.411V90.177ZM51.0514 85.939V87.72H53.5084V85.939H51.0514ZM49.6474 84.574H55.0034V89.111H49.6474V84.574ZM50.9604 88.682H52.4944C52.3514 91.438 52.0134 94.389 49.9074 96.183C49.6734 95.793 49.2314 95.299 48.8544 95.052C50.6874 93.544 50.8694 90.97 50.9604 88.682ZM67.7044 83.976H69.2514V87.512C69.2514 87.993 69.3814 88.058 70.1484 88.058C70.4994 88.058 71.9814 88.058 72.4104 88.058C73.0604 88.058 73.1644 87.85 73.2554 86.563C73.5804 86.797 74.2434 87.031 74.6594 87.122C74.4644 88.968 74.0094 89.449 72.5274 89.449C72.1374 89.449 70.3694 89.449 69.9924 89.449C68.1724 89.449 67.7044 89.007 67.7044 87.512V83.976ZM72.7354 84.522L73.8924 85.653C72.4494 86.251 70.5124 86.719 68.8484 87.031C68.7704 86.693 68.5494 86.173 68.3804 85.874C69.9404 85.549 71.6824 85.029 72.7354 84.522ZM67.6784 90.203H74.0224V96.105H72.4754V91.49H69.1474V96.17H67.6784V90.203ZM68.4584 92.296H73.0084V93.505H68.4584V92.296ZM68.3934 94.363H73.0084V95.598H68.3934V94.363ZM62.3484 90.593C63.5574 90.333 65.3644 89.891 67.0544 89.449L67.2364 90.879C65.6894 91.321 64.0254 91.75 62.7254 92.088L62.3484 90.593ZM62.5434 86.407H67.0284V87.863H62.5434V86.407ZM64.1684 83.963H65.7024V94.493C65.7024 95.247 65.5724 95.637 65.1304 95.871C64.6884 96.105 64.0644 96.157 63.1414 96.144C63.1024 95.754 62.8944 95.117 62.7124 94.727C63.2194 94.74 63.7524 94.74 63.9214 94.74C64.1034 94.727 64.1684 94.675 64.1684 94.493V83.963ZM76.1414 92.465H88.0494V93.648H76.1414V92.465ZM79.5084 85.029H88.0364V86.082H79.5084V85.029ZM83.7204 91.776H85.2284V94.688C85.2284 95.39 85.0984 95.754 84.5654 95.962C84.0584 96.157 83.3564 96.17 82.3814 96.17C82.3164 95.767 82.0954 95.208 81.9004 94.831C82.5374 94.87 83.2654 94.857 83.4604 94.844C83.6684 94.844 83.7204 94.805 83.7204 94.649V91.776ZM78.3514 94.22L79.4044 93.349C80.0284 93.752 80.8214 94.363 81.2114 94.805L80.0674 95.767C79.7424 95.325 78.9624 94.662 78.3514 94.22ZM76.5054 84.951L77.5194 84.106C78.1694 84.548 78.9754 85.211 79.3394 85.705L78.2734 86.654C77.9354 86.16 77.1554 85.445 76.5054 84.951ZM81.0034 84.184L82.2774 83.95C82.5504 84.327 82.8364 84.86 82.9534 85.224L81.6144 85.497C81.5104 85.146 81.2504 84.587 81.0034 84.184ZM81.9784 88.227V88.63H85.4624V88.227H81.9784ZM81.9784 89.293V89.696H85.4624V89.293H81.9784ZM81.9784 87.174V87.564H85.4624V87.174H81.9784ZM80.5354 86.485H86.9704V90.385H80.5354V86.485ZM79.1184 87.187V90.242H77.7014V88.37H76.1934V87.187H79.1184ZM82.9664 85.458L84.5134 85.562C84.3184 86.056 84.1364 86.472 83.9934 86.797L82.7584 86.641C82.8494 86.264 82.9404 85.783 82.9664 85.458ZM85.2154 83.924L86.6844 84.171C86.3724 84.678 86.0604 85.094 85.8134 85.419L84.5784 85.172C84.7994 84.795 85.0724 84.288 85.2154 83.924ZM79.1184 89.722C79.5344 90.437 80.3274 90.736 81.4324 90.775C83.0184 90.84 86.4244 90.801 88.2314 90.671C88.1014 90.957 87.9194 91.516 87.8544 91.867C86.1904 91.945 83.0444 91.958 81.4454 91.906C80.1194 91.854 79.2484 91.555 78.5984 90.736C77.9874 91.165 77.3374 91.568 76.6224 92.023L76.0764 90.788C76.6874 90.502 77.4284 90.112 78.0784 89.722H79.1184Z" fill="white"/>
<path fill-rule="evenodd" clip-rule="evenodd" d="M115 52.1218L107.121 60.0008L105 57.8796L112.879 50.0004L105 42.1213L107.121 40L115 47.8791L122.879 40L125 42.1213L117.121 50.0004L125 57.8796L122.879 60.0008L115 52.1218Z" fill="white"/>
<path d="M173.39 1C169.404 0.998834 165.508 2.17715 162.193 4.38595C158.879 6.59475 156.295 9.73483 154.769 13.4091C153.242 17.0834 152.842 21.1268 153.618 25.0281C154.395 28.9294 156.313 32.5133 159.13 35.3266C161.948 38.1399 165.538 40.0563 169.447 40.8334C173.355 41.6105 177.407 41.2135 181.09 39.6924C184.773 38.1714 187.921 35.5947 190.136 32.2882C192.351 28.9817 193.534 25.0939 193.535 21.1164C193.536 18.4754 193.016 15.8602 192.004 13.42C190.992 10.9798 189.508 8.76239 187.637 6.8944C185.767 5.02642 183.546 3.54444 181.101 2.53308C178.656 1.52172 176.036 1.00078 173.39 1ZM173.39 30.4458C171.539 30.4458 169.729 29.898 168.19 28.8715C166.65 27.8451 165.45 26.3862 164.742 24.6793C164.034 22.9724 163.848 21.0942 164.209 19.2822C164.571 17.4702 165.462 15.8057 166.771 14.4993C168.08 13.193 169.748 12.3033 171.564 11.9429C173.379 11.5824 175.261 11.7674 176.972 12.4744C178.682 13.1814 180.144 14.3787 181.173 15.9149C182.201 17.451 182.75 19.2571 182.75 21.1046C182.751 22.3315 182.509 23.5466 182.039 24.6803C181.569 25.8139 180.88 26.844 180.01 27.7116C179.141 28.5791 178.109 29.2672 176.973 29.7364C175.837 30.2055 174.619 30.4466 173.39 30.4458V30.4458Z" fill="white" stroke="#0071E2"/>
<path d="M226.24 33.5866V34.7078C226.101 36.4338 225.314 38.0439 224.037 39.2157C222.76 40.3876 221.086 41.0348 219.351 41.0278C217.702 41.0326 216.106 40.4439 214.857 39.3696L210.718 35.829C209.72 33.87 209.308 31.6662 209.529 29.4798C209.75 27.2935 210.596 25.2165 211.966 23.496C212.173 23.2363 212.391 22.9826 212.622 22.7407C213.17 22.1628 213.776 21.6428 214.431 21.1887L214.638 21.0176L215.23 21.5487L223.821 28.9072C224.513 29.4901 225.082 30.2035 225.497 31.0065C225.912 31.8095 226.165 32.6862 226.24 33.5866Z" fill="white" stroke="#0071E2" stroke-linejoin="round"/>
<path d="M226.239 7.34861V8.4639C226.102 10.2744 225.251 11.9568 223.874 13.1434L214.686 21.0153L214.479 21.1864C213.814 21.637 213.197 22.1551 212.64 22.7324C212.409 22.9744 212.19 23.2281 211.983 23.4878C210.614 25.2083 209.768 27.2853 209.547 29.4716C209.325 31.658 209.738 33.8617 210.736 35.8208L199.808 26.4619L199.566 26.2553C199.471 26.1668 199.371 26.0842 199.276 25.9898L199.146 25.86C198.826 25.5368 198.539 25.183 198.289 24.8037L198.218 24.6857C198.147 24.5794 198.088 24.4673 198.023 24.3552C197.958 24.2431 197.964 24.249 197.934 24.1959L197.863 24.0425V24.0129L197.798 23.8713C197.781 23.825 197.761 23.7797 197.739 23.7356C197.739 23.6648 197.686 23.5999 197.656 23.5291C197.643 23.483 197.627 23.4376 197.609 23.3933C197.609 23.3284 197.567 23.2694 197.544 23.1986C197.52 23.1278 197.508 23.0865 197.485 23.0275L197.455 22.9036L197.42 22.7796L197.384 22.6321C197.355 22.5259 197.337 22.4256 197.313 22.3194C197.29 22.2132 197.254 21.9594 197.236 21.7824V21.5995C197.236 21.5463 197.236 21.4873 197.236 21.4283C197.236 21.3693 197.236 21.3103 197.236 21.2513C197.236 21.1923 197.236 21.1274 197.236 21.0684C197.236 21.0035 197.236 20.9444 197.236 20.8854C197.236 20.8264 197.236 20.7674 197.236 20.7084C197.236 20.6494 197.236 20.5904 197.236 20.5314C197.236 20.2835 197.29 20.0416 197.331 19.8115C197.349 19.7041 197.373 19.5977 197.402 19.4928C197.413 19.4371 197.427 19.3819 197.443 19.3276C197.443 19.2804 197.443 19.2391 197.443 19.1978C197.491 19.0384 197.544 18.885 197.597 18.7316C197.613 18.6932 197.627 18.6538 197.638 18.6136C197.733 18.3775 197.839 18.1415 197.952 17.9114L198.04 17.752C198.106 17.6399 198.165 17.5278 198.236 17.4216L198.307 17.3036C198.557 16.9261 198.844 16.5743 199.164 16.2532L199.294 16.1175L199.584 15.8578L199.826 15.6454L214.857 2.66915C216.249 1.48088 218.056 0.891327 219.882 1.02957C221.708 1.16782 223.405 2.0226 224.602 3.40677C225.565 4.50666 226.14 5.89129 226.239 7.34861Z" fill="white" stroke="#0071E2"/>
<path d="M219.727 37.8401C219.727 38.0388 219.565 38.2016 219.363 38.2016C219.162 38.2016 219 38.0388 219 37.8401C219 37.6413 219.162 37.4785 219.363 37.4785C219.565 37.4785 219.727 37.6413 219.727 37.8401Z" fill="white" stroke="#0071E2"/>
<path d="M216.084 34.2014C216.084 34.4001 215.922 34.5629 215.721 34.5629C215.519 34.5629 215.357 34.4001 215.357 34.2014C215.357 34.0027 215.519 33.8398 215.721 33.8398C215.922 33.8398 216.084 34.0027 216.084 34.2014Z" fill="white" stroke="#0071E2"/>
<path d="M223.434 34.135C223.434 34.3337 223.272 34.4965 223.07 34.4965C222.869 34.4965 222.707 34.3337 222.707 34.135C222.707 33.9363 222.869 33.7734 223.07 33.7734C223.272 33.7734 223.434 33.9363 223.434 34.135Z" fill="white" stroke="#0071E2"/>
<path d="M219.791 30.51C219.791 30.7087 219.629 30.8715 219.428 30.8715C219.226 30.8715 219.064 30.7087 219.064 30.51C219.064 30.3113 219.226 30.1484 219.428 30.1484C219.629 30.1484 219.791 30.3113 219.791 30.51Z" fill="white" stroke="#0071E2"/>
<path d="M219.727 11.6213C219.727 11.82 219.565 11.9828 219.363 11.9828C219.162 11.9828 219 11.82 219 11.6213C219 11.4226 219.162 11.2598 219.363 11.2598C219.565 11.2598 219.727 11.4226 219.727 11.6213Z" fill="white" stroke="#0071E2"/>
<path d="M216.084 7.98263C216.084 8.18135 215.922 8.34418 215.721 8.34418C215.519 8.34418 215.357 8.18135 215.357 7.98263C215.357 7.78392 215.519 7.62109 215.721 7.62109C215.922 7.62109 216.084 7.78391 216.084 7.98263Z" fill="white" stroke="#0071E2"/>
<path d="M223.434 7.92013C223.434 8.11885 223.272 8.28168 223.07 8.28168C222.869 8.28168 222.707 8.11885 222.707 7.92013C222.707 7.72141 222.869 7.55859 223.07 7.55859C223.272 7.55859 223.434 7.72142 223.434 7.92013Z" fill="white" stroke="#0071E2"/>
<path d="M219.791 4.28537C219.791 4.48408 219.629 4.64691 219.428 4.64691C219.226 4.64691 219.064 4.48409 219.064 4.28537C219.064 4.08665 219.226 3.92383 219.428 3.92383C219.629 3.92383 219.791 4.08666 219.791 4.28537Z" fill="white" stroke="#0071E2"/>
<path d="M238.235 72.6331C240.59 72.6331 242.499 70.6372 242.499 68.175C242.499 65.7128 240.59 63.7168 238.235 63.7168C235.88 63.7168 233.971 65.7128 233.971 68.175C233.971 70.6372 235.88 72.6331 238.235 72.6331Z" fill="white" stroke="#0071E2"/>
<path d="M151.647 49.6348H160.511C162.008 49.6366 163.443 50.2264 164.501 51.2745C165.558 52.3226 166.152 53.7433 166.151 55.2242V57.4233C166.151 58.1568 166.005 58.8832 165.721 59.5609C165.437 60.2387 165.021 60.8545 164.497 61.3732C163.973 61.8919 163.35 62.3034 162.665 62.5841C161.98 62.8648 161.246 63.0093 160.504 63.0093H152.045C151.37 63.0093 150.723 62.744 150.245 62.2717C149.768 61.7995 149.5 61.159 149.5 60.4912V51.7626C149.5 51.1989 149.726 50.6581 150.129 50.2592C150.531 49.8602 151.078 49.6357 151.647 49.6348V49.6348Z" fill="white" stroke="#0071E2"/>
<path d="M151.9 57.6367H162.692C164.364 57.6367 165.966 58.2969 167.148 59.4719C168.33 60.647 168.993 62.2407 168.993 63.9025V66.3667C168.993 68.0284 168.33 69.6221 167.148 70.7972C165.966 71.9723 164.364 72.6324 162.692 72.6324H152.34C151.967 72.6324 151.598 72.5594 151.253 72.4174C150.909 72.2755 150.595 72.0675 150.332 71.8053C150.068 71.543 149.859 71.2317 149.716 70.8891C149.573 70.5465 149.5 70.1792 149.5 69.8084V60.0127C149.5 59.3825 149.752 58.7782 150.2 58.3326C150.648 57.887 151.256 57.6367 151.889 57.6367H151.9Z" fill="white" stroke="#0071E2"/>
<path d="M205.102 50.1262L196.331 65.3578C195.316 67.1191 195.925 69.3674 197.69 70.3797L199.064 71.1678C200.829 72.18 203.082 71.5728 204.096 69.8115L212.868 54.5799C213.882 52.8186 213.273 50.5702 211.509 49.558L210.134 48.7699C208.37 47.7577 206.117 48.3649 205.102 50.1262Z" fill="white" stroke="#0071E2"/>
<path d="M228.539 71.5749L228.421 71.6423C227.418 72.2218 226.225 72.3785 225.106 72.078C223.987 71.7774 223.033 71.0442 222.454 70.0395L219.616 65.1165C219.486 64.8907 219.299 64.7031 219.074 64.5727C218.848 64.4422 218.592 64.3736 218.332 64.3736C218.072 64.3736 217.816 64.4422 217.591 64.5727C217.365 64.7031 217.178 64.8907 217.048 65.1165L214.22 70.0226C213.64 71.0268 212.686 71.7593 211.567 72.0592C210.448 72.3591 209.256 72.2019 208.253 71.6221L208.135 71.5581C207.638 71.2707 207.202 70.8881 206.853 70.432C206.503 69.9759 206.247 69.4553 206.098 68.9C205.95 68.3447 205.912 67.7654 205.987 67.1954C206.062 66.6254 206.248 66.0757 206.535 65.5779L214.217 52.2536L214.536 51.698C214.71 51.3983 214.919 51.1203 215.158 50.8697C215.179 50.8461 215.202 50.8259 215.222 50.8057C215.473 50.5659 215.752 50.3568 216.053 50.1828L216.17 50.1188C216.786 49.7627 217.478 49.5621 218.188 49.5345C218.898 49.507 219.604 49.6532 220.245 49.9605L220.383 50.0279L220.507 50.0986L220.601 50.1525L220.628 50.1693C221.254 50.5494 221.774 51.0824 222.138 51.7182L222.504 52.358L230.139 65.6014C230.717 66.6064 230.873 67.7998 230.573 68.9197C230.273 70.0396 229.541 70.9946 228.539 71.5749V71.5749Z" fill="white" stroke="#0071E2"/>
<path d="M182.598 49.5313C180.309 49.5313 178.071 50.2087 176.167 51.4779C174.264 52.7471 172.781 54.5511 171.904 56.6617C171.028 58.7723 170.799 61.0948 171.246 63.3354C171.692 65.576 172.795 67.6342 174.413 69.2496C176.032 70.8649 178.094 71.965 180.34 72.4107C182.585 72.8564 184.912 72.6277 187.027 71.7534C189.142 70.8792 190.95 69.3987 192.221 67.4992C193.493 65.5997 194.172 63.3665 194.172 61.082C194.172 59.565 193.873 58.0628 193.292 56.6612C192.71 55.2596 191.858 53.9861 190.783 52.9134C189.708 51.8407 188.432 50.9899 187.027 50.4096C185.623 49.8293 184.118 49.5308 182.598 49.5313ZM182.598 66.4438C181.535 66.4425 180.496 66.1267 179.613 65.5363C178.729 64.946 178.041 64.1076 177.636 63.1271C177.23 62.1466 177.124 61.068 177.332 60.0277C177.541 58.9874 178.053 58.032 178.805 57.2824C179.557 56.5327 180.515 56.0224 181.558 55.8159C182.601 55.6095 183.681 55.7161 184.663 56.1224C185.645 56.5287 186.485 57.2163 187.075 58.0985C187.666 58.9807 187.981 60.0177 187.981 61.0786C187.982 61.784 187.843 62.4826 187.573 63.1344C187.302 63.7862 186.906 64.3783 186.406 64.8768C185.905 65.3753 185.312 65.7703 184.658 66.0392C184.005 66.3081 183.305 66.4456 182.598 66.4438V66.4438Z" fill="white" stroke="#0071E2"/>
<path d="M150.642 90.346C150.642 91.0653 150.551 91.7197 150.369 92.309C150.196 92.8897 149.927 93.3923 149.563 93.817C149.208 94.2417 148.753 94.5667 148.198 94.792C147.652 95.0173 147.011 95.13 146.274 95.13C145.529 95.13 144.879 95.0173 144.324 94.792C143.778 94.558 143.328 94.233 142.972 93.817C142.617 93.3923 142.348 92.8853 142.166 92.296C141.993 91.7067 141.906 91.0523 141.906 90.333C141.906 89.371 142.062 88.5347 142.374 87.824C142.695 87.1133 143.176 86.563 143.817 86.173C144.467 85.7743 145.291 85.575 146.287 85.575C147.267 85.575 148.077 85.7743 148.718 86.173C149.36 86.563 149.841 87.1177 150.161 87.837C150.482 88.5477 150.642 89.384 150.642 90.346ZM143.661 90.346C143.661 91.048 143.752 91.6503 143.934 92.153C144.125 92.6557 144.411 93.0413 144.792 93.31C145.182 93.5787 145.676 93.713 146.274 93.713C146.89 93.713 147.388 93.5787 147.769 93.31C148.151 93.0413 148.432 92.6557 148.614 92.153C148.796 91.6503 148.887 91.048 148.887 90.346C148.887 89.2973 148.684 88.474 148.276 87.876C147.869 87.278 147.206 86.979 146.287 86.979C145.681 86.979 145.182 87.1133 144.792 87.382C144.411 87.6507 144.125 88.0363 143.934 88.539C143.752 89.0417 143.661 89.644 143.661 90.346ZM160.341 95H158.43L155.674 90.892L154.803 91.581V95H153.139V85.718H154.803V90.086C154.976 89.8693 155.154 89.6483 155.336 89.423C155.518 89.1977 155.7 88.9723 155.882 88.747L158.391 85.718H160.276L156.87 89.8L160.341 95ZM164.871 85.718C165.677 85.718 166.353 85.796 166.899 85.952C167.445 86.0993 167.852 86.342 168.121 86.68C168.398 87.018 168.537 87.473 168.537 88.045C168.537 88.4003 168.476 88.721 168.355 89.007C168.234 89.293 168.056 89.527 167.822 89.709C167.597 89.891 167.315 90.0123 166.977 90.073V90.138C167.324 90.1987 167.631 90.3113 167.9 90.476C168.177 90.632 168.394 90.8617 168.55 91.165C168.715 91.4597 168.797 91.8497 168.797 92.335C168.797 92.8983 168.663 93.3793 168.394 93.778C168.125 94.1767 167.74 94.48 167.237 94.688C166.743 94.896 166.154 95 165.469 95H162.076V85.718H164.871ZM165.092 89.501C165.751 89.501 166.201 89.397 166.444 89.189C166.695 88.981 166.821 88.6733 166.821 88.266C166.821 87.85 166.674 87.551 166.379 87.369C166.084 87.187 165.612 87.096 164.962 87.096H163.74V89.501H165.092ZM163.74 90.84V93.609H165.248C165.924 93.609 166.392 93.479 166.652 93.219C166.921 92.959 167.055 92.6123 167.055 92.179C167.055 91.9017 166.999 91.6633 166.886 91.464C166.773 91.2647 166.578 91.113 166.301 91.009C166.024 90.8963 165.647 90.84 165.17 90.84H163.74ZM179.523 90.346C179.523 91.0653 179.432 91.7197 179.25 92.309C179.076 92.8897 178.808 93.3923 178.444 93.817C178.088 94.2417 177.633 94.5667 177.079 94.792C176.533 95.0173 175.891 95.13 175.155 95.13C174.409 95.13 173.759 95.0173 173.205 94.792C172.659 94.558 172.208 94.233 171.853 93.817C171.497 93.3923 171.229 92.8853 171.047 92.296C170.873 91.7067 170.787 91.0523 170.787 90.333C170.787 89.371 170.943 88.5347 171.255 87.824C171.575 87.1133 172.056 86.563 172.698 86.173C173.348 85.7743 174.171 85.575 175.168 85.575C176.147 85.575 176.957 85.7743 177.599 86.173C178.24 86.563 178.721 87.1177 179.042 87.837C179.362 88.5477 179.523 89.384 179.523 90.346ZM172.542 90.346C172.542 91.048 172.633 91.6503 172.815 92.153C173.005 92.6557 173.291 93.0413 173.673 93.31C174.063 93.5787 174.557 93.713 175.155 93.713C175.77 93.713 176.268 93.5787 176.65 93.31C177.031 93.0413 177.313 92.6557 177.495 92.153C177.677 91.6503 177.768 91.048 177.768 90.346C177.768 89.2973 177.564 88.474 177.157 87.876C176.749 87.278 176.086 86.979 175.168 86.979C174.561 86.979 174.063 87.1133 173.673 87.382C173.291 87.6507 173.005 88.0363 172.815 88.539C172.633 89.0417 172.542 89.644 172.542 90.346ZM186.01 95L183.462 87.395H183.41C183.419 87.5683 183.432 87.8153 183.449 88.136C183.467 88.448 183.48 88.7903 183.488 89.163C183.506 89.527 183.514 89.8693 183.514 90.19V95H182.019V85.718H184.333L186.777 93.011H186.829L189.377 85.718H191.691V95H190.105V90.112C190.105 89.8173 190.11 89.4967 190.118 89.15C190.136 88.7947 190.149 88.461 190.157 88.149C190.175 87.8283 190.188 87.5813 190.196 87.408H190.144L187.492 95H186.01ZM208.676 90.437L209.924 91.373C209.157 92.01 208.338 92.699 207.701 93.128L206.778 92.374C207.376 91.88 208.208 91.048 208.676 90.437ZM205.491 83.937L207.259 84.21C206.882 84.925 206.453 85.64 206.115 86.108L204.789 85.809C205.049 85.263 205.348 84.509 205.491 83.937ZM204.399 88.253V88.929H207.883V88.253H204.399ZM204.399 86.446V87.135H207.883V86.446H204.399ZM202.995 85.25H209.365V90.138H202.995V85.25ZM205.504 89.605H206.895V94.688C206.895 95.351 206.804 95.715 206.388 95.936C205.959 96.144 205.4 96.17 204.607 96.17C204.568 95.78 204.399 95.221 204.23 94.831C204.685 94.844 205.166 94.844 205.309 94.844C205.465 94.844 205.504 94.805 205.504 94.675V89.605ZM202.657 91.009H204.529V92.283H202.657V91.009ZM204.23 91.009H204.503L204.737 90.97L205.569 91.308C205.114 93.414 204.126 94.87 202.865 95.65C202.67 95.351 202.189 94.818 201.903 94.61C203.047 93.973 203.905 92.79 204.23 91.217V91.009ZM206.765 89.657C207.142 91.373 208.052 93.466 210.119 94.376C209.833 94.662 209.378 95.247 209.183 95.637C207.207 94.532 206.284 92.166 205.92 90.489L206.765 89.657ZM199.628 83.976L200.98 84.444C200.447 85.458 199.849 86.615 199.355 87.343L198.315 86.914C198.77 86.134 199.329 84.873 199.628 83.976ZM201.097 85.51L202.358 86.095C201.409 87.551 200.148 89.358 199.147 90.476L198.25 89.969C199.225 88.799 200.408 86.901 201.097 85.51ZM197.613 87.005L198.38 85.965C199.056 86.576 199.849 87.421 200.161 88.032L199.316 89.228C199.03 88.591 198.263 87.668 197.613 87.005ZM200.655 88.63L201.734 88.175C202.254 89.059 202.748 90.203 202.904 90.944L201.734 91.477C201.591 90.723 201.136 89.527 200.655 88.63ZM197.574 89.67C198.744 89.605 200.421 89.514 202.046 89.41L202.059 90.684C200.538 90.801 198.952 90.918 197.743 91.009L197.574 89.67ZM201.006 91.893L202.098 91.555C202.397 92.27 202.657 93.18 202.735 93.791L201.578 94.155C201.539 93.557 201.292 92.608 201.006 91.893ZM198.133 91.607L199.381 91.815C199.251 93.063 198.978 94.35 198.601 95.182C198.341 95.013 197.769 94.766 197.47 94.636C197.834 93.869 198.029 92.699 198.133 91.607ZM199.563 90.359H200.902V96.17H199.563V90.359ZM216.944 87.863H222.352V89.436H216.944V87.863ZM211.38 93.96H223.262V95.533H211.38V93.96ZM216.06 84.119H217.737V94.831H216.06V84.119ZM225.16 92.543H236.535V93.778H225.16V92.543ZM227.461 90.32H232.999V91.425H227.461V90.32ZM230.061 91.945H231.595V94.727C231.595 95.429 231.452 95.78 230.906 95.975C230.386 96.17 229.658 96.183 228.67 96.183C228.592 95.767 228.384 95.221 228.189 94.87C228.813 94.896 229.593 94.883 229.788 94.883C229.996 94.87 230.061 94.831 230.061 94.675V91.945ZM232.635 90.32H233.012L233.337 90.242L234.208 91.035C233.35 91.724 232.193 92.465 231.153 92.972C230.984 92.738 230.633 92.361 230.451 92.179C231.231 91.789 232.193 91.061 232.635 90.58V90.32ZM225.147 88.643H236.561V91.321H235.014V89.774H226.629V91.321H225.147V88.643ZM225.901 84.535L227.721 84.899C227.695 85.003 227.591 85.068 227.383 85.107L227.617 89.137H226.174L225.901 84.535ZM234.39 84.392H235.872C235.794 85.991 235.664 87.967 235.521 89.202H234.026C234.195 87.928 234.338 85.952 234.39 84.392ZM232.557 84.392H234.962V85.367H232.557V84.392ZM228.527 84.028L229.255 84.86C228.54 85.211 227.552 85.484 226.863 85.653L226.239 84.847C226.928 84.691 227.929 84.288 228.527 84.028ZM226.72 85.809H229.164V86.771H226.72V85.809ZM226.759 87.226H229.19V88.188H226.759V87.226ZM232.609 85.809H234.806V86.771H232.609V85.809ZM232.57 87.226H234.767V88.188H232.57V87.226ZM231.283 84.041L232.284 84.34C231.699 85.133 230.724 85.874 229.84 86.342C229.671 86.147 229.268 85.809 229.021 85.64C229.918 85.25 230.789 84.678 231.283 84.041ZM229.346 84.717L230.048 84.132C230.815 84.496 231.777 85.107 232.258 85.562L231.517 86.212C231.062 85.77 230.113 85.133 229.346 84.717ZM231.335 86.225L232.362 86.524C231.764 87.369 230.75 88.149 229.84 88.63C229.658 88.448 229.255 88.097 229.008 87.928C229.931 87.512 230.841 86.901 231.335 86.225ZM229.385 86.94L230.1 86.342C230.88 86.732 231.881 87.369 232.388 87.837L231.608 88.5C231.153 88.032 230.178 87.369 229.385 86.94ZM240.071 90.697H248.82V96.196H247.195V91.88H241.618V96.196H240.071V90.697ZM240.851 92.621H247.611V93.791H240.851V92.621ZM240.929 94.558H247.676V95.728H240.929V94.558ZM243.529 89.514L245.206 89.748C244.868 90.411 244.491 91.061 244.192 91.477L242.918 91.204C243.152 90.697 243.412 90.008 243.529 89.514ZM238.654 84.548H242.853V85.744H238.654V84.548ZM242.502 84.548H243.906V88.851C243.906 89.462 243.776 89.761 243.373 89.943C242.957 90.125 242.385 90.125 241.592 90.125C241.54 89.787 241.358 89.332 241.202 89.02C241.657 89.033 242.151 89.033 242.294 89.033C242.45 89.033 242.502 88.981 242.502 88.851V84.548ZM244.595 84.548H249.08V85.744H244.595V84.548ZM248.352 84.548H249.808V88.812C249.808 89.449 249.678 89.761 249.236 89.969C248.794 90.151 248.17 90.164 247.312 90.151C247.247 89.8 247.078 89.306 246.909 88.981C247.39 89.007 247.975 89.007 248.131 88.994C248.3 88.981 248.352 88.955 248.352 88.799V84.548ZM244.218 88.37C245.141 88.097 246.493 87.655 247.806 87.187L248.04 88.305C246.922 88.734 245.713 89.189 244.738 89.527L244.218 88.37ZM244.829 86.511L245.57 85.601C246.155 85.874 246.935 86.329 247.312 86.68L246.532 87.694C246.181 87.33 245.414 86.836 244.829 86.511ZM238.303 88.591C239.174 88.344 240.448 87.902 241.709 87.46L241.93 88.578C240.877 89.033 239.772 89.501 238.862 89.865L238.303 88.591ZM238.992 86.524L239.746 85.627C240.318 85.913 241.072 86.368 241.423 86.719L240.643 87.707C240.305 87.356 239.577 86.849 238.992 86.524Z" fill="white"/>
<path fill-rule="evenodd" clip-rule="evenodd" d="M277 52.1218L269.121 60.0008L267 57.8796L274.879 50.0004L267 42.1213L269.121 40L277 47.8791L284.879 40L287 42.1213L279.121 50.0004L287 57.8796L284.879 60.0008L277 52.1218Z" fill="white"/>
<path opacity="0.3" d="M327.555 58.7096C328.336 58.1282 329.116 57.5462 329.897 56.9648C329.116 57.5462 328.336 58.1282 327.555 58.7096Z" fill="white"/>
<path opacity="0.3" d="M325.41 54.2591C325.606 53.8716 325.802 53.4837 325.802 52.9023L325.41 54.2591Z" fill="white"/>
<path opacity="0.3" d="M336.922 18.043C336.726 18.4305 336.727 19.0115 336.531 19.5928C336.531 19.0115 336.726 18.6243 336.922 18.043Z" fill="white"/>
<path opacity="0.5" d="M360.92 31.2109C360.334 31.4047 359.748 31.4051 359.162 31.5989C359.748 31.4051 360.334 31.4047 360.92 31.2109Z" fill="white"/>
<path d="M327.951 43.4311C326.983 40.3095 325.144 37.5244 322.645 35.3994C321.901 34.8539 321.102 34.2803 320.249 33.6783C319.888 33.4289 319.551 33.1794 319.171 32.93C319.156 32.9181 319.14 32.9072 319.123 32.8976L318.246 32.279H318.229L317.962 32.0894C317.615 31.84 317.266 31.5905 316.934 31.3685C316.748 31.2363 316.582 31.1191 316.399 30.9794L315.678 30.4332C311.656 27.5198 308.673 25.028 307.237 22.9727L304.39 31.6205L304.023 32.7304L304.003 32.7928L303.5 34.2894C303.5 34.2894 303.5 34.3118 303.5 34.3193C303.501 34.5244 303.534 34.7281 303.598 34.923C304.199 36.8685 307.68 39.944 315.243 45.2046C315.388 45.3043 315.514 45.3966 315.657 45.4939C315.929 45.681 316.185 45.8631 316.444 46.0476L317.231 46.6014C322.197 50.1383 325.611 52.8821 327.224 55.1594C327.256 55.2069 327.291 55.2527 327.327 55.2966C328.939 51.5383 329.16 47.3354 327.951 43.4311V43.4311Z" fill="white"/>
<path d="M326.422 57.4724C325.952 55.6299 322.742 52.6118 316.79 48.418C316.742 48.5601 316.702 48.6874 316.654 48.827C313.565 58.1383 312.678 62.9748 313.794 64.4091C313.972 64.5008 314.17 64.5463 314.37 64.5413C316.695 64.5413 321.601 61.1415 326.422 57.4724Z" fill="white"/>
<path d="M318.605 30.3081C320.57 29.5124 322.82 22.8626 324.257 18.0859H322.865C313.241 18.0859 308.538 18.7719 307.704 20.3084C307.297 22.4211 314.548 27.5569 318.605 30.3081Z" fill="white"/>
<path d="M342.105 14.3546C343.076 15.9909 346.605 19.4256 352.26 19.4256C353.691 19.4124 355.114 19.2034 356.487 18.8045C356.236 18.0736 355.997 17.3079 355.733 16.4922L355.354 15.3224C353.144 8.468 350.586 1.44898 348.339 1C346.167 1.36916 343.578 9.40836 342.105 14.3546Z" fill="white"/>
<path d="M355.137 58.0338C355.072 58.0184 355.007 58.0084 354.941 58.0039C352.679 58.0039 348.205 60.9971 343.379 64.6363C343.54 64.7486 343.681 64.8458 343.841 64.9631C350.992 70.1637 355.27 72.5882 357.298 72.5882C357.55 72.5906 357.798 72.5324 358.022 72.4186C359.573 70.9045 356.786 62.6109 355.137 58.0338Z" fill="white"/>
<path d="M366.622 48.0013C364.093 41.092 363.485 39.0567 362.475 35.6918C362.296 35.0907 362.201 34.7739 361.972 34.0605L361.924 34.1054C359.373 36.2506 357.415 39.0053 356.234 42.1097C355.366 44.213 354.93 46.467 354.952 48.7396C354.952 48.8369 354.939 48.9317 354.939 49.0265C354.939 49.1213 354.952 49.236 354.952 49.3458C354.952 49.3882 354.952 49.4281 354.952 49.4655C355.019 52.204 355.666 54.898 356.85 57.3725C356.96 57.6693 357.071 57.9686 357.169 58.253C357.345 58.7643 357.508 59.2507 357.672 59.7296C359.323 64.5611 360.311 68.2702 360.28 70.7645L365.933 66.5516L367.597 65.3169L368.575 64.5861L369.904 63.6083C369.909 63.598 369.916 63.5887 369.924 63.5808C371.425 62.0144 369.108 54.8308 366.622 48.0013Z" fill="white"/>
<path d="M341.908 52.4141C338.615 52.4144 335.389 53.3434 332.608 55.093C331.866 55.6335 331.08 56.2221 330.25 56.859C329.904 57.1259 329.572 57.3753 329.205 57.6597C329.189 57.6687 329.174 57.6805 329.162 57.6946L328.308 58.3456C328.308 58.3456 328.308 58.3456 328.29 58.3456C328.202 58.4155 328.117 58.4778 328.039 58.5452L327.033 59.3084L326.5 59.7025C326.262 59.8846 326.025 60.0592 325.792 60.2338C321.798 63.1871 318.525 65.2923 316.125 66.0481L323.618 71.2862L324.58 71.9621L324.635 71.9996L325.94 72.9125H325.973C326.164 72.9772 326.366 73.0068 326.568 72.9998C328.622 72.9998 332.6 70.6002 339.889 64.9656L340.294 64.6588L341.048 64.0751L341.802 63.4914C346.673 59.8123 350.313 57.3853 352.979 56.5073C353.033 56.4902 353.086 56.4702 353.138 56.4475C349.991 53.8311 346.013 52.4026 341.908 52.4141V52.4141Z" fill="white"/>
<path d="M336.343 1.14338L335.127 1.16333L333.473 1.18329H333.453C331.776 1.47013 329.708 5.95492 326.878 15.7177C326.82 15.9023 326.769 16.0694 326.722 16.2515C326.631 16.5608 326.543 16.8601 326.45 17.1644C326.357 17.4687 326.272 17.783 326.179 18.0773C324.419 23.9515 322.911 28.0796 321.25 30.2995C321.539 30.317 321.821 30.3394 322.112 30.3419H322.866C326.412 30.2426 329.844 29.0748 332.706 26.9937C335.567 24.9127 337.723 22.0168 338.887 18.6909C339.03 18.237 339.166 17.7705 339.304 17.3066C339.47 16.7528 339.641 16.2066 339.807 15.6504C339.814 15.6326 339.82 15.6142 339.824 15.5955C339.935 15.2138 340.043 14.8621 340.153 14.493C340.196 14.3508 340.236 14.2061 340.277 14.0665C340.387 13.7023 340.498 13.3182 340.606 12.9665C340.714 12.6148 340.837 12.2356 340.95 11.869C340.99 11.7418 341.028 11.6195 341.068 11.4898C342.624 6.5386 344.014 3.00913 345.502 1.01367L336.343 1.14338Z" fill="white"/>
<path d="M373.021 18.2284C372.043 18.1486 371.078 18.0938 370.125 18.0938C366.685 18.1143 363.267 18.6396 359.981 19.6527C359.592 19.7699 359.177 19.8847 358.818 19.9969L357.981 20.2713H357.94C357.873 20.2962 357.807 20.3112 357.739 20.3312C357.511 20.406 357.282 20.4683 357.056 20.5332C355.497 20.9894 353.882 21.2286 352.258 21.2441C350.271 21.2495 348.303 20.8522 346.477 20.0767C345.562 19.6876 344.69 19.2079 343.873 18.645C343.667 18.5028 343.463 18.3581 343.27 18.211C343.278 18.2462 343.283 18.2821 343.285 18.3182C343.866 21.5189 345.479 24.4456 347.882 26.6572C350.284 28.8689 353.346 30.2457 356.606 30.5803C357.108 30.6302 357.624 30.6626 358.144 30.6626C359.067 30.6584 359.987 30.5699 360.894 30.3982C361.514 30.2436 362.103 30.0939 362.653 29.9767H362.678C364.338 29.5846 366.047 29.4342 367.75 29.5302C369.668 29.6425 371.96 30.0665 375.341 30.8871L383.499 20.4559C380.108 19.3026 376.591 18.5549 373.021 18.2284V18.2284Z" fill="white"/>
<path d="M309.492 84.34H310.974V85.926C310.974 87.148 310.701 88.656 309.336 89.592C309.115 89.306 308.491 88.786 308.179 88.591C309.362 87.811 309.492 86.771 309.492 85.887V84.34ZM312.417 84.34H313.886V87.252C313.886 87.616 313.899 87.655 314.042 87.655C314.107 87.655 314.302 87.655 314.38 87.655C314.536 87.655 314.588 87.486 314.614 86.355C314.887 86.576 315.498 86.81 315.888 86.901C315.758 88.526 315.394 88.981 314.536 88.981C314.328 88.981 313.977 88.981 313.769 88.981C312.729 88.981 312.417 88.578 312.417 87.278V84.34ZM310.727 90.97C311.611 92.816 313.47 94.22 315.914 94.818C315.563 95.13 315.108 95.767 314.9 96.157C312.3 95.39 310.467 93.739 309.349 91.412L310.727 90.97ZM313.639 89.566H313.925L314.198 89.514L315.212 89.878C314.315 93.362 312.066 95.234 309.024 96.157C308.868 95.767 308.478 95.117 308.192 94.792C310.896 94.129 312.963 92.439 313.639 89.8V89.566ZM308.868 89.566H314.25V90.97H308.868V89.566ZM310.09 84.34H313.21V85.705H310.09V84.34ZM304.214 87.954H308.231V89.124H304.214V87.954ZM304.253 84.366H308.205V85.549H304.253V84.366ZM304.214 89.722H308.231V90.905H304.214V89.722ZM303.577 86.121H308.699V87.356H303.577V86.121ZM304.929 91.529H308.218V95.481H304.929V94.246H306.879V92.764H304.929V91.529ZM304.175 91.529H305.488V96.001H304.175V91.529ZM322.388 88.331H329.434V89.878H322.388V88.331ZM325.131 84.015H326.717V96.17H325.131V84.015ZM317.734 87.954H321.933V89.124H317.734V87.954ZM317.812 84.366H321.959V85.549H317.812V84.366ZM317.734 89.722H321.933V90.905H317.734V89.722ZM317.097 86.121H322.453V87.356H317.097V86.121ZM318.449 91.529H321.894V95.481H318.449V94.246H320.529V92.764H318.449V91.529ZM317.695 91.529H319.047V96.001H317.695V91.529ZM333.685 89.033V93.817H332.19V90.476H330.734V89.033H333.685ZM333.685 93.206C334.179 94.064 335.102 94.441 336.441 94.493C338.001 94.571 341.082 94.532 342.889 94.389C342.72 94.74 342.473 95.455 342.408 95.91C340.783 95.988 338.014 96.014 336.428 95.936C334.868 95.871 333.815 95.494 333.035 94.493C332.515 95 331.969 95.494 331.319 96.053L330.578 94.506C331.124 94.155 331.761 93.687 332.333 93.206H333.685ZM330.773 85.172L331.969 84.301C332.71 84.873 333.62 85.744 334.023 86.355L332.736 87.343C332.385 86.706 331.514 85.809 330.773 85.172ZM339.002 84.119L340.718 84.431C340.289 85.328 339.808 86.264 339.431 86.875L338.144 86.537C338.469 85.848 338.833 84.86 339.002 84.119ZM336.558 85.822H342.317V87.135H336.558V92.92H335.05V87.018L336.233 85.822H336.558ZM335.908 87.967H341.979V89.228H335.908V87.967ZM335.908 90.073H341.927V91.334H335.908V90.073ZM335.05 92.218H342.551V93.531H335.05V92.218ZM338.248 86.394H339.73V92.803H338.248V86.394ZM336.09 84.002L337.637 84.457C336.883 86.303 335.635 88.097 334.348 89.215C334.101 88.89 333.529 88.266 333.191 87.98C334.4 87.057 335.479 85.562 336.09 84.002ZM349.727 85.51H352.08V86.732H349.727V85.51ZM350 92.478H354.693V93.661H350V92.478ZM349.948 94.467H355.005V95.741H349.948V94.467ZM349.038 84.132H350.429V88.747H349.038V84.132ZM348.245 88.474C349.246 88.318 350.702 88.032 352.119 87.746L352.236 88.916C350.988 89.215 349.675 89.527 348.609 89.761L348.245 88.474ZM352.483 84.132H353.887V87.902C353.887 88.279 353.926 88.318 354.173 88.318C354.29 88.318 354.771 88.318 354.901 88.318C355.135 88.318 355.2 88.162 355.226 87.2C355.512 87.421 356.084 87.642 356.474 87.733C356.331 89.202 355.954 89.605 355.057 89.605C354.823 89.605 354.173 89.605 353.939 89.605C352.743 89.605 352.483 89.202 352.483 87.902V84.132ZM355.278 84.821L356.279 85.848C355.434 86.355 354.368 86.784 353.445 87.096C353.38 86.81 353.185 86.368 353.029 86.095C353.835 85.757 354.745 85.263 355.278 84.821ZM351.339 89.241L352.912 89.514C352.678 90.177 352.457 90.814 352.275 91.243L350.923 90.97C351.079 90.489 351.274 89.748 351.339 89.241ZM349.233 90.45H355.772V96.092H354.264V91.737H350.676V96.144H349.233V90.45ZM344.709 84.522H347.725V85.913H346.074V96.183H344.709V84.522ZM347.244 84.522H347.504L347.712 84.457L348.739 85.042C348.414 86.16 347.985 87.564 347.621 88.591C348.401 89.605 348.544 90.489 348.544 91.23C348.557 92.062 348.388 92.621 347.972 92.907C347.777 93.05 347.53 93.128 347.244 93.18C347.023 93.206 346.724 93.219 346.425 93.206C346.412 92.842 346.295 92.257 346.087 91.88C346.308 91.893 346.477 91.893 346.62 91.893C346.763 91.893 346.893 91.867 346.984 91.802C347.127 91.685 347.205 91.412 347.205 91.035C347.192 90.437 347.036 89.631 346.321 88.76C346.659 87.59 347.062 85.796 347.244 84.964V84.522ZM362.558 90.541H369.656V91.919H362.558V90.541ZM367.16 91.36C367.784 92.517 368.967 93.778 370.059 94.441C369.721 94.714 369.227 95.247 368.993 95.624C367.888 94.753 366.731 93.219 366.055 91.763L367.16 91.36ZM364.313 87.707V88.552H367.901V87.707H364.313ZM364.313 85.692V86.511H367.901V85.692H364.313ZM362.935 84.457H369.344V89.774H362.935V84.457ZM365.067 91.256L366.237 91.659C365.548 93.271 364.352 94.831 363.052 95.676C362.818 95.312 362.337 94.753 362.012 94.48C363.247 93.817 364.456 92.53 365.067 91.256ZM365.418 85.068H366.757V89.189H366.848V96.157H365.34V89.189H365.418V85.068ZM358.255 87.954H362.064V89.124H358.255V87.954ZM358.294 84.366H362.025V85.549H358.294V84.366ZM358.255 89.722H362.064V90.905H358.255V89.722ZM357.657 86.121H362.402V87.356H357.657V86.121ZM358.931 91.529H362.077V95.481H358.931V94.246H360.777V92.764H358.931V91.529ZM358.229 91.529H359.503V96.001H358.229V91.529ZM378.938 90.216H380.485V95.468H378.938V90.216ZM376.338 89.657H383.111V90.996H376.338V89.657ZM375.844 94.532H383.397V95.884H375.844V94.532ZM376.65 92.075H382.786V93.388H376.65V92.075ZM378.197 85.757V87.551H381.239V85.757H378.197ZM376.754 84.444H382.76V88.864H376.754V84.444ZM373.192 85.172H374.713V96.157H373.192V85.172ZM371.32 87.616H376.091V89.072H371.32V87.616ZM373.283 88.201L374.193 88.604C373.699 90.463 372.776 92.777 371.775 94.064C371.632 93.609 371.294 92.959 371.047 92.569C371.957 91.529 372.867 89.644 373.283 88.201ZM375.22 84.093L376.26 85.302C374.934 85.809 373.127 86.16 371.606 86.355C371.541 86.017 371.346 85.497 371.164 85.172C372.607 84.925 374.219 84.548 375.22 84.093ZM374.674 89.423C374.999 89.696 376.13 90.866 376.377 91.165L375.493 92.387C375.181 91.763 374.401 90.58 373.998 90.034L374.674 89.423Z" fill="white"/>
<defs>
<clipPath id="clip0_389_4196">
<rect width="70" height="72" fill="white" transform="translate(9.5 1)"/>
</clipPath>
</defs>
</svg>
