<svg width="470" height="128" viewBox="0 0 470 128" fill="none" xmlns="http://www.w3.org/2000/svg">
<mask id="mask0_416_5099" style="mask-type:alpha" maskUnits="userSpaceOnUse" x="0" y="0" width="470" height="128">
<rect width="470" height="128" fill="#0F6DCA" fill-opacity="0.4"/>
</mask>
<g mask="url(#mask0_416_5099)">
<rect x="406" y="-908" width="19" height="1148" transform="rotate(30 406 -908)" fill="#0F6DCA" fill-opacity="0.4"/>
<rect x="429.455" y="-880" width="19" height="1148" transform="rotate(30 429.455 -880)" fill="#0F6DCA" fill-opacity="0.4"/>
<rect x="452.91" y="-852" width="19" height="1148" transform="rotate(30 452.91 -852)" fill="#0F6DCA" fill-opacity="0.4"/>
<rect x="476.365" y="-824" width="19" height="1148" transform="rotate(30 476.365 -824)" fill="#0F6DCA" fill-opacity="0.4"/>
<rect x="499.818" y="-796" width="19" height="1148" transform="rotate(30 499.818 -796)" fill="#0F6DCA" fill-opacity="0.4"/>
<rect x="523.273" y="-768" width="19" height="1148" transform="rotate(30 523.273 -768)" fill="#0F6DCA" fill-opacity="0.4"/>
<rect x="546.729" y="-740" width="19" height="1148" transform="rotate(30 546.729 -740)" fill="#0F6DCA" fill-opacity="0.4"/>
<rect x="570.182" y="-712" width="19" height="1148" transform="rotate(30 570.182 -712)" fill="#0F6DCA" fill-opacity="0.4"/>
<rect x="593.637" y="-684" width="19" height="1148" transform="rotate(30 593.637 -684)" fill="#0F6DCA" fill-opacity="0.4"/>
<rect x="617.092" y="-656" width="19" height="1148" transform="rotate(30 617.092 -656)" fill="#0F6DCA" fill-opacity="0.4"/>
<rect x="640.545" y="-628" width="19" height="1148" transform="rotate(30 640.545 -628)" fill="#0F6DCA" fill-opacity="0.4"/>
<rect x="664" y="-600" width="19" height="1148" transform="rotate(30 664 -600)" fill="#0F6DCA" fill-opacity="0.4"/>
<rect x="687.455" y="-572" width="19" height="1148" transform="rotate(30 687.455 -572)" fill="#0F6DCA" fill-opacity="0.4"/>
<rect x="710.908" y="-544" width="19" height="1148" transform="rotate(30 710.908 -544)" fill="#0F6DCA" fill-opacity="0.4"/>
<rect x="734.363" y="-516" width="19" height="1148" transform="rotate(30 734.363 -516)" fill="#0F6DCA" fill-opacity="0.4"/>
<rect x="757.818" y="-488" width="19" height="1148" transform="rotate(30 757.818 -488)" fill="#0F6DCA" fill-opacity="0.4"/>
<rect x="781.271" y="-460" width="19" height="1148" transform="rotate(30 781.271 -460)" fill="#0F6DCA" fill-opacity="0.4"/>
<rect x="804.727" y="-432" width="19" height="1148" transform="rotate(30 804.727 -432)" fill="#0F6DCA" fill-opacity="0.4"/>
<rect x="828.182" y="-404" width="19" height="1148" transform="rotate(30 828.182 -404)" fill="#0F6DCA" fill-opacity="0.4"/>
<rect x="851.635" y="-376" width="19" height="1148" transform="rotate(30 851.635 -376)" fill="#0F6DCA" fill-opacity="0.4"/>
<rect x="875.09" y="-348" width="19" height="1148" transform="rotate(30 875.09 -348)" fill="#0F6DCA" fill-opacity="0.4"/>
<rect x="898.545" y="-320" width="19" height="1148" transform="rotate(30 898.545 -320)" fill="#0F6DCA" fill-opacity="0.4"/>
<rect x="922" y="-292" width="19" height="1148" transform="rotate(30 922 -292)" fill="#0F6DCA" fill-opacity="0.4"/>
<rect x="945.453" y="-264" width="19" height="1148" transform="rotate(30 945.453 -264)" fill="#0F6DCA" fill-opacity="0.4"/>
<rect x="968.908" y="-236" width="19" height="1148" transform="rotate(30 968.908 -236)" fill="#0F6DCA" fill-opacity="0.4"/>
<rect x="992.363" y="-208" width="19" height="1148" transform="rotate(30 992.363 -208)" fill="#0F6DCA" fill-opacity="0.4"/>
<rect x="1015.82" y="-180" width="19" height="1148" transform="rotate(30 1015.82 -180)" fill="#0F6DCA" fill-opacity="0.4"/>
<rect x="1039.27" y="-152" width="19" height="1148" transform="rotate(30 1039.27 -152)" fill="#0F6DCA" fill-opacity="0.4"/>
</g>
</svg>
