<svg width="241" height="324" viewBox="0 0 241 324" fill="none" xmlns="http://www.w3.org/2000/svg">
<path d="M0 289.126C0 265.877 3.2709 245.332 9.8127 227.489C16.6162 209.647 27.6064 192.886 42.7834 177.206C57.9604 161.257 78.8941 144.766 105.585 127.735C113.435 122.598 118.93 118.273 122.07 114.758C125.472 110.974 127.173 106.513 127.173 101.377C127.173 90.2929 119.453 84.7509 104.015 84.7509C92.5011 84.7509 79.2866 87.8598 64.3713 94.0776C49.456 100.295 35.9799 108.135 23.943 117.597L0.785016 31.224C17.532 22.5732 36.7649 15.2741 58.4837 9.32666C80.2025 3.10889 102.052 0 124.033 0C160.143 0 188.142 8.24531 208.029 24.7359C227.916 41.2265 237.86 64.6108 237.86 94.8886C237.86 111.109 234.327 125.437 227.262 137.872C220.459 150.038 212.085 160.31 202.142 168.691C192.46 177.071 179.769 186.668 164.068 197.482C146.536 209.377 133.584 219.65 125.21 228.3C117.098 236.681 113.042 246.413 113.042 257.497H160.536V234.383H241V324H0V289.126Z" fill="#106DC9" fill-opacity="0.15"/>
</svg>
