<svg width="207" height="8" viewBox="0 0 207 8" fill="none" xmlns="http://www.w3.org/2000/svg">
<path d="M2 2.77355C4.0901 3.3941 6.55949 3.97804 8.44444 4.63017C8.97945 4.81526 9.73717 4.75882 10.6027 4.66455C13.1853 4.38326 15.8941 3.97941 18.1111 3.57121C19.4661 3.32173 23.3071 2.32426 25.4067 2.51225C27.6247 2.71085 28.6822 3.63819 29.4801 4.08006C30.7306 4.7726 31.9452 4.4771 34.1614 4.11444C37.7202 3.53208 41.4954 2.91369 45.4088 2.45724C48.4066 2.10758 51.6755 4.00604 52.674 4.4445C53.2876 4.71394 53.6742 5.51342 55.4403 5.14589C58.5704 4.49447 60.9413 3.69223 64.3774 3.10362C66.8909 2.67303 68.6381 2.30981 70.457 3.00047C72.1785 3.65413 73.626 4.34429 75.3208 5.00149C77.0109 5.65691 93.792 2.65678 96.5388 2.38848C101.062 1.94664 102.813 3.54172 103.834 4.21758C104.057 4.36469 106.404 6.05627 106.601 5.99856C108.82 5.34591 110.679 4.64279 113.136 4.02505C114.931 3.57401 119.151 2.60847 122.256 2.64978C124.767 2.68319 130.638 5.31133 131.466 5.15277C133.407 4.78142 149.517 1.42509 151.803 2.08592C153.531 2.58531 155.005 3.61824 155.937 4.23134C156.809 4.80538 157.539 4.21225 159.159 3.88752C161.286 3.46131 164.11 2.90063 166.881 2.70479C168.47 2.59241 170.31 3.85918 170.741 4.11444C172.154 4.95048 175.616 4.07536 177.885 3.76375C179.231 3.57883 187.105 2.40938 188.798 2.82169C189.767 3.05774 189.909 5.30009 191.564 4.94648C194.118 4.40079 197.11 4.0339 199.984 3.58496C201.608 3.33135 203.067 3.00665 205 2.89733" stroke="#FFF500" stroke-width="3" stroke-linecap="round" stroke-linejoin="round"/>
</svg>
