<svg width="73" height="84" viewBox="0 0 73 84" fill="none" xmlns="http://www.w3.org/2000/svg">
<g clip-path="url(#clip0_218_2167)">
<path d="M36.439 83.9596C26.5543 83.9596 16.667 83.8788 6.7848 84.0001C2.83293 84.0481 -0.040007 81.0892 0.000421378 77.1778C0.111599 66.6917 0.0459033 56.203 0.0332694 45.7144C0.0307426 42.7 1.3573 40.6053 4.15949 39.4354C4.397 39.3368 4.62694 38.9831 4.67748 38.7127C4.76339 38.2554 4.69264 37.7702 4.7078 37.2952C4.79118 34.8948 6.44369 33.2802 8.8416 33.308C15.5679 33.3863 22.1754 34.3364 28.6313 36.234C30.9862 36.9263 33.278 37.841 35.6203 38.5788C36.1333 38.7405 36.8104 38.7532 37.3057 38.5586C45.7982 35.2334 54.5938 33.4747 63.7104 33.3105C66.5177 33.26 68.1348 34.8544 68.1626 37.6565C68.1651 37.9421 68.1879 38.2276 68.1576 38.5081C68.0969 39.0589 68.3066 39.3242 68.8499 39.5365C71.3514 40.5143 72.8169 42.6469 72.822 45.3152C72.8346 56.1197 72.8397 66.9216 72.822 77.7261C72.8169 81.3293 70.1411 83.9445 66.4773 83.9495C56.4662 83.9647 46.4551 83.9546 36.4415 83.9546L36.439 83.9596ZM37.9475 80.0255C38.0561 80.0406 38.1244 80.0709 38.1774 80.0558C38.5084 79.9496 38.8369 79.8385 39.1629 79.7222C47.0742 76.8948 55.2306 75.3914 63.6271 75.2018C64.9359 75.1715 65.1254 74.9845 65.128 73.615C65.128 61.7367 65.128 49.8583 65.128 37.9774C65.128 36.5018 64.9486 36.3123 63.4982 36.3502C55.0638 36.5751 46.9024 38.1922 39.0011 41.1586C38.2103 41.4568 37.9197 41.8055 37.9222 42.6949C37.9601 54.7956 37.9475 66.8938 37.9475 78.9945V80.0255ZM34.8901 79.9042C34.8876 79.9294 34.9103 79.8359 34.9103 79.7425C34.9128 67.2375 34.9103 54.7299 34.9305 42.2249C34.9305 41.6539 34.6728 41.4694 34.2205 41.2951C26.1929 38.2251 17.8874 36.5448 9.29136 36.3376C7.91174 36.3047 7.7096 36.5144 7.7096 37.9193C7.7096 49.7926 7.7096 61.6685 7.7096 73.5418C7.7096 74.9871 7.89153 75.1614 9.352 75.1892C14.1301 75.2827 18.8704 75.7704 23.5196 76.8645C27.3148 77.7564 31.0595 78.8707 34.8901 79.9016V79.9042ZM68.1601 42.5433C68.1601 43.1219 68.1601 43.4934 68.1601 43.8673C68.1601 53.8506 68.1651 63.8364 68.1576 73.8197C68.1576 76.4956 66.6567 78.0293 64.1274 78.234C60.2311 78.5498 56.3323 78.9061 52.4537 79.3938C50.3186 79.6616 48.2239 80.2352 46.1089 80.6698C46.2227 80.8745 46.306 80.9174 46.3894 80.9174C53.1814 80.9174 59.9734 80.9351 66.7653 80.9073C68.4608 80.8997 69.7292 79.5833 69.7798 77.8726C69.8202 76.5158 69.7899 75.1564 69.7899 73.797C69.7899 64.4125 69.7848 55.0281 69.7949 45.6437C69.7949 44.3929 69.4361 43.362 68.1576 42.5408L68.1601 42.5433ZM4.70022 42.5711C3.39135 43.3595 3.06287 44.4182 3.06287 45.6866C3.07298 56.2359 3.06792 66.7877 3.07045 77.337C3.07045 79.7374 4.26561 80.9225 6.69131 80.9225C13.0714 80.925 19.449 80.9225 25.8291 80.9225C26.1171 80.9225 26.4052 80.8972 26.6932 80.8846C26.4633 80.6799 26.2334 80.599 25.9984 80.5409C20.5254 79.2043 14.9766 78.3957 9.3419 78.2365C6.1051 78.1455 4.70022 76.728 4.70022 73.4862C4.70022 63.5989 4.70022 53.7117 4.70022 43.8244C4.70022 43.458 4.70022 43.0891 4.70022 42.5711Z" fill="white"/>
<path d="M12.1713 16.7045C12.1713 17.5585 12.1359 18.2786 12.1915 18.9912C12.2092 19.2034 12.4341 19.4789 12.6362 19.5875C14.4327 20.5603 15.2363 22.0764 15.2034 24.0902C15.1882 25.0681 15.2135 26.0485 15.1958 27.0263C15.1756 28.1533 14.6197 28.7344 13.513 28.747C11.6179 28.7673 9.72284 28.7673 7.83029 28.747C6.84737 28.7369 6.21821 28.2215 6.18031 27.2891C6.12472 25.9348 6.1045 24.5703 6.21063 23.2185C6.33697 21.6342 7.17838 20.4213 8.59085 19.6835C9.06335 19.4359 9.24023 19.158 9.18464 18.6602C9.15684 18.41 9.18464 18.1548 9.17959 17.9021C9.16695 17.2098 9.39436 16.3558 9.07093 15.8681C8.76014 15.3981 7.8126 15.4006 7.27187 15.0166C6.80695 14.6856 6.30917 14.1448 6.2081 13.6218C6.05144 12.8183 6.68566 12.3508 7.42095 12.0426C12.6539 9.85185 17.8818 7.64345 23.1097 5.44011C27.2359 3.70422 31.3672 1.98348 35.4833 0.222324C36.1756 -0.0733085 36.7846 -0.0884692 37.4744 0.20211C46.8234 4.15651 56.1775 8.1008 65.5342 12.035C66.2619 12.3407 66.8077 12.7425 66.79 13.6092C66.7698 14.5264 66.1684 14.8953 65.3826 15.153C61.6985 16.3633 58.0221 17.5964 54.3456 18.8219C54.1435 18.8901 53.9439 18.9735 53.671 19.0771C54.4113 21.2905 55.139 23.4661 55.8667 25.6391C56.4353 27.3396 56.0158 28.037 54.2395 28.3327C48.577 29.2777 42.9246 30.2859 37.247 31.1197C35.9533 31.3092 34.5585 30.9555 33.2269 30.7407C28.4311 29.9725 23.6428 29.1564 18.8521 28.3579C18.6954 28.3327 18.5387 28.3124 18.3846 28.2796C16.9039 27.984 16.4693 27.2664 16.9342 25.8438C17.6594 23.6278 18.4023 21.4144 19.1325 19.2009C19.1401 19.1756 19.1174 19.1428 19.0744 18.9912C16.8584 18.2508 14.5742 17.4903 12.1688 16.6893L12.1713 16.7045ZM52.6198 25.5254C52.1069 23.9639 51.4727 22.5893 51.22 21.1465C50.7702 18.5945 49.1026 17.3488 46.8942 16.5301C46.8057 16.4973 46.7173 16.4619 46.6314 16.4265C42.1514 14.6401 37.4971 14.3141 32.7619 14.8245C29.4013 15.1859 26.1999 16.0854 23.3371 17.9678C23.0288 18.17 22.6397 18.4151 22.531 18.7259C21.7452 20.9469 21.0226 23.1907 20.2645 25.4724C20.588 25.5557 20.8255 25.6341 21.0706 25.6745C24.9921 26.3289 28.9086 26.9935 32.8352 27.6176C34.23 27.8399 35.6677 28.2316 37.0372 28.085C40.0113 27.7667 42.9549 27.1527 45.9113 26.6574C48.1146 26.2885 50.318 25.9171 52.6249 25.5305L52.6198 25.5254ZM60.8394 13.4626C60.4832 13.2756 60.329 13.1796 60.1623 13.1089C52.4657 9.86196 44.7717 6.60748 37.06 3.39342C36.6658 3.22918 36.0695 3.29235 35.6551 3.46417C28.0925 6.62516 20.545 9.819 12.995 13.0078C12.712 13.1265 12.4391 13.263 12.002 13.4677C14.8193 14.4152 17.4598 15.3147 20.1155 16.1713C20.3454 16.2446 20.6966 16.0803 20.9468 15.9439C22.4148 15.153 23.8071 14.1928 25.3383 13.5612C30.1215 11.5928 35.1422 11.2871 40.226 11.7975C44.5241 12.2295 48.577 13.4146 52.0943 16.0677C52.256 16.189 52.5744 16.2218 52.774 16.1561C55.4069 15.292 58.0297 14.4051 60.8445 13.4601L60.8394 13.4626ZM12.1688 25.6795C12.1688 24.9721 12.1688 24.3757 12.1688 23.7769C12.1688 23.6834 12.1738 23.5874 12.1612 23.4939C12.0626 22.7005 11.5042 22.2179 10.6754 22.2078C9.84413 22.1977 9.22001 22.6626 9.15937 23.4459C9.10126 24.1837 9.14674 24.9291 9.14674 25.6795H12.1688Z" fill="white"/>
<path d="M60.3292 58.7174C61.5218 58.869 62.1788 59.3339 62.2698 60.2713C62.3658 61.2669 61.8074 61.9011 60.6072 61.9895C54.5833 62.4393 48.6757 63.498 42.897 65.2617C42.7201 65.3173 42.5256 65.3274 42.3386 65.3451C41.3102 65.4411 40.6583 65.0343 40.4663 64.1828C40.2869 63.3818 40.7771 62.6187 41.7271 62.3635C44.0972 61.7268 46.4547 60.994 48.8627 60.5417C52.6655 59.8292 56.5062 59.3137 60.3317 58.7148L60.3292 58.7174Z" fill="white"/>
<path d="M42.486 71.2246C41.2782 71.2246 40.6616 70.7697 40.5151 69.9536C40.366 69.1223 40.8436 68.4754 41.829 68.1798C47.8933 66.3605 54.0839 65.2538 60.4033 64.8723C61.4721 64.8066 62.1594 65.2791 62.2731 66.166C62.3919 67.1034 61.8309 67.7957 60.7065 67.8816C56.267 68.2177 51.8729 68.8443 47.5446 69.9031C46.1068 70.2543 44.6868 70.6712 43.2541 71.0502C42.9231 71.1387 42.5845 71.2018 42.4834 71.2246H42.486Z" fill="white"/>
<path d="M62.2926 54.7879C62.3052 55.6192 61.7847 56.2028 60.8144 56.3216C58.841 56.5591 56.8373 56.6172 54.8917 56.9912C51.0863 57.7189 47.3139 58.6083 43.5262 59.4321C43.127 59.518 42.7303 59.6165 42.3286 59.6999C41.4265 59.8844 40.7367 59.5003 40.4941 58.6867C40.2566 57.8831 40.7089 57.0619 41.6362 56.8143C44.3171 56.1018 46.9803 55.2755 49.7042 54.7879C53.2392 54.1536 56.8221 53.7847 60.3899 53.34C61.5345 53.196 62.2799 53.8176 62.2951 54.7904L62.2926 54.7879Z" fill="white"/>
<path d="M12.5293 53.2539C18.7528 53.6329 24.8473 54.7346 30.8257 56.4932C31.9855 56.8344 32.4782 57.5115 32.2558 58.4515C32.0436 59.3535 31.1062 59.8185 29.9641 59.5329C27.9502 59.0251 25.9667 58.3428 23.9276 57.9866C20.0819 57.3195 16.2083 56.8141 12.3424 56.281C11.1396 56.1168 10.4624 55.6038 10.4953 54.6942C10.5307 53.734 11.319 53.1731 12.5293 53.2514V53.2539Z" fill="white"/>
<path d="M11.9513 64.7815C18.3895 65.1883 24.2465 66.2142 29.9924 67.8692C30.3841 67.9829 30.7808 68.0865 31.18 68.175C31.9355 68.3443 32.3297 68.8547 32.3625 69.5773C32.3979 70.353 31.9961 70.9468 31.2179 71.0959C30.7454 71.1869 30.2021 71.1566 29.7372 71.0176C24.0065 69.2994 18.1545 68.2609 12.1913 67.8263C11.1376 67.7505 10.5337 67.1365 10.5742 66.2369C10.6146 65.3147 11.3297 64.7562 11.9538 64.779L11.9513 64.7815Z" fill="white"/>
<path d="M12.3592 58.9068C18.4386 59.3338 24.2325 60.3521 29.9076 62.0248C30.2967 62.1385 30.696 62.2548 31.0977 62.2952C31.9038 62.3786 32.2777 62.894 32.3535 63.6015C32.4344 64.3722 32.0781 65.0266 31.2923 65.1605C30.701 65.2616 30.0314 65.1984 29.4503 65.0291C23.8636 63.3893 18.1682 62.3685 12.3617 61.949C11.1716 61.8631 10.5222 61.2744 10.5753 60.3243C10.6283 59.3793 11.3459 58.8638 12.3592 58.9068Z" fill="white"/>
<path d="M12.3882 45.0117C15.1677 45.3528 17.9497 45.6788 20.7266 46.0401C21.7626 46.174 22.3159 46.8563 22.2199 47.7558C22.1289 48.5997 21.4644 49.1632 20.4638 49.0621C17.553 48.7665 14.6446 48.4279 11.7414 48.0691C10.9429 47.9706 10.4072 47.1721 10.5108 46.4217C10.6296 45.56 11.3523 45.0446 12.3908 45.0142L12.3882 45.0117Z" fill="white"/>
<path d="M16.7231 43.7433C14.9796 43.5891 13.5368 43.4855 12.0966 43.3263C11.0758 43.2152 10.4946 42.5254 10.583 41.6309C10.669 40.7667 11.3006 40.2386 12.3164 40.3043C13.7617 40.3978 15.202 40.5494 16.6422 40.6909C17.7692 40.7996 18.363 41.3984 18.2998 42.3333C18.2366 43.2556 17.5494 43.7685 16.7231 43.7433Z" fill="white"/>
</g>
<defs>
<clipPath id="clip0_218_2167">
<rect width="72.8317" height="84" fill="white"/>
</clipPath>
</defs>
</svg>
