<svg width="84" height="84" viewBox="0 0 84 84" fill="none" xmlns="http://www.w3.org/2000/svg">
<g clip-path="url(#clip0_218_2220)">
<path d="M80.5547 84H11.8125C8.22719 82.9216 8.19875 80.0341 8.42625 76.9869C6.67406 76.9869 5.04437 76.9191 3.42344 77.0066C1.78281 77.0963 0.634375 76.51 0 74.9788C0 74.5413 0 74.1038 0 73.6663C0.363125 73.1653 0.6475 72.5791 1.09812 72.1809C6.08562 67.7578 8.42844 62.2278 8.40438 55.5691C8.34969 40.9412 8.38687 26.3134 8.38906 11.6878C8.38906 8.69969 10.0712 7.02625 13.0659 7.0175C13.8797 7.0175 14.6912 7.0175 15.5006 7.0175C16.1394 4.09938 17.6903 1.995 20.335 0.77875C21.0678 0.441875 21.8706 0.258125 22.6428 0.004375C23.4084 0.004375 24.1741 0.004375 24.9397 0.004375C25.0075 0.0459375 25.0731 0.109375 25.1453 0.1225C28.7416 0.826875 31.0013 2.97281 31.955 6.48812C32.0797 6.94969 32.2897 7.02625 32.6922 7.02187C34.1644 7.00875 35.6388 6.99344 37.1131 7.02844C37.6884 7.04156 37.9553 6.90812 38.1063 6.2825C38.5634 4.3925 39.6287 2.87219 41.1753 1.68219C42.3478 0.774375 43.7194 0.363125 45.1172 0H47.25C47.3506 0.0415625 47.4447 0.100625 47.5497 0.1225C51.1394 0.833438 53.3991 2.96187 54.3572 6.48812C54.4053 6.66313 54.4841 6.82937 54.5562 7.01531C56.8116 7.01531 59.0187 7.00437 61.2281 7.02406C61.7291 7.02844 61.7663 6.72875 61.8669 6.36562C62.7638 3.15219 64.8375 1.11563 68.0509 0.234063C68.3353 0.155313 68.6219 0.07875 68.9062 0.0021875C69.6172 0.0021875 70.3281 0.0021875 71.0391 0.0021875C71.2206 0.0546875 71.3978 0.118125 71.5816 0.159688C74.9372 0.916562 77.105 2.94438 78.0981 6.23438C78.1747 6.48594 78.2512 6.73969 78.3366 7.01531C78.7106 7.01531 79.0366 7.02844 79.3625 7.01313C80.5525 6.95625 81.7053 7.16844 82.5256 8.05219C83.1338 8.70625 83.5188 9.56812 84.0022 10.3381V80.5569C83.4925 82.3441 82.3463 83.4947 80.5569 84.0022L80.5547 84ZM2.92031 74.2897C3.46063 74.2897 3.75156 74.2897 4.0425 74.2897C18.6397 74.2678 33.2391 74.2481 47.8363 74.2262C55.6281 74.2153 63.4178 74.1912 71.2097 74.1956C72.1875 74.1956 73.0888 74.0228 73.7756 73.3316C75.0203 72.0781 76.3897 70.8925 77.3784 69.4509C80.1872 65.3537 81.1978 60.6834 81.2022 55.7769C81.2153 41.0966 81.2066 26.4163 81.2066 11.7359C81.2066 10.2506 80.78 9.81531 79.3253 9.81313C74.7053 9.81094 70.0853 9.81313 65.4653 9.81313C65.2072 9.81313 64.9491 9.83937 64.68 9.85469C65.2575 12.2347 67.1475 13.7244 69.8403 13.9759C70.8772 14.0722 71.4437 14.6366 71.3803 15.5094C71.3191 16.3406 70.7131 16.7934 69.6937 16.7672C66.0778 16.6797 62.8512 14.1466 61.9259 10.5788C61.7553 9.91813 61.4841 9.79781 60.8759 9.8C54.4797 9.81969 48.0812 9.81094 41.685 9.81313C41.4247 9.81313 41.1644 9.83719 40.8931 9.85031C41.3831 12.1669 43.3584 13.7331 46.0294 13.9759C47.0662 14.07 47.6459 14.6366 47.5869 15.4962C47.53 16.3297 46.9197 16.7913 45.9091 16.7694C42.2953 16.6884 39.06 14.1575 38.1281 10.5941C37.9597 9.95094 37.7147 9.79562 37.0912 9.79781C31.1587 9.82188 25.2262 9.81094 19.2937 9.81313C19.0334 9.81313 18.7731 9.835 18.3094 9.85469C18.7228 10.6006 18.9941 11.2634 19.4119 11.8103C20.4837 13.2169 21.9428 13.9081 23.7191 13.9934C24.6903 14.0394 25.2569 14.6781 25.1891 15.505C25.1234 16.3012 24.4978 16.8853 23.5834 16.7475C22.4109 16.5703 21.1881 16.3778 20.125 15.89C17.5766 14.7219 16.1241 12.6022 15.5203 9.83281C14.4659 9.83281 13.4203 9.74312 12.4053 9.87656C12.0006 9.92906 11.5719 10.4169 11.3159 10.8106C11.1344 11.0928 11.1978 11.55 11.1978 11.9284C11.1891 26.9106 11.1956 41.8906 11.1737 56.8728C11.1694 60.2 10.3512 63.3609 8.94469 66.3688C7.54906 69.3525 5.59562 71.9228 2.92906 74.2897H2.92031ZM81.2044 68.8953C80.0931 70.3916 79.0497 71.96 77.8422 73.3863C75.7531 75.8581 73.2244 77.0744 69.7791 77.0503C50.6187 76.9103 31.4584 76.9847 12.2981 76.9847H11.1869C11.1869 77.7525 11.1869 78.4022 11.1869 79.0541C11.1869 80.8347 11.5609 81.2044 13.3591 81.2044C35.2537 81.2044 57.1484 81.2044 79.0409 81.2044C79.2597 81.2044 79.4784 81.2131 79.6972 81.2022C80.6312 81.1562 81.1934 80.64 81.1978 79.7125C81.2153 76.0791 81.2044 72.4478 81.2044 68.8975V68.8953ZM51.485 6.98906C51.1547 4.60031 48.545 2.67313 45.92 2.80437C43.4744 2.92687 41.0397 4.96344 40.9412 6.98906H51.4872H51.485ZM29.1025 6.98469C28.6541 4.48 26.0028 2.58563 23.3581 2.81094C20.9584 3.01656 18.5806 5.06844 18.5609 6.98469H29.1003H29.1025ZM75.2697 6.9475C75.0028 4.69219 72.4588 2.74969 69.8863 2.8C67.3772 2.84812 64.8856 4.86281 64.7281 7.01094C68.145 7.01094 71.5597 7.01094 74.9744 7.00875C75.075 7.00875 75.1734 6.96938 75.2697 6.94969V6.9475Z" fill="white"/>
<path d="M25.2392 37.7369C25.2392 35.7135 25.1736 33.6901 25.2523 31.671C25.4164 27.4994 28.8639 24.0716 33.0661 23.8135C37.3098 23.5532 41.1664 26.5697 41.8445 30.6932C41.932 31.2291 41.9911 31.7782 41.9933 32.3207C42.0042 36.0657 42.0327 39.8107 41.9845 43.5535C41.9342 47.4823 39.1605 50.7898 35.3127 51.6232C31.5348 52.4413 27.5536 50.4857 26.0027 46.8741C25.5105 45.7301 25.3289 44.4044 25.2414 43.1444C25.1167 41.3485 25.2108 39.5394 25.2108 37.7347C25.2195 37.7347 25.2305 37.7347 25.2392 37.7347V37.7369ZM28.0239 37.7457C28.0239 37.7457 28.0173 37.7457 28.0152 37.7457C28.0152 38.8657 28.002 39.9857 28.0195 41.1035C28.037 42.2476 27.9408 43.4201 28.1464 44.5335C28.6583 47.2985 31.2964 49.2454 33.9783 48.9872C36.973 48.6985 39.1627 46.4235 39.1955 43.466C39.2348 39.6991 39.2152 35.9301 39.1955 32.161C39.1933 31.6229 39.0927 31.0694 38.9373 30.5532C38.1673 27.9938 35.5927 26.2963 33.0267 26.6244C30.1786 26.9876 28.1114 29.186 28.0392 32.0122C27.9911 33.9219 28.0305 35.8338 28.0305 37.7457H28.0239Z" fill="white"/>
<path d="M44.7975 58.7895C37.5525 58.7895 30.3075 58.7895 23.0625 58.7895C21.6516 58.7895 20.991 58.3323 21.0041 57.3786C21.0194 56.4379 21.6953 55.9873 23.1041 55.9873C37.5657 55.9873 52.0272 55.9873 66.491 55.9917C66.8694 55.9917 67.2675 55.9917 67.6241 56.1011C68.311 56.3089 68.6413 56.8295 68.5691 57.5426C68.5013 58.2164 68.1075 58.6429 67.4294 58.7501C67.1079 58.8004 66.7754 58.7873 66.4472 58.7895C59.2307 58.7895 52.0119 58.7895 44.7954 58.7895H44.7975Z" fill="white"/>
<path d="M53.1276 28.5976C52.0579 29.6869 51.1479 30.6297 50.2183 31.5572C49.4811 32.2922 48.6629 32.3666 48.0548 31.7826C47.4051 31.1591 47.4708 30.3585 48.2626 29.5644C49.9601 27.8582 51.6686 26.1651 53.3617 24.4566C53.8539 23.9601 54.3723 23.6122 55.1051 23.9097C55.8708 24.2204 55.9911 24.8526 55.9911 25.5854C55.9823 33.0229 55.9867 40.4582 55.9867 47.8957C55.9867 48.2194 55.9867 48.5454 55.9867 49.0113C56.6867 49.0113 57.3298 49.0091 57.9729 49.0113C58.7648 49.0157 59.5611 48.9851 60.3508 49.0397C61.0704 49.0901 61.4926 49.5407 61.5626 50.2582C61.6304 50.9691 61.3111 51.481 60.622 51.7019C60.3683 51.7829 60.0861 51.8047 59.817 51.8047C56.3454 51.8113 52.8717 51.8091 49.4001 51.8069C49.2098 51.8069 49.0151 51.8091 48.8292 51.7763C48.092 51.6451 47.5823 51.0457 47.6042 50.3544C47.6283 49.6151 48.1839 49.0485 48.9911 49.0222C50.0564 48.9894 51.1239 49.0091 52.1892 49.0069C52.4845 49.0069 52.7798 49.0069 53.132 49.0069V28.591L53.1276 28.5976Z" fill="white"/>
<path d="M44.7582 65.7957C38.4451 65.7957 32.1341 65.7957 25.821 65.7957C25.5476 65.7957 25.2719 65.8132 25.0029 65.7739C24.3226 65.6776 23.8129 65.087 23.8019 64.422C23.791 63.7614 24.2854 63.1489 24.9613 63.0307C25.2282 62.9848 25.506 63.0023 25.7794 63.0023C38.4582 63.0023 51.1391 63.0023 63.8179 63.0023C64.0913 63.0023 64.3691 62.9848 64.636 63.0307C65.3185 63.1489 65.7998 63.746 65.791 64.4198C65.7823 65.0957 65.2857 65.6754 64.5988 65.7739C64.3298 65.8132 64.0541 65.7957 63.7807 65.7957C57.4413 65.7957 51.1019 65.7957 44.7604 65.7957H44.7582Z" fill="white"/>
</g>
<defs>
<clipPath id="clip0_218_2220">
<rect width="84" height="84" fill="white"/>
</clipPath>
</defs>
</svg>
