<svg width="432" height="92" viewBox="0 0 432 92" fill="none" xmlns="http://www.w3.org/2000/svg">
<mask id="mask0_416_5036" style="mask-type:alpha" maskUnits="userSpaceOnUse" x="0" y="0" width="432" height="92">
<path d="M54 0H432V92H0L54 0Z" fill="#0F6DCA" fill-opacity="0.4"/>
</mask>
<g mask="url(#mask0_416_5036)">
<rect x="406" y="-944" width="19" height="1148" transform="rotate(30 406 -944)" fill="#0F6DCA" fill-opacity="0.4"/>
<rect x="429.455" y="-916" width="19" height="1148" transform="rotate(30 429.455 -916)" fill="#0F6DCA" fill-opacity="0.4"/>
<rect x="452.91" y="-888" width="19" height="1148" transform="rotate(30 452.91 -888)" fill="#0F6DCA" fill-opacity="0.4"/>
<rect x="476.365" y="-860" width="19" height="1148" transform="rotate(30 476.365 -860)" fill="#0F6DCA" fill-opacity="0.4"/>
<rect x="499.818" y="-832" width="19" height="1148" transform="rotate(30 499.818 -832)" fill="#0F6DCA" fill-opacity="0.4"/>
<rect x="523.273" y="-804" width="19" height="1148" transform="rotate(30 523.273 -804)" fill="#0F6DCA" fill-opacity="0.4"/>
<rect x="546.729" y="-776" width="19" height="1148" transform="rotate(30 546.729 -776)" fill="#0F6DCA" fill-opacity="0.4"/>
<rect x="570.182" y="-748" width="19" height="1148" transform="rotate(30 570.182 -748)" fill="#0F6DCA" fill-opacity="0.4"/>
<rect x="593.637" y="-720" width="19" height="1148" transform="rotate(30 593.637 -720)" fill="#0F6DCA" fill-opacity="0.4"/>
<rect x="617.092" y="-692" width="19" height="1148" transform="rotate(30 617.092 -692)" fill="#0F6DCA" fill-opacity="0.4"/>
<rect x="640.545" y="-664" width="19" height="1148" transform="rotate(30 640.545 -664)" fill="#0F6DCA" fill-opacity="0.4"/>
<rect x="664" y="-636" width="19" height="1148" transform="rotate(30 664 -636)" fill="#0F6DCA" fill-opacity="0.4"/>
<rect x="687.455" y="-608" width="19" height="1148" transform="rotate(30 687.455 -608)" fill="#0F6DCA" fill-opacity="0.4"/>
<rect x="710.908" y="-580" width="19" height="1148" transform="rotate(30 710.908 -580)" fill="#0F6DCA" fill-opacity="0.4"/>
<rect x="734.363" y="-552" width="19" height="1148" transform="rotate(30 734.363 -552)" fill="#0F6DCA" fill-opacity="0.4"/>
<rect x="757.818" y="-524" width="19" height="1148" transform="rotate(30 757.818 -524)" fill="#0F6DCA" fill-opacity="0.4"/>
<rect x="781.271" y="-496" width="19" height="1148" transform="rotate(30 781.271 -496)" fill="#0F6DCA" fill-opacity="0.4"/>
<rect x="804.727" y="-468" width="19" height="1148" transform="rotate(30 804.727 -468)" fill="#0F6DCA" fill-opacity="0.4"/>
<rect x="828.182" y="-440" width="19" height="1148" transform="rotate(30 828.182 -440)" fill="#0F6DCA" fill-opacity="0.4"/>
<rect x="851.635" y="-412" width="19" height="1148" transform="rotate(30 851.635 -412)" fill="#0F6DCA" fill-opacity="0.4"/>
<rect x="875.09" y="-384" width="19" height="1148" transform="rotate(30 875.09 -384)" fill="#0F6DCA" fill-opacity="0.4"/>
<rect x="898.545" y="-356" width="19" height="1148" transform="rotate(30 898.545 -356)" fill="#0F6DCA" fill-opacity="0.4"/>
<rect x="922" y="-328" width="19" height="1148" transform="rotate(30 922 -328)" fill="#0F6DCA" fill-opacity="0.4"/>
<rect x="945.453" y="-300" width="19" height="1148" transform="rotate(30 945.453 -300)" fill="#0F6DCA" fill-opacity="0.4"/>
<rect x="968.908" y="-272" width="19" height="1148" transform="rotate(30 968.908 -272)" fill="#0F6DCA" fill-opacity="0.4"/>
<rect x="992.363" y="-244" width="19" height="1148" transform="rotate(30 992.363 -244)" fill="#0F6DCA" fill-opacity="0.4"/>
</g>
</svg>
