<svg width="84" height="84" viewBox="0 0 84 84" fill="none" xmlns="http://www.w3.org/2000/svg">
<g clip-path="url(#clip0_218_2178)">
<path d="M42.0529 2.09949e-06C65.0861 0.00727063 84.4155 18.9757 83.9948 41.9055C83.5065 68.5544 64.0344 84.046 41.9465 83.9976C19.3726 83.9515 0.396173 67.9608 0.00450789 41.8013C-0.338803 18.8594 18.9737 -0.00726643 42.0529 2.09949e-06ZM81.0428 42.6663C80.6149 19.8673 64.9121 4.06553 43.5301 3.2878C21.9232 2.50038 3.5996 17.4057 3.02661 42.0509C2.54308 62.7929 19.2396 80.2858 40.288 81.1895C62.8353 82.1586 80.8422 64.1157 81.0428 42.6663Z" fill="white"/>
<path d="M41.8841 78.2848C21.8245 78.0061 6.04674 63.8107 5.7953 41.804C5.56562 21.9124 22.3153 5.62609 42.1621 5.79327C62.1346 5.96044 78.6256 22.2565 78.2146 42.039C77.7456 64.5933 61.4117 78.166 41.8841 78.2848ZM41.9711 9.00111C24.3196 9.0738 9.18731 21.4642 8.77873 42.274C8.42091 60.4284 23.6789 75.4161 41.9856 75.4331C60.2802 75.45 75.5213 60.5471 75.2142 42.3055C74.8588 21.2874 59.4824 9.01807 41.9735 9.00111H41.9711Z" fill="white"/>
<path d="M38.5346 42.3128C38.5346 40.8591 38.5007 39.403 38.5418 37.9517C38.624 35.0128 41.0369 32.59 43.9284 32.4955C47.0086 32.3961 49.6632 34.5597 49.8058 37.5883C49.9606 40.8204 49.9509 44.0718 49.7865 47.3039C49.6366 50.2549 47.1077 52.3386 44.1122 52.2877C41.078 52.2344 38.699 50.0247 38.5588 47.0398C38.4862 45.4674 38.5467 43.8901 38.5467 42.3153C38.5418 42.3153 38.537 42.3153 38.5346 42.3153V42.3128ZM46.8925 42.434C46.8925 41.1038 46.9022 39.7737 46.8925 38.4436C46.878 36.67 45.8529 35.5628 44.2331 35.5483C42.606 35.5337 41.5325 36.6143 41.5132 38.383C41.4842 41.0723 41.4817 43.7641 41.5132 46.4535C41.5349 48.2125 42.6326 49.2882 44.2621 49.2591C45.8408 49.2301 46.8683 48.1325 46.8901 46.4244C46.9046 45.0943 46.8925 43.7641 46.8925 42.434Z" fill="white"/>
<path d="M24.9165 42.3975C24.9165 40.9438 24.8827 39.4877 24.9238 38.0364C25.0108 34.9376 27.4599 32.522 30.4989 32.4905C33.5791 32.4614 36.1225 34.7631 36.224 37.862C36.3231 40.8566 36.3304 43.8609 36.2216 46.8555C36.1007 50.124 33.6661 52.3433 30.4917 52.2851C27.3124 52.227 25.0229 49.935 24.9238 46.6666C24.8802 45.2444 24.9165 43.8197 24.9165 42.3951V42.3975ZM27.8854 42.3103C27.8854 43.6719 27.8685 45.0311 27.8903 46.3928C27.9169 48.159 28.9661 49.2614 30.5836 49.259C32.2082 49.259 33.2648 48.1542 33.2769 46.3952C33.2938 43.7349 33.2938 41.0746 33.2769 38.4144C33.2648 36.6505 32.2107 35.5506 30.586 35.5481C28.9613 35.5481 27.9169 36.6408 27.8903 38.4119C27.8685 39.7106 27.8854 41.0116 27.8854 42.3127V42.3103Z" fill="white"/>
<path d="M19.5323 35.713C18.7297 36.0401 18.072 36.326 17.3999 36.578C16.3893 36.9583 15.6544 36.6894 15.2869 35.8293C14.9266 34.9813 15.2651 34.2205 16.2394 33.8038C17.5692 33.2344 18.9061 32.6772 20.2504 32.1442C21.5753 31.6184 22.552 32.2653 22.5569 33.7093C22.5738 39.3376 22.5689 44.9659 22.5569 50.5941C22.5569 51.6359 21.9548 52.2925 21.0796 52.3119C20.1633 52.3313 19.5372 51.6626 19.5347 50.5723C19.5227 45.9423 19.5299 41.3122 19.5299 36.6821C19.5299 36.4108 19.5299 36.1419 19.5299 35.7082L19.5323 35.713Z" fill="white"/>
<path d="M57.2364 49.3968C55.7882 49.4041 55.0677 48.3017 55.5029 47.2841C55.6093 47.037 55.7809 46.8189 55.9308 46.5912C58.3654 42.9157 60.7976 39.2403 63.237 35.5672C63.4208 35.291 63.5997 34.993 63.8487 34.7895C64.4265 34.3122 65.0817 34.2928 65.6837 34.7289C66.2519 35.1408 66.4453 35.7344 66.2035 36.4128C66.1141 36.6648 65.9569 36.8949 65.807 37.1227C63.3241 40.8732 60.8508 44.6311 58.334 48.3623C58.01 48.8444 57.4709 49.1788 57.2339 49.3968H57.2364Z" fill="white"/>
<path d="M56.0231 40.9101C53.7118 40.8931 51.988 39.1705 52.0001 36.8858C52.0122 34.6107 53.7626 32.8759 56.0521 32.8711C58.3731 32.8663 60.1597 34.6616 60.1186 36.9584C60.0775 39.2529 58.3465 40.9246 56.0231 40.9077V40.9101ZM57.0869 36.8543C57.0458 36.2074 56.6686 35.8779 56.0303 35.8948C55.3872 35.9118 55.0222 36.2704 55.0415 36.9342C55.0609 37.5981 55.4646 37.9397 56.0884 37.9252C56.7194 37.9106 57.0724 37.5327 57.0845 36.8567L57.0869 36.8543Z" fill="white"/>
<path d="M60.8164 47.8825C60.8261 45.5469 62.5136 43.8315 64.8032 43.8291C67.1 43.8267 68.86 45.639 68.8238 47.9649C68.7875 50.2714 67.0589 51.9723 64.7669 51.9553C62.4774 51.9408 60.8092 50.2181 60.8188 47.8801L60.8164 47.8825ZM64.4768 46.831C64.2979 47.1121 63.882 47.4924 63.8167 47.9261C63.7225 48.544 64.1746 48.9486 64.8201 48.9365C65.468 48.9268 65.8162 48.5343 65.8041 47.8825C65.792 47.2332 65.4342 46.8892 64.4792 46.831H64.4768Z" fill="white"/>
</g>
<defs>
<clipPath id="clip0_218_2178">
<rect width="84" height="84" fill="white"/>
</clipPath>
</defs>
</svg>
