<svg width="67" height="84" viewBox="0 0 67 84" fill="none" xmlns="http://www.w3.org/2000/svg">
<g clip-path="url(#clip0_218_2162)">
<path d="M47.5496 37.7311C46.4325 42.4909 43.9292 46.404 39.909 49.5305C45.1578 50.7368 49.2532 53.4581 52.4157 58.0345C52.4157 57.4338 52.4132 57.0961 52.4157 56.7607C52.4302 55.4049 52.3042 54.0274 52.4908 52.6957C52.9536 49.3906 54.9577 47.369 58.234 46.4402V45.4004C58.234 33.9701 58.234 22.5374 58.234 11.107C58.234 10.8947 58.234 10.6849 58.234 10.4726C58.2486 9.34834 58.8083 8.68009 59.7171 8.69939C60.5943 8.71869 61.1371 9.36523 61.1396 10.4436C61.1468 13.3989 61.142 16.3542 61.142 19.3119C61.142 27.9992 61.142 36.6841 61.142 45.3714V46.4353C61.3964 46.5198 61.6412 46.6018 61.8908 46.6838C64.9054 47.6633 66.9385 50.3291 66.9507 53.4774C66.9773 61.26 66.987 69.0402 66.9482 76.8229C66.9264 80.8951 63.684 83.9686 59.4869 83.9735C46.9123 83.9879 34.3353 83.9976 21.7608 83.9831C18.3997 83.9783 15.0192 84.1013 11.6847 83.7805C5.15871 83.1532 0.564117 78.309 0.113381 71.7736C-0.131373 68.2152 -0.0732132 64.6495 1.33473 61.2648C3.8477 55.2288 8.26781 51.3713 14.6411 49.7549C14.8738 49.697 15.104 49.627 15.4432 49.5354C11.4739 46.4474 8.95361 42.5151 7.8292 37.7335C2.96077 37.0194 0.232124 34.3392 0.297553 30.3417C0.353289 26.9691 2.72571 23.5868 7.3203 23.1332C7.3203 22.0742 7.33969 21.0006 7.30091 19.9271C7.29364 19.7582 7.04404 19.5483 6.85745 19.4446C4.17969 17.9295 2.93896 15.628 2.95835 12.5859C2.98016 9.02748 2.96077 5.46667 2.96562 1.90827C2.96562 0.484908 3.44301 0.00482495 4.87034 0.00482495C14.3552 0.00241248 23.8376 0.0096499 33.3224 0C35.4064 0 37.0737 0.757517 38.3193 2.45349C38.5034 2.70439 38.9542 2.85878 39.291 2.8805C40.7692 2.97217 42.2741 2.85396 43.7281 3.07349C47.7992 3.68868 50.8478 7.20124 50.9423 11.2928C50.9956 13.6739 50.9617 16.0574 50.9568 18.441C50.9544 19.7509 50.4503 20.2527 49.1587 20.2696C48.8292 20.2744 48.4996 20.2696 48.1094 20.2696V23.1332C50.3365 23.3479 52.2266 24.2381 53.6055 26.0475C54.6306 27.3937 55.1346 28.9304 55.0716 30.6095C54.9262 34.5828 52.3526 37.005 47.5472 37.7287L47.5496 37.7311ZM53.8187 81.0327C52.5392 79.2209 52.372 77.2547 52.3817 75.2475C52.3914 72.8351 52.4253 70.4226 52.4132 68.0101C52.3817 61.2865 48.1119 55.2964 41.7676 53.0576C41.472 52.9538 41.1642 52.8887 40.7813 52.7826C40.7813 53.1251 40.7813 53.335 40.7813 53.5449C40.7813 55.4459 40.8056 57.3446 40.7717 59.2456C40.7474 60.6014 39.5818 61.2021 38.4259 60.4928C38.1181 60.3022 37.8225 60.09 37.5317 59.8728C34.9581 57.9621 32.387 56.0515 29.8159 54.136C28.8151 53.3905 26.6001 53.3712 25.609 54.1046C22.8367 56.1528 20.0645 58.201 17.2922 60.2492C16.7155 60.6762 16.1315 61.0381 15.3826 60.6279C14.6557 60.2299 14.5927 59.564 14.5975 58.8403C14.612 56.8548 14.6023 54.8694 14.6023 52.785C14.2582 52.8791 13.9965 52.9321 13.7493 53.0214C9.72665 54.4616 6.70963 57.0551 4.72251 60.833C2.79598 64.4951 2.66513 68.4226 3.12798 72.3863C3.64172 76.7891 6.80414 80.1087 11.137 80.8179C12.9157 81.1099 14.755 81.0833 16.5701 81.1195C18.7995 81.1678 21.0314 81.1316 23.2608 81.1316V72.3912C20.4401 72.3912 17.6872 72.396 14.9319 72.3888C13.6766 72.3839 13.1556 71.8725 13.1484 70.6397C13.1387 68.5288 13.1435 66.4179 13.1459 64.307C13.1459 62.693 13.5773 62.2588 15.1767 62.2588C23.9927 62.2588 32.8111 62.2588 41.6271 62.2588C43.2483 62.2588 43.6893 62.6906 43.6893 64.278C43.6893 69.5251 43.6893 74.7723 43.6893 80.0194V81.0351H53.8187V81.0327ZM5.8857 2.8998C5.8857 6.48956 5.81785 9.95388 5.90994 13.4134C5.97052 15.6256 7.92855 17.3578 10.2137 17.3674C15.7243 17.3891 21.2349 17.3964 26.7431 17.3578C29.0937 17.3409 31.185 16.511 32.9613 14.9694C35.3386 12.9019 36.337 10.2578 36.4485 7.13369C36.5696 3.73934 35.3628 2.83225 32.2198 2.86843C23.8352 2.96252 15.4481 2.8998 7.06101 2.8998H5.88813H5.8857ZM10.4827 35.9073C11.6144 44.5681 19.5629 51.1517 28.454 50.6258C38.2902 50.0444 44.2539 42.6043 44.8646 35.6588C44.5932 35.9435 44.3775 36.1896 44.1425 36.4139C41.4502 39.0025 38.2878 39.8059 34.7909 38.4814C31.2989 37.1594 29.4475 34.4791 29.1567 30.7663C29.0647 29.5963 28.5848 28.9666 27.6882 28.9666C26.7892 28.9666 26.2827 29.5914 26.227 30.7687C25.924 36.9736 19.4417 40.8987 13.8196 38.2088C12.5983 37.625 11.5562 36.6624 10.4827 35.9097V35.9073ZM55.343 60.8451C55.343 66.3431 55.3042 71.7591 55.3866 77.1751C55.3987 77.9471 55.8568 78.8035 56.3366 79.4549C57.4295 80.941 59.4117 81.438 61.1444 80.8276C62.865 80.2221 64.0378 78.6202 64.0451 76.7457C64.0645 71.6264 64.0524 66.5071 64.0499 61.3879C64.0499 61.2166 64.0209 61.0453 64.0039 60.8426H55.343V60.8451ZM40.7159 81.0351V65.2237H16.1048V69.4962C16.4804 69.4962 16.8076 69.4962 17.1347 69.4962C21.6469 69.4962 26.1615 69.4672 30.6737 69.5058C35.2659 69.5444 38.6367 73.6987 37.6941 78.1642C37.4881 79.1413 37.0179 80.0652 36.6593 81.0351H40.7183H40.7159ZM29.9734 26.6168C31.5582 23.7219 33.9088 21.9945 37.19 21.734C40.4469 21.4759 43.035 22.822 45.0997 25.4251V20.1345C41.5665 19.4928 39.0196 17.5508 37.3209 14.4049C34.3281 18.675 30.2787 20.4192 25.2334 20.2962C20.571 20.1828 15.9061 20.272 11.2412 20.272H10.2864V25.4685C12.3753 22.8124 14.9852 21.4831 18.2446 21.7557C21.5112 22.0283 23.8642 23.7774 25.4055 26.6096C27.4023 25.8424 28.0323 25.8424 29.9734 26.6168ZM17.5103 36.1968C20.6824 36.1968 23.302 33.6154 23.3214 30.4696C23.3432 27.2586 20.7551 24.6386 17.5442 24.6169C14.3285 24.5952 11.6968 27.1886 11.6895 30.3875C11.6798 33.5889 14.2946 36.1944 17.5103 36.1968ZM43.6845 30.3948C43.6748 27.1934 41.0528 24.6048 37.8322 24.6169C34.6261 24.629 32.0284 27.2537 32.0502 30.4623C32.072 33.6154 34.677 36.1895 37.854 36.1968C41.0649 36.204 43.6917 33.5889 43.682 30.3948H43.6845ZM48.0343 17.2975C48.0343 15.1986 48.1119 13.148 48.0149 11.107C47.8938 8.60048 46.006 6.42925 43.5197 5.98294C42.1748 5.74169 40.7765 5.80683 39.3249 5.72963C39.3249 7.15782 39.3249 8.41713 39.3249 9.67644C39.3322 14.6461 42.9744 17.8692 48.0343 17.2975ZM26.2682 81.0737C27.7924 81.0737 29.2367 81.1002 30.681 81.0664C32.9444 81.0158 34.7909 79.2619 34.9484 77.0617C35.1084 74.8302 33.589 72.7554 31.3377 72.4877C29.6826 72.2898 27.9839 72.4491 26.2682 72.4491V81.0737ZM58.0959 49.533C56.7752 50.083 55.7332 51.0094 55.5345 52.4255C55.2849 54.2156 55.3333 56.0442 55.2533 57.8463H64.0378C64.0378 56.2807 64.0912 54.7753 64.0233 53.2771C63.9433 51.5112 62.6614 49.96 61.0935 49.586C60.0927 50.9032 59.2978 50.9008 58.0935 49.5305L58.0959 49.533ZM7.27426 34.7107V26.1006C4.82187 26.144 2.94381 28.0667 2.96562 30.4527C2.98743 32.7928 4.86791 34.6721 7.27426 34.7083V34.7107ZM48.1022 26.1006V34.7107C50.5109 34.6745 52.3914 32.7952 52.4132 30.4551C52.435 28.0716 50.5521 26.1464 48.1022 26.103V26.1006ZM37.8201 52.2663C36.2255 51.8972 34.316 52.2036 33.2109 53.0069C34.7231 54.1504 36.2231 55.2843 37.8201 56.4905V52.2663ZM17.5806 51.9068V56.4109C19.18 55.2168 20.6873 54.0925 22.1921 52.9659L22.1752 52.6451C20.68 52.4062 19.1872 52.165 17.5806 51.9068Z" fill="white"/>
<path d="M27.9534 45.0889C25.7288 45.0889 24.1076 44.452 22.7408 43.1903C21.9993 42.5052 21.9145 41.6801 22.4888 41.036C23.0631 40.3894 23.8701 40.3822 24.6625 41.0167C26.7296 42.6668 28.6367 42.6596 30.7426 40.9974C31.5011 40.3967 32.2717 40.3967 32.8509 40.9926C33.3791 41.5354 33.3743 42.3267 32.7418 43.0263C31.3751 44.5413 29.5721 45.0335 27.9558 45.0914L27.9534 45.0889Z" fill="white"/>
<path d="M20.4093 29.6999C20.3996 30.8868 19.3842 31.8711 18.1944 31.847C17.0021 31.8253 16.0255 30.8024 16.0595 29.6179C16.0934 28.4671 17.0724 27.519 18.2307 27.5166C19.4254 27.5166 20.419 28.5105 20.4093 29.6999Z" fill="white"/>
<path d="M37.1813 31.8466C35.989 31.8683 34.9785 30.884 34.9688 29.6947C34.9615 28.5415 35.9042 27.5621 37.0625 27.5162C38.2548 27.4704 39.2847 28.433 39.3186 29.6199C39.3526 30.8044 38.3735 31.8225 37.1813 31.8442V31.8466Z" fill="white"/>
</g>
<defs>
<clipPath id="clip0_218_2162">
<rect width="66.973" height="84" fill="white"/>
</clipPath>
</defs>
</svg>
