<svg width="48" height="48" viewBox="0 0 48 48" fill="none" xmlns="http://www.w3.org/2000/svg">
<g clip-path="url(#clip0_170_504)">
<path d="M48 24.0028C48 37.2575 37.2588 48.0055 24 48.0055C10.7412 48.0055 0 37.2575 0 24.0028C0 10.748 10.7468 0 24 0C37.2532 0 48 10.748 48 24.0028Z" fill="#FFCE00"/>
<path d="M33.272 33.7079C32.9836 33.7079 32.7008 33.6025 32.4735 33.3918C30.5215 31.5729 27.8653 30.5082 24.9929 30.3973C21.7988 30.2753 18.76 31.3622 16.6472 33.3807C16.1814 33.8299 15.4384 33.8077 14.9892 33.3419C14.54 32.8761 14.5567 32.1275 15.028 31.6838C17.5955 29.2328 21.2664 27.9075 25.0816 28.0517C28.5141 28.1848 31.7082 29.4657 34.0761 31.6727C34.553 32.1164 34.5751 32.8594 34.1371 33.3308C33.9042 33.5803 33.5936 33.7023 33.2775 33.7023L33.272 33.7079Z" fill="#562912"/>
<path d="M39.0443 26.8358C38.9722 26.8358 38.9001 26.8248 38.8225 26.8026L33.7264 25.3164C33.4214 25.2277 33.1996 24.9615 33.1663 24.6399C33.133 24.3238 33.2994 24.0188 33.5878 23.8691C33.5878 23.8691 37.5526 21.8174 38.7393 21.1852C39.122 20.98 39.5933 21.1242 39.7985 21.5068C40.0037 21.8894 39.8595 22.3608 39.4769 22.566C38.8114 22.9209 37.2698 23.7249 36.0443 24.3571L39.2661 25.2998C39.682 25.4218 39.9205 25.8543 39.7985 26.2702C39.6987 26.614 39.3881 26.8358 39.0499 26.8358H39.0443Z" fill="#562912"/>
<path d="M10.2863 26.8358C9.94809 26.8358 9.63755 26.614 9.53774 26.2702C9.41574 25.8543 9.65419 25.4218 10.0701 25.2998L13.2919 24.3571C12.0664 23.7194 10.5248 22.9209 9.85936 22.566C9.47674 22.3608 9.33256 21.8894 9.53774 21.5068C9.74291 21.1242 10.2143 20.98 10.5969 21.1852C11.7836 21.8174 15.7485 23.8691 15.7485 23.8691C16.0313 24.0188 16.1976 24.3238 16.1699 24.6399C16.1366 24.956 15.9148 25.2277 15.6098 25.3164L10.5137 26.8026C10.4416 26.8248 10.3695 26.8358 10.2919 26.8358H10.2863Z" fill="#562912"/>
<path d="M40.1975 18.5002C40.1587 18.5002 40.1199 18.5002 40.0755 18.4891C36.1717 17.8847 34.2142 14.7238 34.131 14.5852C33.9092 14.2137 34.0256 13.7368 34.3916 13.5094C34.7632 13.2821 35.24 13.4041 35.4674 13.7701C35.4951 13.8144 37.1587 16.4484 40.314 16.9364C40.741 17.003 41.0349 17.4022 40.9683 17.8292C40.9073 18.2174 40.5746 18.4946 40.1975 18.4946V18.5002Z" fill="#562912"/>
<path d="M9.12785 18.5008C8.74523 18.5008 8.41251 18.2236 8.35706 17.8354C8.29051 17.4084 8.58441 17.0091 9.0114 16.9426C12.1999 16.4491 13.8358 13.804 13.8524 13.7762C14.0742 13.4047 14.5567 13.2883 14.9282 13.5156C15.2998 13.743 15.4162 14.2199 15.1889 14.5914C15.1057 14.7245 13.1482 17.8908 9.2443 18.4953C9.20549 18.5008 9.16667 18.5064 9.12231 18.5064L9.12785 18.5008Z" fill="#562912"/>
</g>
<defs>
<clipPath id="clip0_170_504">
<rect width="48" height="48" fill="white"/>
</clipPath>
</defs>
</svg>
