<svg width="80" height="72" viewBox="0 0 80 72" fill="none" xmlns="http://www.w3.org/2000/svg">
<path opacity="0.3" d="M24.0547 57.7096C24.8357 57.1282 25.6162 56.5462 26.3972 55.9648C25.6162 56.5462 24.8357 57.1282 24.0547 57.7096Z" fill="white"/>
<path opacity="0.3" d="M21.9102 53.2591C22.1058 52.8716 22.3018 52.4837 22.3018 51.9023L21.9102 53.2591Z" fill="white"/>
<path opacity="0.3" d="M33.422 17.043C33.2263 17.4305 33.2269 18.0115 33.0312 18.5928C33.0312 18.0115 33.2263 17.6243 33.422 17.043Z" fill="white"/>
<path opacity="0.5" d="M57.4182 30.2109C56.8325 30.4047 56.2459 30.4051 55.6602 30.5989C56.2459 30.4051 56.8325 30.4047 57.4182 30.2109Z" fill="white"/>
<path d="M24.4506 42.4311C23.4835 39.3096 21.6436 36.5244 19.1448 34.3994C18.4008 33.854 17.6023 33.2803 16.7495 32.6783C16.3875 32.4289 16.0507 32.1794 15.6712 31.93C15.6561 31.9181 15.6401 31.9073 15.6234 31.8976L14.7463 31.279H14.7287L14.4622 31.0894C14.1154 30.84 13.766 30.5906 13.4343 30.3686C13.2483 30.2364 13.0824 30.1191 12.8989 29.9795L12.1775 29.4332C8.15606 26.5198 5.17263 24.028 3.73746 21.9727L0.889752 30.6205L0.522792 31.7305L0.502685 31.7928L0 33.2894C0 33.2894 0 33.3119 0 33.3194C0.000664107 33.5244 0.0337408 33.7281 0.0980236 33.923C0.698732 35.8686 4.17983 38.9441 11.7427 44.2046C11.8885 44.3044 12.0142 44.3967 12.1574 44.494C12.4289 44.681 12.6853 44.8631 12.9441 45.0477L13.7308 45.6014C18.6974 49.1384 22.1106 51.8822 23.7242 54.1595C23.7561 54.207 23.7905 54.2528 23.8273 54.2967C25.4391 50.5383 25.6599 46.3354 24.4506 42.4311V42.4311Z" fill="white"/>
<path d="M22.9215 56.4724C22.4524 54.6299 19.2419 51.6118 13.2901 47.418C13.2423 47.5601 13.2021 47.6874 13.1544 47.827C10.0654 57.1384 9.17813 61.9749 10.2941 63.4091C10.4716 63.5008 10.6696 63.5463 10.8697 63.5413C13.1946 63.5413 18.1008 60.1415 22.9215 56.4724Z" fill="white"/>
<path d="M15.1047 29.3081C17.0702 28.5125 19.3197 21.8626 20.7574 17.0859H19.3649C9.74102 17.0859 5.0384 17.7719 4.20395 19.3084C3.79677 21.4211 11.048 26.5569 15.1047 29.3081Z" fill="white"/>
<path d="M38.6055 13.3546C39.5757 14.9909 43.1045 18.4256 48.7597 18.4256C50.191 18.4125 51.6136 18.2035 52.9873 17.8045C52.7359 17.0737 52.4972 16.3079 52.2333 15.4923L51.8537 14.3224C49.6444 7.46802 47.0858 0.448979 44.8388 0C42.6672 0.369161 40.0783 8.40838 38.6055 13.3546Z" fill="white"/>
<path d="M51.6367 57.0338C51.5723 57.0184 51.5067 57.0084 51.4407 57.0039C49.1786 57.0039 44.7047 59.9971 39.8789 63.6363C40.0398 63.7486 40.1805 63.8458 40.3414 63.9631C47.4921 69.1638 51.7699 71.5882 53.7982 71.5882C54.0498 71.5906 54.2982 71.5324 54.5221 71.4186C56.0729 69.9046 53.2855 61.6109 51.6367 57.0338Z" fill="white"/>
<path d="M63.1199 47.0013C60.5914 40.0921 59.9831 38.0567 58.9727 34.6918C58.7943 34.0907 58.6988 33.7739 58.4701 33.0605L58.4223 33.1054C55.8713 35.2506 53.9129 38.0053 52.7319 41.1097C51.8641 43.213 51.4283 45.467 51.4501 47.7397C51.4501 47.8369 51.4375 47.9317 51.4375 48.0265C51.4375 48.1213 51.4501 48.236 51.4501 48.3458C51.4501 48.3882 51.4501 48.4281 51.4501 48.4655C51.5171 51.2041 52.1637 53.898 53.3477 56.3725C53.4583 56.6694 53.5689 56.9687 53.6669 57.253C53.8428 57.7644 54.0062 58.2508 54.1696 58.7297C55.8209 63.5612 56.8087 67.2703 56.7785 69.7646L62.4312 65.5517L64.0951 64.317L65.0728 63.5861L66.4024 62.6084C66.4074 62.5981 66.4142 62.5888 66.4225 62.5809C67.9231 61.0145 65.6057 53.8308 63.1199 47.0013Z" fill="white"/>
<path d="M38.4077 51.4141C35.1146 51.4144 31.8894 52.3434 29.108 54.093C28.3657 54.6335 27.5799 55.2221 26.7504 55.859C26.4036 56.1259 26.0718 56.3754 25.7049 56.6597C25.6886 56.6687 25.6741 56.6805 25.6621 56.6946L24.8076 57.3456C24.8076 57.3456 24.8076 57.3456 24.79 57.3456C24.702 57.4155 24.6165 57.4778 24.5386 57.5452L23.5333 58.3085L23.0004 58.7026C22.7616 58.8846 22.5254 59.0593 22.2916 59.2339C18.2978 62.1871 15.0253 64.2924 12.625 65.0481L20.1175 70.2862L21.0802 70.9622L21.1355 70.9996L22.4399 71.9125H22.4726C22.6642 71.9773 22.866 72.0069 23.0683 71.9998C25.1217 71.9998 29.1005 69.6003 36.3894 63.9656L36.7941 63.6588L37.5481 63.0751L38.3021 62.4914C43.1732 58.8123 46.8126 56.3853 49.4793 55.5073C49.5332 55.4902 49.586 55.4703 49.6377 55.4475C46.4906 52.8311 42.5131 51.4026 38.4077 51.4141V51.4141Z" fill="white"/>
<path d="M32.8431 0.143377L31.6266 0.163332L29.9728 0.183286H29.9527C28.2762 0.470134 26.2077 4.95494 23.3776 14.7177C23.3197 14.9023 23.2695 15.0694 23.2217 15.2515C23.1312 15.5608 23.0433 15.8601 22.9503 16.1645C22.8573 16.4688 22.7718 16.783 22.6788 17.0774C20.9194 22.9515 19.4114 27.0796 17.75 29.2996C18.039 29.317 18.3205 29.3395 18.6121 29.342H19.3661C22.9124 29.2427 26.3442 28.0749 29.2058 25.9938C32.0673 23.9128 34.2231 21.0169 35.3867 17.691C35.53 17.237 35.6657 16.7706 35.8039 16.3066C35.9698 15.7529 36.1407 15.2066 36.3066 14.6504C36.314 14.6326 36.3199 14.6143 36.3242 14.5955C36.4348 14.2139 36.5429 13.8622 36.6535 13.493C36.6962 13.3508 36.7364 13.2062 36.7766 13.0665C36.8872 12.7023 36.9978 12.3182 37.1059 11.9665C37.214 11.6148 37.3371 11.2357 37.4502 10.869C37.4904 10.7418 37.5281 10.6196 37.5683 10.4899C39.1242 5.53861 40.5141 2.00913 42.002 0.0136719L32.8431 0.143377Z" fill="white"/>
<path d="M69.5209 17.2284C68.5432 17.1486 67.5781 17.0938 66.6255 17.0938C63.1851 17.1143 59.7668 17.6396 56.4813 18.6527C56.0917 18.7699 55.677 18.8847 55.3176 18.9969L54.4806 19.2713H54.4404C54.3725 19.2962 54.3072 19.3112 54.2393 19.3312C54.0106 19.406 53.7819 19.4684 53.5557 19.5332C51.9971 19.9894 50.3824 20.2286 48.7575 20.2441C46.7706 20.2495 44.8035 19.8522 42.9767 19.0767C42.0624 18.6876 41.19 18.2079 40.3728 17.645C40.1667 17.5028 39.9631 17.3581 39.7695 17.211C39.7779 17.2462 39.783 17.2821 39.7846 17.3182C40.3655 20.5189 41.9789 23.4456 44.3815 25.6572C46.7842 27.8689 49.846 29.2458 53.1058 29.5804C53.6084 29.6302 54.1237 29.6627 54.644 29.6627C55.5668 29.6584 56.4872 29.5699 57.3937 29.3983C58.0145 29.2436 58.6026 29.094 59.1531 28.9767H59.1782C60.8381 28.5846 62.5467 28.4342 64.2503 28.5302C66.168 28.6425 68.4603 29.0665 71.8408 29.8872L79.9994 19.4559C76.6082 18.3026 73.0906 17.5549 69.5209 17.2284V17.2284Z" fill="white"/>
</svg>
