<svg width="72" height="73" viewBox="0 0 72 73" fill="none" xmlns="http://www.w3.org/2000/svg">
<path d="M16.791 32.1085C25.6114 32.1085 32.7617 25.0952 32.7617 16.4439C32.7617 7.79258 25.6114 0.779297 16.791 0.779297C7.97063 0.779297 0.820312 7.79258 0.820312 16.4439C0.820312 25.0952 7.97063 32.1085 16.791 32.1085Z" fill="white"/>
<path d="M56.0293 72.4972C64.8496 72.4972 72 65.4839 72 56.8326C72 48.1813 64.8496 41.168 56.0293 41.168C47.2089 41.168 40.0586 48.1813 40.0586 56.8326C40.0586 65.4839 47.2089 72.4972 56.0293 72.4972Z" fill="white"/>
<path d="M15.9863 71.8409C24.8067 71.8409 31.957 64.8276 31.957 56.1763C31.957 47.525 24.8067 40.5117 15.9863 40.5117C7.16594 40.5117 0.015625 47.525 0.015625 56.1763C0.015625 64.8276 7.16594 71.8409 15.9863 71.8409Z" fill="white"/>
<path d="M0.0139439 56.1742C0.0139439 56.1742 -1.1464 40.5096 17.7028 34.916C17.7028 34.916 9.75893 44.5274 12.4048 50.5024L0.0139439 56.1742Z" fill="white"/>
<path d="M68.8619 25.1536L43.7266 0.5L36.3512 7.73402L61.4865 32.3876L68.8619 25.1536Z" fill="white"/>
</svg>
