<svg width="94" height="73" viewBox="0 0 94 73" fill="none" xmlns="http://www.w3.org/2000/svg">
<path d="M24.8918 8.65892e-07C20.9062 -0.00116606 17.0098 1.17715 13.6952 3.38593C10.3807 5.59471 7.79689 8.73477 6.27059 12.409C4.74429 16.0833 4.34403 20.1267 5.12044 24.0279C5.89684 27.9292 7.81503 31.513 10.6324 34.3264C13.4499 37.1397 17.0399 39.056 20.9487 39.8331C24.8575 40.6103 28.9094 40.2132 32.5921 38.6922C36.2747 37.1711 39.4227 34.5945 41.638 31.288C43.8532 27.9815 45.0362 24.0937 45.0374 20.1163C45.0382 17.4753 44.5177 14.8601 43.5057 12.4199C42.4937 9.97972 41.01 7.76233 39.1393 5.89436C37.2686 4.0264 35.0476 2.54443 32.603 1.53307C30.1584 0.521714 27.5381 0.000775673 24.8918 8.65892e-07ZM24.8918 29.4456C23.0405 29.4456 21.2308 28.8978 19.6915 27.8714C18.1522 26.8449 16.9525 25.386 16.244 23.6792C15.5356 21.9723 15.3502 20.0941 15.7114 18.2821C16.0725 16.4701 16.964 14.8056 18.2731 13.4993C19.5821 12.1929 21.25 11.3032 23.0657 10.9428C24.8814 10.5824 26.7634 10.7673 28.4738 11.4743C30.1842 12.1814 31.6461 13.3786 32.6746 14.9148C33.7031 16.4509 34.2521 18.257 34.2521 20.1045C34.2529 21.3314 34.0113 22.5464 33.5411 23.6801C33.071 24.8138 32.3816 25.8438 31.5122 26.7114C30.6429 27.579 29.6107 28.267 28.4747 28.7362C27.3387 29.2053 26.1212 29.4464 24.8918 29.4456V29.4456Z" fill="white"/>
<path d="M77.7415 32.5866V33.7077C77.6029 35.4337 76.8162 37.0437 75.5389 38.2156C74.2616 39.3875 72.5879 40.0346 70.8529 40.0276C69.2038 40.0325 67.6083 39.4438 66.359 38.3695L62.2199 34.8289C61.2223 32.8699 60.8096 30.6661 61.0308 28.4798C61.252 26.2934 62.0978 24.2165 63.4675 22.496C63.6745 22.2363 63.8933 21.9826 64.1239 21.7406C64.6721 21.1628 65.2784 20.6428 65.9333 20.1887L66.1402 20.0176L66.7315 20.5487L75.3231 27.9071C76.0148 28.49 76.5844 29.2034 76.9994 30.0064C77.4144 30.8094 77.6666 31.6862 77.7415 32.5866Z" fill="white" stroke="#106DC9" stroke-width="2" stroke-linejoin="round"/>
<path d="M70.8633 37.6996C71.3401 37.6996 71.7266 37.3139 71.7266 36.8381C71.7266 36.3623 71.3401 35.9766 70.8633 35.9766C70.3865 35.9766 70 36.3623 70 36.8381C70 37.3139 70.3865 37.6996 70.8633 37.6996Z" fill="#106DC9"/>
<path d="M67.2227 34.0629C67.6995 34.0629 68.086 33.6772 68.086 33.2014C68.086 32.7256 67.6995 32.3398 67.2227 32.3398C66.7459 32.3398 66.3594 32.7256 66.3594 33.2014C66.3594 33.6772 66.7459 34.0629 67.2227 34.0629Z" fill="#106DC9"/>
<path d="M74.5703 33.9965C75.0471 33.9965 75.4336 33.6108 75.4336 33.135C75.4336 32.6592 75.0471 32.2734 74.5703 32.2734C74.0935 32.2734 73.707 32.6592 73.707 33.135C73.707 33.6108 74.0935 33.9965 74.5703 33.9965Z" fill="#106DC9"/>
<path d="M70.9297 30.3696C71.4065 30.3696 71.793 29.9838 71.793 29.508C71.793 29.0322 71.4065 28.6465 70.9297 28.6465C70.4529 28.6465 70.0664 29.0322 70.0664 29.508C70.0664 29.9838 70.4529 30.3696 70.9297 30.3696Z" fill="#106DC9"/>
<path fill-rule="evenodd" clip-rule="evenodd" d="M77.7415 6.35052V7.46581C77.6039 9.27628 76.7535 10.9587 75.3763 12.1452L66.1875 20.0171L65.9806 20.1882C65.3157 20.6388 64.6995 21.1569 64.1416 21.7342C63.911 21.9762 63.6923 22.2299 63.4853 22.4896C62.1155 24.2101 61.2697 26.287 61.0486 28.4734C60.8274 30.6597 61.2401 32.8635 62.2377 34.8225L51.3104 25.4636L51.068 25.2571C51.0306 25.2221 50.9923 25.188 50.9537 25.1538L50.9537 25.1538L50.9537 25.1537L50.9537 25.1537C50.8948 25.1014 50.8355 25.0486 50.7783 24.9916L50.6482 24.8617C50.3283 24.5386 50.0411 24.1848 49.7908 23.8055L49.7198 23.6874C49.6688 23.611 49.6239 23.5316 49.5785 23.4512L49.5784 23.4512C49.5607 23.4199 49.543 23.3885 49.5247 23.357C49.4814 23.2823 49.4695 23.26 49.4577 23.2377L49.4577 23.2377C49.4518 23.2265 49.4459 23.2154 49.436 23.1977L49.3651 23.0443V23.0147L49.3 22.8731C49.2828 22.8268 49.2631 22.7815 49.2409 22.7374C49.2409 22.6894 49.2165 22.6441 49.1915 22.5979C49.1796 22.5759 49.1676 22.5537 49.1581 22.5309C49.145 22.4848 49.1292 22.4394 49.1108 22.3951C49.1108 22.3525 49.0929 22.3124 49.074 22.2699C49.0641 22.2476 49.0539 22.2247 49.0458 22.2004L49.0288 22.1489C49.0149 22.1062 49.0039 22.0725 48.9866 22.0293L48.9571 21.9054L48.9216 21.7815L48.8861 21.6339C48.8656 21.5603 48.8508 21.4894 48.8357 21.4175L48.8357 21.4175C48.8291 21.3857 48.8224 21.3537 48.8152 21.3212C48.7915 21.215 48.756 20.9612 48.7383 20.7842V20.6013V20.4301V20.2531V20.0702V19.8873V19.7102V19.5332C48.7383 19.3227 48.7767 19.1164 48.8136 18.918L48.8136 18.918L48.8136 18.918C48.8202 18.8828 48.8267 18.8479 48.8329 18.8133C48.8509 18.7059 48.8746 18.5995 48.9038 18.4946C48.9148 18.4389 48.9287 18.3838 48.9452 18.3294V18.1996C48.9925 18.0403 49.0458 17.8868 49.099 17.7334C49.1154 17.695 49.1292 17.6556 49.1404 17.6154C49.235 17.3794 49.3414 17.1433 49.4538 16.9132L49.5424 16.7539C49.5607 16.7224 49.5785 16.691 49.5962 16.6596C49.6416 16.5793 49.6865 16.4998 49.7376 16.4234L49.8085 16.3054C50.059 15.9279 50.3461 15.5761 50.6659 15.255L50.796 15.1193L51.0857 14.8597L51.3282 14.6472L66.359 1.67109C67.7508 0.482826 69.5576 -0.10672 71.384 0.0315257C73.2103 0.169771 74.9074 1.02454 76.1036 2.40871C77.0668 3.50859 77.6421 4.89321 77.7415 6.35052ZM70.8655 11.4834C71.3423 11.4834 71.7288 11.0976 71.7288 10.6218C71.7288 10.146 71.3423 9.76028 70.8655 9.76028C70.3887 9.76028 70.0022 10.146 70.0022 10.6218C70.0022 11.0976 70.3887 11.4834 70.8655 11.4834ZM68.0877 6.98386C68.0877 7.45967 67.7012 7.8454 67.2244 7.8454C66.7476 7.8454 66.3611 7.45967 66.3611 6.98386C66.3611 6.50805 66.7476 6.12233 67.2244 6.12233C67.7012 6.12233 68.0877 6.50805 68.0877 6.98386ZM74.5727 7.78314C75.0494 7.78314 75.436 7.39742 75.436 6.92161C75.436 6.44579 75.0494 6.06008 74.5727 6.06008C74.0959 6.06008 73.7094 6.44579 73.7094 6.92161C73.7094 7.39742 74.0959 7.78314 74.5727 7.78314ZM71.7936 3.28659C71.7936 3.76241 71.4071 4.14813 70.9303 4.14813C70.4535 4.14813 70.067 3.76241 70.067 3.28659C70.067 2.81078 70.4535 2.42506 70.9303 2.42506C71.4071 2.42506 71.7936 2.81078 71.7936 3.28659Z" fill="white"/>
<path d="M89.7369 71.6331C92.0919 71.6331 94.0011 69.6371 94.0011 67.1749C94.0011 64.7128 92.0919 62.7168 89.7369 62.7168C87.3818 62.7168 85.4727 64.7128 85.4727 67.1749C85.4727 69.6371 87.3818 71.6331 89.7369 71.6331Z" fill="white"/>
<path d="M3.14735 48.6348H12.0113C13.5082 48.6366 14.9431 49.2263 16.0006 50.2745C17.0581 51.3226 17.6516 52.7432 17.6507 54.2241V56.4232C17.6507 57.1568 17.5047 57.8832 17.2209 58.5609C16.9372 59.2386 16.5212 59.8544 15.9969 60.3731C15.4726 60.8918 14.8502 61.3033 14.1652 61.584C13.4801 61.8647 12.7459 62.0092 12.0044 62.0092H3.54528C2.87023 62.0092 2.22281 61.7439 1.74548 61.2717C1.26815 60.7994 1 60.1589 1 59.4911V50.7626C0.999999 50.1989 1.22612 49.6581 1.62874 49.2592C2.03135 48.8602 2.57752 48.6357 3.14735 48.6348V48.6348Z" fill="white"/>
<path d="M3.39956 56.6367H14.1925C15.8636 56.6367 17.4663 57.2968 18.648 58.4719C19.8297 59.6469 20.4935 61.2406 20.4935 62.9024V65.3666C20.4935 67.0284 19.8297 68.6221 18.648 69.7971C17.4663 70.9722 15.8636 71.6323 14.1925 71.6323H3.83989C3.46695 71.6323 3.09765 71.5592 2.7531 71.4173C2.40855 71.2754 2.0955 71.0674 1.83179 70.8052C1.56808 70.5429 1.35888 70.2316 1.21617 69.889C1.07345 69.5464 1 69.1792 1 68.8083V59.0127C1 58.3825 1.25173 57.7782 1.69981 57.3326C2.1479 56.887 2.75564 56.6367 3.38933 56.6367H3.39956Z" fill="white" stroke="#106DC9"/>
<path d="M56.6043 49.1263L47.8326 64.3579C46.8183 66.1191 47.4268 68.3674 49.1916 69.3796L50.5658 70.1678C52.3306 71.18 54.5836 70.5728 55.5979 68.8115L64.3695 53.58C65.3838 51.8187 64.7754 49.5704 63.0105 48.5582L61.6364 47.77C59.8715 46.7578 57.6186 47.365 56.6043 49.1263Z" fill="white"/>
<path d="M80.0391 70.5748L79.9215 70.6421C78.9178 71.2217 77.7254 71.3784 76.6065 71.0778C75.4875 70.7773 74.5334 70.0441 73.9539 69.0393L71.1164 64.1164C70.9863 63.8906 70.7991 63.703 70.5737 63.5726C70.3482 63.4421 70.0925 63.3735 69.8321 63.3735C69.5718 63.3735 69.316 63.4421 69.0905 63.5726C68.8651 63.703 68.6779 63.8906 68.5478 64.1164L65.7204 69.0225C65.1404 70.0267 64.186 70.7592 63.0671 71.0591C61.9482 71.359 60.7561 71.2018 59.7529 70.6219L59.6352 70.5579C59.138 70.2706 58.7022 69.8879 58.3527 69.4318C58.0032 68.9758 57.7468 68.4552 57.5982 67.8999C57.4496 67.3445 57.4117 66.7653 57.4866 66.1953C57.5615 65.6253 57.7478 65.0756 58.0349 64.5777L65.717 51.2536L66.0364 50.698C66.2104 50.3983 66.4192 50.1203 66.6584 49.8697C66.6786 49.8461 66.7021 49.8259 66.7223 49.8057C66.9735 49.5659 67.2523 49.3568 67.5527 49.1828L67.6704 49.1188C68.2855 48.7627 68.9781 48.5621 69.6882 48.5345C70.3982 48.507 71.1042 48.6532 71.7451 48.9605L71.8829 49.0279L72.0073 49.0986L72.1015 49.1525L72.1284 49.1693C72.7543 49.5494 73.2736 50.0823 73.6379 50.7182L74.0044 51.358L81.6395 64.6013C82.217 65.6062 82.3729 66.7996 82.0729 67.9196C81.7729 69.0395 81.0414 69.9944 80.0391 70.5748V70.5748Z" fill="white" stroke="#106DC9"/>
<path d="M34.0977 48.5313C31.8085 48.5313 29.5708 49.2087 27.6674 50.4779C25.764 51.7471 24.2805 53.551 23.4045 55.6616C22.5284 57.7723 22.2992 60.0947 22.7458 62.3353C23.1924 64.5759 24.2948 66.634 25.9135 68.2494C27.5322 69.8648 29.5945 70.9649 31.8397 71.4106C34.0849 71.8563 36.4121 71.6275 38.527 70.7533C40.6419 69.879 42.4496 68.3986 43.7214 66.4991C44.9932 64.5996 45.672 62.3664 45.672 60.0819C45.6724 58.5649 45.3733 57.0627 44.7918 55.6611C44.2103 54.2595 43.3578 52.986 42.283 51.9134C41.2081 50.8407 39.932 49.9899 38.5275 49.4096C37.1231 48.8293 35.6178 48.5308 34.0977 48.5313ZM34.0977 65.4437C33.0347 65.4424 31.9959 65.1266 31.1127 64.5362C30.2295 63.9459 29.5415 63.1075 29.1356 62.127C28.7297 61.1465 28.6242 60.068 28.8324 59.0276C29.0406 57.9873 29.5532 57.032 30.3054 56.2823C31.0575 55.5327 32.0155 55.0224 33.0581 54.8159C34.1008 54.6094 35.1815 54.7161 36.1634 55.1223C37.1454 55.5286 37.9847 56.2163 38.5751 57.0984C39.1656 57.9806 39.4807 59.0176 39.4807 60.0785C39.4816 60.7839 39.3429 61.4825 39.0726 62.1343C38.8023 62.7861 38.4058 63.3782 37.9056 63.8767C37.4055 64.3751 36.8117 64.7702 36.1582 65.0391C35.5048 65.308 34.8045 65.4455 34.0977 65.4437V65.4437Z" fill="white"/>
</svg>
