<svg width="430" height="15" viewBox="0 0 430 15" fill="none" xmlns="http://www.w3.org/2000/svg">
<path d="M2 4.12727C6.38613 5.83378 11.5682 7.4396 15.5238 9.23295C16.6465 9.74196 18.2366 9.58675 20.053 9.3275C25.4727 8.55397 31.1571 7.44338 35.8095 6.32082C38.6529 5.63477 46.7135 2.8917 51.1195 3.40869C55.7739 3.95483 57.9933 6.50503 59.6676 7.72016C62.2917 9.62465 64.8407 8.81202 69.4915 7.81471C76.9596 6.21322 84.8821 4.51265 93.0943 3.25741C99.3853 2.29584 106.245 7.51662 108.341 8.72239C109.628 9.46334 110.439 11.6619 114.146 10.6512C120.714 8.8598 125.69 6.65364 132.9 5.03495C138.175 3.85084 141.841 2.85197 145.659 4.7513C149.271 6.54886 152.309 8.4468 155.865 10.2541C159.412 12.0565 194.628 3.80615 200.392 3.06831C209.884 1.85327 213.558 6.23972 215.702 8.09836C216.168 8.50289 221.095 13.1547 221.507 12.996C226.164 11.2013 230.064 9.26767 235.222 7.56888C238.988 6.32853 247.845 3.67329 254.359 3.78689C259.628 3.87877 271.95 11.1062 273.688 10.6701C277.76 9.64892 311.567 0.418996 316.365 2.23627C319.99 3.60959 323.085 6.45017 325.04 8.13618C326.871 9.71479 328.403 8.08368 331.802 7.19068C336.265 6.0186 342.192 4.47674 348.005 3.93817C351.341 3.62914 355.201 7.11275 356.107 7.81471C359.072 10.1138 366.337 7.70724 371.098 6.8503C373.923 6.34178 390.447 3.12579 393.999 4.25964C396.032 4.90877 396.331 11.0752 399.804 10.1028C405.164 8.60217 411.443 7.59323 417.474 6.35864C420.882 5.66121 423.943 4.7683 428 4.46765" stroke="#FFF500" stroke-width="3" stroke-linecap="round" stroke-linejoin="round"/>
</svg>
