<svg width="328" height="10" viewBox="0 0 328 10" fill="none" xmlns="http://www.w3.org/2000/svg">
<path d="M2 3.16033C5.33593 4.09115 9.27722 4.96705 12.2857 5.94525C13.1396 6.22289 14.349 6.13823 15.7305 5.99682C19.8525 5.57489 24.1758 4.96912 27.7143 4.35681C29.8769 3.9826 36.0075 2.48638 39.3585 2.76838C42.8985 3.06627 44.5864 4.45729 45.8598 5.12009C47.8557 6.1589 49.7943 5.71565 53.3315 5.17166C59.0116 4.29812 65.0371 3.37053 71.283 2.68586C76.0677 2.16137 81.285 5.00907 82.8787 5.66676C83.8581 6.07092 84.4751 7.27014 87.2938 6.71884C92.2897 5.74171 96.0737 4.53835 101.558 3.65543C105.57 3.00955 108.358 2.46471 111.261 3.50071C114.009 4.48119 116.319 5.51644 119.024 6.50223C121.722 7.48537 148.506 2.98517 152.889 2.58272C160.109 1.91997 162.903 4.31258 164.534 5.32638C164.889 5.54703 168.636 8.0844 168.949 7.99784C172.491 7.01887 175.457 5.96418 179.38 5.03757C182.244 4.36101 188.98 2.9127 193.935 2.97467C197.943 3.02478 207.314 6.967 208.636 6.72915C211.733 6.17214 237.445 1.13763 241.094 2.12888C243.852 2.87796 246.206 4.42736 247.693 5.34701C249.085 6.20807 250.25 5.31837 252.836 4.83128C256.229 4.19196 260.737 3.35095 265.159 3.05718C267.696 2.88862 270.632 4.78877 271.321 5.17166C273.576 6.42572 279.101 5.11304 282.722 4.64562C284.871 4.36824 297.439 2.61407 300.14 3.23253C301.687 3.5866 301.914 6.95013 304.555 6.41972C308.632 5.60118 313.407 5.05085 317.995 4.37744C320.586 3.99702 322.914 3.50998 326 3.34599" stroke="#FFF500" stroke-width="3" stroke-linecap="round" stroke-linejoin="round"/>
</svg>
