<svg width="182" height="6" viewBox="0 0 182 6" fill="none" xmlns="http://www.w3.org/2000/svg">
<path d="M1 1.77355C2.85329 2.3941 5.0429 2.97804 6.71429 3.63017C7.18867 3.81526 7.86055 3.75882 8.62803 3.66455C10.918 3.38326 13.3199 2.97941 15.2857 2.57121C16.4871 2.32173 19.893 1.32426 21.7547 1.51225C23.7214 1.71085 24.6591 2.63819 25.3666 3.08006C26.4754 3.7726 27.5524 3.4771 29.5175 3.11444C32.6731 2.53208 36.0206 1.91369 39.4906 1.45724C42.1487 1.10758 45.0472 3.00604 45.9326 3.4445C46.4767 3.71394 46.8195 4.51342 48.3854 4.14589C51.1609 3.49447 53.2632 2.69223 56.31 2.10362C58.5388 1.67303 60.088 1.30981 61.7008 2.00047C63.2272 2.65413 64.5108 3.34429 66.0135 4.00149C67.5122 4.65691 82.392 1.65678 84.8275 1.38848C88.8382 0.946644 90.3906 2.54172 91.2965 3.21758C91.4937 3.36469 93.5753 5.05627 93.7493 4.99856C95.7172 4.34591 97.3652 3.64279 99.5445 3.02505C101.136 2.57401 104.878 1.60847 107.631 1.64978C109.857 1.68319 115.063 4.31133 115.798 4.15277C117.518 3.78142 131.803 0.42509 133.83 1.08592C135.362 1.58531 136.67 2.61824 137.496 3.23134C138.269 3.80538 138.917 3.21225 140.353 2.88752C142.239 2.46131 144.743 1.90063 147.199 1.70479C148.609 1.59241 150.24 2.85918 150.623 3.11444C151.876 3.95048 154.945 3.07536 156.957 2.76375C158.151 2.57883 165.133 1.40938 166.633 1.82169C167.493 2.05774 167.619 4.30009 169.086 3.94648C171.351 3.40079 174.004 3.0339 176.553 2.58496C177.992 2.33135 179.286 2.00665 181 1.89733" stroke="#FFF500" stroke-width="2" stroke-linecap="round" stroke-linejoin="round"/>
</svg>
