<svg width="24" height="25" viewBox="0 0 24 25" fill="none" xmlns="http://www.w3.org/2000/svg">
<rect y="0.5" width="24" height="24" rx="12" fill="#0F6DCA"/>
<path d="M15.496 12.3541C15.868 12.4501 16.222 12.6481 16.558 12.9481C16.906 13.2361 17.188 13.6021 17.404 14.0461C17.632 14.4901 17.746 14.9821 17.746 15.5221C17.746 16.8421 17.272 17.8801 16.324 18.6361C15.388 19.3801 13.996 19.7521 12.148 19.7521C11.272 19.7521 10.396 19.6561 9.52 19.4641C8.644 19.2601 7.864 19.0141 7.18 18.7261V14.8921C7.924 15.2161 8.692 15.4801 9.484 15.6841C10.288 15.8881 11.05 15.9901 11.77 15.9901C12.274 15.9901 12.64 15.9121 12.868 15.7561C13.108 15.6001 13.228 15.3421 13.228 14.9821C13.228 14.2861 12.808 13.9381 11.968 13.9381H10.672V10.9861H11.68C12.472 10.9861 12.868 10.6501 12.868 9.97814C12.868 9.33014 12.472 9.00614 11.68 9.00614C11.104 9.00614 10.504 9.14414 9.88 9.42014C9.256 9.68414 8.65 10.0321 8.062 10.4641L7 6.63014C7.732 6.24614 8.566 5.92214 9.502 5.65814C10.438 5.38214 11.38 5.24414 12.328 5.24414C13.984 5.24414 15.256 5.59214 16.144 6.28814C17.032 6.98414 17.476 7.96814 17.476 9.24014C17.476 10.0321 17.29 10.6861 16.918 11.2021C16.546 11.7061 16.072 12.0901 15.496 12.3541Z" fill="white"/>
</svg>
